<?xml version="1.0" encoding="utf-8"?>
<!-- Generator: Adobe Illustrator 27.9.0, SVG Export Plug-In . SVG Version: 6.00 Build 0)  -->
<svg version="1.1" id="Capa_1" xmlns="http://www.w3.org/2000/svg" xmlns:xlink="http://www.w3.org/1999/xlink" x="0px" y="0px"
	 viewBox="0 0 1080 1080" style="enable-background:new 0 0 1080 1080;" xml:space="preserve">
<style type="text/css">
	.st0{opacity:0.6;fill:url(#SVGID_1_);}
	.st1{opacity:0.86;fill:url(#SVGID_00000020384701171294100440000001829459104868930956_);}
	.st2{opacity:0.86;fill:url(#SVGID_00000076577724566811677220000012955703814913113020_);}
	.st3{opacity:0.86;fill:url(#SVGID_00000029733301471426174150000009017080095636142734_);}
	.st4{opacity:0.7;fill:url(#SVGID_00000073719683311690061640000000965219473166854330_);}
	.st5{opacity:0.6;fill:url(#SVGID_00000061462151016644423440000007290995717541106074_);}
	.st6{opacity:0.6;fill:url(#SVGID_00000155128247223586627470000009963704235814035359_);}
	.st7{fill:#452780;}
	.st8{fill:url(#SVGID_00000163779047542192467530000005832883369589035693_);}
</style>
<g>
	<linearGradient id="SVGID_1_" gradientUnits="userSpaceOnUse" x1="365.9431" y1="979.0635" x2="993.5673" y2="351.4393">
		<stop  offset="0" style="stop-color:#2E6DB3"/>
		<stop  offset="1" style="stop-color:#442C84"/>
	</linearGradient>
	<path class="st0" d="M635.8,170.6c-0.3,0-0.7,0-1,0c157.2,44.3,273,194.6,273,373.2c0,213.4-165.2,386.5-369,386.5
		c-144.1,0-269-86.6-329.7-212.8C251.7,920.2,426.6,1072,635.8,1072c241.2,0,436.8-201.8,436.8-450.7S877,170.6,635.8,170.6z"/>
	
		<linearGradient id="SVGID_00000049910706871529584460000000113960408584408465_" gradientUnits="userSpaceOnUse" x1="1579.1635" y1="943.1568" x2="1636.8525" y2="943.1568" gradientTransform="matrix(1 0 0 -1 -628.3874 990.8904)">
		<stop  offset="0" style="stop-color:#2E6DB3;stop-opacity:0.7"/>
		<stop  offset="1" style="stop-color:#442C84;stop-opacity:0.7"/>
	</linearGradient>
	
		<ellipse style="opacity:0.86;fill:url(#SVGID_00000049910706871529584460000000113960408584408465_);" cx="979.6" cy="47.7" rx="28.8" ry="30.2"/>
	
		<linearGradient id="SVGID_00000034787307595246545020000003946161645368556465_" gradientUnits="userSpaceOnUse" x1="1360.3114" y1="886.6381" x2="1536.1256" y2="886.6381" gradientTransform="matrix(1 0 0 -1 -628.3874 990.8904)">
		<stop  offset="0" style="stop-color:#2E6DB3;stop-opacity:0.7"/>
		<stop  offset="1" style="stop-color:#442C84;stop-opacity:0.7"/>
	</linearGradient>
	
		<ellipse style="opacity:0.86;fill:url(#SVGID_00000034787307595246545020000003946161645368556465_);" cx="819.8" cy="104.3" rx="87.9" ry="89"/>
	
		<linearGradient id="SVGID_00000132788618566284487790000014535049467451430819_" gradientUnits="userSpaceOnUse" x1="663.0065" y1="44.8764" x2="720.6955" y2="44.8764" gradientTransform="matrix(1 0 0 -1 -628.3874 990.8904)">
		<stop  offset="0" style="stop-color:#2E6DB3;stop-opacity:0.7"/>
		<stop  offset="1" style="stop-color:#442C84;stop-opacity:0.7"/>
	</linearGradient>
	
		<ellipse style="opacity:0.86;fill:url(#SVGID_00000132788618566284487790000014535049467451430819_);" cx="63.5" cy="946" rx="28.8" ry="30.2"/>
	
		<linearGradient id="SVGID_00000161591223668295390520000010349568429672357291_" gradientUnits="userSpaceOnUse" x1="180.0135" y1="605.8564" x2="922.4521" y2="605.8564">
		<stop  offset="0" style="stop-color:#2E6DB3;stop-opacity:0.7"/>
		<stop  offset="1" style="stop-color:#442C84;stop-opacity:0.7"/>
	</linearGradient>
	<path style="opacity:0.7;fill:url(#SVGID_00000161591223668295390520000010349568429672357291_);" d="M872.1,363.3
		c-20.7-37-46.5-69.2-75.9-96.1c68,70.1,110.2,167.6,110.2,275.4c0,213.4-165.2,386.5-369,386.5C365.5,929.1,221,806,180,639.4
		c8.1,38.2,21.9,75.7,41.8,111.4C325.5,936,555.1,999.5,734.7,892.5S975.8,548.6,872.1,363.3z"/>
	
		<linearGradient id="SVGID_00000041997744978478832230000004571018405011855247_" gradientUnits="userSpaceOnUse" x1="952.9495" y1="236.5698" x2="190.2336" y2="676.924">
		<stop  offset="0" style="stop-color:#2F6EB4"/>
		<stop  offset="1" style="stop-color:#442C84"/>
	</linearGradient>
	<path style="opacity:0.6;fill:url(#SVGID_00000041997744978478832230000004571018405011855247_);" d="M571.6,6.1
		c-241.2,0-436.8,201.8-436.8,450.7c0,81.9,21.2,158.7,58.2,225c-15.9-43.2-24.6-90-24.6-139.1c0-213.4,165.2-386.5,369-386.5
		s369,173,369,386.5c0,148.3-79.7,277-196.8,341.8c173.6-59.6,298.7-228.6,298.7-427.7C1008.4,207.8,812.8,6.1,571.6,6.1z"/>
	
		<linearGradient id="SVGID_00000099640989043122151660000007469966926542770076_" gradientUnits="userSpaceOnUse" x1="729.5735" y1="880.9994" x2="157.3418" y2="199.0402">
		<stop  offset="0" style="stop-color:#2E6DB3"/>
		<stop  offset="1" style="stop-color:#442C84"/>
	</linearGradient>
	<path style="opacity:0.6;fill:url(#SVGID_00000099640989043122151660000007469966926542770076_);" d="M537.4,929.1
		c-203.8,0-369-173-369-386.5s165.2-386.5,369-386.5c91.3,0,174.9,34.8,239.3,92.3c-31.6-38.5-70.1-72.1-114.9-98.8
		C453,25.2,185.8,99.1,65.2,314.7s-49,491.2,159.9,615.7c178.1,106.1,398.5,68,534.4-79C697.7,900.1,620.8,929.1,537.4,929.1z"/>
	<g>
		<path class="st7" d="M275.1,652v-23.2h2.2l10.7,17l10.7-17h2.2V652h-2.2v-19.2c-3.4,5.3-6.7,10.7-10.1,15.9h-1.2
			c-3.3-5.3-6.7-10.6-10.1-15.9V652H275.1z"/>
		<path class="st7" d="M319.9,652l-7.2-17.9l-7.2,17.9h-2.3l8.3-20.8h2.2l8.3,20.8H319.9z"/>
		<path class="st7" d="M324.4,652v-20.9h2.2l16.2,17.8v-17.8h2.1V652h-2.1l-16.2-17.9V652H324.4z"/>
		<path class="st7" d="M363.6,652l-7.2-17.9l-7.2,17.9h-2.3l8.3-20.8h2.2l8.3,20.8H363.6z"/>
		<path class="st7" d="M388.5,633.7l-1.7,1.2c-1.7-1.3-4-2-6.5-2c-2.8,0-5.3,1-7.1,2.5c-1.8,1.6-3,3.8-3,6.2c0,2.4,1.2,4.6,3,6.2
			c1.8,1.6,4.3,2.6,7.1,2.6c2.3,0,4.3-0.7,6-1.7v-8.2h-10.8v-1.8h13v10.9c-2.2,1.7-5.1,2.7-8.2,2.7c-3.4,0-6.4-1.1-8.7-3.1
			c-2.2-1.9-3.6-4.6-3.6-7.5c0-3,1.4-5.6,3.6-7.5c2.2-1.9,5.3-3.1,8.7-3.1C383.4,631,386.3,632,388.5,633.7z"/>
		<path class="st7" d="M409.1,633.1h-17.6v-1.9h17.6V633.1z M409.1,652h-17.6v-12.8h2.1v1.4h12.5v1.8h-12.5v7.6h15.4V652z"/>
		<path class="st7" d="M411.6,652v-20.9h2.2l10.7,15.3l10.7-15.3h2.2V652h-2.2v-17.3c-3.4,4.8-6.7,9.6-10.1,14.3h-1.2
			c-3.3-4.7-6.7-9.6-10.1-14.3V652H411.6z"/>
		<path class="st7" d="M457.9,633.1h-17.6v-1.9h17.6V633.1z M457.9,652h-17.6v-12.8h2.1v1.4h12.5v1.8h-12.5v7.6h15.4V652z"/>
		<path class="st7" d="M460.5,652v-20.9h2.2l16.2,17.8v-17.8h2.1V652h-2.1l-16.2-17.9V652H460.5z"/>
		<path class="st7" d="M491.2,652v-18.9h-7.9v-1.9h17.9v1.9h-7.9V652H491.2z"/>
		<path class="st7" d="M544.7,652.8c-1.3-1.4-2.8-2.8-4.1-4.2c-1.4,1.6-3,2.8-4.9,3.4c-5.1,1.6-11-1.4-10.6-6.6
			c0.3-3.3,3.1-5.3,6-6.6c-1.6-1.9-3.1-3.4-2.8-6.1c0.4-3.1,3.8-4.8,7-4.4c2.4,0.3,4.2,1.6,4.8,3.5c1.2,3.6-2.2,6.1-5.4,7.6
			c1.7,1.8,3.7,3.9,5.6,5.9c1.1-1.7,1.9-3.6,2.5-5.2l2,0.7c-0.7,1.9-1.7,4.1-3,6.1c1.5,1.4,3,3,4.5,4.5L544.7,652.8z M532.6,640.4
			c-2.3,1-5,2.5-5.2,5.2c-0.3,3.7,4.1,5.7,7.7,4.6c1.6-0.6,2.9-1.7,4-3C536.9,644.9,534.6,642.4,532.6,640.4z M538,632.4
			c-0.4-1.2-1.5-2-2.9-2.2c-1.9-0.2-4.3,0.7-4.6,2.7c-0.3,1.9,1.5,3.5,2.8,4.9C535.3,636.9,539.1,635.1,538,632.4z"/>
		<path class="st7" d="M570,652v-20.8h2.2V652H570z"/>
		<path class="st7" d="M574.8,652v-20.9h2.2l16.2,17.8v-17.8h2.1V652h-2.1L577,634.2V652H574.8z"/>
		<path class="st7" d="M605.5,652v-18.9h-7.9v-1.9h17.9v1.9h-7.9V652H605.5z"/>
		<path class="st7" d="M635.7,633.1h-17.6v-1.9h17.6V633.1z M635.7,652h-17.6v-12.8h2.1v1.4h12.5v1.8h-12.5v7.6h15.4V652z"/>
		<path class="st7" d="M638.5,652c0-3.2,0-6.3,0-9.6h2.1v1.4h6.9c3.4,0,6.2-2.4,6.2-5.4c0-3-2.8-5.4-6.2-5.4h-9v-1.9h9
			c4.6,0,8.4,3.2,8.4,7.2c0,2.7-1.8,5.2-4.4,6.5c1.2,0.8,1.9,1.9,2.5,3.1c0.8,1.8,1.8,3.6,2,4h-2.3c-0.5-0.8-1.2-2.2-1.7-3.3
			c-0.9-1.9-1.8-3-4.4-3h-6.9v6.3H638.5z"/>
		<path class="st7" d="M658.4,652v-20.9h2.2l10.7,15.3l10.7-15.3h2.2V652h-2.2v-17.3c-3.4,4.8-6.7,9.6-10.1,14.3h-1.2
			c-3.3-4.7-6.7-9.6-10.1-14.3V652H658.4z"/>
		<path class="st7" d="M704.7,633.1h-17.6v-1.9h17.6V633.1z M704.7,652h-17.6v-12.8h2.1v1.4h12.5v1.8h-12.5v7.6h15.4V652z"/>
		<path class="st7" d="M716.6,631.1c14.5,0,14.5,20.9,0,20.9h-9.5v-12.9h2.2v10.9h7.4c11.6,0,11.6-17.1,0-17.1h-9.5v-1.9H716.6z"/>
		<path class="st7" d="M729.9,652v-20.8h2.2V652H729.9z"/>
		<path class="st7" d="M751,652l-7.2-17.9l-7.2,17.9h-2.3l8.3-20.8h2.2l8.3,20.8H751z"/>
		<path class="st7" d="M760.5,652v-18.9h-7.9v-1.9h17.9v1.9h-7.9V652H760.5z"/>
		<path class="st7" d="M773,652v-20.8h2.2V652H773z"/>
		<path class="st7" d="M798.6,634.1c2.2,1.9,3.6,4.5,3.6,7.5c0,2.9-1.4,5.5-3.6,7.5c-2.2,1.9-5.3,3.1-8.7,3.1
			c-3.4,0-6.4-1.1-8.6-3.1c-2.2-1.9-3.6-4.6-3.6-7.5c0-3,1.4-5.6,3.6-7.5c2.2-1.9,5.3-3.1,8.6-3.1
			C793.3,631,796.4,632.2,798.6,634.1z M789.9,632.9c-2.8,0-5.3,1-7.1,2.5c-1.8,1.6-2.9,3.8-2.9,6.2c0,2.4,1.1,4.6,2.9,6.2
			c1.8,1.6,4.3,2.6,7.1,2.6c2.8,0,5.3-1,7.2-2.6c1.8-1.6,2.9-3.8,2.9-6.2c0-2.4-1.1-4.7-2.9-6.2
			C795.3,633.9,792.8,632.9,789.9,632.9z"/>
		<path class="st7" d="M804.7,652v-20.9h2.2l16.2,17.8v-17.8h2.1V652h-2.1l-16.2-17.9V652H804.7z"/>
	</g>
	<g>
	</g>
	<g>
		<g>
			
				<linearGradient id="SVGID_00000173860966073037646300000008800271650396743047_" gradientUnits="userSpaceOnUse" x1="184.9497" y1="529.854" x2="914.084" y2="529.854">
				<stop  offset="0" style="stop-color:#29337B"/>
				<stop  offset="0.1455" style="stop-color:#29367E"/>
				<stop  offset="0.2431" style="stop-color:#2A3F87"/>
				<stop  offset="0.3267" style="stop-color:#2B4E96"/>
				<stop  offset="0.4019" style="stop-color:#2C63AB"/>
				<stop  offset="0.4162" style="stop-color:#2C68B0"/>
				<stop  offset="0.5056" style="stop-color:#2A70B6"/>
				<stop  offset="0.6006" style="stop-color:#2E6BB2"/>
				<stop  offset="0.651" style="stop-color:#325EA9"/>
				<stop  offset="0.793" style="stop-color:#3D4093"/>
				<stop  offset="0.9143" style="stop-color:#442E85"/>
				<stop  offset="1" style="stop-color:#462780"/>
			</linearGradient>
			<path style="fill:url(#SVGID_00000173860966073037646300000008800271650396743047_);" d="M336.3,487.2c0.6-1,0.4-2-0.3-2.6
				c-0.8-0.6-1.7-0.5-2.7,0.3c-0.7,0.7-1.3,1.4-2,2.2c-2.3,2.7-4.2,5.6-6.7,8.2c-8.1,8-16,16.2-23.8,24.5
				c-4.9,5.3-9.7,10.5-14.4,15.9c-1.7,1.9-3.3,3.7-5,5.6c-0.3-0.3-0.3-0.4-0.2-0.6c2.3-5.4,4.7-10.8,7.1-16.2
				c6.3-13.7,13-27.1,19.6-40.7c0.9-1.8,1.7-3.6,2.4-5.5c0.3-0.9,0.3-1.6-0.4-2.2c-0.8-0.6-1.7-0.5-2.4-0.1c-0.8,0.4-1.5,1-2,1.7
				c-1.8,2-3.6,4.1-5.3,6.2c-5.8,7.5-12.1,14.7-18.4,21.9c-4.2,4.6-8.3,9.2-12.6,13.6c-2.5,2.7-5.1,5.3-7.8,7.9
				c-0.9,0.9-1,0.8-1.9-0.1c-1.7-1.5-3.4-3.1-5-4.7c-3.5-3.6-7-7-10.9-10.1c-3.8-3.2-7.8-6.1-12.3-8.2c-6.1-2.8-12.3-3.7-18.7-1.5
				c-11.1,3.6-19.1,10.6-24.2,20.8c-2.3,4.7-3.6,9.6-3.1,14.9c0.3,4.9,2,9.2,5.6,12.8c4.6,4.6,10.3,6.5,16.8,6.8
				c5.6,0.3,11.1-1,16.5-2.9c8.4-2.9,16.2-7.1,23.5-12.2c4.7-3.4,9.2-7.1,13.6-10.9c0.8-0.8,0.9-0.8,1.8,0c1,0.8,2.2,1.5,3.4,2.1
				c0.6,0.3,1.2,0.5,1.8,0.4c0.3,0,0.5,0,0.6-0.3c0.1-0.3-0.2-0.4-0.4-0.5c-1.4-0.3-2.4-1.1-3.6-1.9c-1.9-1.3-1.9-1.4-0.3-2.9
				c6.7-6.1,13.2-12.4,19.3-19.1c6.5-7.1,12.9-14.5,18.9-22c0.5-0.7,1.1-1.4,1.7-2c0.1,0.7-0.1,1.2-0.3,1.7
				c-2.2,5.5-4.7,10.9-7.4,16.2c-4,8.2-8,16.4-11.6,24.7c-2.1,4.8-4.1,9.5-6.2,14.3c-0.3,0.6-0.5,1.2-0.5,1.9c0,0.7,0.3,0.9,1,0.6
				c0.9-0.5,1.5-1.1,2.2-1.8c3.1-3,6-6.2,8.9-9.4c6.3-7.2,12.8-14.4,19.4-21.3c3.7-3.8,7.5-7.7,11.2-11.5c0.2-0.2,0.3-0.6,0.8-0.4
				c-1.5,2.6-3,5.2-4.3,7.7c-4.4,8.3-8.2,16.8-14.8,33.8c-1.1,2.7-2.1,5.4-2.7,8.3c-0.2,0.9-0.3,1.7-0.3,2.6c0.1,0.5,0.2,1,0.5,1.4
				c0.3,0.3,0.6,0.4,1,0.3s0.4-0.5,0.3-0.9c-0.4-0.8-0.3-1.6-0.1-2.5c0.3-1,0.5-2,0.9-3.1c2.6-7.4,9.3-22.4,13-29.3
				c5-9.2,11-17.8,17-26.3C333.7,491.2,335.1,489.2,336.3,487.2z M258.5,530.2c-5,4.5-10.1,8.8-15.6,12.7
				c-6.7,4.7-13.8,8.5-21.6,11.1c-4.2,1.4-8.5,2.4-13.2,2.3c-3.8,0.1-7.6-0.7-11.2-2.6c-5.9-3.1-9.3-8-9.9-14.6
				c-0.8-7.6,1.7-14.2,6-20.3c4.8-6.9,11.3-11.8,19.4-14.5c6.5-2.1,12.8-1.3,18.8,1.7c4.3,2,8.1,4.8,11.6,7.9
				c4.1,3.4,7.9,7.1,11.7,10.8c1.3,1.3,2.7,2.5,4,3.7C259.5,529.2,259.5,529.2,258.5,530.2z M511.8,546.9c-1.6-0.6-3.2-0.9-5-0.9
				c-4.3-0.2-8.7,0.2-13,0.8c-1.4,0.2-1.5,0-1.3-1.4c0.2-1.3,0.4-2.6,0.3-3.9c-0.2-3.2-1.9-5.4-5-6.4c-1.6-0.4-3.1-0.7-5-0.2
				c0.4-0.7,0.9-0.8,1.2-0.9c3-1.4,6-2.6,9-3.9c2-0.9,3.9-1.7,5.7-3c0.8-0.5,1.5-1.1,2-1.9c1.3-2,0.9-4-1.2-5.1
				c-1.1-0.6-2.3-0.9-3.7-1c-2.1-0.3-4.1-0.2-6.2,0.1c-3.1,0.3-6.2,1.1-9,2.6c-1,0.6-1.9,1.3-2.6,2.2c-1,1.4-0.6,3.5,0.4,5
				c0,0-0.1,0-0.1,0.1c-2.4,1.2-4.8,2.4-7.2,3.6c-2.7,1.4-5.4,2.5-8.3,3.3c-2.3,0.7-4.8,0.9-7.3,0.9c-0.7-0.1-1.4-0.3-2.1-0.5
				c-1.7-0.9-2.4-2.3-1.9-4.1c0.3-0.9,0.7-1.6,1.2-2.4c0.5-0.9,0.6-0.9,1.4-0.2c1.7,1.5,3.8,2.1,6,1.6c2.8-0.6,5-2,6.6-4.4
				c1.7-2.6,0.9-5.5-1.9-6.9c-1.7-0.9-3.7-1-5.5-0.3c-4.3,1.5-7.6,4.3-9.6,8.2c-0.2,0.4-0.3,0.7-0.5,1.1c0,0-0.1,0.1-0.1,0.1
				c-1.6,1.6-3.1,3.1-4.8,4.7c-1.7,1.7-3.6,3.2-5.6,4.5c-1.3,0.8-2.6,1.4-4.1,1.5c-1.5,0.2-2.3-0.6-2.4-2c-0.1-1.2,0.4-2.3,1-3.3
				c1-1.6,2-3.1,3.1-4.7c0.9-1.2,1.7-2.5,2.3-3.8c0.3-0.8,0.6-1.6,0.7-2.5c0.3-2.1-1.2-3.7-3.3-3.6c-1,0.1-1.7,0.4-2.5,0.9
				c-1.7,1-3.2,2.3-4.6,3.7c-2.6,2.5-5.2,4.9-7.6,7.7c1.6-2.6,3.2-5.1,4.9-7.7c0.3-0.5,0.7-1.1,1-1.8c0.6-1.4,0.4-2.5-0.5-3
				c-1-0.7-2.1-0.3-3,1c-0.8,1-1.6,2.2-2.3,3.3c-1.3,1.9-2.5,3.9-3.4,6c-4.1,4-8,8.1-12.5,11.9c-1.6,1.4-3.2,2.6-5.1,3.5
				c-1,0.4-2.1,0.9-3,0.1c-1-0.8-0.8-1.9-0.5-3c0.6-3,2.2-5.4,3.9-7.8c2.4-3.5,5-6.9,7.5-10.4c0.3-0.4,0.7-0.9,1-1.4
				c0.4-0.9,0.2-2-0.7-2.6c-0.7-0.5-1.6-0.5-2.4,0.1c-0.4,0.3-0.8,0.8-1,1.1c-1.2,1.5-2.3,3.1-3.5,4.7c-3,4.2-5.3,8.8-6.4,13.8
				c-0.3,1.5-0.4,3.1,0,4.8c0.4,1.5,1.4,2.2,3,2.2c1.4,0,2.6-0.5,3.7-1.2c2.3-1.3,4.4-3.1,6.3-4.9c3.1-2.9,6.2-6,9.2-9.2
				c-0.4,1.6-0.6,3.2-0.2,4.9c0.3,1.2,1,1.4,2,0.5c0.6-0.7,1.2-1.4,1.7-2.1c2.8-3.7,5.8-7.2,9.3-10.3c1.1-1,2.3-2,3.7-2.6
				c0.4-0.2,1.1-0.7,1.6-0.2c0.5,0.5-0.1,1-0.3,1.4c-1,1.9-2.1,3.7-3,5.6c-1.1,2.3-1.9,4.7-1.8,7.2c0.2,3.9,2.6,5.4,6.3,4.2
				c1.9-0.7,3.6-1.9,5.1-3.1c1.9-1.5,3.7-3.3,5.6-5c0.6-0.5,1.1-1,1.6-1.6c-0.1,0.5-0.1,1.1-0.1,1.6c0.1,2.6,1.6,4.6,4.1,5.4
				c0.9,0.3,1.7,0.4,2.7,0.4c3,0.1,5.9-0.6,8.8-1.6c5.1-1.9,9.9-4.4,14.7-7c0.5,0.6,1.1,1,1.8,1.1c0.2,0,0.3,0,0.3,0
				c0.3,0,0.4,0,0.5-0.2c0.2-0.3,0.1-0.4,0-0.6c-0.3-0.3-0.7-0.7-1-1c-2.1-2.4-1.8-3.7,1.1-4.8c4.3-1.7,8.7-2,13.2-1.6
				c0.4,0.1,0.9,0.2,1.4,0.3c0.9,0.3,1,0.6,0.3,1.2c-0.9,0.9-1.9,1.4-3,2.1c-3.5,2-7,4.1-10.5,6.2c-1,0.7-2.1,1.4-3.1,2
				c-0.5,0.3-1,0.8-1.4,1.3c-0.3,0.4-0.7,0.9-0.3,1.4s0.9,0.3,1.3,0.2c0.6-0.2,1.2-0.4,1.8-0.6c1.8-0.4,3.7-0.5,5.5,0.1
				c2.3,0.7,3.3,2.1,3.1,4.5c-0.1,1.9-0.6,3.7-1.1,5.4c-0.3,0.9-0.9,1.1-1.7,1.3c-6.4,1.4-12.6,3.2-18.8,5.5
				c-9.5,3.6-18.3,8.3-26.3,14.6c-3.7,3-7,6.2-9.6,10.1c-1.3,2-2.3,4.3-2.6,6.6c-0.5,3.8,1.3,6.5,5.1,7.4c2.5,0.7,5.1,0.4,7.6-0.2
				c6.1-1.4,11.6-4,16.8-7.2c7.4-4.6,13.7-10.3,19.6-16.6c5.3-5.7,10.1-11.8,12.7-19.3c0.3-0.7,0.8-1,1.5-1.2
				c4.8-0.6,9.6-1.1,14.5-0.9c1.1,0.1,2.3,0.3,3.4,0.6c0.9,0.3,1.6,0.8,2,1.6c0.1,0.3,0.1,0.5,0.4,0.5c0.3-0.2,0.3-0.3,0.3-0.5
				C513.4,547.8,512.6,547.3,511.8,546.9z M454.9,527.1c2.3-2.1,5-3.7,8.2-4.4c0.4-0.1,1-0.1,1.4,0.1c1.4,0.3,2,1.4,1.7,2.6
				c-0.3,0.9-0.9,1.5-1.6,2.1c-1.6,1.4-3.4,2.4-6,2.4c-1.1,0.2-2.3-0.5-3.5-1.4C454.5,528.1,454.4,527.6,454.9,527.1z M487,550.4
				c-1.8,3.7-4.1,7.1-6.6,10.5c-3.5,4.7-7.4,9.1-11.6,13.3c-5.6,5.3-11.6,10-18.6,13.4c-3.4,1.5-6.9,2.8-10.6,3.4
				c-1.6,0.2-3.2,0.3-4.7-0.2c-3.1-0.8-4.6-2.9-4.1-6c0.3-2,1-3.8,2-5.5c2.4-4.1,5.8-7.4,9.5-10.4c8.3-6.6,17.6-11.5,27.6-15.1
				c5.2-2,10.5-3.6,16-4.8c0.5-0.1,1-0.3,1.7-0.3C487.7,549.5,487.2,549.9,487,550.4z M900.7,548.7c-0.8-0.8-1.9-1.3-3-1.6
				c-3.4-1-7-1.4-10.5-1.4c-5.2-0.2-10.4-0.3-15.6,0.2c-3.2,0.2-6.3,0.5-9.6,0.9c-1.7,0.2-3.5,0.7-5.2,0.7c-0.1-0.2-0.1-0.3-0.1-0.3
				c0.1-0.3,0.3-0.4,0.3-0.7c2.8-4.6,5.2-9.3,7.2-14.2c1-2.6,2.3-5.2,2.8-7.9c0.2-0.9,0.2-1.6-0.1-2.5c-0.2-0.6-0.6-1.1-1.3-1.2
				c-0.7-0.2-1.2,0.2-1.6,0.7c-0.4,0.6-0.8,1.1-1.4,1.5c-3.4,2.7-6.8,5.4-10.4,8c-1.4,0.9-2.9,1.9-4.5,2.5c-0.5,0.2-1.1,0.3-1.7-0.1
				c-0.5-0.4-0.1-1,0.1-1.5c0.1-0.2,0.2-0.3,0.3-0.5c1.7-3.6,3.7-7,6.3-10c0.3-0.3,0.5-0.8,0.7-1.2c0.3-0.9,0.2-1.7-0.4-2.3
				c-0.7-0.6-1.7-0.7-2.5-0.2c-0.3,0.3-0.7,0.5-1,0.9c-2.1,2.8-4.3,5.6-5.7,8.8c-0.2,0.5-0.4,1-0.6,1.6c-0.1,0.1-0.3,0.2-0.4,0.3
				c-1.6,1.6-3.1,3.1-4.8,4.7c-1.7,1.7-3.6,3.2-5.6,4.5c-1.3,0.8-2.6,1.4-4.1,1.5c-1.5,0.2-2.3-0.6-2.4-2c-0.1-1.2,0.4-2.3,1-3.3
				c1-1.6,2-3.1,3.1-4.7c0.9-1.2,1.7-2.5,2.3-3.8c0.3-0.8,0.6-1.6,0.7-2.5c0.3-2.1-1.2-3.7-3.3-3.6c-1,0.1-1.7,0.4-2.5,0.9
				c-1.7,1-3.2,2.3-4.6,3.7c-2.6,2.5-5.2,4.9-7.6,7.7c1.6-2.6,3.2-5.1,4.9-7.7c0.3-0.5,0.7-1.1,1-1.8c0.6-1.4,0.4-2.5-0.5-3
				c-1-0.7-2.1-0.3-3,1c-0.8,1-1.6,2.2-2.3,3.3c-1.2,1.8-2.3,3.6-3.2,5.6c-2,1.2-4,2.4-6,3.6c-2.5,1.4-5,2.9-7.7,4.1
				c-0.9,0.3-1.7,0.8-2.6,0.8c-1.1,0-1.5-0.6-1.1-1.6c0.3-0.8,0.7-1.4,1.1-2c1.3-1.6,2.7-3.1,4.2-4.7c0.5-0.5,1.2-1.1,1.1-2
				c-0.1-1.5,0.2-3.1-0.1-4.5c-0.4-2.2-1.6-3.4-3.8-3.8c-1.9-0.3-3.7,0.1-5.4,0.8c-4.4,1.9-8.1,4.8-11.2,8.4c0,0-0.1,0-0.1,0
				c-1.4-0.1-2.7,0.3-4,0.8c-2,0.7-3.9,1.4-5.9,2.1c-1.8,0.7-3.8,0.7-5.9,0.4c0.6-1.3,1.1-2.4,1.6-3.6c0.5-1.3,0.9-2.6,0.5-4.1
				c-0.4-2-2-2.9-4-2.3c-1,0.3-1.7,0.8-2.5,1.4c-1.3,0.9-2.5,1.8-3.7,2.9c-0.5,0.5-1,0.5-1.5,0.1c-0.9-0.7-1.7-1.4-2.7-2
				c-0.4-0.3-0.5-0.7-0.3-1.2c0.2-0.5,0.4-1.1,0.5-1.6c0.2-0.7,0-1.3-0.6-1.6c-0.6-0.3-1.2-0.3-1.8,0.2c-0.3,0.2-0.5,0.4-0.8,0.8
				c-0.6,0.9-1.4,1-2.4,0.7c-1-0.4-2.3-0.6-3.4-0.5c-3.4,0.3-5.8,2.2-7.5,5.1c-1.7,2.9-2.1,5.9-1.5,9c-1.1,0.7-2.2,1.3-3.3,1.8
				c-0.8,0.3-1.6,0.7-2.3,0.9c-1.9,0.3-2.6-0.6-2.2-2.4c0.2-0.4,0.3-0.9,0.6-1.3c0.3-0.7,0.7-1.4,1.1-2.2c0.3-0.4,0.4-0.9,0.5-1.4
				c0.1-0.9-0.1-1.6-1-2.1c-0.7-0.4-1.4-0.3-2.3,0.3c-2.8,2-5.1,4.3-7.1,6.9c-0.3,0.5-0.6,1.1-1.2,1.3c-0.3-0.5-0.1-0.9,0.1-1.3
				c0.6-1.9,1.6-3.6,2.5-5.3c1.3-2.1,2.5-4.3,3.8-6.5c0.5-0.9,1-2,1.2-3.1c0.1-0.7-0.2-1.4-0.9-1.9c-0.8-0.4-1.4-0.1-2,0.4
				c-0.3,0.3-0.7,0.8-1,1.2c-0.6,0.7-1.1,1.4-1.9,2c-3.9,3.6-7.8,7.2-11.6,10.9c-1.3,1.3-2.5,2.5-4,3.5c-0.3,0.3-0.6,0.6-1.1,0.3
				c0-0.5,0.3-0.9,0.5-1.3c2.2-3.6,4.3-7.3,6.9-10.6c0.3-0.5,0.7-0.9,1-1.4c0.5-1,0.3-1.9-0.3-2.4c-0.7-0.6-1.6-0.6-2.5-0.1
				c-0.9,0.5-1.5,1.2-2,2c-1.4,1.7-2.6,3.6-3.7,5.5c-0.5,0.1-1,0.2-1.4,0.4c-2.1,0.5-4.2,1.2-6.3,1.6c-1,0.2-2,0.3-3-0.1
				c-1.4-0.5-1.7-1.1-0.9-2.3c0.5-0.9,0.9-1.9,1.1-2.9c0.6-3-0.9-5.4-3.8-6.4c-1.4-0.4-2.9-0.4-4.3-0.2c-4.4,0.9-8,3.3-10.4,7.1
				c-0.8,1.2-1.4,2.5-1.6,3.9c-8.7,5.4-15.1,9.8-21.7,13.8c-6.3,3.7-12.5,7.3-19.3,9.9c-5.9,2.2-11.9,3.7-18.3,2.6
				c-3.8-0.6-7.3-1.9-10.1-4.6c-3.7-3.3-5.1-7.7-5.5-12.4c-0.3-6,1.2-11.6,3.8-17c5.6-11.1,13-20.5,22.4-28.6
				c7.9-6.7,16.9-11.6,27-14.2c3.2-0.8,6.4-1.2,9.6-0.9c5.3,0.6,8.6,3.8,8.6,9.1c0,1.5-0.2,3-0.5,4.4c-0.9,3.9-2.7,7.3-4.7,10.7
				c-0.3,0.5-0.5,1-0.8,1.5c-0.1,0.3-0.2,0.6,0.1,0.7c0.3,0.3,0.6,0,0.8-0.3c0.9-1.4,1.7-2.7,2.6-4.1c2.3-3.7,3.8-7.7,4.4-12
				c0.6-4.8-1-9.9-6.9-12.4c-2.1-0.9-4.3-1.4-6.7-1.5c-4.9-0.2-9.6,0.9-14.1,2.5c-10.8,3.9-19.9,10.4-27.9,18.3
				c-4.9,4.8-9,10-12.7,15.8c-3.1,5-5.8,10.2-7.3,16c-1.6,5.9-1.7,11.7,0.3,17.4c2.3,6.4,6.9,10.5,13.6,12.3
				c4.2,1.1,8.4,1.2,12.7,0.4c5.6-0.9,10.9-3.1,16-5.6c8-4,15.6-8.7,23-13.7c3.2-2.2,6.4-4.5,11.2-7.4c0,0.4,0,0.7,0,1.1
				c0.1,2.4,1.6,4.2,3.9,4.8c2.2,0.6,4.3,0.1,6.3-0.7c2.3-1,4.5-2.5,6.3-4.3c0.6-0.6,1-0.8,1.7-0.3c0.8,0.6,1.7,0.7,2.8,0.7
				s2.2-0.3,3.2-0.5c1.9-0.6,3.8-1.3,5.8-1.8c-0.2,0.3-0.4,0.6-0.6,0.9c-0.9,1.5-1.5,3.1-1.7,4.9c-0.1,0.7-0.1,1.3,0.1,2
				c0.4,1.9,1.7,2.5,3.4,1.5c0.6-0.3,1.1-0.8,1.7-1.2c1-0.9,1.9-1.8,2.8-2.7c2.4-2.6,4.9-5.1,7.5-7.6c1-0.9,2.1-1.9,3.1-2.8
				c0.2,0.3,0,0.5-0.1,0.7c-1.3,3.1-2.2,6.5-2.9,9.8c-0.2,0.9-0.2,1.6,0.2,2.4c0.5,1.1,1.6,1.3,2.4,0.4c0.5-0.6,1-1.2,1.5-1.8
				c1.3-1.6,2.5-3.2,4.2-4.4c0.4-0.3,0.8-0.7,1.4-0.6c0.3,0.4,0.1,0.9,0,1.2c-0.2,1.4-0.3,2.9,0.3,4.3c0.6,1.4,1.9,2.1,3.6,1.9
				c1-0.3,2.1-0.6,3.1-1.1c1-0.5,2.1-1,3-1.6c0.1,0.5,0.3,1,0.5,1.5c0.5,1.1,0.3,2-0.3,3c-5.1,7.7-10,15.3-14.7,23.2
				c-3.9,6.4-7.6,12.8-10.5,19.7c-1.1,2.6-2.2,5.3-3,8.1c-0.1,0.6-0.3,1.2-0.2,1.9c0.2,0.7,0.7,0.9,1.3,0.5c0.6-0.3,1-0.9,1.3-1.4
				c1.4-2.1,2.8-4.2,4.2-6.2c7.6-11.2,15.4-22.5,23-33.6c1.7-2.4,3.4-4.8,5-7.1c0.6-0.9,1.3-1.2,2.3-0.8c0.6,0.2,1.1,0.2,1.7,0.2
				c3,0.3,5.6-0.9,8.1-2.3c3.7-2.1,6.8-4.9,9.3-8.3c0.7-0.9,1.4-1.2,2.4-1c0.6,0.2,1.2,0.1,1.9,0.1c2.2-0.2,4.3-1,6.3-1.9
				c2.1-0.9,4.2-1.8,6.6-2.1c-1.1,1.5-1.6,3.3-1.5,5.2c0.1,1.8,1.3,2.6,3,2.3c0.6-0.1,1.2-0.3,1.7-0.6c1.3-0.6,2.5-1.3,3.7-2
				c2.4-1.5,5-3.1,7.5-4.6c0.3-0.3,0.6-0.3,1-0.5c-0.6,1.2-1.2,2.2-1.7,3.3c-0.5,1.3-1,2.6-1,3.9c0.1,2,1.1,2.9,3.2,2.8
				c1.1-0.1,2.1-0.5,3.1-0.9c4.4-2.1,8.4-4.8,12.5-7.4c0,0,0,0,0,0.1c-0.6,1.9-0.9,3.7-0.4,5.7c0.3,1.2,1,1.4,2,0.5
				c0.6-0.7,1.2-1.4,1.7-2.1c2.8-3.7,5.8-7.2,9.3-10.3c1.1-1,2.3-2,3.7-2.6c0.4-0.2,1.1-0.7,1.6-0.2c0.5,0.5-0.1,1-0.3,1.4
				c-1,1.9-2.1,3.7-3,5.6c-1.1,2.3-1.9,4.7-1.8,7.2c0.2,3.9,2.6,5.4,6.3,4.2c1.9-0.7,3.6-1.9,5.1-3.1c1.9-1.5,3.7-3.3,5.6-5
				c0.7-0.7,1.4-1.3,2.1-2c-0.1,0.8,0,1.5,0.1,2.3c0.5,2.3,2.1,3.2,4.3,2.6c1.8-0.6,3.4-1.6,5-2.7c3-2.1,5.6-4.5,8.4-6.7
				c0.5-0.4,1-0.8,1.6-1.2c0.3,0.5,0,0.9-0.1,1.1c-2.8,7.9-6.4,15.3-11,22.4c-0.5,0.8-1.2,1.3-2.2,1.5c-5.7,1.4-11.3,3.1-16.7,5.1
				c-10.4,3.9-20.3,8.8-29.2,15.5c-4,3.1-7.8,6.4-10.8,10.5c-1.7,2.2-3,4.6-3.5,7.3c-0.6,3.7,1.1,6.4,4.8,7.3c2,0.5,4,0.5,6,0.2
				c3.8-0.5,7.4-1.9,10.9-3.5c8.3-3.9,15.6-9.4,22.2-15.5c8.5-7.7,15.7-16.7,22-26.2c0.6-0.9,1.3-1.4,2.4-1.6c6-1.2,12.1-1.8,18.2-2
				c5.4-0.3,10.8-0.4,16.3,0.2c2.4,0.3,4.9,0.6,7.2,1.5c1.3,0.6,2.3,1.3,2.2,2.9c0,0,0.2,0.1,0.3,0.1
				C901.7,550,901.6,549.5,900.7,548.7z M689.4,527.1c-0.9,0.2-1.1,0.8-1.1,1.5c0.1,0.9-0.2,1.4-0.8,2c-2,2.1-4.4,3.6-7.3,4.3
				c-0.7,0.3-1.4,0.2-1.9,0.3c-0.2,0-0.3,0-0.3,0c-3.7,0.1-4.1-2.5-3-4.7c1.3-2.6,3.3-4.5,5.6-6.2c1.9-1.4,4-2.4,6.3-2.7
				c1.5-0.3,2.7,0.2,3.3,1.2c0.5,0.9,0.4,3.1-0.2,3.9C689.9,526.9,689.7,527,689.4,527.1z M737.8,524.9c2-2.5,4.9-3.3,7.8-2.4
				c1.5,0.4,1.5,0.5,0.6,1.7c-1.4,1.8-2.9,3.7-4.3,5.6c-2,1.5-4.2,3-6.3,4.3c-0.1,0-0.1,0.1-0.2,0.1
				C734.8,531,735.5,527.8,737.8,524.9z M740.6,531.8c-0.7,0.9-1.3,1.8-2,2.7c-0.6,0.9-1.2,1.7-1.8,2.5c-0.3,0-0.5-0.2-0.5-0.4
				c-0.2-0.5-0.4-0.9-0.5-1.4C737.4,534,739,532.9,740.6,531.8z M740.2,544.6c-1.1,1.7-2.3,3.2-3.4,4.8c-4.9,7.1-9.7,14-14.6,21.1
				c-4.3,6.2-8.6,12.4-12.7,18.8c-0.2,0.2-0.3,0.4-0.5,0.5c-0.2-0.5,0.2-0.8,0.3-1.2c4.4-9.8,9.9-19,15.9-28
				c3.8-5.8,7.6-11.4,11.8-17c1.2-1.6,1.2-1.6,2.9-0.5C740.8,543.8,740.8,543.9,740.2,544.6z M742.9,541c-0.3,0.3-0.5,0.8-1.1,0.8
				c-0.7-0.1-1.4-0.4-1.9-0.9c-0.3-0.2-0.2-0.5,0-0.8c0.3-0.5,0.6-0.9,1-1.4c3-4.1,6.2-8.2,9-12.4c0.6-0.9,0.8-1,1.7-0.3
				c0.6,0.4,1.2,0.9,1.9,1.4c0.6,0.4,0.6,0.9,0.1,1.4c-0.1,0.1-0.2,0.1-0.3,0.2C749.5,532.6,746.1,536.7,742.9,541z M759.7,532.6
				c-3.2,4.1-7,7.5-11.9,9.4c-1.3,0.4-2.6,0.7-4,0.4c-0.1-0.6,0.1-0.8,0.3-1c3.1-4.1,6.4-8,10.1-11.6c1-1.1,1.1-1.1,2.4-0.3
				c0.9,0.7,1.8,1.2,2.8,1.8C760,531.6,760.1,532.1,759.7,532.6z M763.5,525.3c-0.3,1.7-1.1,3.1-2.1,4.6c-0.3,0.5-0.8,0.5-1.2,0.2
				c-1.2-0.7-2.4-1.5-3.7-2.6c1.6-1.4,3-2.4,4.6-3.2c0.2-0.2,0.3-0.3,0.5-0.3C763.2,523.4,763.8,523.9,763.5,525.3z M784.3,533.8
				c-0.8,0.5-1.7,0.9-2.6,1.1c-0.3,0.2-0.7,0.3-1-0.1c-0.2-0.3,0.1-0.6,0.2-0.9c0.2-0.3,0.3-0.4,0.5-0.6c3.8-4.5,8.2-8.4,13.9-10.5
				c0.5-0.2,1-0.3,1.5-0.5c0.3,0,0.4-0.1,0.5-0.1c1.3,0,2.6,1.8,2.2,3c-0.1,0.2-0.2,0.3-0.3,0.4C794.1,528.2,789.2,531,784.3,533.8z
				 M849,551.2c-0.7,1-1.4,2.1-2,3.1c-5.7,9-12.2,17.4-20.2,24.6c-6.3,5.7-13.2,10.6-21.2,13.8c-2.6,1-5.3,1.6-8.1,1.9
				c-1.4,0.2-2.8-0.1-4.2-0.5c-2.5-0.9-3.7-2.4-3.6-5c0-2,0.7-3.8,1.7-5.5c2-3.6,4.8-6.6,7.9-9.4c9.6-8.3,20.8-14.1,32.6-18.6
				c4.9-1.9,9.8-3.4,14.9-4.8c0.5-0.2,1-0.3,1.6-0.3c0.2-0.1,0.4-0.1,0.5,0.1C849.2,550.8,849.1,550.9,849,551.2z M569.5,522.4
				c-0.7-0.9-1.7-1.3-3-1.3c-1.7,0-3.2,0.5-4.5,1.4c-1.3,0.9-2.5,2.1-3.7,3.5c-1.2,1.4-2.3,2.9-3.3,4.6c-1.1,1.6-2.2,3.2-3.3,4.6
				c-2-1.9-3.6-4.1-4.9-6.7c-1.3-2.6-2.3-5.3-2.9-8.2c1.2-0.7,2.4-1.5,3.5-2.4c1.1-0.9,2.1-1.8,3-2.9c0.9-1,1.6-2.2,2.1-3.6
				c0.5-1.3,0.8-2.8,0.8-4.5c0-1.1-0.3-2.2-1-3.1c-0.7-0.9-1.5-1.4-2.5-1.4c-1.2,0-2.4,0.3-3.5,0.9c-1.1,0.6-2.1,1.5-2.9,2.6
				c-0.8,1.1-1.5,2.3-2,3.7c-0.5,1.4-0.7,2.9-0.7,4.5c0,2,0.2,4.2,0.7,6.6c-1.4,0.9-2.9,1.7-4.3,2.5c-1.4,0.8-2.7,1.7-3.8,2.7
				c-1.1,1-2.1,2.1-2.8,3.3c-0.7,1.2-1.1,2.7-1.1,4.4c0,2.7,0.9,4.8,2.8,6.5c1.9,1.7,4.3,2.6,7.3,2.6c2.3,0,4.3-0.4,6-1.3
				s3.3-1.9,4.6-3.2c1.5,1.4,3.2,2.5,5.1,3.3c1.9,0.8,3.9,1.2,6.1,1.2c1.9,0,3.5-0.4,4.9-1.1c1.3-0.7,2.5-1.7,3.4-3
				c0.5-0.6,0.5-1,0.1-1c-0.4-0.1-0.7,0.1-1,0.3c-1.2,1.5-2.8,2.2-4.8,2.2c-2.3,0-4.3-0.4-6.3-1.2c-1.9-0.8-3.7-1.9-5.2-3.3
				c1.1-1.4,2.1-2.7,3.1-4.2c1-1.4,2-2.7,3-3.9c1-1.2,2.1-2.1,3.2-2.8c1.1-0.7,2.3-1.1,3.7-1.1c1.1,0,2,0.2,2.8,0.6
				c0.8,0.4,1.4,0.9,1.9,1.5c0.2,0.3,0.5,0.4,0.7,0.2c0.3-0.1,0.3-0.4,0.2-0.6C570.7,524.3,570.2,523.3,569.5,522.4z M544.1,506.6
				c0.9-1.3,2.1-2,3.7-2c1,0,1.7,0.4,2.2,1.1c0.5,0.7,0.7,1.6,0.7,2.7c0,2.7-0.7,4.8-2.1,6.5c-1.4,1.7-3.1,3.2-5,4.5
				c-0.5-2.6-0.8-5.2-0.8-7.7C542.8,509.6,543.2,507.9,544.1,506.6z M546,539.8c-1.2,0.5-2.4,0.8-3.8,0.8c-3,0-5.4-0.7-7-2.2
				c-1.7-1.5-2.5-3.5-2.5-6c0-1.2,0.2-2.4,0.7-3.3c0.5-1,1.1-1.9,2-2.7c0.8-0.9,1.7-1.6,2.8-2.3c1-0.7,2.1-1.4,3.3-2.2
				c0.6,2.9,1.6,5.8,2.9,8.6c1.3,2.8,2.9,5.2,5,7.3C548.2,538.6,547.2,539.3,546,539.8z M414.1,497c5.8-0.1,11.6,0.2,17.6,0.1
				c6.3-0.1,12.6-0.1,18.9-0.7c4.8-0.4,9.6-0.9,14.3-2c3.4-0.8,6.7-1.8,9.7-3.5c0.8-0.4,1.6-0.9,2.2-1.6c0.4-0.5,0.8-1.1,0.3-1.8
				c-0.4-0.6-1.1-0.7-1.8-0.4c-0.5,0.2-1.1,0.4-1.7,0.6c-3.5,1.5-7.1,2.5-10.9,3.2c-9.8,2-19.8,2.6-29.9,3.1
				c-5.4,0.3-10.8,0.4-16.3,0.3c-0.5,0-1.1,0.1-1.8-0.2c0.1-0.6,0.5-1,0.8-1.4c1.9-2.8,3.9-5.6,5.8-8.4c1.1-1.7,2.2-3.6,3.2-5.3
				c0.3-0.7,0.7-1.4,0.6-2c0-0.9-0.3-1.5-1.1-1.9c-0.8-0.4-1.6-0.2-2.2,0.4c-0.3,0.4-0.7,0.9-1,1.4c-3.2,5.6-7,10.9-10.7,16.2
				c-0.7,0.9-1.5,1.4-2.6,1.3c-5.6-0.1-11.1-0.1-16.8-0.2c-13-0.2-26.2-0.5-39.2,0.5c-2.9,0.3-5.7,0.5-8.6,1.2
				c-0.5,0.2-1.1,0.3-1.6,0.7c-0.5,0.4-0.4,1,0.1,1.4c0.3,0.3,0.7,0.3,1,0.3c1.7,0.4,3.5,0.4,5.2,0.5c6.3,0.3,12.4,0.8,18.6,1.6
				c6.1,0.9,12,2.1,17.8,4.2c1.6,0.5,3.1,1.2,4.5,2.1c1.4,0.9,1.5,1.4,0.9,3c-0.2,0.3-0.3,0.6,0.1,0.8c0.3,0.2,0.6,0,0.8-0.2
				c0.9-0.9,1-2.3,0.2-3.4c-0.7-0.9-1.6-1.5-2.6-2c-1.6-0.9-3.2-1.5-4.9-2c-10.7-3.7-21.7-5.5-33.1-5.6c-1.2-0.1-2.4-0.1-3.8-0.4
				c4.8-0.7,9.5-0.8,14.2-0.9c10.3-0.3,20.7,0.1,31,0.5c4.7,0.2,9.4,0.3,14.1,0.4c0.5,0,1.1-0.2,1.7,0.2c0,0.7-0.5,1-0.8,1.5
				c-2.6,3.8-5.3,7.7-7.7,11.7c-4.1,6.3-8.1,12.6-12.1,18.9c-0.4,0.3-0.8,0.6-1.2,0.8c-1.7,0.8-3.4,1.1-5.2,1
				c-2.6-0.1-4.3-1.4-4.9-3.9c-0.3-1.1-0.3-2.1-0.3-3.2s-0.1-2.1-0.4-3.2c-0.6-1.9-2.1-2.4-3.7-1.3c-1.1,0.8-2.2,1.6-3.1,2.6
				c-2.5,2.7-5,5.5-7.1,8.6c-1.1,1.6-2.3,3.2-3.7,4.6c0.6-1.4,1.5-2.6,2.3-3.8c1.7-2.6,3.4-4.9,4.9-7.6c0.3-0.6,0.7-1.3,0.8-2
				c0.2-1.4-0.9-2.2-2.2-1.6c-0.7,0.3-1.2,0.8-1.7,1.4c-1.4,1.5-2.5,3.2-3.6,5c-0.6,0.9-1.1,1.9-1.5,2.9c-2.2,1.2-4.3,2.5-6.4,3.9
				c-2.5,1.4-5,2.9-7.7,4.1c-0.9,0.3-1.7,0.8-2.6,0.8c-1.1,0-1.5-0.6-1.1-1.6c0.3-0.8,0.7-1.4,1.1-2c1.3-1.6,2.7-3.1,4.2-4.7
				c0.5-0.5,1.2-1.1,1.1-2c-0.1-1.5,0.2-3.1-0.1-4.5c-0.4-2.2-1.6-3.4-3.8-3.8c-1.9-0.3-3.7,0.1-5.4,0.8c-4.4,2-8.2,4.8-11.3,8.5
				c-1.4,1.7-2.1,3.7-2,5.9c0.1,1.8,1.3,2.6,3,2.3c0.6-0.1,1.2-0.3,1.7-0.6c1.3-0.6,2.5-1.3,3.7-2c2.4-1.5,5-3.1,7.5-4.6
				c0.3-0.3,0.6-0.3,1-0.5c-0.6,1.2-1.2,2.2-1.7,3.3c-0.5,1.3-1,2.6-1,3.9c0.1,2,1.1,2.9,3.2,2.8c1.1-0.1,2.1-0.5,3.1-0.9
				c4.5-2.2,8.7-5,12.9-7.7c-0.3,0.7-0.6,1.5-0.7,2.3c-0.3,1.1-0.3,2.2,0.1,3.3c0.4,1.1,1.2,1.4,2.3,0.7c0.3-0.3,0.7-0.6,1-0.9
				c0.6-0.8,1.1-1.5,1.7-2.4c2.2-3,4.3-6,6.9-8.8c1.2-1.3,2.5-2.6,4-3.5c1.3-0.9,1.6-0.7,1.7,0.9c0,0.3,0,0.5,0,0.8
				c0.2,1.5,0.3,3.1,0.9,4.5c0.8,2.1,2.3,3.7,4.5,4.3c2.9,0.8,5.5,0.3,7.9-1c-2.4,3.8-4.9,7.7-7.3,11.5
				c-7.9,12.6-15.5,25.3-22.1,38.7c-0.2,0.4-0.3,0.9-0.5,1.3c-0.1,0.3-0.1,0.5,0.2,0.7c0.3,0.2,0.5,0.1,0.7-0.2
				c0.4-0.3,0.6-0.8,0.9-1.3c1.5-2.7,3-5.5,4.5-8.3c7-12.6,14.9-24.7,22.9-36.7c8.6-12.8,17.6-25.5,26.9-37.9
				C412.2,497.4,412.9,497,414.1,497z M327.8,533.8c-0.8,0.5-1.7,0.9-2.6,1.1c-0.3,0.2-0.7,0.3-1-0.1c-0.2-0.3,0.1-0.6,0.2-0.9
				c0.2-0.3,0.3-0.4,0.5-0.6c3.8-4.5,8.2-8.4,13.9-10.5c0.5-0.2,1-0.3,1.5-0.5c0.3,0,0.4-0.1,0.5-0.1c1.3,0,2.6,1.8,2.2,3
				c-0.1,0.2-0.2,0.3-0.3,0.4C337.6,528.2,332.7,531,327.8,533.8z M411.7,506.6c-0.5,0.1-0.9,0.4-1.3,0.9c-1.5,1.6-3.2,3.1-5,4.3
				c-0.6,0.5-1.3,0.9-1.8,1.4c-0.4,0.3-1.4,0.7-1,1.3s1-0.2,1.5-0.4c1-0.5,1.9-1.2,3-1.8c1.7-0.9,3.5-2,5.2-2.9c0.5-0.3,1-0.7,1-1.4
				C413.3,507.1,412.7,506.5,411.7,506.6z"/>
		</g>
	</g>
</g>
<g>
</g>
<g>
</g>
<g>
</g>
<g>
</g>
<g>
</g>
<g>
</g>
<g>
</g>
<g>
</g>
<g>
</g>
<g>
</g>
<g>
</g>
<g>
</g>
<g>
</g>
<g>
</g>
<g>
</g>
</svg>
