<?xml version="1.0" encoding="UTF-8"?>
<svg id="Capa_3" data-name="Capa 3" xmlns="http://www.w3.org/2000/svg" xmlns:xlink="http://www.w3.org/1999/xlink" viewBox="0 0 530.1 124.03">
  <defs>
    <style>
      .cls-1 {
        fill: #452681;
      }

      .cls-1, .cls-2 {
        stroke-width: 0px;
      }

      .cls-2 {
        fill: url(#Degradado_sin_nombre_39);
      }
    </style>
    <linearGradient id="Degradado_sin_nombre_39" data-name="Degradado sin nombre 39" x1="0" y1="43.34" x2="530.1" y2="43.34" gradientUnits="userSpaceOnUse">
      <stop offset="0" stop-color="#111993"/>
      <stop offset=".13" stop-color="#111b94"/>
      <stop offset=".21" stop-color="#132499"/>
      <stop offset=".28" stop-color="#1633a1"/>
      <stop offset=".35" stop-color="#1b49ac"/>
      <stop offset=".41" stop-color="#2164bb"/>
      <stop offset=".42" stop-color="#2269be"/>
      <stop offset=".51" stop-color="#2471c2"/>
      <stop offset=".6" stop-color="#276cbd"/>
      <stop offset=".66" stop-color="#2d5db0"/>
      <stop offset=".8" stop-color="#3a3f96"/>
      <stop offset=".92" stop-color="#432c86"/>
      <stop offset="1" stop-color="#462681"/>
    </linearGradient>
  </defs>
  <g id="Capa_5" data-name="Capa 5">
    <g>
      <g>
        <path class="cls-1" d="m80.34,123.53v-15.79h1.57l7.51,11.55,7.56-11.55h1.53v15.79h-1.53v-13.06c-2.38,3.61-4.7,7.27-7.11,10.86h-.88c-2.34-3.59-4.72-7.24-7.08-10.86v13.06h-1.57Z"/>
        <path class="cls-1" d="m111.87,123.5l-5.06-12.22-5.04,12.22h-1.6l5.85-14.17h1.57l5.87,14.17h-1.6Z"/>
        <path class="cls-1" d="m114.99,123.53v-14.21h1.53l11.43,12.09v-12.09h1.51v14.21h-1.51l-11.43-12.18v12.18h-1.53Z"/>
        <path class="cls-1" d="m142.56,123.5l-5.06-12.22-5.04,12.22h-1.6l5.85-14.17h1.57l5.87,14.17h-1.6Z"/>
        <path class="cls-1" d="m160.08,111.01l-1.19.84c-1.21-.88-2.81-1.39-4.54-1.39-1.96,0-3.76.67-5.02,1.72-1.28,1.07-2.09,2.58-2.09,4.24s.81,3.15,2.09,4.22c1.26,1.07,3.06,1.74,5.02,1.74,1.6,0,3.04-.46,4.23-1.18v-5.58h-7.6v-1.26h9.11v7.43c-1.53,1.16-3.55,1.83-5.74,1.83-2.38,0-4.52-.78-6.1-2.1-1.53-1.32-2.5-3.11-2.5-5.1s.97-3.8,2.5-5.1c1.57-1.32,3.71-2.12,6.1-2.12,2.18,0,4.21.67,5.74,1.81Z"/>
        <path class="cls-1" d="m174.58,110.61h-12.37v-1.28h12.37v1.28Zm0,12.89h-12.37v-8.69h1.51v.97h8.79v1.26h-8.79v5.21h10.86v1.26Z"/>
        <path class="cls-1" d="m176.36,123.53v-14.21h1.57l7.51,10.39,7.56-10.39h1.53v14.21h-1.53v-11.76c-2.38,3.25-4.7,6.55-7.11,9.76h-.88c-2.34-3.21-4.72-6.51-7.08-9.76v11.76h-1.57Z"/>
        <path class="cls-1" d="m208.87,110.61h-12.37v-1.28h12.37v1.28Zm0,12.89h-12.37v-8.69h1.51v.97h8.79v1.26h-8.79v5.21h10.86v1.26Z"/>
        <path class="cls-1" d="m210.74,123.53v-14.21h1.53l11.43,12.09v-12.09h1.51v14.21h-1.51l-11.43-12.18v12.18h-1.53Z"/>
        <path class="cls-1" d="m232.3,123.5v-12.89h-5.56v-1.28h12.6v1.28h-5.58v12.89h-1.46Z"/>
        <path class="cls-1" d="m269.94,124.03c-.94-.99-1.96-1.93-2.9-2.88-.97,1.07-2.09,1.93-3.42,2.31-3.55,1.09-7.74-.97-7.44-4.49.22-2.25,2.18-3.59,4.23-4.47-1.12-1.28-2.2-2.33-1.96-4.16.29-2.14,2.7-3.25,4.9-2.98,1.66.19,2.92,1.09,3.35,2.42.88,2.48-1.53,4.18-3.8,5.19,1.19,1.24,2.59,2.69,3.96,4.01.74-1.18,1.3-2.46,1.75-3.57l1.42.48c-.47,1.3-1.19,2.79-2.11,4.14,1.08.99,2.11,2.04,3.17,3.07l-1.15.95Zm-8.52-8.46c-1.62.69-3.51,1.68-3.69,3.53-.22,2.5,2.88,3.86,5.42,3.11,1.12-.4,2.02-1.16,2.83-2.06-1.53-1.49-3.17-3.21-4.57-4.58Zm3.8-5.42c-.29-.82-1.08-1.34-2.05-1.47-1.33-.15-3.04.46-3.24,1.85-.18,1.3,1.04,2.42,1.93,3.36,1.46-.67,4.09-1.89,3.35-3.74Z"/>
        <path class="cls-1" d="m287.75,123.5v-14.17h1.53v14.17h-1.53Z"/>
        <path class="cls-1" d="m291.1,123.53v-14.21h1.53l11.43,12.09v-12.09h1.51v14.21h-1.51l-11.43-12.18v12.18h-1.53Z"/>
        <path class="cls-1" d="m312.66,123.5v-12.89h-5.56v-1.28h12.6v1.28h-5.58v12.89h-1.46Z"/>
        <path class="cls-1" d="m333.91,110.61h-12.37v-1.28h12.37v1.28Zm0,12.89h-12.37v-8.69h1.51v.97h8.79v1.26h-8.79v5.21h10.86v1.26Z"/>
        <path class="cls-1" d="m335.91,123.5v-6.51h1.48v.97h4.86c2.41,0,4.36-1.62,4.36-3.7s-1.96-3.65-4.36-3.65h-6.34v-1.28h6.34c3.26,0,5.89,2.2,5.89,4.93,0,1.85-1.24,3.53-3.13,4.41.81.55,1.33,1.32,1.73,2.12.58,1.24,1.26,2.46,1.39,2.71h-1.62c-.34-.57-.83-1.47-1.17-2.23-.65-1.32-1.28-2.06-3.1-2.04h-4.86v4.26h-1.48Z"/>
        <path class="cls-1" d="m349.9,123.53v-14.21h1.57l7.51,10.39,7.56-10.39h1.53v14.21h-1.53v-11.76c-2.38,3.25-4.7,6.55-7.11,9.76h-.88c-2.34-3.21-4.72-6.51-7.08-9.76v11.76h-1.57Z"/>
        <path class="cls-1" d="m382.42,110.61h-12.37v-1.28h12.37v1.28Zm0,12.89h-12.37v-8.69h1.51v.97h8.79v1.26h-8.79v5.21h10.86v1.26Z"/>
        <path class="cls-1" d="m390.82,109.27c10.17,0,10.17,14.26,0,14.26h-6.7v-8.78h1.53v7.45h5.17c8.14,0,8.14-11.65,0-11.65h-6.7v-1.28h6.7Z"/>
        <path class="cls-1" d="m400.13,123.5v-14.17h1.53v14.17h-1.53Z"/>
        <path class="cls-1" d="m415,123.5l-5.06-12.22-5.04,12.22h-1.6l5.85-14.17h1.57l5.87,14.17h-1.6Z"/>
        <path class="cls-1" d="m421.7,123.5v-12.89h-5.56v-1.28h12.6v1.28h-5.58v12.89h-1.46Z"/>
        <path class="cls-1" d="m430.46,123.5v-14.17h1.53v14.17h-1.53Z"/>
        <path class="cls-1" d="m448.48,111.33c1.55,1.3,2.52,3.09,2.52,5.1s-.97,3.78-2.52,5.1c-1.57,1.32-3.73,2.1-6.12,2.1s-4.5-.78-6.07-2.1c-1.53-1.32-2.5-3.11-2.5-5.1s.97-3.8,2.5-5.1c1.57-1.32,3.71-2.12,6.07-2.12s4.54.8,6.12,2.12Zm-6.12-.86c-1.93,0-3.71.67-4.99,1.72-1.28,1.07-2.07,2.58-2.07,4.24s.79,3.15,2.07,4.22,3.06,1.74,4.99,1.74,3.76-.67,5.04-1.74,2.07-2.58,2.07-4.22-.79-3.17-2.07-4.24c-1.28-1.05-3.04-1.72-5.04-1.72Z"/>
        <path class="cls-1" d="m452.75,123.53v-14.21h1.53l11.43,12.09v-12.09h1.51v14.21h-1.51l-11.43-12.18v12.18h-1.53Z"/>
      </g>
      <path class="cls-2" d="m529.52,53.15c-.58-.61-1.42-.92-2.25-1.16-2.51-.73-5.15-.98-7.78-1.04-3.86-.12-7.72-.18-11.58.12-2.38.12-4.7.37-7.08.67-1.29.12-2.57.49-3.86.49-.06-.12-.06-.18-.06-.24.06-.18.19-.3.26-.49,2.06-3.29,3.86-6.65,5.34-10.19.77-1.89,1.67-3.72,2.06-5.67.13-.61.13-1.16-.06-1.77-.13-.43-.45-.79-.96-.85-.52-.12-.9.12-1.16.49-.32.43-.58.79-1.03,1.1-2.51,1.95-5.02,3.9-7.72,5.73-1.03.67-2.12,1.34-3.35,1.77-.39.12-.84.24-1.22-.06-.39-.31-.06-.73.06-1.1.06-.12.13-.24.19-.37,1.29-2.56,2.77-5,4.63-7.2.19-.24.39-.55.51-.85.26-.61.13-1.22-.32-1.65-.51-.43-1.22-.49-1.87-.12-.26.18-.51.37-.71.61-1.54,2.01-3.15,4.03-4.25,6.28-.17.37-.3.74-.4,1.12-.1.08-.2.16-.31.23-1.16,1.16-2.32,2.26-3.54,3.36-1.29,1.22-2.64,2.32-4.12,3.23-.96.55-1.93.98-3.02,1.1s-1.74-.43-1.8-1.46c-.06-.85.32-1.65.71-2.38.71-1.16,1.48-2.26,2.32-3.35.64-.85,1.22-1.77,1.74-2.75.26-.55.45-1.16.51-1.77.19-1.52-.9-2.62-2.44-2.56-.71.06-1.29.31-1.87.67-1.29.73-2.38,1.65-3.41,2.62-1.93,1.77-3.86,3.54-5.6,5.49,1.16-1.83,2.38-3.66,3.6-5.55.26-.37.51-.79.71-1.28.45-.98.32-1.77-.39-2.14-.71-.49-1.54-.18-2.25.73-.58.73-1.16,1.59-1.67,2.38-.89,1.29-1.73,2.59-2.4,3.99-1.5.84-2.96,1.72-4.42,2.6-1.87,1.04-3.73,2.07-5.73,2.93-.64.24-1.22.55-1.93.55-.84,0-1.09-.43-.84-1.16.19-.55.51-.98.84-1.46.96-1.16,1.99-2.26,3.09-3.35.39-.37.9-.79.84-1.4-.06-1.1.13-2.2-.06-3.23-.32-1.59-1.16-2.44-2.83-2.75-1.42-.24-2.7.06-3.99.55-3.26,1.39-6.01,3.45-8.32,6.05-.04,0-.07,0-.11-.01-1.03-.06-1.99.24-2.96.55-1.48.49-2.89,1.04-4.37,1.52-1.35.49-2.83.49-4.38.31.45-.92.84-1.71,1.16-2.56.39-.92.64-1.89.39-2.93-.32-1.4-1.48-2.07-2.96-1.65-.71.24-1.29.55-1.87.98-.96.61-1.87,1.28-2.7,2.07-.39.37-.71.37-1.09.06-.64-.49-1.29-.98-1.99-1.4-.32-.24-.39-.49-.19-.85.13-.37.32-.79.39-1.16.13-.49,0-.92-.45-1.16s-.9-.18-1.35.12c-.19.12-.39.3-.58.55-.45.67-1.03.73-1.8.49-.77-.31-1.67-.43-2.51-.37-2.51.24-4.31,1.59-5.53,3.66-1.23,2.09-1.59,4.25-1.11,6.46-.8.47-1.6.92-2.43,1.29-.58.24-1.16.49-1.74.61-1.42.18-1.93-.43-1.61-1.71.13-.31.26-.61.45-.92.26-.49.51-1.04.84-1.59.19-.31.32-.67.39-1.04.06-.61-.06-1.16-.71-1.52-.51-.31-1.03-.24-1.67.24-2.06,1.4-3.79,3.05-5.27,4.94-.26.37-.45.79-.9.92-.19-.37-.06-.61.06-.92.45-1.34,1.16-2.56,1.87-3.78.96-1.52,1.87-3.05,2.83-4.64.39-.67.77-1.4.9-2.26.06-.49-.13-1.04-.64-1.34-.58-.31-1.03-.06-1.48.3-.26.24-.51.55-.77.85-.45.49-.84,1.04-1.42,1.46-2.9,2.56-5.79,5.19-8.56,7.81-.96.92-1.87,1.77-2.96,2.5-.26.18-.45.43-.84.24,0-.37.19-.61.39-.92,1.61-2.56,3.15-5.25,5.08-7.63.26-.37.51-.67.71-1.04.39-.73.26-1.34-.19-1.71-.51-.43-1.16-.43-1.87-.06-.64.37-1.09.85-1.48,1.4-1.02,1.24-1.92,2.58-2.78,3.95-.36.06-.7.17-1.02.26-1.54.37-3.09.85-4.63,1.16-.77.12-1.48.18-2.19-.06-1.03-.37-1.22-.79-.64-1.65.39-.67.64-1.34.84-2.07.45-2.14-.64-3.9-2.83-4.58-1.03-.31-2.12-.31-3.15-.12-3.28.67-5.92,2.38-7.72,5.06-.61.86-.99,1.79-1.15,2.76-6.42,3.85-11.18,7.04-16.1,9.93-4.63,2.62-9.26,5.25-14.28,7.08-4.38,1.59-8.81,2.62-13.57,1.89-2.83-.43-5.4-1.34-7.46-3.29-2.7-2.38-3.8-5.49-4.05-8.91-.26-4.33.9-8.36,2.83-12.2,4.12-7.93,9.65-14.7,16.6-20.5,5.85-4.82,12.48-8.3,20.01-10.19,2.38-.55,4.76-.85,7.14-.61,3.92.43,6.37,2.75,6.37,6.53,0,1.1-.13,2.13-.39,3.17-.64,2.81-1.99,5.25-3.47,7.69-.19.37-.39.73-.58,1.1-.06.18-.13.43.06.49.26.18.45,0,.58-.18.64-.98,1.29-1.95,1.93-2.93,1.67-2.68,2.83-5.49,3.28-8.6.45-3.42-.71-7.08-5.08-8.91-1.54-.67-3.22-1.04-4.95-1.1-3.6-.12-7.08.61-10.42,1.77-7.98,2.81-14.73,7.44-20.65,13.12-3.6,3.42-6.69,7.2-9.39,11.35-2.32,3.6-4.31,7.32-5.4,11.47-1.16,4.21-1.29,8.36.26,12.51,1.74,4.58,5.08,7.56,10.1,8.85,3.09.79,6.24.85,9.39.3,4.18-.67,8.04-2.2,11.84-4.03,5.92-2.87,11.52-6.22,17.05-9.82,2.39-1.58,4.73-3.21,8.31-5.31-.01.26-.03.53,0,.8.06,1.71,1.16,2.99,2.89,3.42,1.61.43,3.15.06,4.7-.49,1.74-.73,3.35-1.77,4.63-3.11.45-.43.71-.55,1.22-.18.58.43,1.29.49,2.06.49s1.61-.18,2.38-.37c1.41-.4,2.79-.94,4.26-1.27-.13.22-.27.44-.4.66-.64,1.1-1.09,2.26-1.29,3.54-.06.49-.06.92.06,1.4.32,1.34,1.29,1.77,2.51,1.1.45-.24.84-.55,1.22-.85.71-.67,1.42-1.28,2.06-1.95,1.8-1.89,3.6-3.66,5.53-5.43.71-.67,1.54-1.34,2.32-2.01.13.24,0,.37-.06.49-.96,2.26-1.61,4.64-2.12,7.02-.13.61-.13,1.16.13,1.71.39.79,1.16.92,1.8.31.39-.43.71-.85,1.09-1.28.96-1.16,1.87-2.32,3.09-3.17.32-.18.58-.49,1.03-.43.26.3.06.61,0,.85-.13,1.04-.19,2.07.19,3.11.45,1.04,1.42,1.53,2.64,1.34.77-.18,1.54-.43,2.32-.79.77-.36,1.52-.75,2.25-1.17.11.37.23.74.38,1.11.39.79.26,1.4-.26,2.14-3.8,5.49-7.4,10.98-10.87,16.65-2.9,4.58-5.6,9.21-7.78,14.15-.84,1.89-1.61,3.78-2.19,5.8-.06.43-.26.85-.13,1.34.13.49.51.67.97.37.45-.24.71-.67.96-1.04,1.03-1.53,2.06-2.99,3.09-4.45,5.66-8.05,11.39-16.11,17.05-24.1,1.22-1.71,2.51-3.42,3.67-5.12.45-.67.97-.85,1.74-.61.45.12.84.12,1.29.12,2.19.18,4.12-.61,5.98-1.65,2.7-1.52,5.02-3.54,6.88-5.98.52-.67,1.03-.85,1.8-.73.45.12.9.06,1.42.06,1.61-.12,3.15-.73,4.63-1.34,1.56-.66,3.17-1.28,4.89-1.5-.8,1.11-1.21,2.36-1.16,3.76.06,1.28.96,1.89,2.25,1.65.45-.06.9-.24,1.29-.43.96-.43,1.87-.92,2.77-1.46,1.8-1.1,3.67-2.2,5.53-3.29.19-.18.45-.24.71-.37-.45.85-.9,1.59-1.29,2.38-.39.92-.71,1.83-.71,2.81.06,1.4.84,2.07,2.38,2.01.84-.06,1.54-.37,2.32-.67,3.25-1.51,6.21-3.42,9.22-5.28,0,.01-.01.02-.02.04-.45,1.34-.64,2.68-.32,4.09.19.85.77,1.04,1.48.37.45-.49.9-.98,1.29-1.52,2.06-2.68,4.31-5.19,6.88-7.38.84-.73,1.67-1.4,2.77-1.89.32-.12.84-.49,1.16-.12.39.37-.06.73-.26,1.04-.71,1.34-1.54,2.68-2.25,4.03-.84,1.65-1.42,3.36-1.35,5.19.13,2.81,1.93,3.9,4.63,2.99,1.42-.49,2.64-1.34,3.8-2.2,1.42-1.1,2.7-2.38,4.12-3.6.54-.47,1.04-.97,1.54-1.46-.05.54-.04,1.09.07,1.64.39,1.65,1.54,2.32,3.22,1.83,1.35-.43,2.51-1.16,3.67-1.95,2.19-1.53,4.18-3.23,6.24-4.82.39-.31.77-.55,1.16-.85.19.37,0,.61-.06.79-2.06,5.67-4.76,10.98-8.17,16.04-.39.61-.9.92-1.61,1.1-4.25.98-8.36,2.2-12.35,3.66-7.72,2.81-14.99,6.34-21.62,11.1-2.96,2.2-5.79,4.58-7.98,7.56-1.22,1.59-2.19,3.29-2.57,5.25-.45,2.68.84,4.58,3.54,5.25,1.48.37,2.96.37,4.44.12,2.83-.37,5.47-1.34,8.04-2.5,6.18-2.81,11.51-6.71,16.47-11.1,6.3-5.55,11.64-11.96,16.28-18.79.45-.67.96-1.04,1.8-1.16,4.44-.85,8.94-1.28,13.45-1.46,3.99-.18,7.98-.31,12.03.12,1.8.24,3.6.43,5.34,1.1.96.43,1.67.92,1.61,2.07,0,0,.13.06.19.06.32-.79.26-1.16-.39-1.71Zm-156.39-15.49c-.64.12-.84.55-.84,1.1.06.61-.13,1.04-.58,1.4-1.48,1.52-3.28,2.56-5.4,3.11-.51.18-1.03.12-1.42.18h-.19c-2.77.06-3.02-1.77-2.19-3.36.96-1.83,2.44-3.23,4.12-4.45,1.42-.98,2.96-1.71,4.63-1.95,1.09-.18,1.99.12,2.44.85.39.61.32,2.2-.13,2.81-.06.12-.26.24-.45.31Zm35.83-1.59c1.48-1.77,3.6-2.38,5.79-1.71,1.09.31,1.09.37.45,1.22-1.06,1.31-2.1,2.65-3.14,4.01-1.52,1.09-3.08,2.13-4.65,3.07-.05.03-.1.06-.14.09-.55-2.34-.04-4.59,1.69-6.67Zm2.04,4.92c-.49.64-.98,1.28-1.46,1.92-.45.61-.9,1.22-1.35,1.77-.26,0-.39-.12-.39-.3-.15-.34-.27-.68-.38-1.01,1.22-.74,2.41-1.55,3.57-2.37Zm-.3,9.24c-.84,1.22-1.67,2.32-2.51,3.48-3.6,5.06-7.21,10.07-10.81,15.13-3.22,4.45-6.37,8.91-9.39,13.48-.13.12-.19.31-.39.37-.13-.37.13-.55.26-.85,3.28-7.02,7.33-13.6,11.77-20.07,2.83-4.15,5.66-8.17,8.75-12.2q.9-1.16,2.12-.37c.64.43.64.49.19,1.04Zm1.99-2.62c-.19.24-.39.55-.84.55-.51-.06-1.03-.31-1.42-.67-.26-.12-.13-.37,0-.55.19-.37.45-.67.71-1.04,2.25-2.93,4.57-5.86,6.69-8.91.45-.67.58-.73,1.29-.24.45.31.9.67,1.42.98.45.3.45.67.06,1.04-.06.06-.13.06-.19.12-2.83,2.68-5.34,5.67-7.72,8.72Zm12.48-6.04c-2.38,2.93-5.15,5.37-8.81,6.71-.96.3-1.93.49-2.96.3-.06-.43.06-.55.26-.73,2.32-2.93,4.76-5.73,7.46-8.3.77-.79.84-.79,1.8-.18.64.49,1.35.85,2.06,1.28.39.24.45.55.19.92Zm2.83-5.19c-.19,1.22-.84,2.26-1.54,3.29-.19.37-.58.37-.9.12-.9-.49-1.8-1.1-2.7-1.89,1.16-.98,2.19-1.71,3.41-2.32.13-.12.26-.18.39-.24,1.09-.37,1.54,0,1.35,1.04Zm15.38,6.1c-.58.37-1.22.61-1.93.79-.26.12-.51.18-.71-.06-.13-.24.06-.43.13-.61.13-.18.26-.3.39-.43,2.83-3.23,6.05-6.04,10.29-7.5.39-.12.77-.24,1.09-.37.19,0,.32-.06.39-.06.96,0,1.93,1.28,1.61,2.14-.06.12-.13.24-.26.31-3.79,1.77-7.4,3.78-11,5.8Zm47.86,12.44c-.51.73-1.03,1.53-1.48,2.26-4.25,6.47-9.01,12.51-14.92,17.63-4.7,4.09-9.78,7.62-15.7,9.88-1.93.73-3.92,1.16-5.98,1.34-1.03.12-2.06-.06-3.09-.37-1.87-.61-2.7-1.71-2.64-3.6,0-1.4.52-2.75,1.29-3.97,1.48-2.56,3.54-4.76,5.85-6.71,7.08-5.98,15.38-10.13,24.12-13.36,3.6-1.34,7.27-2.44,11-3.42.39-.12.77-.18,1.16-.24.13-.06.32-.06.39.06.19.18.06.31,0,.49ZM169.32,16.06c4.31-.06,8.62.12,12.99.06,4.63-.06,9.33-.06,13.96-.49,3.54-.31,7.14-.61,10.62-1.4,2.51-.55,4.95-1.28,7.21-2.5.58-.31,1.16-.67,1.61-1.16.32-.37.58-.79.26-1.28-.32-.43-.84-.49-1.35-.31-.39.12-.84.31-1.22.43-2.57,1.1-5.28,1.77-8.04,2.32-7.27,1.4-14.67,1.89-22.13,2.2-3.99.18-7.98.31-12.03.24-.39,0-.84.06-1.35-.12.06-.43.39-.73.58-1.04,1.42-2.01,2.9-4.03,4.31-6.04.84-1.22,1.61-2.56,2.38-3.78.26-.49.51-.98.45-1.46,0-.61-.26-1.1-.84-1.34-.58-.31-1.16-.12-1.61.3-.26.31-.51.61-.77.98-2.38,4.03-5.15,7.81-7.91,11.59-.51.67-1.09.98-1.93.92-4.12-.06-8.23-.06-12.42-.12-9.65-.12-19.36-.37-29.01.37-2.12.18-4.25.37-6.37.85-.39.12-.84.18-1.16.49-.39.31-.32.73.06.98.26.18.51.18.77.24,1.29.3,2.57.3,3.86.37,4.63.18,9.2.55,13.77,1.16,4.5.61,8.88,1.53,13.19,2.99,1.16.37,2.32.85,3.34,1.53,1.03.67,1.09.98.64,2.13-.13.18-.19.43.06.55.19.12.45,0,.58-.12.64-.61.71-1.65.13-2.44-.51-.67-1.16-1.1-1.93-1.46-1.16-.61-2.38-1.1-3.6-1.46-7.91-2.62-16.08-3.96-24.51-4.03-.9-.06-1.8-.06-2.83-.31,3.54-.49,7.01-.55,10.49-.67,7.66-.18,15.31.06,22.97.37,3.47.12,6.95.18,10.42.31.39,0,.84-.12,1.22.12,0,.49-.39.73-.58,1.1-1.93,2.75-3.92,5.55-5.73,8.36-3,4.51-5.98,9.02-8.96,13.52-.26.24-.59.4-.89.57-1.22.55-2.51.79-3.86.73-1.93-.06-3.22-1.04-3.6-2.81-.19-.79-.26-1.53-.26-2.32s-.06-1.52-.32-2.32c-.45-1.34-1.54-1.71-2.77-.92-.84.55-1.61,1.16-2.32,1.89-1.87,1.95-3.67,3.96-5.28,6.16-.84,1.16-1.67,2.32-2.7,3.29.45-.98,1.09-1.83,1.67-2.75,1.22-1.83,2.51-3.54,3.6-5.43.26-.43.51-.92.58-1.4.13-1.04-.64-1.59-1.61-1.16-.51.18-.9.55-1.29.98-1.03,1.1-1.87,2.32-2.64,3.6-.42.68-.8,1.35-1.14,2.05-1.61.89-3.17,1.83-4.72,2.77-1.87,1.04-3.73,2.07-5.73,2.93-.64.24-1.22.55-1.93.55-.84,0-1.09-.43-.84-1.16.19-.55.51-.98.84-1.46.97-1.16,1.99-2.26,3.09-3.35.39-.37.9-.79.84-1.4-.06-1.1.13-2.2-.06-3.23-.32-1.59-1.16-2.44-2.83-2.75-1.42-.24-2.7.06-3.99.55-3.28,1.4-6.05,3.48-8.36,6.1-1.03,1.22-1.54,2.62-1.48,4.21.06,1.28.96,1.89,2.25,1.65.45-.06.9-.24,1.29-.43.97-.43,1.87-.92,2.77-1.46,1.8-1.1,3.67-2.2,5.53-3.29.19-.18.45-.24.71-.37-.45.85-.9,1.59-1.29,2.38-.39.92-.71,1.83-.71,2.81.06,1.4.84,2.07,2.38,2.01.84-.06,1.54-.37,2.32-.67,3.36-1.57,6.43-3.56,9.55-5.49-.21.53-.41,1.07-.54,1.64-.19.79-.26,1.59.06,2.38s.9.98,1.67.49c.26-.18.51-.43.77-.67.45-.55.84-1.1,1.29-1.71,1.61-2.14,3.22-4.33,5.08-6.28.9-.92,1.87-1.83,2.96-2.5.96-.61,1.16-.49,1.29.61v.55c.13,1.1.26,2.2.64,3.23.58,1.53,1.67,2.62,3.35,3.05,2.13.57,4.08.21,5.88-.73-1.81,2.75-3.62,5.49-5.43,8.24-5.85,9.03-11.45,18.18-16.34,27.76-.13.3-.26.61-.39.92-.06.18-.06.37.13.49s.39.06.51-.12c.32-.24.45-.61.64-.92,1.09-1.95,2.19-3.96,3.35-5.98,5.21-9.03,11-17.75,16.92-26.35,6.37-9.21,13.06-18.3,19.94-27.21.45-.61.97-.85,1.8-.85Zm-63.82,26.42c-.58.37-1.22.61-1.93.79-.26.12-.51.18-.71-.06-.13-.24.06-.43.13-.61.13-.18.26-.3.39-.43,2.83-3.23,6.05-6.04,10.29-7.5.39-.12.77-.24,1.09-.37.19,0,.32-.06.39-.06.96,0,1.93,1.28,1.61,2.14-.06.12-.13.24-.26.31-3.8,1.77-7.4,3.78-11,5.8Zm6.24-33.43c.45-.73.32-1.4-.19-1.83-.58-.43-1.29-.37-1.99.24-.51.49-.96,1.04-1.48,1.59-1.67,1.95-3.09,4.03-4.95,5.86-5.98,5.73-11.84,11.59-17.63,17.57-3.6,3.78-7.21,7.56-10.68,11.41-1.22,1.34-2.44,2.68-3.67,4.03-.26-.18-.19-.31-.13-.43,1.74-3.84,3.47-7.75,5.28-11.59,4.63-9.82,9.65-19.46,14.54-29.22.64-1.28,1.29-2.56,1.8-3.97.26-.61.19-1.16-.32-1.59-.58-.43-1.22-.37-1.8-.06s-1.09.73-1.48,1.22c-1.35,1.4-2.64,2.93-3.92,4.45-4.31,5.37-8.94,10.55-13.64,15.68-3.09,3.29-6.11,6.59-9.33,9.76-1.87,1.95-3.8,3.78-5.79,5.67-.64.61-.71.55-1.42-.06-1.22-1.1-2.51-2.2-3.67-3.35-2.57-2.56-5.21-5-8.04-7.26-2.83-2.32-5.79-4.39-9.13-5.86-4.5-2.01-9.07-2.62-13.83-1.1-8.23,2.56-14.15,7.63-17.88,14.95-1.74,3.36-2.64,6.89-2.32,10.68.26,3.54,1.48,6.59,4.18,9.15,3.41,3.29,7.66,4.7,12.42,4.88,4.18.18,8.23-.73,12.22-2.07,6.24-2.07,11.97-5.06,17.37-8.72,3.47-2.44,6.82-5.06,10.04-7.81.58-.55.64-.55,1.35,0,.77.55,1.61,1.1,2.51,1.52.45.18.9.37,1.35.31.19,0,.39,0,.45-.24.06-.24-.13-.3-.32-.37-1.03-.24-1.8-.79-2.64-1.34-1.42-.92-1.42-.98-.19-2.07,4.95-4.39,9.78-8.91,14.28-13.73,4.82-5.06,9.52-10.37,13.96-15.8.39-.49.84-.98,1.22-1.46.06.49-.06.85-.26,1.22-1.61,3.97-3.47,7.81-5.47,11.65-2.96,5.86-5.92,11.77-8.62,17.75-1.54,3.42-3.02,6.83-4.57,10.25-.19.43-.39.85-.39,1.34s.26.67.71.43c.64-.37,1.09-.79,1.61-1.28,2.32-2.14,4.44-4.45,6.56-6.77,4.7-5.19,9.46-10.31,14.35-15.31,2.77-2.75,5.53-5.49,8.3-8.24.13-.12.26-.43.58-.31-1.09,1.89-2.19,3.72-3.22,5.55-3.28,5.98-6.05,12.08-10.94,24.22-.84,1.95-1.54,3.9-1.99,5.98-.13.61-.19,1.22-.19,1.89.06.37.13.73.39,1.04.19.18.45.3.77.18.32-.12.32-.37.19-.61-.32-.61-.19-1.16-.06-1.77.19-.73.39-1.46.64-2.2,1.93-5.31,6.88-16.11,9.65-20.99,3.73-6.59,8.17-12.75,12.61-18.85.96-1.4,1.93-2.81,2.83-4.21Zm-57.58,30.81c-3.67,3.23-7.46,6.34-11.52,9.09-4.95,3.36-10.23,6.1-16.02,7.93-3.09.98-6.3,1.71-9.78,1.65-2.83.06-5.66-.49-8.3-1.83-4.37-2.26-6.88-5.74-7.33-10.49-.58-5.43,1.29-10.19,4.44-14.58,3.54-4.94,8.36-8.48,14.35-10.43,4.83-1.52,9.46-.92,13.9,1.22,3.15,1.46,5.98,3.48,8.62,5.67,3.02,2.44,5.85,5.12,8.68,7.75.96.92,1.99,1.77,2.96,2.62.77.67.77.73,0,1.4Zm112.46-16.29c-1.09,1.16-2.38,2.2-3.73,3.11-.45.37-.97.67-1.35,1.04-.32.24-1.03.49-.71.92.32.43.77-.12,1.09-.31.71-.37,1.42-.85,2.19-1.28,1.29-.67,2.57-1.4,3.86-2.07.39-.24.77-.49.77-1.04,0-.61-.45-1.04-1.16-.98-.39.06-.64.3-.96.61Zm117.76,10.71c-.54-.63-1.28-.95-2.22-.95-1.24,0-2.35.33-3.31.98-.97.65-1.88,1.48-2.73,2.5-.86,1.02-1.68,2.12-2.48,3.29-.79,1.18-1.62,2.28-2.48,3.29-1.46-1.34-2.67-2.95-3.63-4.82-.96-1.87-1.68-3.82-2.16-5.86.9-.53,1.77-1.11,2.61-1.74.84-.63,1.58-1.32,2.22-2.07.64-.75,1.16-1.61,1.54-2.56.39-.96.58-2.02.58-3.2,0-.81-.26-1.54-.77-2.2-.51-.65-1.14-.98-1.87-.98-.9,0-1.76.22-2.57.67-.82.45-1.53,1.06-2.16,1.83-.62.77-1.12,1.67-1.48,2.68-.37,1.02-.55,2.1-.55,3.23,0,1.42.17,3.01.51,4.76-1.07.61-2.13,1.21-3.18,1.8-1.05.59-1.99,1.23-2.83,1.92-.84.69-1.52,1.48-2.06,2.38-.54.9-.8,1.95-.8,3.17,0,1.91.7,3.48,2.09,4.7,1.39,1.22,3.21,1.83,5.44,1.83,1.67,0,3.15-.31,4.44-.92,1.29-.61,2.42-1.38,3.41-2.32,1.12,1.02,2.37,1.81,3.76,2.38,1.39.57,2.91.85,4.54.85,1.42,0,2.62-.26,3.6-.79.99-.53,1.82-1.24,2.51-2.14.34-.45.36-.69.06-.73-.3-.04-.54.04-.71.24-.9,1.06-2.08,1.59-3.54,1.59-1.67,0-3.22-.28-4.63-.85-1.42-.57-2.7-1.36-3.86-2.38.81-.98,1.59-1.97,2.32-2.99.73-1.02,1.47-1.94,2.22-2.78.75-.83,1.53-1.51,2.35-2.04.81-.53,1.74-.79,2.77-.79.81,0,1.51.14,2.09.43.58.28,1.04.65,1.38,1.1.17.2.35.25.55.15.19-.1.25-.25.16-.46-.21-.85-.59-1.6-1.13-2.23Zm-18.82-11.35c.64-.96,1.54-1.43,2.7-1.43.73,0,1.28.27,1.64.79.36.53.55,1.18.55,1.95,0,1.91-.52,3.47-1.54,4.67-1.03,1.2-2.27,2.27-3.73,3.2-.39-1.87-.58-3.72-.58-5.55,0-1.46.32-2.67.96-3.63Zm1.42,23.82c-.86.37-1.8.55-2.83.55-2.23,0-3.97-.53-5.21-1.59-1.24-1.06-1.87-2.5-1.87-4.33,0-.89.18-1.69.55-2.38.36-.69.85-1.34,1.45-1.95.6-.61,1.29-1.17,2.06-1.68.77-.51,1.59-1.03,2.45-1.56.47,2.11,1.18,4.18,2.12,6.19.94,2.01,2.17,3.75,3.67,5.22-.73.65-1.52,1.16-2.38,1.53Zm-25.35,5.06c-1.16-.43-2.38-.61-3.67-.61-3.22-.12-6.43.12-9.65.55-1.03.12-1.09,0-.96-1.04.13-.92.32-1.89.26-2.81-.13-2.32-1.42-3.9-3.73-4.58-1.16-.31-2.32-.49-3.73-.12.32-.49.64-.55.9-.67,2.19-1.04,4.44-1.89,6.63-2.81,1.48-.61,2.89-1.22,4.25-2.13.58-.37,1.09-.79,1.48-1.34.96-1.4.64-2.87-.9-3.66-.84-.43-1.74-.61-2.7-.73-1.54-.18-3.02-.12-4.57.06-2.32.18-4.57.79-6.63,1.89-.71.43-1.42.92-1.93,1.59-.7.98-.47,2.49.29,3.56-.03.01-.06.03-.09.04-1.8.85-3.54,1.71-5.34,2.56-2,.98-3.99,1.77-6.18,2.38-1.74.49-3.54.67-5.4.61-.51-.06-1.03-.18-1.54-.37-1.29-.61-1.8-1.65-1.42-2.93.19-.61.51-1.16.9-1.71.39-.61.45-.61,1.03-.12,1.29,1.1,2.83,1.52,4.44,1.16,2.06-.43,3.73-1.46,4.89-3.17,1.22-1.83.64-3.97-1.42-4.94-1.29-.67-2.7-.73-4.05-.24-3.15,1.1-5.6,3.05-7.14,5.92-.14.26-.26.52-.36.79-.03.02-.06.05-.09.07-1.16,1.16-2.32,2.26-3.54,3.36-1.29,1.22-2.64,2.32-4.12,3.23-.97.55-1.93.98-3.02,1.1-1.09.12-1.74-.43-1.8-1.46-.06-.85.32-1.65.71-2.38.71-1.16,1.48-2.26,2.32-3.35.64-.85,1.22-1.77,1.74-2.75.26-.55.45-1.16.51-1.77.19-1.52-.9-2.62-2.44-2.56-.71.06-1.29.31-1.87.67-1.29.73-2.38,1.65-3.41,2.62-1.93,1.77-3.86,3.54-5.6,5.49,1.16-1.83,2.38-3.66,3.6-5.55.26-.37.51-.79.71-1.28.45-.98.32-1.77-.39-2.14-.71-.49-1.54-.18-2.25.73-.58.73-1.16,1.59-1.67,2.38-.96,1.39-1.86,2.79-2.54,4.31-3.02,2.88-5.95,5.8-9.23,8.5-1.16.98-2.38,1.89-3.8,2.5-.71.3-1.54.67-2.19.06-.77-.55-.58-1.34-.39-2.14.45-2.13,1.61-3.9,2.89-5.61,1.8-2.5,3.67-4.94,5.53-7.44.26-.31.51-.61.71-.98.32-.67.13-1.4-.51-1.83-.51-.37-1.16-.37-1.8.06-.32.24-.58.55-.77.79-.9,1.1-1.74,2.2-2.57,3.35-2.25,2.99-3.92,6.28-4.76,9.88-.26,1.1-.32,2.26,0,3.42.32,1.1,1.03,1.59,2.19,1.59,1.03,0,1.93-.37,2.77-.85,1.74-.92,3.28-2.2,4.7-3.54,2.33-2.11,4.57-4.34,6.79-6.59-.32,1.16-.45,2.33-.17,3.54.19.85.77,1.04,1.48.37.45-.49.9-.98,1.29-1.52,2.06-2.68,4.31-5.19,6.88-7.38.84-.73,1.67-1.4,2.77-1.89.32-.12.84-.49,1.16-.12.39.37-.06.73-.26,1.04-.71,1.34-1.54,2.68-2.25,4.03-.84,1.65-1.42,3.36-1.35,5.19.13,2.81,1.93,3.9,4.63,2.99,1.42-.49,2.64-1.34,3.8-2.2,1.42-1.1,2.7-2.38,4.12-3.6.41-.36.79-.74,1.17-1.11-.06.38-.1.77-.08,1.17.06,1.89,1.16,3.29,3.02,3.9.64.18,1.29.31,1.99.31,2.25.06,4.38-.43,6.5-1.16,3.75-1.36,7.32-3.19,10.89-5.03.37.4.82.7,1.33.82h.26c.19,0,.32,0,.39-.12.13-.18.06-.31,0-.43-.26-.24-.51-.49-.77-.73-1.54-1.71-1.35-2.62.84-3.48,3.15-1.22,6.43-1.4,9.78-1.16.32.06.64.12,1.03.24.64.18.71.43.19.85-.64.61-1.42,1.04-2.19,1.52-2.57,1.46-5.21,2.93-7.78,4.45-.77.49-1.54.98-2.32,1.46-.39.24-.77.55-1.03.92-.26.31-.51.61-.26.98.26.37.64.18.96.12.45-.12.9-.3,1.35-.43,1.35-.31,2.7-.37,4.05.06,1.74.49,2.44,1.52,2.32,3.23-.06,1.34-.45,2.62-.84,3.9-.19.61-.64.79-1.29.92-4.76.98-9.33,2.32-13.89,3.97-7.01,2.56-13.57,5.98-19.49,10.49-2.7,2.14-5.21,4.45-7.08,7.26-.96,1.46-1.67,3.05-1.93,4.76-.39,2.75.96,4.64,3.8,5.31,1.87.49,3.8.31,5.66-.12,4.5-.98,8.56-2.87,12.42-5.18,5.47-3.29,10.17-7.38,14.47-11.9,3.92-4.09,7.46-8.48,9.39-13.85.19-.49.58-.73,1.09-.85,3.54-.43,7.14-.79,10.74-.67.84.06,1.67.18,2.51.43.64.18,1.16.55,1.48,1.16.06.18.06.37.32.37.19-.12.19-.24.19-.37-.13-.79-.71-1.16-1.35-1.46Zm-42.07-14.15c1.74-1.53,3.73-2.68,6.05-3.17.32-.06.71-.06,1.03.06,1.03.18,1.48.98,1.22,1.89-.19.61-.64,1.1-1.16,1.52-1.16,1.04-2.51,1.71-4.44,1.71-.84.12-1.74-.37-2.57-.98-.45-.3-.51-.67-.13-1.04Zm23.74,16.72c-1.35,2.68-3.02,5.12-4.89,7.5-2.57,3.36-5.47,6.53-8.56,9.52-4.12,3.78-8.56,7.2-13.77,9.58-2.51,1.1-5.08,2.01-7.85,2.44-1.16.12-2.38.18-3.47-.12-2.32-.55-3.41-2.07-3.02-4.27.19-1.4.71-2.75,1.48-3.96,1.8-2.93,4.31-5.31,7.01-7.44,6.11-4.76,13-8.24,20.39-10.86,3.86-1.4,7.78-2.56,11.84-3.42.39-.06.77-.24,1.22-.18.13.55-.19.85-.39,1.22Z"/>
    </g>
  </g>
</svg>