<?xml version="1.0" encoding="UTF-8"?>
<svg id="_10" data-name="10" xmlns="http://www.w3.org/2000/svg" xmlns:xlink="http://www.w3.org/1999/xlink" viewBox="0 0 3428 2459.22">
  <defs>
    <style>
      .cls-1 {
        fill: #f9b757;
      }

      .cls-1, .cls-2, .cls-3, .cls-4, .cls-5, .cls-6, .cls-7, .cls-8, .cls-9, .cls-10, .cls-11, .cls-12, .cls-13, .cls-14, .cls-15, .cls-16, .cls-17, .cls-18, .cls-19, .cls-20, .cls-21, .cls-22, .cls-23, .cls-24, .cls-25, .cls-26, .cls-27, .cls-28, .cls-29, .cls-30, .cls-31, .cls-32, .cls-33, .cls-34, .cls-35, .cls-36, .cls-37, .cls-38, .cls-39, .cls-40, .cls-41, .cls-42, .cls-43, .cls-44, .cls-45, .cls-46, .cls-47, .cls-48, .cls-49, .cls-50, .cls-51, .cls-52, .cls-53, .cls-54, .cls-55, .cls-56, .cls-57, .cls-58, .cls-59, .cls-60, .cls-61, .cls-62, .cls-63, .cls-64, .cls-65, .cls-66, .cls-67, .cls-68, .cls-69 {
        stroke-width: 0px;
      }

      .cls-2 {
        fill: #4a6779;
      }

      .cls-3 {
        fill: #501216;
      }

      .cls-4 {
        fill: #b6a8a1;
      }

      .cls-5, .cls-70 {
        fill: #fddeb8;
      }

      .cls-6 {
        fill: #e5782a;
      }

      .cls-7 {
        fill: #e54054;
      }

      .cls-8 {
        fill: #926d59;
      }

      .cls-9 {
        fill: #1a384a;
      }

      .cls-71 {
        opacity: .6;
      }

      .cls-10 {
        fill: #1d1e1c;
      }

      .cls-11 {
        fill: #202f38;
      }

      .cls-12 {
        fill: #ee8278;
      }

      .cls-13 {
        fill: #334854;
      }

      .cls-14 {
        fill: #d3f2f1;
      }

      .cls-15 {
        fill: #c02b3f;
      }

      .cls-16 {
        fill: #380807;
      }

      .cls-17 {
        fill: #741d28;
      }

      .cls-18 {
        fill: #1a3648;
      }

      .cls-19 {
        fill: #bf2d40;
      }

      .cls-72 {
        opacity: .63;
      }

      .cls-20 {
        fill: #2d0300;
      }

      .cls-21 {
        fill: #2d0e0e;
      }

      .cls-22 {
        fill: #62151d;
      }

      .cls-23 {
        fill: #b4a69f;
      }

      .cls-24 {
        fill: #e85926;
      }

      .cls-25 {
        fill: #460f11;
      }

      .cls-26 {
        fill: #e75927;
      }

      .cls-27 {
        fill: #fdcd5b;
      }

      .cls-28 {
        fill: #511317;
      }

      .cls-29 {
        fill: #2e5a76;
      }

      .cls-30 {
        fill: #397090;
      }

      .cls-31 {
        fill: #6d5242;
      }

      .cls-32 {
        fill: #c83949;
      }

      .cls-33 {
        fill: #9f9f9e;
      }

      .cls-34 {
        fill: #350f10;
      }

      .cls-35 {
        fill: #f0884d;
      }

      .cls-36 {
        fill: #fff;
      }

      .cls-37 {
        fill: #2a2c2a;
      }

      .cls-38 {
        fill: #21656b;
      }

      .cls-39 {
        fill: #912433;
      }

      .cls-40 {
        fill: #751e28;
      }

      .cls-41 {
        fill: #fdeddb;
      }

      .cls-42 {
        fill: #401113;
      }

      .cls-73 {
        clip-path: url(#clippath);
      }

      .cls-43 {
        fill: #b92d43;
      }

      .cls-74 {
        opacity: .53;
      }

      .cls-44 {
        fill: #82202d;
      }

      .cls-45 {
        fill: #24485f;
      }

      .cls-46 {
        fill: #f4f4f4;
      }

      .cls-47 {
        fill: #164d50;
      }

      .cls-48 {
        fill: #e64054;
      }

      .cls-49 {
        fill: #7d1b25;
      }

      .cls-50 {
        fill: #2b3e48;
      }

      .cls-51 {
        fill: #ee8a6c;
      }

      .cls-52 {
        fill: #173142;
      }

      .cls-53 {
        fill: #2a536c;
      }

      .cls-54 {
        fill: #f2966c;
      }

      .cls-55 {
        fill: #3a7190;
      }

      .cls-56 {
        fill: #7a1a24;
      }

      .cls-57 {
        fill: #64151b;
      }

      .cls-58 {
        fill: #82262e;
      }

      .cls-59 {
        fill: #394d5b;
      }

      .cls-60 {
        fill: #1d1d1b;
      }

      .cls-61 {
        fill: #2a0200;
      }

      .cls-62 {
        fill: #86c1bd;
      }

      .cls-63 {
        fill: #892230;
      }

      .cls-64 {
        fill: #ac4618;
      }

      .cls-65 {
        fill: #f4a887;
      }

      .cls-66 {
        fill: #305e7b;
      }

      .cls-67 {
        fill: #61242b;
      }

      .cls-68 {
        fill: #3b0a09;
      }

      .cls-69 {
        fill: #301915;
      }
    </style>
    <clipPath id="clippath">
      <path class="cls-5" d="m1961,290.01c-85.79,14.67-221.76,28.69-381.2,1.06-259.36-44.94-329.81-156.6-533.49-208.14-234.27-59.27-550.6-15.16-742.78,160.17C70.12,456.04,27.9,855.16,155.46,1128.64c314.62,674.54,1683.63,630.94,2400.68,454.21,209.11-51.54,701.79-179.28,834.34-521.04,60.02-154.77,29.64-306.6,29.64-306.6-44.76-223.69-226.23-345.73-273.75-378.44-70.5-48.52-174.09-100.8-406.86-129.7-173.72-21.57-443.7-33.14-778.52,42.94Z"/>
    </clipPath>
  </defs>
  <g>
    <ellipse class="cls-54" cx="1706.84" cy="2207.88" rx="1706.84" ry="250.19"/>
    <rect class="cls-64" x="2771.16" y="1627.3" width="4" height="1032.54" transform="translate(-155.13 4069.82) rotate(-71.04)"/>
    <rect class="cls-64" x="2190.58" y="1815.47" width="4" height="766.82" transform="translate(-882.97 2627.26) rotate(-53.01)"/>
    <rect class="cls-64" x="1602.65" y="1913.46" width="4" height="599.35" transform="translate(-982.02 1328.84) rotate(-35.18)"/>
    <rect class="cls-64" x="1034.33" y="1973.3" width="4" height="477.17" transform="translate(-553.19 357.2) rotate(-15.49)"/>
    <rect class="cls-64" x="311.77" y="2199.36" width="362.07" height="4" transform="translate(-1762.34 2145.2) rotate(-75.96)"/>
  </g>
  <g class="cls-74">
    <ellipse class="cls-64" cx="1801.44" cy="2164.44" rx="1294.19" ry="145.47"/>
  </g>
  <g>
    <path class="cls-70" d="m1961,290.01c-85.79,14.67-221.76,28.69-381.2,1.06-259.36-44.94-329.81-156.6-533.49-208.14-234.27-59.27-550.6-15.16-742.78,160.17C70.12,456.04,27.9,855.16,155.46,1128.64c314.62,674.54,1683.63,630.94,2400.68,454.21,209.11-51.54,701.79-179.28,834.34-521.04,60.02-154.77,29.64-306.6,29.64-306.6-44.76-223.69-226.23-345.73-273.75-378.44-70.5-48.52-174.09-100.8-406.86-129.7-173.72-21.57-443.7-33.14-778.52,42.94Z"/>
    <g class="cls-73">
      <g>
        <ellipse class="cls-36" cx="1042.88" cy="484" rx="37.13" ry="35.92"/>
        <path class="cls-66" d="m1039.48,73.41h5.52c1.67,0,3.03,1.36,3.03,3.03v231.24c0,1.67-1.36,3.03-3.03,3.03h-5.52c-1.67,0-3.03-1.36-3.03-3.03V76.44c0-1.67,1.36-3.03,3.03-3.03Z"/>
        <path class="cls-55" d="m1090.94,343.99c-4.75-5.26-12.48-12.51-23.6-17.74h-53.63c-11.36,7.61-19.7,15.8-25.84,23.23-41.41,50.15-25.45,117.83-21.87,131.71,23.89,1.59,49.21,2.6,75.83,2.78,27.88.19,54.36-.56,79.28-1.95,3.93-17.59,4.46-32.19,4.25-42.06-.38-17.49-3.18-61.39-34.42-95.97Z"/>
        <path class="cls-55" d="m1057.35,298.98c-6.47-5.9-13.52-6.22-15.85-6.28-3.81-.11-11.48.58-18.17,7-10.2,9.78-9.71,24.81-9.63,26.56,4.99,2.6,12.68,5.76,22.38,6.52,14.35,1.13,25.55-3.57,31.25-6.52.18-2.96.18-8.71-2.19-15.14-.83-2.25-2.89-7.65-7.8-12.13Z"/>
        <path class="cls-66" d="m1067.34,326.25h-53.63s108.42,44.7,70.77,157.29l36.63-1.52s24.58-109.86-53.77-155.77Z"/>
      </g>
      <g>
        <ellipse class="cls-36" cx="752.45" cy="410.59" rx="37.13" ry="35.92"/>
        <path class="cls-66" d="m749.05,0h5.52c1.67,0,3.03,1.36,3.03,3.03v231.24c0,1.67-1.36,3.03-3.03,3.03h-5.52c-1.67,0-3.03-1.36-3.03-3.03V3.03c0-1.67,1.36-3.03,3.03-3.03Z"/>
        <path class="cls-55" d="m800.51,270.58c-4.75-5.26-12.48-12.51-23.6-17.74h-53.63c-11.36,7.61-19.7,15.8-25.84,23.23-41.41,50.15-25.45,117.83-21.87,131.71,23.89,1.59,49.21,2.6,75.83,2.78,27.88.19,54.36-.56,79.28-1.95,3.93-17.59,4.46-32.19,4.25-42.06-.38-17.49-3.18-61.39-34.42-95.97Z"/>
        <path class="cls-55" d="m766.92,225.57c-6.47-5.9-13.52-6.22-15.85-6.28-3.81-.11-11.48.58-18.17,7-10.2,9.78-9.71,24.81-9.63,26.56,4.99,2.6,12.68,5.76,22.38,6.52,14.34,1.13,25.54-3.57,31.25-6.52.18-2.96.18-8.71-2.19-15.14-.83-2.25-2.89-7.65-7.8-12.13Z"/>
        <path class="cls-66" d="m776.92,252.84h-53.63s108.42,44.7,70.77,157.29l36.63-1.52s24.58-109.86-53.77-155.77Z"/>
      </g>
    </g>
  </g>
  <g>
    <rect class="cls-24" x="1478.34" y="58.07" width="1712.02" height="1152.22" rx="156.65" ry="156.65"/>
    <rect class="cls-36" x="1442.42" y="93.37" width="1712.02" height="1100.54" rx="156.65" ry="156.65"/>
    <g>
      <path class="cls-26" d="m2943.7,223.26l-157.38,216.58c84.58-24.58,169.15-49.16,253.73-73.74-4.3-17.06-11.42-38.04-23.61-60.27-23-41.92-53.01-68.12-72.74-82.57Z"/>
      <path class="cls-63" d="m2786.33,439.84l157.37-216.57c-111.3-82.3-269.31-62.35-359.56,48-93.56,114.4-78.89,282.6,32.78,375.7,111.67,93.1,278.04,75.84,371.61-38.56,57.55-70.36,74.13-161.07,52.4-242.15l-254.6,73.58Z"/>
      <path class="cls-19" d="m2786.33,439.84c-18.57,88.25-37.15,176.5-55.72,264.76,17.41,2.96,121.77,18.9,214.24-53.54,16.12-12.63,82.54-67.63,100.56-164.52,9.81-52.75,1.27-96.39-5.35-120.44-84.58,24.58-169.15,49.16-253.73,73.74Z"/>
      <path class="cls-51" d="m2635.15,223.44c-62.04,44.85-87.66,104.04-96.64,128.31l247.83,88.08,157.38-216.58c-20.08-14.69-59.7-39.46-115.38-47.69-103.31-15.27-180.22,38.5-193.19,47.87Z"/>
    </g>
    <rect class="cls-36" x="2265.76" y="895.52" width="756.7" height="35.92" rx="12" ry="12"/>
    <path class="cls-24" d="m2265.76,907.34v11.92c0,6.6,5.4,12,12,12h575.78v-35.92h-575.78c-6.6,0-12,5.4-12,12Z"/>
    <rect class="cls-36" x="2265.76" y="966.41" width="756.7" height="35.92" rx="12" ry="12"/>
    <rect class="cls-36" x="2265.76" y="1035.51" width="756.7" height="35.92" rx="12" ry="12"/>
    <path class="cls-24" d="m2265.76,978.41v11.92c0,6.6,5.4,12,12,12h367.31v-35.92h-367.31c-6.6,0-12,5.4-12,12Z"/>
    <path class="cls-24" d="m2265.76,1047.51v11.92c0,6.6,5.4,12,12,12h497.28v-35.92h-497.28c-6.6,0-12,5.4-12,12Z"/>
    <g>
      <path class="cls-41" d="m2360.53,225.97h-752.63c-13.5,0-24.44,9.07-24.44,20.26v474.09c0,11.19,10.94,20.26,24.44,20.26h752.63c13.5,0,24.44-9.07,24.44-20.26V246.23c0-11.19-10.94-20.26-24.44-20.26Z"/>
      <g>
        <polygon class="cls-3" points="2120.35 385.08 2059.42 357.42 1954.81 423.67 1855.94 385.1 1750.44 468.92 1753.05 472.05 1856.66 389.73 1955.26 428.2 2059.75 362.03 2120.8 389.74 2249.56 299.97 2247.16 296.68 2120.35 385.08"/>
        <path class="cls-1" d="m1749.1,457.21c-7.39.01-13.67,5.85-14.07,13.28.4,7.43,6.69,13.26,14.07,13.28,7.4.01,14.07-5.82,14.07-13.28s-6.67-13.29-14.07-13.28Z"/>
        <path class="cls-1" d="m1854.05,377.88c-7.77,0-14.07,5.94-14.07,13.28s6.3,13.28,14.07,13.28,14.07-5.94,14.07-13.28-6.3-13.28-14.07-13.28Z"/>
        <path class="cls-1" d="m1950.8,413.78c-7.77,0-14.07,5.94-14.07,13.28s6.3,13.28,14.07,13.28,14.07-5.94,14.07-13.28-6.3-13.28-14.07-13.28Z"/>
        <ellipse class="cls-1" cx="2116.96" cy="384.41" rx="14.07" ry="13.28"/>
        <ellipse class="cls-1" cx="2057.09" cy="359.49" rx="14.07" ry="13.28"/>
        <polygon class="cls-3" points="2215.79 298.23 2249.56 296.54 2249.56 320.6 2253.69 320.6 2253.69 292.28 2215.58 294.2 2215.79 298.23"/>
      </g>
      <rect class="cls-24" x="1784.84" y="525.52" width="21.38" height="95.22"/>
      <rect class="cls-24" x="1840.23" y="486.51" width="21.38" height="134.22"/>
      <rect class="cls-24" x="1893.37" y="553.94" width="21.38" height="67.11"/>
      <rect class="cls-24" x="1944.08" y="508.15" width="21.38" height="112.09"/>
      <rect class="cls-24" x="2058.95" y="552.93" width="21.38" height="67.11"/>
      <rect class="cls-24" x="2109.66" y="507.95" width="21.38" height="112.09"/>
      <rect class="cls-24" x="2000.28" y="476.74" width="21.38" height="143.83"/>
      <rect class="cls-24" x="2165.55" y="419.84" width="21.38" height="200.73"/>
      <polygon class="cls-3" points="1710.97 263.78 1706.84 263.79 1707.02 622.37 2321.61 622.37 2321.61 618.32 1711.15 618.32 1710.97 263.78"/>
      <rect class="cls-3" x="1655.33" y="320.61" width="29.32" height="4.04"/>
      <rect class="cls-3" x="1655.33" y="360.55" width="29.32" height="4.04"/>
      <rect class="cls-3" x="1655.33" y="398.33" width="29.32" height="4.04"/>
      <rect class="cls-3" x="1655.33" y="433.12" width="29.32" height="4.04"/>
      <rect class="cls-3" x="1655.33" y="473.05" width="29.32" height="4.04"/>
      <rect class="cls-3" x="1655.33" y="510.84" width="29.32" height="4.04"/>
      <rect class="cls-3" x="1655.33" y="547.34" width="29.32" height="4.04"/>
      <rect class="cls-3" x="1655.33" y="587.27" width="29.32" height="4.04"/>
      <rect class="cls-3" x="1705.93" y="652.46" width="179.2" height="4.04"/>
      <rect class="cls-3" x="1705.93" y="676.09" width="140.71" height="4.04"/>
      <rect class="cls-3" x="1705.93" y="701.76" width="179.2" height="4.04"/>
    </g>
  </g>
  <g class="cls-74">
    <ellipse class="cls-64" cx="439.62" cy="2175.73" rx="331.86" ry="106.84"/>
  </g>
  <g class="cls-74">
    <ellipse class="cls-64" cx="2029.38" cy="2112.31" rx="410.05" ry="140.04"/>
  </g>
  <g>
    <path class="cls-16" d="m1984.12,652.68s54.48-270.45-124.03-132.86c8.61,66.98,5.2,120,.58,155.51-.5,3.85-2.8,21.17-7.38,44.22-14.58,73.38-30.62,95.7-36.44,129.33-11.73,67.88,23.55,151.21,50.39,152.06,118.78,3.76,148.17-466.82,116.88-348.25Z"/>
    <path class="cls-65" d="m2025.83,571.64c-14.93,10.55-30.81,22.9-47,37.32-10.43,9.29-19.93,18.49-28.56,27.43-.82,14.62-1.64,29.24-2.46,43.86l-51.15,10.44s-45.33,75.19,11.87,105.47c57.21,30.28,171.62,8.35,181.34-8.35,9.71-16.71,18.35-113.83,18.35-113.83l-71.16-8.35c-3.74-31.33-7.49-62.66-11.23-93.98Z"/>
    <path class="cls-32" d="m1950.27,636.38c-.67,12-1.35,23.99-2.02,35.99,35.16-3.04,64.84-22.67,76.16-51.01,8.59-21.51,3.95-41.37,1.41-49.72l-75.56,64.74Z"/>
    <path class="cls-65" d="m2203.33,1892.4c-5.99-71.73-1.31-90.89-5.51-163.02-2.94-50.5-5.96-53.53-11.52-115.57-3.8-42.4-7.98-103.27-8.59-178.22,0,0-120.73-111.23-118.05,82.92l28.91,130.8c.88,10.5,2.21,25.1,4.2,42.47,2.06,18.05,7.65,63.81,21.59,132.27,9.17,45.07,23.2,106.04,44.61,179.27-.88,16.54-1.92,41.08-2.16,71.01-.35,43.94,1.39,52.81,3.24,59.52,9.65,35.02,39.62,74.42,61.93,70.31,21.5-3.96,32.39-47.66,33.67-77.77,2.17-51.13-23.12-69.28-40.55-140.14-5.94-24.14-7.88-47.38-11.76-93.87Z"/>
    <path class="cls-65" d="m1881.81,1488.77l11.61,90.88v407.7c-21.36,44.23-45.78,74.26-64.76,93.88-26.31,27.2-53.96,46.62-49.03,56.04,1.98,3.78,8.2,4.01,38.24,2.6,44.3-2.07,66.63-3.2,75.55-7.51,8.05-3.89,29.6-16.17,43.18-51.13v51.13l10.79-.17c.13-3.13,1.22-30.48,1.35-33.7.34-8.45,1.91-48.08,2.25-56.54-.3-19.5-.59-39.01-.89-58.51,9.88-35,18.75-73.45,25.51-115.1,15.15-93.35,15.52-176.94,10.2-245.86l19.84-218.91s-91.56-45.25-123.84,85.19Z"/>
    <path class="cls-65" d="m2054.11,522.86c-8.07-4.17-23.19,10.97-24.33,12.13-2.37-15.68-4.74-31.36-7.11-47.04l-14.88-44.94s-135.35,37.38-125.95,91.09c1.35,7.71,3.61,84.85,49.86,107.22,3.73,1.8,13.21,6.26,25.82,6.1,33.68-.44,55.61-34.79,59.71-41.17,7.14-11.11,10.56-21.4,12.27-27.79,5.96-2.44,14.4-7.07,20.88-15.72,8.32-11.1,12.44-27.5,6.58-36.97-1.05-1.69-1.96-2.44-2.85-2.9Z"/>
    <path class="cls-7" d="m1907.15,1035.51s-40.47,65.92-48.32,444.64c0,0,125.99,86.33,333.23,0,0,0,30.94-348.35-83.83-469.35-114.78-121.01-201.08,24.71-201.08,24.71Z"/>
    <path class="cls-58" d="m2083.26,1060c19.9-18.65,24.96-55.9,24.96-55.9l-165.14-3.15s-59.82-9.61-24.05,23.25c-17.08,23.24-41.89,68.48-41.89,68.48l-11.19,209.59c16.35,14.83,26.94,16.25,33.75,14.43,54.54-14.56,33.3-281.15,33.3-281.15,16.77-8.93,30.03-10.01,39.13-9.29,19.22,1.52,27.82,11.7,49.65,13.39,12.9,1,23.72-1.48,30.83-3.73,1.52,72.06,5.21,132.11,8.72,176.98,4.11,52.6,7.87,82.89,29.8,94.31,23.53,12.24,55.41-3.77,69.76-12.1,10.25-8.08,20.5-16.16,30.75-24.24-12.51-27.85-26.01-56.39-40.59-85.52-22.27-44.48-45.03-86.26-67.79-125.35Z"/>
    <path class="cls-36" d="m2060.29,748.79c-61.97,69.6-143.6,14.79-143.6,14.79-5.31,6-12.2,14.45-19.17,25.2-61.45,94.78-41.38,232.55,2.38,245.8,19.12,5.79,27.95-16.67,74.48-20.19,29.17-2.21,39.33-4.59,68,6.27,24.83,9.4,57.21-5.22,89.59-20.89,32.38-15.66-9.71-320.59-71.68-250.99Z"/>
    <g class="cls-72">
      <path class="cls-23" d="m2033.75,976.12c-25.19,9.75-100.74-5.97-100.74-5.97,0,0,64.76,31.04,78.96,33.82s46.97-37.59,21.79-27.85Z"/>
    </g>
    <path class="cls-58" d="m1933,1267.12c93.55,10.44,175.22-81.27,175.22-81.27-124.13,83.73-268.77,70.82-175.22,81.27Z"/>
    <path class="cls-12" d="m2564.09,713.66c-6.05-3.23-12.32-2.65-19.25-2.01-8.47.78-14.56,3.02-18.53,4.45-19.2,6.91-44.14,15.88-46.41,12.18-.37-.61-.31-1.84,2.05-4.66,2.78-4.07,4.54-7.65,5.63-10.2l5.76-20.89s-11.99,7.43-20.15,13c-8.16,5.57-37.9,25.06-40.3,30.63-2.4,5.57-16.31,22.74-16.31,22.74,0,0-39.39,34.29,40,14.66l69.37-7c31.25-24.16,51.33-39.68,51.33-39.68,0,0-5.6-9.17-13.19-13.23Z"/>
    <path class="cls-58" d="m2001.36,1194.02c-18.91.22-45.39-4.18-77.72-25.06,7.91,7.94,55.68,54.83,97.15,41.77,14.43-4.55,28.76-16.56,27.04-20.5-1.89-4.36-22.4,3.52-46.47,3.8Z"/>
    <path class="cls-36" d="m2415.61,738.95l-22.07,18.59c-22.07,69.18,57.03,37.68,57.03,37.68l14.92-19.14c-29.74-5.57-49.89-37.13-49.89-37.13Z"/>
    <path class="cls-58" d="m2108.22,1010.8s179.38,464.64-122.41,507.72c0,0,150.84,1.32,206.24-38.37,0,0,29.5-364.36-83.83-469.35Z"/>
    <path class="cls-30" d="m2389.23,749.86l-60.45,48.04s-.72-7.66-7.2-6.27c-6.48,1.39-15.11.7-15.11.7,0,0-57.93-36.33-79.52-53.84-21.59-17.51-65.36-58.24-118.73-64.51s-50.04-5.87-60.6-7.11c0,0-.92,312.04,6.63,392.45,7.56,80.41,21.59,237.05,46.41,242.27,24.83,5.22,91.75-19.55,124.13-60.95,32.38-41.39-26.98-54.97-45.33-155.22-18.35-100.25-15.11-185.88-15.11-185.88l5.28-37.59s159.15,72.4,193.69,52.91c34.54-19.49,102.18-113.48,102.18-113.48,0,0-66.2-24.37-76.28-51.52Z"/>
    <path class="cls-12" d="m1592.63,678.85c-7.92-6.27-5.04,18.8,2.88,22.97,7.92,4.18,10.79,15.32,10.79,15.32-14.39-3.25-28.78-6.5-43.18-9.75-10.47-.85-19.08-.16-25.19.7-12.68,1.77-16.58,4.54-18.07,5.71-1.15.9-10.21,7.71-8.55,14.48.83,3.39,4.02,5.42,8.64,8.35,4.25,2.7,8.2,4.12,10.79,4.87,9.31,2.49,18.92,5.26,28.78,8.35,7.94,2.49,15.62,5.05,23.03,7.66l29.38,22.77s39.66,1.75,39.32-28.26l-15.04-48.11s-35.67-18.8-43.59-25.06Z"/>
    <path class="cls-53" d="m2328.78,797.89s-1.44-8.12-7.2-6.27-15.11.7-15.11.7c-3.6,42.47,36.7,76.08,36.7,76.08-33.1-58.28-14.39-70.51-14.39-70.51Z"/>
    <path class="cls-36" d="m1654.52,747.77c-10.79,16.71-48.21,35.51-48.21,35.51l10.08,22.83c58.29-2.23,49.24-40.04,49.24-40.04l-11.11-18.3Z"/>
    <path class="cls-30" d="m1923.65,685.17c-56.85,1.45-112.98,50.06-117.99,65.38-5.01,15.32-10.82,19.49-19.46,29.08-8.64,9.59-23.27,31.6-23.27,31.6l-35.74,35.39-53.25-97.47-5.76,12.53c-14.39,27.85-61.89,49.55-61.89,49.55,0,0,66.2,149.56,113.7,175.88,47.49,26.32,116.57-70.88,116.57-70.88l7.48,364.8,50.09,21.18c66.2,14.22,46.05-147.14,46.05-147.14l-16.55-469.91Z"/>
    <path class="cls-53" d="m1727.2,846.63l26.98,87.19s19.07,4.71,8.75-18.96c-10.32-23.67-35.74-68.23-35.74-68.23Z"/>
    <path class="cls-53" d="m1822.38,934.19l14.2-17.95s.36-76.23,0-99.21c-.36-22.97,7.48-55.35,7.48-55.35,0,0-26.88,60.96-21.68,172.5Z"/>
    <path class="cls-9" d="m1949.39,2018.84s-22.63,6.25-40.29,31.31c-17.66,25.06-66.05,52.65-79.48,22.84,0,0,0,0,0,0-2.77,2.87-5.46,5.55-8.06,8.07-28.07,27.2-57.59,46.62-52.32,56.04,2.12,3.78,8.75,4.01,40.8,2.6,47.27-2.07,71.1-3.2,80.62-7.51,8.59-3.89,31.58-16.17,46.07-51.13v51.13l11.52-.17c.13-3.13,1.3-30.48,1.44-33.7.36-8.45,2.04-48.08,2.4-56.53-.13-8.03-.26-16.06-.39-24.08l-2.32,1.12Z"/>
    <path class="cls-9" d="m2151.85,2068.1c-.38,47.02,1.49,56.51,3.47,63.7,10.33,37.48,42.41,79.64,66.28,75.25,23.01-4.23,34.66-51.01,36.03-83.22,1.28-30.1-6.34-49.52-16.55-73.52-39,118.55-89.23,17.8-89.23,17.8Z"/>
    <path class="cls-60" d="m2149.56,756.33c-40.62-36.41-39.56-194.11-39.54-195.7l-3-.03c0,.4-.34,40.48,4.43,84.61,6.43,59.5,18.58,97.63,36.11,113.35,31.31,28.06,84.1,104,77.84,155.43-2.18,17.93-11.41,31.34-27.44,39.86l1.41,2.65c16.94-9.01,26.71-23.19,29.01-42.15,6.38-52.47-47.09-129.59-78.82-158.03Z"/>
    <path class="cls-9" d="m2093.93,1142.62l-4.48,19.55s27.73,36.52,107.45,32.88c0,0-103.28-19.12-102.97-52.43Z"/>
    <path class="cls-9" d="m1860.08,1257.83c57.83-4.02,67.02-41.23,67.02-41.23l-8.84-18.11c9.84,31.53-58.19,59.33-58.19,59.33Z"/>
    <path class="cls-9" d="m1877.14,695.73s17.93,285.7,55.86,288.83l-9.35-299.39s-30.58,3.08-46.5,10.56Z"/>
    <path class="cls-32" d="m2029.27,530.39c-1.35-1.88-2.8-3.24-3.96-4.18-4.06-9.29-8.13-18.59-12.19-27.89l-14.88-44.94c-14.77,2.57-39.15,8.66-64.91,24.63-26.46,16.4-42.59,35.91-51.14,48,.48,4.59,1.92,18.33,1.92,18.33,17.77-20.25,19.07-19.47,19.07-19.47-6.53,10.15-5.16,14.35-4.05,16.06,5.29,8.14,30.93.67,38.39-1.51,15.63-4.55,27.3-11.3,34.62-16.21,5.93-3.36,13.15-8.44,19.79-16.01,2.08-2.37,3.86-4.71,5.4-6.96,1.34,5,12.03,44.19,20.52,46.7,1.68.5,3.29.36,3.29.36,5.92-.51,9.58-7.18,10.68-9.36-.04-1.05-.07-2.1-.11-3.15-.5-1.24-1.27-2.78-2.44-4.41Z"/>
    <path class="cls-9" d="m2049.29,969.92c37.75-4.73,42.83-290.91,42.83-290.91-16.25-6.81-46.93-8.59-46.93-8.59l4.1,299.5Z"/>
    <g>
      <path class="cls-28" d="m1912.73,514.5c3.24-2.27,5.12-3.77,5.12-3.77-2,1.32-3.69,2.58-5.12,3.77Z"/>
      <path class="cls-28" d="m2150.18,789.92c-55.28-52.32-13.82-108.65-45.03-275.18-4.87-25.97-15.09-76.83-52.37-92.82-9.8-4.2-19.04-4.96-25.31-4.95-2.88-4.53-5.75-9.05-8.63-13.58-7.24-3.21-49.05-20.93-97.01-2.32-48.94,18.99-66.86,61.29-69.73,68.41-21.3,18.78-30.22,40.34-23.08,53.86,3.5,6.64,9.94,9.85,12.8,10.96,24.9,9.7,58.3-10.95,70.92-19.8,1.43-1.19,3.12-2.45,5.12-3.77,0,0-1.87,1.5-5.12,3.77-14.82,12.38-1.06,17.93-1.06,17.93,49.09,9.2,92.69-55.23,92.69-55.23-1.18,39.15,17.93,57.82,23.05,59.37,5.12,1.55,4.17-.43,12.98-10.35,8.82-9.91,25.6-2.07,17.46,21.82-8.14,23.89-28.35,30.41-28.35,30.41-27.21,121.13,61.96,228.23,83.4,286.95,21.44,58.71-13.17,113.47-13.17,113.47,33.21,12.42,57.83-32.31,57.83-32.31-3.74,29.01-19.8,29.88-19.8,29.88,0,0,14.1,3.1,49.27-10.9,35.16-14,22.63-119.34-36.83-175.63Z"/>
    </g>
    <path class="cls-48" d="m1987.05,557.49c-10.18,2.93-15.97,13.31-12.93,23.18,3.04,9.88,13.75,15.51,23.93,12.58,10.18-2.93,15.97-13.31,12.93-23.18-3.04-9.88-13.75-15.51-23.93-12.58Z"/>
    <path class="cls-48" d="m1891.64,560.37c-2.45.71-4.64,1.85-6.51,3.31,2.17,12.04,5.29,23.13,9.18,33,2.71.4,5.54.26,8.33-.54,10.18-2.93,15.97-13.31,12.93-23.18-3.04-9.88-13.75-15.51-23.93-12.58Z"/>
    <path class="cls-43" d="m1945.72,621.24c8.8,5.66,20.59.11,26.73-15.82l-36.21,3.02c3.68,8.67,7.96,11.82,9.49,12.8Z"/>
    <path class="cls-68" d="m1981.36,539.32c-3.81,0-6.9,4.94-6.9,11.05,0,6.1,3.08,11.06,6.9,11.06,3.81,0,6.9-4.94,6.9-11.05,0-6.1-3.08-11.06-6.9-11.06Z"/>
    <path class="cls-68" d="m1909.55,541.53c-3.59,0-6.5,4.88-6.51,10.91,0,6.03,2.91,10.92,6.5,10.92,3.59,0,6.5-4.88,6.51-10.91,0-6.03-2.91-10.92-6.5-10.92Z"/>
    <path class="cls-43" d="m1926.64,588.93s3.48,4.31,9.93,1.6c6.45-2.71,3.56-31.32,3.56-31.32l-13.48,29.72Z"/>
    <path class="cls-3" d="m1981.4,521.47l-.1,3c.39.01,9.65.47,16.76,10.44l2.44-1.74c-8.02-11.23-18.66-11.68-19.11-11.69Z"/>
    <path class="cls-32" d="m2037.07,539.32v22.11s12.55-6.25,13.54-14.09c.99-7.84-11.25-17.4-13.54-8.02Z"/>
    <g>
      <path class="cls-17" d="m2018.28,437.13s-.04.03-.04.03c0,0,.01,0,.04-.03Z"/>
      <path class="cls-17" d="m2054.48,421.91c-9.8-4.2-19.04-4.96-25.31-4.95-2.88-4.53-5.75-9.05-8.63-13.58-7.24-3.21-49.05-20.93-97.01-2.32-48.94,18.99-66.86,61.29-69.73,68.41,0,0,35.01-18.32,53.05-29.14,18.04-10.82,59.76-43.38,90.62-26.55,29.74,16.21,21.45,22.89,20.81,23.35.8-.56,15.81-10.3,43.13,16.26,28.09,27.3,53.38,90.49,48.52,118.25s12.12,169.24,12.12,169.24l.66-7.65c-6.7-44.59,5.09-106.72-15.86-218.5-4.87-25.97-15.09-76.83-52.37-92.82Z"/>
    </g>
    <g>
      <path class="cls-16" d="m2049.85,563.13l.53-.4s-.19.12-.53.4Z"/>
      <path class="cls-16" d="m2049.85,563.13l-20.35,15.32c-31.91,125.06,75.24,268.18,75.24,268.18-98.91-237.06-60.04-279.21-54.89-283.5Z"/>
    </g>
  </g>
  <g>
    <path class="cls-14" d="m2272.93,1124.16l63.48,302.31c139.07.39,278.13.78,417.2,1.17,3.24,0,6.48.02,9.71.03-26.26-101.17-52.53-202.34-78.79-303.51h-411.61Z"/>
    <polygon class="cls-66" points="2272.93 1124.16 2278.17 1149.12 2691.82 1149.12 2684.54 1124.16 2272.93 1124.16"/>
    <g class="cls-71">
      <polygon class="cls-36" points="2306.93 1286.04 2326.62 1379.83 2410.89 1149.12 2353.77 1149.12 2306.93 1286.04"/>
    </g>
    <g class="cls-71">
      <polygon class="cls-36" points="2410.89 1426.47 2485.37 1426.47 2563.65 1149.12 2498.89 1149.12 2410.89 1426.47"/>
    </g>
    <g class="cls-71">
      <path class="cls-36" d="m2633.81,1149.12l-70.16,278.58h75.56c21.29-78.57,42.58-157.13,63.87-235.69-3.75-14.3-7.5-28.59-11.26-42.89h-58.01Z"/>
    </g>
    <path class="cls-59" d="m2266.46,1149.12c3.6,12.64,55.41,278.58,55.41,278.58l14.55-1.22-63.48-302.31s-10.07,12.31-6.48,24.95Z"/>
    <path class="cls-36" d="m2507.52,1128.95c-4.39,0-7.94,3.44-7.94,7.69s3.56,7.69,7.94,7.69,7.94-3.44,7.94-7.69-3.56-7.69-7.94-7.69Z"/>
    <path class="cls-59" d="m2319.01,1427.38h534.53l11.67-31.39c-183.12.55-366.24,1.09-549.35,1.64,1.05,9.92,2.1,19.83,3.15,29.75Z"/>
  </g>
  <g>
    <path class="cls-65" d="m783.97,571.51c-18.23-.46-48.45,8.82-48.45,8.82l-28.78,20.89s-17.27,0-17.27-2.67,11.99-14.04,17.27-17.29c5.28-3.25,6.24-12.07,5.76-18.56-.48-6.5-.96-2.32-13.43,6.96-12.47,9.28-30.22,19.96-30.22,19.96l-17.92,47.93c-36.91,60.01,44.54,31.85,44.54,31.85l48.69-31.85,17.75-12.28s41.26-36.58,43.66-44c2.4-7.43-3.36-9.28-21.59-9.75Z"/>
    <path class="cls-38" d="m419.14,2129.79c-17.27-14.62-46.9-36.47-46.9-36.47-76.4-31.6-88.62,28.04-88.62,28.04l5.99,63.43h23.75l3.6-10.44c15.83-8.35,47.49,10.44,47.49,10.44,0,0,88.43-.02,100.02-5.57,11.59-5.55,10.79-16.71,8.64-27.15-2.16-10.44-36.7-7.66-53.97-22.28Z"/>
    <path class="cls-47" d="m466.34,2069.79c-10.05-8.69-21.16-23.62-25.91-50.98-2.55-7.74-9.08-23.94-25.13-38.33-14.37-12.88-29.5-18.15-37.47-20.33-9.71,27.85-19.43,55.69-29.14,83.54,10.01,12.65,19.19,16.32,25.71,17.34,7.66,1.2,12.58-1.11,17.47,2.5,5.67,4.19,4.88,11.61,6.48,19.84,1.56,8.04,5.9,19.34,18.71,32.02,0,0,59.01,7.66,68.72,4.65,8.69-2.69,12.15-14.86,10.79-23.09-2.01-12.26-16.8-15.55-30.22-27.15Z"/>
    <path class="cls-65" d="m714.41,1042.01c-8.16-1.51-48.93,6.15-48.93,6.15,0,0-48.45-16.24-50.37-26.34-1.92-10.09,13.43-15.18,13.43-15.18,0,0,11.51-2.57,26.86-.25,15.35,2.32,19.19-12.07,19.19-12.07l-41.74-13.92-45.75,5.85c-28.96.28-29.52,70.73-29.52,70.73,0,0,50.33,30.63,75.76,32.24,25.43,1.6,102.66-22.49,102.66-29.92s-13.43-15.78-21.59-17.29Z"/>
    <path class="cls-36" d="m642.93,628.6l-16.94,21.15c-17.42,69.42,80.88,47.98,80.88,47.98l15.69-20.86c-46.05-5.11-79.64-48.27-79.64-48.27Z"/>
    <path class="cls-55" d="m618.47,643.5l-61.89,84.88-7.92-4.18c-7.92-4.18-7.2,2.78-12.23,2.78s-84.5-68.23-84.5-68.23c-21.9,27.15,28.37,195.63,28.37,195.63,0,0,42.46,29.94,94.99,33.42s144.64-188.5,144.64-188.5c-35.26,1.55-101.46-55.81-101.46-55.81Z"/>
    <g>
      <path class="cls-37" d="m556.58,728.38s-11.97-9.72-15.7-3.82c0,0-2.1,3.53-4.45,2.42,0,0-11.03,70.55,8.64,93.75s18.71,21.35,18.71,21.35c0,0-40.88-67.51-7.2-113.71Z"/>
      <path class="cls-10" d="m565.06,841.32c-.4-.67-39.99-67.17-7.27-112.05l.84-1.15-1.1-.9c-.87-.7-8.64-6.86-14.1-5.96-1.62.27-2.94,1.13-3.83,2.54-.23.39-1.6,2.27-2.52,1.83l-1.81-.86-.31,1.98c-.45,2.91-10.91,71.49,8.97,94.95,15.89,18.75,18.65,21.97,19.96,21.97.27,0,.48-.14.73-.31l1.11-.78-.61-1.19-.05-.09Zm-18.85-21.54c-17.45-20.59-9.94-80.85-8.51-91.07,2.01-.18,3.67-2.02,4.45-3.33.42-.66.97-1.02,1.76-1.15,3.01-.49,7.96,2.54,10.61,4.48-13.32,19.15-16.24,44.78-8.42,74.25,3.16,11.9,7.51,22.29,10.93,29.48-2.61-3.02-6.12-7.11-10.82-12.66Z"/>
    </g>
    <path class="cls-62" d="m447.16,651.36c-34.59-36.65-72.37-73.08-72.37-73.08,0,0,11.98,645.78,47.99,697.95,36.01,52.17,89.2,31.16,89.2,31.16l-11.51-234.81s-18.71-384.58-53.3-421.23Z"/>
    <path class="cls-65" d="m271.33,430.81l-5.11,85.21s-9.59-6.16,2.41,8.68c12,14.84,75.75,38.31,75.75,38.31l21.94-80.31c-30.56-81.58-94.99-51.89-94.99-51.89Z"/>
    <path class="cls-32" d="m271.33,430.81s63.91,87.75,85.06,86.21l9.93-34.32s-25.22-88.41-94.99-51.89Z"/>
    <path class="cls-50" d="m557.58,1604.87c-2.6-22.97-82.67-334.27-82.67-334.27-268.77-169.28-197.53,40.9-197.53,40.9l145.39,314.67c-55.38,94.4-52.22,373.47-52.22,373.47,0,0,81.69,48,87.09,29.2s0-20.88,0-20.88c0,0,102.54-380.11,99.94-403.09Z"/>
    <path class="cls-65" d="m283.21,369.12c-5.28-8.26-11.5-12.7-17.98-14.35-.94-.24-12.99-3.11-20.35,2.73-12.18,9.67-6.21,39.03,6.92,57.08,15.8,21.73,41.62,26.57,49.29,27.72,0,0,95.2,85.54,127.92,46.94,32.72-38.6,10.97-154.88,10.97-154.88-172.89-149.33-156.77,34.77-156.77,34.77Z"/>
    <path class="cls-43" d="m421.2,429.4c8.82.61,18.42-13.28,18.42-13.28l-20.94-33.68,2.53,46.95Z"/>
    <path class="cls-2" d="m165.12,1183.48c23.03,123.76,46.05,247.51,69.08,371.27l-17.49,132.23c.44,5.41,1.2,14.84,2.17,26.52,17.64,213.29,20.98,198.43,32.59,311.17.94,9.11,3.31,32.48,10.79,62.66,3.4,13.74,6.89,24.93,9.39,32.48,45.6,7.04,82.64.07,94.23-15.08,7.26-9.48,8.63-19.49,8.64-19.49,7.2-6.96-4.32-23.67-4.32-23.67.72-130.65,1.44-261.3,2.16-391.95,8.84-95.38,17.68-190.75,26.51-286.13l23.89-31.33v-75.92c-53.22-261.8-257.65-92.76-257.65-92.76Z"/>
    <path class="cls-32" d="m315.92,288.58c-22.36,10.99-31.74,34.57-35.34,46.34,2.54,17.13,6.08,41.05,6.08,41.05-1.6-1.43,2.95,3.28,4.95,4.11,1.85.77,5.1.53,11.23-4.48,4.14-4.43,10.5-12.5,13.82-24.14,6.26-21.96-2.94-40.34-5.53-45.13,25.02,40.33,58.33,59.72,78.63,51.79,4.12-1.61,10.89-5.59,16.52-17.13,3.64,2.42,9.79,5.87,18.16,7.77,7.84,1.77,14.51,1.48,18.77.97-.69-4.33-1.15-6.8-1.15-6.8-34.72-52.71-91.11-71.57-126.15-54.35Z"/>
    <path class="cls-13" d="m178.66,1256.21l2.55,14.39s56.48,34.56,138.66,51.93c82.18,17.37,68.61-45.96,68.61-45.96-77.26-72.45-209.82-20.37-209.82-20.37Z"/>
    <path class="cls-34" d="m432.05,261.05s-10.43-42.68-52.77-48.03c-42.34-5.34-58.61-22.01-101.72,10.38l-15.32,9.94s-23.28-40.82,3.48-44.79c0,0-56.3,1.07-11.08,45.45-36.83,10.7-50.14,25.35-55.22,37.3-3.3,7.76-4.25,17.03-13.13,30.79-6.99,10.84-11.07,12.32-14.77,21.26-5.7,13.79-2.89,26.91-1.82,31.89,4.85,22.6,21.34,35.75,26.7,39.68.83,3.36,7.27,27.55,32.63,39.75,24.6,11.84,47.69,3.11,51.13,1.74,0,0-33.67-15.28-39.28-44.05-3.38-17.37-3.88-26.15.06-31.36,4.58-6.05,12.28-6.89,13.91-7.08,11.84-1.34,24.66,7.33,31.5,21.85,5.05-3.77,17.67-14.23,23.89-32.58,7.35-21.7.89-40.08-1.23-45.46,0,0,63.31,82.1,101.7,30.4,0,0,40.02,32.16,64.52-3.75,24.5-35.91-43.2-63.35-43.2-63.35Z"/>
    <path class="cls-36" d="m379.76,595.86c-67.45-82.4-161.86-19.76-161.86-19.76,0,0-6.72,628.47,68.12,673.03,74.84,44.56,188.89,21.48,188.89,21.48,0,0-13.31-467.03-27.75-532.3-14.44-65.27-67.4-142.45-67.4-142.45Z"/>
    <g class="cls-72">
      <polygon class="cls-4" points="333.83 547.38 321.76 606.05 355.49 664.72 373.58 630.95 410.88 647.84 384.15 593.82 333.83 547.38"/>
    </g>
    <path class="cls-34" d="m341.18,570.82c-10.31,5.11-5.52,32.95-5.52,32.95,0,0,22.55,33.18,37.42,37.83s15.92-12.07,15.92-12.07l-9.25-33.67c-7.38-26.86-28.26-30.15-38.57-25.04Z"/>
    <g>
      <path class="cls-34" d="m457.64,1097.18l-.03.06c.03,1.02.03-.06.03-.06Z"/>
      <path class="cls-34" d="m400.45,657.34c-22.65-30.67-26.86,3.71-26.86,3.71,46.55,119.24,55.46,433.18,55.46,433.18l20.56,16.13,8-13.11c-.1-3.02-.51-24.37-2.12-146.08-2.16-162.91-55.03-293.82-55.03-293.82Z"/>
    </g>
    <path class="cls-62" d="m389.01,803.57c-22.22-240.88-171.11-275.22-171.11-275.22l-69.76,96.91,11.23,27.93,8.64,229.3c-1.44,84.49-40.3,351.31-40.3,351.31,0,0,123.77,57.09,193.21,73.59,69.44,16.5,68.09-22.07,68.09-22.07,0,0,22.22-240.88,0-481.76Z"/>
    <path class="cls-36" d="m544.52,1066.22l20.7,3.29s-7.92-46.64,15.83-77.62l9.35-8.7-45.89-9.05s-44.45,63.72,0,92.08Z"/>
    <path class="cls-4" d="m355.97,516.05c-5.48,9.25-10.96,18.51-16.45,27.76,4.99,3.29,9.97,6.57,14.96,9.86,8.16,22.63,16.31,45.25,24.47,67.88,2.31-6.91,4.67-16.35,5.21-27.72.43-9.21-.45-17.19-1.61-23.45l-26.57-54.32Z"/>
    <path class="cls-55" d="m378.12,905.21c-7.2-2.78-16.7-11.14-16.7-11.14,0,0-20.72-54.3-20.72-61.26s-26.47-28.06-31.94-67.64c-5.47-39.58-47.65-186.07-139.54-169.21,0,0-32.88,29.39-41.52,53.06s-7.2,61.61,0,89.28c7.2,27.67,89.23,254.63,102.18,286.65,12.95,32.02,315.18,58.48,315.18,58.48,0,0-7.2-96.07,30.22-115.57l-197.17-47.94s7.2-11.93,0-14.71Z"/>
    <g>
      <path class="cls-37" d="m378.12,905.21c-5.4-1.74-16.7-11.14-16.7-11.14,20.36,78.67-75.41,97.81-75.41,97.81,0,0,53.97-7.31,71.24-16.71,17.27-9.4,20.87-55.25,20.87-55.25,3.96-4.09,5.4-12.97,0-14.71Z"/>
      <path class="cls-10" d="m378.58,903.79c-5.06-1.63-16.09-10.77-16.2-10.86l-3.58-2.97,1.16,4.5c5.26,20.33,3.05,38.42-6.57,53.76-20.3,32.38-67.21,42.11-67.68,42.2l.5,2.96c2.21-.3,54.44-7.46,71.76-16.88,16.97-9.23,21.13-50.53,21.6-55.93,2.82-3.2,4.23-8.25,3.29-12-.59-2.38-2.12-4.08-4.28-4.78Zm-1.54,15.09l-.38.39-.04.54c-.04.45-3.72,45.15-20.09,54.05-10.08,5.49-33.27,10.31-50.37,13.31,15.89-6.22,37.48-17.76,49.76-37.35,9.4-14.99,12.06-32.42,7.94-51.87,3.85,2.98,10.05,7.48,13.79,8.69,1.19.38,1.94,1.25,2.29,2.65.72,2.89-.58,7.19-2.91,9.59Z"/>
    </g>
    <path class="cls-11" d="m422.77,1626.17c-10.11,13.11-23.65,62.56-23.65,62.56,16.2-47.25,81.77-94.31,81.77-94.31-40.43-2.09-58.13,31.74-58.13,31.74Z"/>
    <path class="cls-13" d="m304.72,1657.09c61.89-20.89,63.32-38.14,63.32-38.14,0,0-125.21,59.03-63.32,38.14Z"/>
    <g>
      <path class="cls-36" d="m283.94,1391.1l-1.5-2.6c-3.36,1.93-6.91,3.74-10.55,5.35l1.22,2.74c3.74-1.66,7.38-3.51,10.83-5.5Z"/>
      <rect class="cls-36" x="262.63" y="1400.92" width="3" height="12" transform="translate(-144.14 34.87) rotate(-5.94)"/>
      <rect class="cls-36" x="267.6" y="1448.66" width="3" height="12" transform="translate(-149.13 35.67) rotate(-5.94)"/>
      <rect class="cls-36" x="265.11" y="1424.79" width="3" height="12" transform="translate(-146.68 35.28) rotate(-5.94)"/>
      <path class="cls-36" d="m263.39,1732.87l-2.99.18c.24,3.95.51,7.94.8,11.99l2.99-.21c-.29-4.04-.56-8.02-.8-11.96Z"/>
      <path class="cls-36" d="m266.05,1661.44l-2.96-.52c-.69,3.95-1.29,7.97-1.78,11.95l2.98.37c.48-3.93,1.07-7.89,1.75-11.8Z"/>
      <path class="cls-36" d="m265.07,1756.78l-2.99.23c.32,4.24.64,8.22.95,11.96l2.99-.25c-.31-3.74-.63-7.7-.95-11.94Z"/>
      <path class="cls-36" d="m263.14,1685.11l-2.99-.22c-.28,3.91-.49,7.97-.6,12.05l3,.08c.11-4.04.31-8.05.59-11.92Z"/>
      <rect class="cls-36" x="272.56" y="1496.41" width="3" height="12" transform="translate(-153.96 36.41) rotate(-5.94)"/>
      <rect class="cls-36" x="280.01" y="1568.02" width="3" height="12" transform="translate(-161.33 37.57) rotate(-5.94)"/>
      <path class="cls-36" d="m265.63,1648.35l-.17.74,2.93.66.17-.73c.83-3.59,1.72-7.25,2.66-10.89l-2.9-.75c-.95,3.66-1.85,7.35-2.68,10.97Z"/>
      <path class="cls-36" d="m282.09,1594.12c-.39.99-1.59,4.05-3.23,8.69l2.83,1c1.99-5.62,3.31-8.89,3.32-8.92l.14-.35-.29-2.79-2.98.31.21,2.05Z"/>
      <rect class="cls-36" x="270.08" y="1472.53" width="3" height="12" transform="translate(-151.59 36.06) rotate(-5.94)"/>
      <rect class="cls-36" x="275.04" y="1520.28" width="3" height="12" transform="translate(-156.42 36.8) rotate(-5.94)"/>
      <rect class="cls-36" x="277.53" y="1544.15" width="3" height="12" transform="translate(-158.84 37.18) rotate(-5.94)"/>
      <path class="cls-36" d="m277.87,1615.15l-2.86-.91c-1.21,3.79-2.4,7.67-3.51,11.52l2.88.83c1.11-3.83,2.28-7.68,3.49-11.44Z"/>
      <path class="cls-36" d="m262.45,1708.96l-3,.03c.04,3.84.15,7.78.32,12.04l3-.12c-.17-4.23-.28-8.14-.32-11.95Z"/>
      <path class="cls-36" d="m298.96,2090.61c.48,2.41.93,4.63,1.34,6.64l2.94-.6c-.41-2.01-.86-4.22-1.33-6.62l-2.94.58Z"/>
      <path class="cls-36" d="m293.53,2042.84l-2.96.46c.59,3.8,1.23,7.72,1.92,11.86l2.95-.57c-.68-4.05-1.31-7.97-1.9-11.75Z"/>
      <path class="cls-36" d="m267.07,1780.64l-2.99.28c.39,4.24.79,8.19,1.18,11.94l2.98-.31c-.39-3.74-.78-7.68-1.17-11.91Z"/>
      <path class="cls-36" d="m290.14,2019.14l-2.98.38c.5,3.9,1.05,7.9,1.62,11.9l2.97-.43c-.57-3.98-1.11-7.97-1.62-11.86Z"/>
      <path class="cls-36" d="m292.34,1382.04l1.78,2.42c3.28-2.41,6.43-5.03,9.36-7.77l-2.05-2.19c-2.84,2.66-5.9,5.2-9.09,7.54Z"/>
      <path class="cls-36" d="m322.26,1346.08l2.72,1.27c3.19-6.83,4.24-11.38,4.29-11.57l-2.93-.66s-1.03,4.45-4.08,10.96Z"/>
      <path class="cls-36" d="m309.55,1365.92l2.3,1.92c2.61-3.12,5.04-6.43,7.22-9.82l-2.52-1.62c-2.11,3.29-4.46,6.49-6.99,9.51Z"/>
      <path class="cls-36" d="m287.42,1995.37l-2.99.3c.4,4.01.83,8.03,1.28,11.94l2.98-.34c-.45-3.9-.88-7.9-1.28-11.9Z"/>
      <path class="cls-36" d="m297.47,2066.47l-2.95.52c.74,4.19,1.47,8.14,2.16,11.82l2.95-.55c-.69-3.67-1.41-7.61-2.15-11.79Z"/>
      <path class="cls-36" d="m272.42,1828.21l-2.98.36c.46,3.77.93,7.69,1.42,11.89l2.98-.35c-.49-4.2-.96-8.13-1.42-11.9Z"/>
      <path class="cls-36" d="m277.69,1876.11l-.02-.22-2.99.29.02.22c.39,4.03.76,7.93,1.11,11.71l2.99-.28c-.35-3.78-.72-7.69-1.11-11.72Z"/>
      <path class="cls-36" d="m275.19,1852.03l-2.98.33c.41,3.72.83,7.67,1.27,11.91l2.98-.31c-.44-4.24-.86-8.2-1.27-11.93Z"/>
      <path class="cls-36" d="m269.55,1804.44l-2.98.34c.47,4.04.94,7.96,1.42,11.9l2.98-.36c-.48-3.94-.95-7.85-1.41-11.88Z"/>
      <path class="cls-36" d="m281.8,1923.7l-2.99.23c.31,4.11.61,8.09.89,11.95l2.99-.22c-.28-3.87-.57-7.84-.89-11.96Z"/>
      <path class="cls-36" d="m283.55,1947.62l-2.99.21c.29,4.08.57,8.05.86,11.96l2.99-.22c-.29-3.91-.57-7.88-.86-11.95Z"/>
      <path class="cls-36" d="m285.31,1971.52l-2.99.23c.31,4,.64,7.97.99,11.96l2.99-.26c-.35-3.98-.68-7.94-.99-11.93Z"/>
      <path class="cls-36" d="m279.86,1899.79l-2.99.26c.36,4.12.69,8.09,1,11.94l2.99-.24c-.31-3.85-.64-7.83-1-11.95Z"/>
    </g>
    <path class="cls-36" d="m243.32,473.12s4.33,1.33-3.84,15.32c-8.17,13.98-21.59,39.91-21.59,39.91l122.33,108.6s-.96-36.2.96-50.12c1.92-13.92,19.19-18.1,22.07-.46,2.88,17.64,14.87,32.72,14.87,32.72v-34.11c-40.78-86.33-134.8-111.85-134.8-111.85Z"/>
    <path class="cls-67" d="m349.12,622.53l24.47,38.52c4.8-6.5,26.86-3.71,26.86-3.71l-10.07-38.52c-18.71-15.32-41.26,3.71-41.26,3.71Z"/>
    <path class="cls-32" d="m252.53,395.7c5.62,14.93,26.64,18.23,26.64,18.23l-9.16-37.49c-6.19-7.17-23.1,4.33-17.48,19.26Z"/>
    <path class="cls-34" d="m390.02,357.19c-4.62,0-8.37,6.37-8.37,14.23s3.75,14.23,8.37,14.23,8.36-6.37,8.36-14.23-3.75-14.23-8.36-14.23Z"/>
    <path class="cls-34" d="m437.12,360.37c-2.76,0-5,5.66-5,12.64s2.24,12.64,5,12.64,5-5.66,5-12.64-2.24-12.64-5-12.64Z"/>
    <path class="cls-43" d="m417.39,447.37c-12.97-2.36-25.34-5.07-37.06-8.01,8.47,17.64,24.13,27.28,35.62,25.41,2.81-.46,12.3-.91,15.41-7.21,1.42-2.87,1.01-5.88.54-7.75-4.76-.74-9.6-1.55-14.51-2.45Z"/>
    <path class="cls-48" d="m361.78,373.01c-16.1,0-29.15,12.62-29.15,28.2s13.05,28.2,29.15,28.2,29.15-12.62,29.15-28.2-13.05-28.2-29.15-28.2Z"/>
  </g>
  <g>
    <g>
      <path class="cls-42" d="m1055.19,2097.65c-111.67,0-202.2,23.77-202.2,53.09s90.53,53.09,202.2,53.09,202.2-23.77,202.2-53.09-90.53-53.09-202.2-53.09Z"/>
      <path class="cls-32" d="m981.89,1694.44l40.43,428.85s4.98,27.65,53.21,4.02v-432.86s-15.92-75.19-93.64,0Z"/>
      <path class="cls-44" d="m788.61,1086.39s-157.75-14.63-101.63,302.13c56.13,316.76,37.1,372.31,424.4,342.45,387.3-29.86,64.15-559.68,64.15-559.68,0,0-47.84-160.76-386.93-84.89Z"/>
    </g>
    <path class="cls-61" d="m1064.44,858.76s-63.79,81.98-44.04,92.19,61.89-7.48,61.89-7.48c-11.37-3.15-7.59-11.75-7.59-11.75,17.58,10.1,47.07-8.08,47.07-8.08-31.98-15.5-57.33-64.88-57.33-64.88Z"/>
    <path class="cls-65" d="m1027.19,947.68c-10.07-48.26-86.49-30.53-86.49-30.53l-.83,54.65s-4.8,14.85-12.47,20.42c-7.68,5.57-25.43,3.25-25.43,3.25v30.63l39.34,115.57,151.11-23.67-26.86-117.42c-36.94.93-38.38-52.9-38.38-52.9Z"/>
    <path class="cls-32" d="m1027.19,951.15c-1.32-6.95-18.24-16.98-86.49-30.53-.07,3.76-.15,7.53-.22,11.29,5.3,8,15.08,20.41,31.24,30.55,26.04,16.35,52.22,16.52,62.47,16.05-.87-2.47-2.19-6.41-3.52-11.33-2.35-8.7-3.3-15.1-3.48-16.03Z"/>
    <polygon class="cls-32" points="916.93 1051.17 1004.58 1046.99 915.02 1039.68 916.93 1051.17"/>
    <path class="cls-65" d="m1047.7,797.11c-40.57-55.59-108.09-61.18-135.96-35.62-20.3,18.61-23.07,56.94-7.03,92.64,0,0-36.37-12.68-35.25,20.27,1.12,32.95,49.43,27.35,49.43,27.35,34.53,50.22,85.68,49.56,85.68,49.56,18.47.92,31.78-3.24,41.18-10.65,37.59-29.6,11.71-113.72,7.35-127.96-1.98-6.46-3.93-11.79-5.4-15.6Z"/>
    <path class="cls-32" d="m978.03,780.58l-94.21-2.02,18.82,69.71s4.07,9.2,13.11,3.03c9.04-6.18,2.02-43.18,2.02-43.18,0,0,64.58,39.46,86.71,20.14,0,0,7.38-4.96,6.93-14.27,0,0,28.42,16.54,44.78,12.06l-7.14-22.71-71.01-22.75Z"/>
    <path class="cls-57" d="m1570.51,2102.4c-31.66-15.32-79.16-92.59-79.16-92.59-37.42-22.51-74.22,36.42-74.22,36.42l11.38,91.91h15.35v-61.72s8.64.92,15.83,0c7.2-.92,31.66,64.71,31.66,64.71,0,0,107.94,8.61,109.38-10.88,1.44-19.49,1.44-12.53-30.22-27.85Z"/>
    <path class="cls-56" d="m1075.52,2127.3s-43.99,84.05-47.22,101.8c-3.24,17.75-4.32,59.52,15.11,74.14,19.43,14.62,79.88-33.42,87.43-49.08,7.56-15.66,20.54-113.38,20.54-113.38,0,0-39.43-87.3-75.86-13.48Z"/>
    <path class="cls-25" d="m1052.64,730.78s12.75-3.56,12.7-11.93-42.96-71.33-139.8-44.54c0,0-38.85,8.86-51.11,43.09,0,0-75.6-4.02-69.34,94.99,6.26,99.02,30.29,102.79-21.65,119.54,0,0,15.91,29.38,65.96,16.93,0,0,2.88,11.33-16.12,18.76,0,0,71.74,2.32,85-23.98,0,0,3.71,9.21-2.26,13.63,2.08.63,18.09,5.29,23.46-1.42,1.82-2.28,1.79-6.91,1.71-16.19-.05-6.08-.63-13.88-.63-13.88,0,0-3.81-3.34-6.18-5.58-3.23-3.05-5.41-5.58-7.22-7.67-2.44-2.83-5.31-6.43-8.29-10.77,0,0-31.82,3.01-43.01-10.89-11.19-13.9-8.5-36.35,8.59-38.62,0,0,11.67-2.47,20.24,1.9,1.5.76,2.83.96,4.01.72,6.19-1.25,7.78-15.35,8.18-18.9.78-6.79,1.01-22.03-12.16-42.28,0,0,79.08,64.96,95.65,7.69,7.35,4.31,19.72,10.26,35.97,12,6.43.69,45.76,4.92,58.39-17.25,8.12-14.26.51-31.19-1.08-34.73-10.81-24.07-37.77-29.96-41.02-30.61Z"/>
    <path class="cls-40" d="m1052.61,730.34s12.75-3.56,12.7-11.93-42.96-71.33-139.8-44.54c0,0-38.85,8.86-51.11,43.09,0,0-75.6-4.02-69.34,94.99,6.26,99.02,30.29,102.79-21.65,119.54,3.64.64,32,5.22,48.97-12.23,12.4-12.75,11.82-30.14,11.43-41.65-1.04-30.79-16.79-35.06-20.37-65.73-1.21-10.34-4.55-38.96,14.63-59.48,17.21-18.41,42.6-19.65,49.82-19.76,40.03-45.21,92.12-54.89,116.42-36.35,15.49,11.82,17.84,33.7,17.92,45.92,0,0,77.21-1.24,74.99,43.24-.07,1.48-.07,2.85,0,4.13,3.57-12.64-2.24-25.6-3.61-28.64-10.81-24.07-37.77-29.96-41.02-30.61Z"/>
    <path class="cls-61" d="m849.4,948.85c.36,13.23-16.12,18.76-16.12,18.76,81.81-6,24.78-66.02,24.78-66.02,10.78,43.29-8.66,47.26-8.66,47.26Z"/>
    <g>
      <path class="cls-61" d="m927.17,912.52c-2.17-2.45-5.13-6.04-8.29-10.77-5.09.07-10.18.14-15.28.21,0,0,21.39,43.36-11.75,59.14,3.71-1.2,6.74-2.36,8.9-3.24,9.68-3.93,12.75-6.55,13.69-7.38,2.03-1.8,3.42-3.55,4.26-4.72.38.9.98,2.72.56,4.9-.89,4.63-5.54,6.59-5.97,6.76,2.08.61,20.54,5.88,26.19-1.59,1.79-2.36,1.79-7,1.71-16.19-.05-5.72-.35-10.48-.62-13.84-2.65-2.5-10.45-9.96-13.4-13.29Z"/>
      <path class="cls-61" d="m940.57,925.78s0,.02,0,.04c1.09,1.02,1.32,1.22,0-.04Z"/>
    </g>
    <path class="cls-30" d="m1074.8,1461.73c-222.27-7.15-236.11,149.77-161.99,195.11,74.11,45.34,189.97-6.27,189.97-6.27,21.59-56.39,107.94-50.12,107.94-50.12,0,0,28.06,31.33,72.36,167.08,44.3,135.75,104.66,202.59,104.66,202.59l-4.32,25.06c-4.32,25.06,6.48,52.21,6.48,52.21,94.99,0,101.46-37.59,101.46-37.59v-37.59s-136-488.72-164.07-526.31c-28.06-37.59-252.49,15.83-252.49,15.83Z"/>
    <g>
      <path class="cls-36" d="m1203.5,1531.87l.12,3c4.32-.18,8.35-.29,11.98-.33l-.03-3c-3.66.04-7.72.15-12.07.33Z"/>
      <path class="cls-36" d="m1227.51,1534.7c5.09.24,8.98.72,11.57,1.42l.79-2.89c-2.83-.77-6.83-1.27-12.21-1.52l-.14,3Z"/>
      <path class="cls-36" d="m1179.44,1533.29l.22,2.99c4.16-.3,8.19-.57,11.98-.8l-.18-2.99c-3.8.23-7.85.5-12.02.8Z"/>
      <path class="cls-36" d="m1246.76,1543.34c1.8,2.66,3.86,6.1,6.13,10.23l2.63-1.44c-2.31-4.21-4.42-7.73-6.27-10.47l-2.48,1.68Z"/>
      <path class="cls-36" d="m1258.42,1564.22c1.65,3.3,3.4,6.94,5.23,10.82l2.71-1.28c-1.83-3.9-3.6-7.56-5.26-10.88l-2.69,1.34Z"/>
      <path class="cls-36" d="m1278.34,1607.96c1.54,3.59,3.1,7.29,4.69,11.07l2.77-1.16c-1.59-3.79-3.16-7.48-4.7-11.08l-2.76,1.18Z"/>
      <path class="cls-36" d="m1287.66,1630.12c1.5,3.64,3.03,7.35,4.56,11.12l2.78-1.13c-1.54-3.77-3.06-7.49-4.57-11.13l-2.77,1.15Z"/>
      <path class="cls-36" d="m1268.68,1585.95c1.56,3.46,3.21,7.15,4.89,10.98l2.75-1.21c-1.68-3.84-3.33-7.55-4.9-11.01l-2.73,1.24Z"/>
      <path class="cls-36" d="m1083.68,1543l.36,2.98c3.94-.47,7.92-.94,11.93-1.41l-.35-2.98c-4.01.47-8,.94-11.94,1.41Z"/>
      <path class="cls-36" d="m1012.08,1552.2l.41,2.97c3.65-.5,7.64-1.04,11.92-1.61l-.4-2.97c-4.29.57-8.28,1.11-11.93,1.61Z"/>
      <path class="cls-36" d="m1035.94,1549.01l.39,2.97c3.82-.5,7.81-1.02,11.92-1.55l-.38-2.97c-4.12.53-8.1,1.05-11.93,1.55Z"/>
      <path class="cls-36" d="m1059.8,1545.94l.38,2.98c3.9-.49,7.88-.99,11.93-1.48l-.37-2.98c-4.05.5-8.04,1-11.94,1.49Z"/>
      <path class="cls-36" d="m988.18,1555.54l.43,2.97s4.37-.63,11.96-1.69l-.41-2.97c-7.6,1.06-11.98,1.69-11.98,1.69Z"/>
      <path class="cls-36" d="m1107.57,1540.22l.34,2.98c3.98-.45,7.96-.89,11.95-1.32l-.32-2.98c-3.99.43-7.98.87-11.96,1.32Z"/>
      <path class="cls-36" d="m1131.5,1537.62l.31,2.98c4.01-.42,8-.82,11.95-1.21l-.29-2.99c-3.96.39-7.95.79-11.97,1.21Z"/>
      <path class="cls-36" d="m1296.73,1652.38c1.48,3.67,2.97,7.39,4.47,11.16l2.79-1.11c-1.5-3.77-2.99-7.49-4.47-11.17l-2.78,1.12Z"/>
      <path class="cls-36" d="m1155.45,1535.28l.27,2.99c4.05-.37,8.05-.72,11.97-1.05l-.25-2.99c-3.93.33-7.93.68-11.99,1.05Z"/>
      <path class="cls-36" d="m1373.32,1854.67c1.39,3.83,2.76,7.6,4.1,11.3l2.82-1.02c-1.34-3.71-2.71-7.48-4.1-11.31l-2.82,1.02Z"/>
      <path class="cls-36" d="m1392.47,1898.92l-2.82,1.01c1.4,3.91,2.75,7.69,4.06,11.33l2.83-1.01c-1.3-3.64-2.66-7.42-4.06-11.33Z"/>
      <path class="cls-36" d="m1356.8,1809.51c1.4,3.79,2.78,7.55,4.15,11.28l2.82-1.03c-1.37-3.73-2.75-7.5-4.15-11.29l-2.81,1.04Z"/>
      <path class="cls-36" d="m1397.2,1984.93c-1.66,3.38-2.51,6.59-2.51,9.53,0,1.04.11,2.06.31,3.03l2.93-.63c-.16-.77-.25-1.58-.25-2.41,0-2.48.74-5.24,2.2-8.21l-2.69-1.32Z"/>
      <path class="cls-36" d="m1365.09,1832.08c1.39,3.8,2.77,7.57,4.12,11.29l2.82-1.03c-1.36-3.72-2.73-7.49-4.12-11.3l-2.82,1.03Z"/>
      <path class="cls-36" d="m1381.51,1877.29c1.39,3.86,2.75,7.63,4.08,11.32l2.82-1.02c-1.32-3.68-2.69-7.46-4.08-11.32l-2.82,1.02Z"/>
      <path class="cls-36" d="m1412.88,2028.26c1.03,3.66,1.83,7.54,2.36,11.55l2.97-.39c-.55-4.15-1.37-8.18-2.44-11.97l-2.89.81Z"/>
      <path class="cls-36" d="m1400.57,1921.59l-2.83,1.01c1.43,4.01,2.78,7.8,4.04,11.35l2.83-1c-1.26-3.55-2.61-7.34-4.04-11.35Z"/>
      <path class="cls-36" d="m1402.2,2007.8c2.46,2.64,4.65,5.85,6.5,9.53l2.68-1.35c-1.98-3.94-4.34-7.38-6.99-10.22l-2.2,2.04Z"/>
      <path class="cls-36" d="m1412.66,1955.72c-1.11-3.15-2.46-6.97-4.02-11.4l-2.83,1c1.56,4.42,2.91,8.25,4.02,11.39l2.83-1Z"/>
      <path class="cls-36" d="m1323.04,1719.51c1.43,3.72,2.85,7.46,4.28,11.2l2.8-1.07c-1.43-3.75-2.85-7.48-4.28-11.21l-2.8,1.07Z"/>
      <path class="cls-36" d="m1314.39,1697.09c1.44,3.71,2.89,7.45,4.34,11.21l2.8-1.08c-1.45-3.76-2.9-7.5-4.34-11.21l-2.8,1.09Z"/>
      <path class="cls-36" d="m1331.58,1741.95c1.42,3.75,2.83,7.49,4.25,11.24l2.81-1.06c-1.41-3.75-2.83-7.5-4.25-11.25l-2.81,1.06Z"/>
      <path class="cls-36" d="m1340.06,1764.45c1.41,3.76,2.81,7.51,4.21,11.26l2.81-1.05c-1.4-3.75-2.8-7.5-4.21-11.26l-2.81,1.05Z"/>
      <path class="cls-36" d="m1348.46,1786.97c1.4,3.77,2.79,7.53,4.18,11.27l2.81-1.04c-1.38-3.74-2.78-7.5-4.18-11.27l-2.81,1.04Z"/>
      <path class="cls-36" d="m1305.63,1674.7c1.46,3.7,2.92,7.43,4.4,11.19l2.79-1.09c-1.47-3.76-2.94-7.5-4.4-11.19l-2.79,1.1Z"/>
      <path class="cls-36" d="m1404.19,1974.74l2.27,1.96c3.33-3.85,6.68-6.84,8.38-8.28l-1.94-2.29c-1.77,1.5-5.24,4.61-8.71,8.61Z"/>
    </g>
    <path class="cls-29" d="m1316.85,1438.49c-34.12-22.17-315.06,9.1-315.06,9.1l-29.94,234.73,83.35-15.96c15.63-12.08-1.35-176.07-1.35-176.07,0,0,43.55,12.47,156.25-9.31,112.7-21.78,172.29,118.33,172.29,118.33-57.1-190.86-65.53-160.82-65.53-160.82Z"/>
    <path class="cls-36" d="m1087.9,1098.75c-59.26,26.59-124.59,11.39-124.59,11.39-69.14,40.24,5.49,364.12,5.49,364.12h213.1s-34.75-402.1-94-375.51Z"/>
    <g>
      <path class="cls-7" d="m1012.1,1417.59c1.51-.07,3.79-.17,6.57-.23-2.45-.79-4.86-.32-6.57.23Z"/>
      <path class="cls-7" d="m917.17,995.6c-5.32-1.1-76.95-14.76-125.25,32.22-43.64,42.44-49.46,116.13-8.64,173.72,0,0,12.95,69.62,11.51,133.67-1.44,64.05,38.86,77.97,38.86,77.97l-27.34,147.59c5.24,45.11,21.92,75.64,43.93,96.03,35.7,33.07,97.72,59.37,131.65,37.64,3.24-2.08,5.53-4.43,8.37-7.63,30.62-34.56,33.52-83.56,38.65-195.87,1.56-34.21,2.9-69.38-10.22-73.59-2.78.06-5.06.16-6.57.23,1.71-.55,4.12-1.02,6.57-.23,7.83-.18,10.12.14,11.42,0,10.41-1.14,15.62-37.81,22.09-70.08,2.47-12.29,4.73-22.05,6.02-27.43-15.37.94-30.73,1.89-46.1,2.83-6.48-88.76-94.94-327.07-94.94-327.07Z"/>
    </g>
    <path class="cls-57" d="m1022.32,1432.5c14.87,104.11-10.87,191.33-64.9,215.81-25.34,11.49-53.89,7.81-55.58,7.58-61.94-8.63-91.51-71.53-94.56-78.3,6.12,41.16,22.17,69.5,42.98,88.78,33.92,31.42,92.18,56.73,131.63,37.64,78.54-38.02,50.94-217.41,47.49-238.09-2.26-13.57-4.89-24.96-7.06-33.42Z"/>
    <path class="cls-7" d="m1200.01,1057.59c-14.29-31.25-22.22-46.78-36.07-55.06-8.71-5.21-22.72-5.85-50.38-6.92-11.18-.43-31.87-1.22-59.71-2.23,4.16,19.07,8.08,38.7,11.69,58.87,10.88,60.67,17.62,118.27,21.41,172.04l53.25,231.67,187.09,18.29-107.94-369.61s-8.28-22.86-19.34-47.06Z"/>
    <path class="cls-57" d="m958.14,1102.92c-15.11-43.12-34.74-94.58-38.59-104.66-.47-1.24-1.07-2.81-1.53-4-6.35-1.09-14.22-1.89-23.21-1.57-13.75.5-25.04,3.44-32.99,6.21,0,0,17.88,115.62,54.58,165.75,36.7,50.12,91.76,128.85,91.76,128.85-1.81-14.55-4.93-36-10.44-61.67-8.86-41.26-19.1-70.48-39.58-128.91Z"/>
    <path class="cls-57" d="m1076.51,991.3c-8.38-.09-15.99.47-22.67,1.33,5.72,37.26,10.2,67.64,13.19,88.24,10.13,69.7,12.94,90.5,19.91,123.46,6.82,32.27,13.97,58.29,18.91,75.14.76-10.45,2.05-26.44,4.12-45.9,4.72-44.34,10.8-75.45,11.69-85.14,5.1-55.74-3.78-116.28-10.7-153.09-9.36-2.11-21.02-3.89-34.45-4.03Z"/>
    <path class="cls-45" d="m1210.72,1600.45c-35.26-5.57-94.99,9.05-107.94,50.12l-32.38,474.1s38.86,22.97,94.99,14.62l92.01-444.24s-11.42-89.04-46.68-94.61Z"/>
    <path class="cls-18" d="m1225.86,1608.87c4.43,15.83,9.77,39.3,11.66,68.13,1.91,28.95-.48,50.8-2.22,66.06-7.54,66.08-16.1,126.24-21.41,162.05l43.51-210.06s-9.83-71.55-31.53-86.19Z"/>
    <g>
      <path class="cls-52" d="m1081.98,2130.09s24.61,16.32,83.4,9.2l29.35-141.71c-10.47,42.99-41.17,134.25-112.75,132.51Z"/>
      <path class="cls-52" d="m1194.73,1997.59c3.22-13.21,4.53-21.86,4.53-21.86l-4.53,21.86Z"/>
    </g>
    <ellipse class="cls-48" cx="947.43" cy="885.38" rx="25.41" ry="24.58" transform="translate(-19.51 21.35) rotate(-1.28)"/>
    <path class="cls-48" d="m1040.91,874.53c.79,12.56,11.2,22.31,23.87,23,1.83-16.06.14-33.57-2.54-48.8-12.76,1.98-22.14,13.06-21.33,25.8Z"/>
    <path class="cls-15" d="m909.21,1299.01s-3.6-6.96-6.96-8.35c-3.36-1.39-7.29,2.84-7.29,2.84,0,0-6.62,8.29-.86-66.89,5.76-75.19-19.2-128.1-19.2-128.1,10.66,24.37,12.01,146.89,12.01,146.89,0,0,2.16,48.73-2.88,48.1-5.04-.64-25.19,16.65-25.19,16.65,17.27-12.53,33.1-7.66,33.1-7.66l-7.2,6.27c-18.71,9.05-38.86,43.86-38.86,43.86,0,0,48.21-52.21,60.45-42.47,12.23,9.75,147.52,26.46,147.52,26.46l4.36-16.76-46.1,2.83-102.9-23.67Z"/>
    <polygon class="cls-27" points="1022.32 1422.93 1429.63 1422.93 1575.62 1122.82 1129.69 1122.82 1022.32 1422.93"/>
    <path class="cls-36" d="m1339.71,1163.56c-8.25,0-14.93,6.47-14.93,14.44s6.68,14.45,14.93,14.45,14.93-6.47,14.93-14.45-6.68-14.44-14.93-14.44Z"/>
    <path class="cls-35" d="m1429.63,1422.93l145.99-300.11s-314.29,301.39-553.3,300.11h407.31Z"/>
    <path class="cls-43" d="m1019.69,840.66c1.23,16.95,2.46,33.9,3.69,50.85,1.33-.13,3.45-.39,6.01-.95,4.05-.88,9.42-2.05,9.8-4.44.17-1.06-.71-2-.94-2.25-6.24-6.9-18.56-43.21-18.56-43.21Z"/>
    <path class="cls-3" d="m1001.81,910.98l-.68,2.92c4.59,1.07,8.91,1.47,12.8,1.47,11.09,0,18.68-3.25,19.1-3.43l-1.2-2.75c-.13.06-13.35,5.68-30.02,1.79Z"/>
    <path class="cls-25" d="m967.72,841.69c-4.16.25-7.18,6.15-6.74,13.18s4.18,12.51,8.34,12.26c4.17-.25,7.18-6.15,6.74-13.18-.44-7.02-4.18-12.51-8.34-12.26Z"/>
    <path class="cls-25" d="m1050.13,827.65c-3.38.21-5.77,6.07-5.32,13.09.44,7.02,3.55,12.55,6.93,12.35,3.38-.21,5.77-6.07,5.32-13.09-.44-7.02-3.55-12.55-6.93-12.35Z"/>
    <path class="cls-32" d="m890.25,880.47c4.47,11.94,22.33,10.1,22.33,10.1l-12.77-28.28s-14.02,6.24-9.56,18.18Z"/>
    <g>
      <path class="cls-49" d="m1087.75,800.55c-9.44,2.73-22.85,7.58-37.29,16.49-13.25,8.17-21.25,13.25-22.16,21.33-1.33,11.77,12.79,25.95,26.14,26.79,26,1.64,52.15-47.11,42.02-60.35-2.4-3.14-6.61-3.98-8.7-4.26Zm-31.74,59c-10.58-.67-21.76-11.9-20.71-21.22.72-6.41,7.06-10.43,17.56-16.9,11.45-7.05,22.07-10.89,29.54-13.06,1.66.22,4.99.88,6.9,3.37,8.03,10.49-12.69,49.11-33.29,47.81Z"/>
      <path class="cls-49" d="m968.36,835.15c-17.4-5.42-32.6-6.91-43.11-7.27-2.09.84-6.21,2.8-7.82,6.68-6.81,16.35,33.72,59.87,60.14,51.37,13.57-4.37,24.24-22.73,19.6-34.54-3.18-8.12-12.85-11.27-28.81-16.24Zm5.51,45.41c-21.41,6.89-54.25-28.38-48.73-41.63,1.31-3.14,4.65-4.73,6.34-5.41,8.52.29,20.84,1.5,34.93,5.89,12.93,4.03,20.77,6.58,23.35,13.16,3.75,9.58-4.89,24.45-15.89,27.99Z"/>
      <path class="cls-49" d="m998.12,854.43c.94,3.04-.13,6.62-.13,6.62,15.11-13.24,35.67-7.68,35.67-7.68-2.49-2.77-2.98-4.49-2.98-4.49-17.36-6.82-32.56,5.55-32.56,5.55Z"/>
      <path class="cls-49" d="m895.14,851.01l9.27,2.23,21.12,5.72c-3.68-4.54-5.86-9.44-5.86-9.44l-24.53,1.49Z"/>
    </g>
    <g>
      <path class="cls-29" d="m1275.34,1544.15c-40.04,6.53-54.57,60.43-54.57,60.43l48.1,125.8c-38.02-117.5,6.47-186.23,6.47-186.23Z"/>
      <path class="cls-29" d="m1268.87,1730.38c3.85,11.89,8.54,24.28,14.21,37.16l-14.21-37.16Z"/>
    </g>
    <g>
      <path class="cls-29" d="m1382.38,2012.29l.7-5.48c-.58,2.08-.87,3.96-.7,5.48Z"/>
      <path class="cls-29" d="m1387.74,1970.12l-4.66,36.69c3.04-10.81,14.37-27.09,14.37-27.09,22.02,10.89,59.17-8.71,59.17-8.71-40.04,0-99.56-43.21-99.56-43.21l30.68,42.32Z"/>
    </g>
    <path class="cls-46" d="m1224.94,1560.49c-3.81,15.81-4,32.65-.55,48.69l2.93-.63c-3.35-15.61-3.17-31.99.53-47.36,5.79-24.04,18.71-40.92,28.52-50.84l-2.13-2.11c-10.08,10.2-23.35,27.54-29.31,52.25Z"/>
    <path class="cls-46" d="m1229.55,1579.86c-9.11,20.06-5.17,38.84-3.05,45.98l2.88-.85c-2.02-6.82-5.78-24.75,2.91-43.89,10.59-23.3,32.11-32.23,38.46-34.42l-.98-2.84c-6.63,2.28-29.13,11.62-40.22,36.01Z"/>
  </g>
  <g>
    <rect class="cls-36" x="614.24" y="1413.04" width="2283.99" height="73.59" rx="19.2" ry="19.2"/>
    <path class="cls-66" d="m672.21,2258.2s68.2-3.83,79.72-38.12l254.5-733.46h-125.03l-209.18,771.57Z"/>
    <path class="cls-66" d="m2548.59,1486.62l254.5,733.46c11.51,34.29,79.72,38.12,79.72,38.12l-209.18-771.57h-125.03Z"/>
  </g>
  <path class="cls-33" d="m2044.47,632.46l-1.44,21.62s15.11-7.95,15.11-13.52,1.44-20.73-13.67-8.1Z"/>
  <g>
    <g class="cls-74">
      <ellipse class="cls-64" cx="2856.4" cy="2250.6" rx="410.36" ry="96.78"/>
    </g>
    <path class="cls-20" d="m2839.75,2095.53s-17.73,56.13-24.85,64.24c-7.12,8.11-64.86,27.03-69.54,40.75-4.67,13.72,12.58,42.51,51.8,43.12,39.22.61,90.65-20.56,90.65-20.56,0,0,30.72-46.54,50.84-44.85l14.72-.43,38.13-20.53-39.75-102.3s-119.03-33.7-111.99,40.54Z"/>
    <path class="cls-69" d="m2670.59,1530.42c-23.24,63.58,24.86,186.56,24.86,186.56l26.37,67.49s-4.26,13.01.88,21.9c5.14,8.89,26.43,28.32,26.37,34.41-.06,6.08-6.82,23.36-5.06,31.75,1.75,8.39,9.66,13.63,16.92,22.84,7.27,9.21,40.29,103.51,55.06,134.17,14.77,30.66-14,46.68,3.62,59.47,17.62,12.79,117.83-12.92,132.92-39.1,4.9-8.5,6.74-12.1,6.87-15.4.26-6.62-2.46-11.71-3.32-13.31-11.1-20.77-12.94-44.77-21.11-66.67-7.85-21.06-20.98-75.06-44.17-207.05,58.45-92.39,116.89-184.79,175.34-277.18,0,0-372.33-3.46-395.57,60.11Z"/>
    <path class="cls-65" d="m3118.42,995.11l7.9,60.22s64.28,5.57,82.51-7.89l-23.39-88.76s-67.24-51.64-67.02,36.43Z"/>
    <path class="cls-32" d="m3118.42,995.11c.71,5.42,1.42,10.84,2.13,16.26,6.2-2.37,12.64-5.11,19.25-8.29,19.92-9.57,36.21-20.6,49.17-31.01l-3.53-13.39c-74.17-52.06-67.02,36.43-67.02,36.43Z"/>
    <path class="cls-65" d="m3195.16,902.76c-6.24-3.85-16.42-1.77-25.19,5.45,0,0-11.09-147.35-120.89-40.96,0,0-43.18,233.1,110.1,97.35,2.69.8,8.05,1.99,14.34.49,1.37-.33,6.14-1.59,11.93-6.41,9.56-7.96,17.58-22.03,16.55-37.94-.42-6.53-.93-14.34-6.84-17.98Z"/>
    <path class="cls-32" d="m3046.33,886.01s8.8,3.37,18.4,0c0,0-2.54-9.73,3.12-12.19,0,0,11.75,25.53,41.5,20.89,0,0-7.2-3.06-4.8-10.16,0,0,40.67,35.77,65.43,23.66,24.76-12.11-35.21-77.55-35.21-77.55,0,0-93.4-7.64-88.44,55.35Z"/>
    <path class="cls-43" d="m3043.47,945.8v-32.95l-22.22,28.31s7.5,7.89,22.22,4.64Z"/>
    <path class="cls-3" d="m3270.71,784.29c-25.91-19.84-109.02-36.55-136-31.33s-114.42,59.5-117.65,75.7-5.4,59.14,46.41,48.57c0,0-3.36-9.86,2.4-15.9,0,0,11.99,24.66,43.66,23.47,0,0-6.24-12.82-1.44-18.15,0,0,32.62,47,61.89,41.55,0,0,13.91-12.52,25.19-5.45,10.57,6.63,8.2,26.61,3.39,37.99-4.4,10.41-15.19,24.18-30.01,25.03-3.86.22-7.12-.49-9.37-1.18,7.24,5.96,17.95,12.63,31.42,13.66,44.17,3.36,75.32-57.57,80.12-65.4,20.51-33.53,25.91-108.72,0-128.56Z"/>
    <path class="cls-6" d="m3244.33,1000.06c-77.72-18.61-164.07,47.85-164.07,47.85l162.15-5.16s2.4-7.84,8.33-20.41c5.93-12.57-6.41-22.28-6.41-22.28Z"/>
    <path class="cls-3" d="m2693.85,2171.4s-18.42,60.42-25.64,69.2c-7.23,8.78-65.29,29.7-70.13,44.48-4.84,14.77,12.11,45.48,51.39,45.71s91.05-23.04,91.05-23.04c0,0,31.31-50.27,51.45-48.68l14.75-.62,38.44-22.44-38.63-109.33s-118.85-34.86-112.66,44.72Z"/>
    <path class="cls-1" d="m3318.21,1018.77c-43.18-.56-237.95,29.14-237.95,29.14,0,0-39.46-6.73-71.84,20.42-32.38,27.15-43.94,86.91-43.94,86.91,0,0-31.62,53.47-40.25,55.86-8.64,2.39-21.59,25.94-15.11,37.14,0,0-6.48,16.84-15.11,16.63s-17.27,26.94-14.03,54.09l-235.31,33.42v57.09h664.91l58.95-330.69s-7.13-59.45-50.31-60.01Z"/>
    <path class="cls-6" d="m2894.01,1264.87s-11.24-.2-14.44,34.37l.4,19.72s-1.44,41.08,30.22,55c0,0-35.26-36.47-16.19-109.09Z"/>
    <path class="cls-8" d="m2927.39,1501.49s-372.93.34-396.96,68.8c-24.02,68.47,22.74,199.9,22.74,199.9l25.63,72.13s-4.42,14.01.62,23.49c5.04,9.49,26.15,30.1,26.02,36.63-.13,6.53-7.1,25.14-5.44,34.12s9.51,14.52,16.69,24.32c7.17,9.8,39.16,110.62,53.6,143.36,14.44,32.74-14.56,50.24,2.94,63.77,17.5,13.53,118.18-15.14,133.61-43.4,5.01-9.17,6.89-13.06,7.06-16.6.34-7.11-2.33-12.54-3.17-14.25-10.88-22.17-12.44-47.9-20.37-71.3-7.62-22.52-20.14-80.31-41.84-221.67-10.59-36.74-9.99-67.21-7.09-88.73,18.53-137.36,170.78-204.19,185.96-210.58Z"/>
    <path class="cls-31" d="m2793.67,2013.04c-7.62-22.51-20.14-80.3-41.84-221.67-4.33-19.41-8.67-38.82-13-58.23-3.19-4.7-6.26-9.68-9.16-14.94-26.54-48.17-26.61-98.57-21.98-133.89-47.39,4.45-62.82,24.69-66.73,30.49-26.03,38.68,1.09,118.5,85.06,182.13l66.54,263.35s-13.65,59.28-44.64,58.8c0,0,45.75,2.54,54.03-32.66,0,0,19.56,16.68-1.59,39.55h0c4.42-3.54,7.81-7.17,9.78-10.79,5.01-9.17,6.89-13.06,7.06-16.6.34-7.11-2.33-12.54-3.17-14.25-10.88-22.17-12.44-47.9-20.37-71.3Z"/>
    <polygon class="cls-65" points="2495.15 1408.23 2644.11 1408.23 2644.11 1372.73 2565.31 1361.59 2495.15 1408.23"/>
    <g>
      <path class="cls-21" d="m3077.6,2162.04c-105.86,0-191.67,23.62-191.67,52.75s85.81,52.75,191.67,52.75,191.67-23.62,191.67-52.75-85.81-52.75-191.67-52.75Z"/>
      <path class="cls-22" d="m2994.85,1736.57c16.62,159.22,33.23,318.44,49.85,477.66,3.56,2.68,8.24,5.44,13.99,7.07,19.27,5.47,35.36-6.08,39.53-9.29l8.75-481.11s-70.56-116.23-112.12,5.67Z"/>
      <path class="cls-43" d="m3161.07,1072.71s-135.67-4.03-215.22,199.66c-79.56,203.7-111.69,270.25-177.17,276.3-65.49,6.05-164.94,34.29-121.18,131.09s109.39,88.7,109.39,88.7h449.01s103.93-14.08,153.65-135.09c49.72-121.01,83.54-336.4,61.66-405.17-21.88-68.78-116.52-183.73-260.14-155.5Z"/>
      <path class="cls-39" d="m3184.4,1315.42c-11.02,6.61-27.64,17.79-44.49,34.85-43.51,44.06-42.41,80.69-73.08,137.5-20.94,38.79-48.16,89.21-102.64,115.14-36.56,17.4-91.84,26.83-135.68,28.31-23.27.79-44.03-.65-68.95,10.89-26.27,12.16-43.06,32.2-53.38,47.91-2.45,4.08-10.56,18.78-6.67,37.02,4.01,18.83,19.26,34.15,39.42,40.08,155.82.49,311.64.98,467.45,1.48,24.17-6.77,59.21-19.97,92.49-47.52,59.89-49.58,78.17-115.89,97.5-189.89,24.94-95.46,29.94-198.23,29.94-198.23-.03-.01-76.03-36.78-148.48-37.14-21.54-.11-53.74,2.95-93.42,19.6Z"/>
    </g>
    <path class="cls-48" d="m3092.51,902.27c-14.31,0-25.91,11.22-25.91,25.06s11.6,25.06,25.91,25.06,25.91-11.22,25.91-25.06-11.6-25.06-25.91-25.06Z"/>
    <path class="cls-3" d="m3050.91,960.16l-1.17,2.76c.43.18,7.33,3.03,17.73,3.03,5.33,0,11.58-.75,18.35-2.98l-.94-2.85c-18.86,6.23-33.82.1-33.97.04Z"/>
    <path class="cls-32" d="m3173.14,920.7l-9.52,26.09s16.71.46,23.43-12.35c6.72-12.81-5.76-24.88-13.91-13.74Z"/>
    <path class="cls-31" d="m2693.6,1951.81l-96.34-63s64.08,60.99,96.34,63Z"/>
    <ellipse class="cls-3" cx="3071.92" cy="899.47" rx="7.2" ry="13.46"/>
  </g>
</svg>