<?xml version="1.0" encoding="utf-8"?>
<!-- Generator: Adobe Illustrator 28.0.0, SVG Export Plug-In . SVG Version: 6.00 Build 0)  -->
<svg version="1.1" id="_06" xmlns="http://www.w3.org/2000/svg" xmlns:xlink="http://www.w3.org/1999/xlink" x="0px" y="0px"
	 viewBox="0 0 3642 2355.2" style="enable-background:new 0 0 3642 2355.2;" xml:space="preserve">
<style type="text/css">
	.st0{fill:#FFE6CA;}
	.st1{opacity:0.31;}
	.st2{fill:#FFFFFF;}
	.st3{fill:#FFC176;}
	.st4{fill:#9B5129;}
	.st5{fill:#67A4C3;}
	.st6{fill:#FFA645;}
	.st7{fill:#F63D4F;}
	.st8{fill:#4B9BA2;}
	.st9{fill:#88C1BA;}
	.st10{fill:#449DA3;}
	.st11{fill:#1E8484;}
	.st12{fill:#5D1314;}
	.st13{fill:#FFB199;}
	.st14{fill:#FF8B6C;}
	.st15{fill:#4B0503;}
	.st16{fill:#3F3F3F;}
	.st17{fill:#68A7AA;}
	.st18{fill:#498484;}
	.st19{opacity:0.5;}
	.st20{fill:#FFC064;}
	.st21{fill:#C6263D;}
	.st22{fill:#346E7F;}
	.st23{fill:#C6C6C6;}
	.st24{fill:#3D809B;}
	.st25{fill:#FFAE43;}
	.st26{fill:#E88A1A;}
	.st27{fill:#330508;}
	.st28{fill:#CC805E;}
	.st29{opacity:0.25;}
	.st30{clip-path:url(#SVGID_00000111163463325364102240000013487792951495159993_);}
	.st31{fill:#235E75;}
	.st32{fill:#F99841;}
	.st33{fill:#FFAB66;}
	.st34{fill:#D16C19;}
	.st35{fill:#B2694D;}
	.st36{fill:#161310;}
	.st37{fill:#255E7A;}
	.st38{fill:#E8E8E8;}
	.st39{opacity:0.64;}
	.st40{fill:#FF034B;}
</style>
<rect x="550.1" y="214.7" class="st0" width="2593.7" height="1839.3"/>
<g>
	<g class="st1">
		<polygon class="st2" points="3143.8,1094.2 3143.8,1219.6 2075.6,214.7 2208.9,214.7 		"/>
	</g>
	<g class="st1">
		<polygon class="st2" points="3143.8,1835.8 3143.8,1955.7 1293.2,214.7 1420.7,214.7 		"/>
	</g>
	<g class="st1">
		<polygon class="st2" points="2522.8,2054.1 2395.4,2054.1 550.1,318 550.1,214.7 567.7,214.7 		"/>
	</g>
	<g class="st1">
		<polygon class="st2" points="1668.1,2054.1 1540.7,2054.1 550.1,1122.1 550.1,1002.2 		"/>
	</g>
</g>
<rect x="1380.9" y="229.1" class="st3" width="4" height="1827.1"/>
<rect x="2292.1" y="229.1" class="st3" width="4" height="1827.1"/>
<g>
	<path class="st3" d="M770.5,299.3h399.7c33.3,0,60.4,27,60.4,60.4v0c0,33.3-27,60.4-60.4,60.4H770.5c-33.3,0-60.4-27-60.4-60.4v0
		C710.2,326.3,737.2,299.3,770.5,299.3z"/>
	<g>
		<path class="st2" d="M882,341.3h-15v-5.4h36.5v5.4h-15v43.8H882L882,341.3L882,341.3z"/>
		<path class="st2" d="M949.1,360c0,17-10.3,25.9-22.9,25.9s-22.1-10.1-22.1-25c0-15.6,9.7-25.9,22.9-25.9S949.1,345.4,949.1,360
			L949.1,360z M910.9,360.8c0,10.5,5.7,19.9,15.7,19.9s15.8-9.3,15.8-20.5c0-9.8-5.1-20-15.7-20S910.9,350,910.9,360.8z"/>
		<path class="st2" d="M972.8,336.6c3.9-0.6,8.5-1,13.5-1c9.1,0,15.6,2.1,20,6.1c4.4,4,6.9,9.7,6.9,17.7s-2.5,14.6-7.1,19.1
			c-4.6,4.6-12.2,7.1-21.8,7.1c-4.5,0-8.3-0.2-11.5-0.6V336.6L972.8,336.6z M979.1,380.1c1.6,0.3,3.9,0.4,6.4,0.4
			c13.6,0,21-7.6,21-20.9c0.1-11.6-6.5-19-20-19c-3.3,0-5.8,0.3-7.5,0.7L979.1,380.1L979.1,380.1z"/>
		<path class="st2" d="M1063.5,360c0,17-10.3,25.9-22.9,25.9s-22.1-10.1-22.1-25c0-15.6,9.7-25.9,22.9-25.9S1063.5,345.4,1063.5,360
			L1063.5,360z M1025.3,360.8c0,10.5,5.7,19.9,15.7,19.9s15.8-9.3,15.8-20.5c0-9.8-5.1-20-15.7-20S1025.3,350,1025.3,360.8z"/>
	</g>
</g>
<g>
	<path class="st3" d="M1642.1,299.3h399.6c33.3,0,60.4,27,60.4,60.4v0c0,33.3-27,60.4-60.4,60.4h-399.6c-33.3,0-60.4-27-60.4-60.4v0
		C1581.7,326.3,1608.7,299.3,1642.1,299.3z"/>
	<g>
		<path class="st2" d="M1661.3,335.5v49.2h-6.3v-49.2H1661.3z"/>
		<path class="st2" d="M1672.4,384.7v-49.2h6.9l15.8,24.9c3.7,5.8,6.5,11,8.8,16l0.1-0.1c-0.6-6.6-0.7-12.6-0.7-20.2v-20.6h6v49.2
			h-6.4l-15.6-25c-3.4-5.5-6.7-11.1-9.2-16.4l-0.2,0.1c0.4,6.2,0.5,12.1,0.5,20.3v21H1672.4L1672.4,384.7z"/>
		<path class="st2" d="M1720.5,336.1c3.1-0.5,7.1-1,12.2-1c6.3,0,10.9,1.5,13.8,4.1c2.7,2.3,4.3,5.9,4.3,10.3s-1.3,8-3.8,10.5
			c-3.4,3.6-8.8,5.4-15.1,5.4c-1.9,0-3.7-0.1-5.1-0.4v19.7h-6.3V336.1L1720.5,336.1z M1726.9,359.8c1.4,0.4,3.1,0.5,5.3,0.5
			c7.7,0,12.3-3.7,12.3-10.5s-4.6-9.6-11.6-9.6c-2.8,0-4.9,0.2-6,0.5V359.8L1726.9,359.8z"/>
		<path class="st2" d="M1759.4,336.1c3.2-0.7,7.8-1,12.2-1c6.8,0,11.2,1.2,14.2,4c2.5,2.2,3.9,5.5,3.9,9.4c0,6.5-4.1,10.8-9.3,12.6
			v0.2c3.8,1.3,6.1,4.8,7.2,9.9c1.6,6.9,2.8,11.6,3.8,13.5h-6.6c-0.8-1.4-1.9-5.6-3.3-11.8c-1.5-6.8-4.1-9.4-9.9-9.6h-6v21.3h-6.3
			V336.1L1759.4,336.1z M1765.7,358.6h6.5c6.8,0,11.1-3.7,11.1-9.4c0-6.4-4.6-9.1-11.3-9.2c-3.1,0-5.3,0.3-6.3,0.6L1765.7,358.6
			L1765.7,358.6z"/>
		<path class="st2" d="M1841,359.6c0,17-10.3,25.9-22.9,25.9s-22.1-10.1-22.1-25c0-15.6,9.7-25.9,22.9-25.9S1841,345,1841,359.6
			L1841,359.6z M1802.8,360.4c0,10.5,5.7,19.9,15.7,19.9s15.8-9.3,15.8-20.5c0-9.8-5.1-20-15.7-20S1802.8,349.6,1802.8,360.4z"/>
		<path class="st2" d="M1886.7,382.5c-2.8,1-8.5,2.7-15.1,2.7c-7.4,0-13.6-1.9-18.4-6.5c-4.2-4.1-6.9-10.7-6.9-18.3
			c0.1-14.7,10.2-25.4,26.7-25.4c5.7,0,10.2,1.2,12.3,2.3l-1.5,5.2c-2.6-1.2-5.9-2.1-10.9-2.1c-12,0-19.8,7.5-19.8,19.8
			s7.5,19.9,19,19.9c4.2,0,7-0.6,8.5-1.3V364h-10v-5.1h16.2L1886.7,382.5L1886.7,382.5z"/>
		<path class="st2" d="M1896.4,336.1c3.2-0.7,7.8-1,12.2-1c6.8,0,11.2,1.2,14.2,4c2.5,2.2,3.9,5.5,3.9,9.4c0,6.5-4.1,10.8-9.3,12.6
			v0.2c3.8,1.3,6.1,4.8,7.2,9.9c1.6,6.9,2.8,11.6,3.8,13.5h-6.6c-0.8-1.4-1.9-5.6-3.3-11.8c-1.5-6.8-4.1-9.4-9.9-9.6h-6v21.3h-6.3
			V336.1L1896.4,336.1z M1902.8,358.6h6.5c6.8,0,11.1-3.7,11.1-9.4c0-6.4-4.6-9.1-11.3-9.2c-3.1,0-5.3,0.3-6.3,0.6L1902.8,358.6
			L1902.8,358.6z"/>
		<path class="st2" d="M1961.2,361.6h-19.1v17.8h21.3v5.3h-27.7v-49.2h26.6v5.3h-20.2v15.6h19.1L1961.2,361.6L1961.2,361.6z"/>
		<path class="st2" d="M1970.8,377c2.8,1.8,7,3.2,11.4,3.2c6.5,0,10.3-3.4,10.3-8.4c0-4.6-2.6-7.2-9.3-9.8c-8-2.9-13-7-13-14
			c0-7.7,6.3-13.4,15.9-13.4c5,0,8.7,1.2,10.9,2.4l-1.8,5.2c-1.6-0.9-4.9-2.3-9.3-2.3c-6.7,0-9.3,4-9.3,7.4c0,4.6,3,6.9,9.8,9.5
			c8.3,3.2,12.6,7.2,12.6,14.5c0,7.6-5.6,14.2-17.2,14.2c-4.8,0-9.9-1.4-12.6-3.1L1970.8,377L1970.8,377z"/>
		<path class="st2" d="M2006.8,377c2.8,1.8,7,3.2,11.4,3.2c6.5,0,10.3-3.4,10.3-8.4c0-4.6-2.6-7.2-9.3-9.8c-8-2.9-13-7-13-14
			c0-7.7,6.3-13.4,15.9-13.4c5,0,8.7,1.2,10.9,2.4l-1.8,5.2c-1.6-0.9-4.9-2.3-9.3-2.3c-6.7,0-9.3,4-9.3,7.4c0,4.6,3,6.9,9.8,9.5
			c8.3,3.2,12.6,7.2,12.6,14.5c0,7.6-5.6,14.2-17.2,14.2c-4.8,0-9.9-1.4-12.6-3.1L2006.8,377L2006.8,377z"/>
	</g>
</g>
<g>
	<path class="st3" d="M2516.3,299.3h399.6c33.3,0,60.4,27,60.4,60.4v0c0,33.3-27,60.4-60.4,60.4h-399.6c-33.3,0-60.4-27-60.4-60.4v0
		C2455.9,326.3,2482.9,299.3,2516.3,299.3z"/>
	<g>
		<path class="st2" d="M2628.3,334.3c3.9-0.6,8.5-1,13.5-1c9.1,0,15.6,2.1,19.9,6.1c4.4,4,6.9,9.7,6.9,17.7s-2.5,14.6-7.1,19.1
			c-4.6,4.6-12.2,7.1-21.8,7.1c-4.5,0-8.3-0.2-11.5-0.6L2628.3,334.3L2628.3,334.3z M2634.7,377.9c1.6,0.3,3.9,0.4,6.4,0.4
			c13.6,0,21-7.6,21-20.9c0.1-11.6-6.5-19-19.9-19c-3.3,0-5.8,0.3-7.4,0.7V377.9L2634.7,377.9z"/>
		<path class="st2" d="M2719,357.8c0,17-10.3,25.9-22.9,25.9s-22.1-10.1-22.1-25c0-15.6,9.7-25.9,22.9-25.9S2719,343.1,2719,357.8
			L2719,357.8z M2680.8,358.6c0,10.5,5.7,19.9,15.7,19.9s15.8-9.3,15.8-20.5c0-9.8-5.1-20-15.7-20S2680.8,347.8,2680.8,358.6z"/>
		<path class="st2" d="M2727.3,382.9v-49.2h6.9l15.8,24.9c3.6,5.8,6.5,11,8.8,16l0.1-0.1c-0.6-6.6-0.7-12.6-0.7-20.2v-20.6h6v49.2
			h-6.4l-15.6-25c-3.4-5.5-6.7-11.1-9.2-16.4l-0.2,0.1c0.4,6.2,0.5,12.1,0.5,20.3v21H2727.3L2727.3,382.9z"/>
		<path class="st2" d="M2800.8,359.8h-19.1v17.8h21.3v5.3h-27.7v-49.2h26.6v5.3h-20.2v15.6h19.1L2800.8,359.8L2800.8,359.8z"/>
	</g>
</g>
<path class="st3" d="M527,158.1h2631.1c19.5,0,35.2,15.8,35.2,35.2l0,0c0,19.5-15.8,35.2-35.2,35.2H527c-19.5,0-35.2-15.8-35.2-35.2
	l0,0C491.8,173.9,507.5,158.1,527,158.1z"/>
<g>
	<g>
		<g>
			<path class="st3" d="M1503.8,552.5c0,0-6.8,51.2-10.1,94.1l168.1,3.3L1503.8,552.5L1503.8,552.5z"/>
			<path class="st2" d="M1503.8,552.5h131.6c0,0,5.6,91.3,34.8,99.3l-140.3,1.2C1529.9,653.1,1503.8,596,1503.8,552.5L1503.8,552.5z
				"/>
			<rect x="1535.5" y="536.4" class="st4" width="72.7" height="33.4"/>
		</g>
		<g>
			<path class="st3" d="M1602.6,765.1c0,0-6.8,51.2-10.1,94.1l168.1,3.3L1602.6,765.1L1602.6,765.1z"/>
			<path class="st2" d="M1602.6,765.1h131.6c0,0,5.6,91.3,34.8,99.3l-140.3,1.2C1628.7,865.7,1602.6,808.6,1602.6,765.1
				L1602.6,765.1z"/>
			<rect x="1634.3" y="749" class="st4" width="72.7" height="33.4"/>
		</g>
		<g>
			<path class="st3" d="M1859.2,558.6c0,0-6.8,51.2-10.1,94.1l168.1,3.3L1859.2,558.6L1859.2,558.6z"/>
			<path class="st5" d="M1859.2,558.6h131.6c0,0,5.6,91.3,34.8,99.3l-140.3,1.2C1885.3,659.2,1859.2,602.1,1859.2,558.6
				L1859.2,558.6z"/>
			<rect x="1891" y="542.5" class="st4" width="72.7" height="33.4"/>
		</g>
	</g>
	<g>
		<g>
			<path class="st3" d="M923.6,698.1c0,0-6.8,51.2-10.1,94.1l168.1,3.3L923.6,698.1L923.6,698.1z"/>
			<path class="st2" d="M923.6,698.1h131.6c0,0,5.6,91.3,34.8,99.3l-140.3,1.2C949.6,798.7,923.6,741.6,923.6,698.1L923.6,698.1z"/>
			<rect x="955.3" y="682" class="st4" width="72.7" height="33.4"/>
		</g>
		<g>
			<path class="st6" d="M712.7,1058c0,0-6.8,51.2-10.1,94.1l168,3.3L712.7,1058L712.7,1058z"/>
			<path class="st3" d="M712.7,1058h131.6c0,0,5.6,91.3,34.8,99.3l-140.3,1.2C738.8,1158.6,712.7,1101.4,712.7,1058L712.7,1058z"/>
			<rect x="744.4" y="1041.8" class="st4" width="72.7" height="33.4"/>
		</g>
		<g>
			<path class="st3" d="M710.2,849.8c0,0-6.8,51.2-10.1,94.1l168,3.3L710.2,849.8L710.2,849.8z"/>
			<path class="st2" d="M710.2,849.8h131.6c0,0,5.6,91.3,34.8,99.3l-140.3,1.2C736.3,950.4,710.2,893.3,710.2,849.8L710.2,849.8z"/>
			<rect x="741.9" y="833.7" class="st4" width="72.7" height="33.4"/>
		</g>
		<g>
			<path class="st3" d="M976,879.8c0,0-6.8,51.2-10.1,94.1l168,3.3L976,879.8L976,879.8z"/>
			<path class="st2" d="M976,879.8h131.6c0,0,5.6,91.3,34.8,99.3l-140.3,1.2C1002.1,980.4,976,923.3,976,879.8L976,879.8z"/>
			<rect x="1007.7" y="863.7" class="st4" width="72.7" height="33.4"/>
		</g>
		<g>
			<path class="st3" d="M698.8,552c0,0-6.8,51.2-10.1,94.1l168,3.3L698.8,552L698.8,552z"/>
			<path class="st5" d="M698.8,552h131.6c0,0,5.6,91.3,34.8,99.3l-140.3,1.2C724.9,652.6,698.8,595.5,698.8,552L698.8,552z"/>
			<rect x="730.5" y="535.9" class="st4" width="72.7" height="33.4"/>
		</g>
		<g>
			<path class="st3" d="M951.3,1213.3c0,0-6.8,51.2-10.1,94.1l168,3.3L951.3,1213.3L951.3,1213.3z"/>
			<path class="st5" d="M951.3,1213.3h131.6c0,0,5.6,91.3,34.8,99.3l-140.3,1.2C977.4,1313.9,951.3,1256.8,951.3,1213.3
				L951.3,1213.3z"/>
			<rect x="983" y="1197.2" class="st4" width="72.7" height="33.4"/>
		</g>
		<g>
			<path class="st3" d="M1097.8,567c0,0-6.8,51.2-10.1,94.1l168.1,3.3L1097.8,567L1097.8,567z"/>
			<path class="st7" d="M1097.8,567h131.6c0,0,5.6,91.3,34.8,99.3l-140.3,1.2C1123.8,667.6,1097.8,610.5,1097.8,567L1097.8,567z"/>
			<rect x="1129.5" y="550.8" class="st4" width="72.7" height="33.4"/>
		</g>
	</g>
	<g>
		<g>
			<path class="st6" d="M2691.6,641c0,0-6.9,51.2-10.1,94.1l168.1,3.3L2691.6,641L2691.6,641z"/>
			<path class="st3" d="M2691.6,641h131.6c0,0,5.6,91.3,34.8,99.3l-140.3,1.2C2717.7,741.6,2691.6,684.5,2691.6,641L2691.6,641z"/>
			<rect x="2723.4" y="624.9" class="st4" width="72.6" height="33.4"/>
		</g>
		<g>
			<path class="st6" d="M2706,1128.4c0,0-6.9,51.2-10.1,94.1l168.1,3.3L2706,1128.4L2706,1128.4z"/>
			<path class="st3" d="M2706,1128.4h131.6c0,0,5.6,91.3,34.8,99.3l-140.3,1.2C2732.1,1229,2706,1171.9,2706,1128.4L2706,1128.4z"/>
			<rect x="2737.7" y="1112.3" class="st4" width="72.6" height="33.4"/>
		</g>
		<g>
			<path class="st3" d="M2425.5,771.7c0,0-6.9,51.2-10.1,94.1l168.1,3.3L2425.5,771.7L2425.5,771.7z"/>
			<path class="st2" d="M2425.5,771.7h131.6c0,0,5.6,91.3,34.8,99.3l-140.3,1.2C2451.6,872.3,2425.5,815.2,2425.5,771.7
				L2425.5,771.7z"/>
			<rect x="2457.2" y="755.6" class="st4" width="72.6" height="33.4"/>
		</g>
		<g>
			<path class="st3" d="M2695.8,883.2c0,0-6.9,51.2-10.1,94.1l168.1,3.3L2695.8,883.2L2695.8,883.2z"/>
			<path class="st2" d="M2695.8,883.2h131.6c0,0,5.6,91.3,34.8,99.3l-140.3,1.2C2721.9,983.8,2695.8,926.7,2695.8,883.2
				L2695.8,883.2z"/>
			<rect x="2727.5" y="867.1" class="st4" width="72.6" height="33.4"/>
		</g>
		<g>
			<path class="st3" d="M2945.9,890c0,0-6.9,51.2-10.1,94.1l168.1,3.3L2945.9,890L2945.9,890z"/>
			<path class="st2" d="M2945.9,890h131.6c0,0,5.6,91.3,34.8,99.3l-140.3,1.2C2971.9,990.6,2945.8,933.4,2945.9,890L2945.9,890z"/>
			<rect x="2977.6" y="873.8" class="st4" width="72.6" height="33.4"/>
		</g>
		<g>
			<path class="st3" d="M2425.9,544.9c0,0-6.9,51.2-10.1,94.1l168.1,3.3L2425.9,544.9L2425.9,544.9z"/>
			<path class="st7" d="M2425.9,544.9h131.6c0,0,5.6,91.3,34.8,99.3l-140.3,1.2C2452,645.5,2425.9,588.4,2425.9,544.9L2425.9,544.9z
				"/>
			<rect x="2457.6" y="528.8" class="st4" width="72.6" height="33.4"/>
		</g>
	</g>
</g>
<g>
	<g>
		<path class="st8" d="M807.1,1785.1c0,0,32-17.1,54.6-39.7c0,0-16.8,82.8-93.3,148.9c0,0-33-109.1-104.5-171.4
			s-139.9-119.2-139.9-119.2l92.1,1.9c0,0-224.5-209.3-267.1-330.8l0,0c1.7,0.4,112.1,25.5,133.9,35.4l16.4,75.2l24.4-71.3
			l33.4,23.1l-5.2,76l40.8-63.8c0,0,93,23.5,133.8,101.8l-55.8,98.2l102.6-77c0,0,23.6,122.2,24.3,139.8l-94.9,65.9
			c0,0,68.2-21.6,125-58.9l36.2,96L807.1,1785.1L807.1,1785.1z"/>
		<path class="st9" d="M907.3,2085.7c0,0-136.4-97.2-69.8-270.7c0,0,61,38.8,92.1,74.3l-51.9-130.7c0,0,24.3-96.4,119.2-173.8
			l85.9,121.4l-57.7-131.6c0,0,0.7-12.6,29.4-40l45.7,88.6c0,0-35.9-86.7-23.2-129.5c0,0,106.1-68.1,252.6-109.2l-221.7,291
			c0,0-6.2,31.7,40.3,6.5s105.3-87.5,105.3-87.5s-53.7,106.7-97,126.1c-43.3,19.4-67.2,36.9-67.2,36.9l40.6,14.5
			c0,0-66.7,66-134.9,92.1c0,0,40.4,38.5,132.4-7.3C1127.3,1856.5,1057.3,2076,907.3,2085.7L907.3,2085.7z"/>
		<path class="st8" d="M1147.1,1804.3c0,0-114.4,225.1-239.8,281.4c0,0,125-7.6,204-110.7l45.1-77.2
			C1156.3,1897.7,1161.1,1827.2,1147.1,1804.3L1147.1,1804.3z"/>
		<path class="st8" d="M1107.8,1675.4l17.5-140.2c0,0,112.5-19.2,204.2-150.8C1329.5,1384.4,1216.5,1600.9,1107.8,1675.4
			L1107.8,1675.4z"/>
		<path class="st8" d="M1261,1554c0,0-57.7,136.6-104.6,166.4c0,0,65.4-25.9,97.8-75.8C1254.2,1644.6,1276.4,1611.2,1261,1554
			L1261,1554z"/>
		<path class="st8" d="M1089.2,1757.3c0,0-13.3,57.1-47.1,84.2c0,0,89.8-44,151.3-111C1193.4,1730.4,1142.7,1750.1,1089.2,1757.3z"
			/>
		<path class="st10" d="M374.3,1740.8c0,0,288.4,348.1,319.1,390.8c0,0,45.2-7.5,76.8-68.8l-28.7,10.8c0,0,65.9-75.2-11.6-152.6
			l-49.9,62c0,0,73.3-110.3-60.6-166.2C485.4,1760.8,374.3,1740.8,374.3,1740.8L374.3,1740.8z"/>
		<path class="st9" d="M576,1504.4c-0.2,0-0.4,0-0.7-0.1c-1-0.4-1.5-1.5-1.1-2.5l51.3-140c0.4-1,1.5-1.5,2.5-1.1
			c1,0.4,1.5,1.5,1.1,2.5l-51.3,140C577.6,1504,576.8,1504.4,576,1504.4L576,1504.4z"/>
		<path class="st9" d="M616.8,1546.9c-0.2,0-0.5,0-0.7-0.1c-1-0.4-1.5-1.5-1.1-2.5l59.8-151.6c0.4-1,1.5-1.5,2.5-1.1
			c1,0.4,1.5,1.5,1.1,2.5l-59.8,151.6C618.3,1546.4,617.5,1546.9,616.8,1546.9L616.8,1546.9z"/>
		<path class="st11" d="M768.4,1894.2c0,0-33-109.1-104.5-171.4s-139.9-119.2-139.9-119.2l92.1,1.9c0,0-224.5-209.3-267.1-330.8l0,0
			c4,3.6,258.1,235.7,304.5,320.2C700.5,1680.3,760.7,1837.1,768.4,1894.2L768.4,1894.2z"/>
		<path class="st8" d="M1021.5,1814.5c-1.2,0-2.4-0.6-3.1-1.6L922,1678.3c-1.2-1.7-0.8-4.1,0.9-5.3c1.7-1.2,4.1-0.8,5.3,0.9
			l96.3,134.6c1.2,1.7,0.8,4.1-0.9,5.3C1023,1814.2,1022.2,1814.5,1021.5,1814.5L1021.5,1814.5z"/>
		<path class="st8" d="M1050.5,1764.9c-1.2,0-2.4-0.6-3.1-1.6l-93.1-130.7c-1.2-1.7-0.8-4.1,0.9-5.3c1.7-1.2,4.1-0.8,5.3,0.9
			l93.1,130.7c1.2,1.7,0.8,4.1-0.9,5.3C1052.1,1764.6,1051.3,1764.9,1050.5,1764.9z"/>
		<path class="st8" d="M886,2282.1c-0.1,0-0.3,0-0.4,0c-2.1-0.2-3.6-2.1-3.4-4.2l21.2-192.6c0.2-1.7,4.8-43.2,42.9-131.7
			c35-81.4,106.4-219.6,247.1-415.9c1.2-1.7,3.6-2.1,5.3-0.9s2.1,3.6,0.9,5.3c-140.3,195.8-211.4,333.4-246.3,414.5
			c-37.7,87.5-42.3,129.1-42.3,129.5l-21.2,192.7C889.6,2280.7,888,2282.2,886,2282.1L886,2282.1z"/>
		<path class="st9" d="M837.8,2284.7c-1.7,0-3.2-1.3-3.4-3.1c-17.8-222.1-68.4-389.7-68.9-391.4c0-0.1-0.1-0.2-0.1-0.3
			c-6.3-32.2-90.4-250.7-111.5-293.4c-20.3-40.9-302.3-313.9-305.1-316.6c-1.3-1.3-1.4-3.4-0.1-4.8c1.3-1.3,3.4-1.4,4.8-0.1
			c11.7,11.3,285.7,276.5,306.5,318.5c21.2,42.8,105.4,261.9,112,294.9c1.9,6.2,51.5,172.9,69.1,392.7c0.2,1.9-1.2,3.5-3.1,3.6
			C838,2284.7,837.9,2284.7,837.8,2284.7L837.8,2284.7z"/>
		<path class="st9" d="M801.7,2283.7c-1.2,0-2.4-0.8-2.9-1.9c-3-5.3-65.6-91.3-107.2-148.2l-318.4-389.3c-1.1-1.3-0.9-3.3,0.4-4.4
			c1.3-1.1,3.3-0.9,4.4,0.4l318.4,389.4c0,0,0.1,0.1,0.1,0.1c107.3,146.8,107.9,149.2,108.1,150c0.4,1.7-0.6,3.4-2.3,3.8
			C802.1,2283.7,801.9,2283.7,801.7,2283.7L801.7,2283.7z"/>
	</g>
	
		<rect x="494.7" y="1888.7" transform="matrix(0.1487 -0.9889 0.9889 0.1487 -1376.1544 2182.7244)" class="st9" width="169.8" height="3.8"/>
	
		<rect x="522.3" y="1921.6" transform="matrix(0.1602 -0.9871 0.9871 0.1602 -1377.1527 2228.3535)" class="st9" width="197.4" height="3.8"/>
</g>
<g>
	<g>
		<rect x="2286.3" y="1972.8" class="st12" width="262.8" height="250.7"/>
		<polygon class="st2" points="2529,1463.5 2525.7,1516.7 2524,1544.7 2521.9,1578.6 2520.1,1606.6 2518,1640.4 2516.3,1668.4 
			2513.9,1706.1 2512.2,1734.1 2509.6,1774.7 2507.9,1802.7 2496.8,1981.5 2286,1975.7 2309.7,1802.7 2313.6,1774.7 2319.2,1734.1 
			2323,1706.1 2328.2,1668.4 2332.1,1640.4 2336.7,1606.6 2340.5,1578.6 2345.2,1544.7 2349.1,1516.7 2355.8,1467.4 		"/>
		<polygon class="st7" points="2525.7,1537.4 2524,1576.4 2345.2,1576.4 2349.1,1537.4 		"/>
		<polygon class="st7" points="2521.9,1623.4 2520.1,1662.3 2336.7,1662.3 2340.5,1623.4 		"/>
		<polygon class="st7" points="2518,1709.3 2516.3,1748.2 2328.2,1748.2 2332.1,1709.3 		"/>
		<polygon class="st7" points="2323,1800.6 2513.9,1800.6 2512.2,1839.6 2319.2,1839.6 		"/>
		<polygon class="st7" points="2313.6,1895.9 2509.6,1895.9 2507.9,1934.9 2309.7,1934.9 		"/>
		<g>
			<g>
				<path class="st13" d="M2605.2,2206.1c0,0-41.4,67.5-41.6,71.8s22.4,63.4,22.4,63.4s22.3,6.6,25.4,6.6c3.1,0,9.7-12.5,9.7-12.5
					s7.3,4.5,9.4,3.3c2.1-1.2,16.3-18.4,16.3-18.4l12.8-11.5c0,0,20.8-10.8,19.9-13.8c-0.9-2.9-9.8-36.6-8.6-45.8
					c1.1-9.3,10.8-42.9,10.8-42.9S2633.1,2187.1,2605.2,2206.1L2605.2,2206.1z"/>
				<path class="st12" d="M2611.4,2349.3c-3.3,0-23.5-6-25.8-6.7c-0.4-0.1-0.8-0.4-0.9-0.9c-3.8-9.9-22.8-59.6-22.5-63.9
					c0.2-4.4,34.9-61.1,41.8-72.5c0.1-0.2,0.2-0.3,0.4-0.4c11.7-7.9,28.9-10.4,49.7-7.2c15.6,2.4,27.9,7.3,28.1,7.3
					c0.7,0.3,1,1,0.8,1.7c-0.1,0.3-9.6,33.6-10.7,42.7c-1.1,8.7,7.5,41.8,8.6,45.2c0.3,1,1.3,4.1-20.4,15.4l-12.6,11.3
					c-3.4,4.2-14.5,17.4-16.6,18.6c-2.1,1.2-6.7-0.9-9.5-2.5C2619.3,2341.8,2614.7,2349.3,2611.4,2349.3L2611.4,2349.3
					L2611.4,2349.3z M2587.1,2340.1c8.6,2.5,22.2,6.4,24.3,6.4l0,0c1.3-0.2,5.2-5.6,8.4-11.7c0.2-0.4,0.5-0.6,0.9-0.7
					c0.4-0.1,0.8-0.1,1.1,0.2c3.3,2,7.1,3.6,7.9,3.3c1.2-0.8,9-9.8,15.9-18c0-0.1,0.1-0.1,0.1-0.1l12.8-11.5
					c0.1-0.1,0.2-0.1,0.3-0.2c8.6-4.4,18.1-10.3,19.1-12.3c-1.1-3.7-9.8-36.6-8.6-46.2c1-8.4,8.7-35.6,10.4-41.9
					c-7.6-2.7-49.1-16.6-73.6-0.1c-15.7,25.6-40.6,67.3-41.2,70.9C2565,2281.1,2578.5,2317.5,2587.1,2340.1L2587.1,2340.1z"/>
			</g>
			<path class="st12" d="M2621.1,2336.8c-0.2,0-0.4,0-0.5-0.1c-3.8-1.6-16.3-6.9-17.8-10.6c-1.4-3.4-6.8-31.6-7.4-34.8
				c-0.1-0.8,0.4-1.5,1.1-1.6c0.8-0.1,1.5,0.4,1.6,1.1c1.6,8.6,6.2,31.6,7.3,34.3c0.7,1.8,9,6.1,16.3,9.1c0.7,0.3,1,1.1,0.8,1.8
				C2622.2,2336.4,2621.7,2336.8,2621.1,2336.8L2621.1,2336.8z"/>
			<path class="st12" d="M2646.8,2321.7c-0.2,0-0.4-0.1-0.6-0.1c-4.6-2.4-19.9-10.5-21.1-14.9c-1.1-4.2-4.4-31.1-4.5-32.2
				c-0.1-0.8,0.4-1.4,1.2-1.5c0.8-0.1,1.4,0.4,1.5,1.2c0,0.3,3.4,27.8,4.5,31.9c0.6,2.2,10.6,8.5,19.6,13.1c0.7,0.4,0.9,1.2,0.6,1.9
				C2647.8,2321.4,2647.3,2321.7,2646.8,2321.7L2646.8,2321.7z"/>
			<path class="st12" d="M2662.6,2308c-0.4,0-0.7-0.1-1-0.4l-10.5-10.2c-4.4-4.2-6.9-10.3-7.1-16.6l-0.5-19.2c0-0.8,0.6-1.4,1.3-1.4
				c0,0,0,0,0,0c0.7,0,1.4,0.6,1.4,1.3l0.5,19.2c0.1,5.6,2.4,11,6.2,14.7l10.5,10.2c0.5,0.5,0.6,1.4,0,1.9
				C2663.3,2307.9,2662.9,2308,2662.6,2308L2662.6,2308z"/>
		</g>
		<path class="st13" d="M2523.6,1446.8c-89.9,96.5-74.4,78.7-132.2,19.4c-10.5-10.8-8.8-25.5-8.8-25.5l18.8-96.7l107.4-17.4
			l2.5,20.1L2523.6,1446.8L2523.6,1446.8z"/>
		<path class="st14" d="M2511.3,1346.7c-27.2,37.9-76,99.1-119.9,119.6c-6.1-13.8-8.8-25.5-8.8-25.5l18.8-96.7l107.4-17.4
			L2511.3,1346.7L2511.3,1346.7z"/>
		<g>
			<path class="st13" d="M2531.1,1301.1c-18.8,46.9-65.4,110.6-117.1,84.8c-37.2-18.6-48.6-100.6-52.1-145.2
				c-1.4-17.5-1.5-29.2-1.5-29.2c96.2-58.2,141.9-52.7,162.6-26.4C2552.1,1222.3,2531,1301.1,2531.1,1301.1L2531.1,1301.1z"/>
			<g>
				<path class="st15" d="M2446,1276.4c0,0,10.9-14.2,22.1-17.2c11.2-3,33.4,8.7,33.4,8.7L2446,1276.4L2446,1276.4z"/>
				<path class="st15" d="M2413.9,1276.2c0,0-22.3-17.7-31.4-17.3c-9.2,0.4-22.8,10.1-22.8,10.1L2413.9,1276.2L2413.9,1276.2z"/>
				<path class="st15" d="M2451.6,1290.3c0,0,10.2-11,25.9-9.5c16.1,1.6,18,7.8,18,7.8S2475.2,1290,2451.6,1290.3z"/>
				
					<ellipse transform="matrix(3.489950e-02 -0.9994 0.9994 3.489950e-02 1092.3669 3721.8669)" class="st15" cx="2473.2" cy="1295.3" rx="9.1" ry="7.2"/>
				
					<ellipse transform="matrix(3.489950e-02 -0.9994 0.9994 3.489950e-02 1015.8127 3639.3413)" class="st15" cx="2392.2" cy="1293.7" rx="8.6" ry="6.9"/>
				<path class="st15" d="M2372.7,1287.4c0,0,11.9-9.5,21.3-8.9s18.4,8.6,18.4,8.6L2372.7,1287.4L2372.7,1287.4z"/>
			</g>
			<path class="st15" d="M2427.9,1340.6c-0.3,0-0.6-0.1-0.9-0.3l-9.2-6.2c-3.1-2.1-4.2-6.1-2.6-9.5l9.6-20.5
				c0.4-0.8,1.4-1.2,2.2-0.8c0.8,0.4,1.2,1.4,0.8,2.2l-9.6,20.5c-0.9,1.9-0.3,4.1,1.5,5.3l9.2,6.2c0.8,0.5,1,1.6,0.5,2.3
				C2429,1340.3,2428.5,1340.6,2427.9,1340.6L2427.9,1340.6z"/>
			<path class="st15" d="M2428.6,1360.5c-9.6,0-23.5-10.1-24.1-10.6c-0.7-0.5-0.9-1.6-0.4-2.3s1.6-0.9,2.3-0.4
				c0.1,0.1,14.9,10.8,23.1,9.9c8.8-1,31.3-6.4,31.6-6.5c0.9-0.2,1.8,0.3,2,1.2c0.2,0.9-0.3,1.8-1.2,2c-0.9,0.2-23,5.5-32,6.5
				C2429.5,1360.5,2429.1,1360.5,2428.6,1360.5L2428.6,1360.5z"/>
			<path class="st15" d="M2431,1370.9c-8.9,0-15.6-3.8-15.9-4.1c-0.8-0.5-1.1-1.5-0.6-2.3c0.5-0.8,1.5-1.1,2.3-0.6
				c0.1,0.1,10.1,5.8,21.4,2.6c0.9-0.2,1.8,0.3,2.1,1.2s-0.3,1.8-1.1,2.1C2436.3,1370.6,2433.5,1370.9,2431,1370.9L2431,1370.9z"/>
			<circle class="st14" cx="2488.4" cy="1326.8" r="20.6"/>
			<g>
				<path class="st2" d="M2383.7,1329.2c-0.4,0-0.7,0-1.1,0c-10.3-0.4-19.8-5.8-26.7-15.2c-6.8-9.3-10.3-21.5-9.9-34.3
					c0.9-26.6,18.8-47.6,39.9-46.9c21.1,0.7,37.5,23,36.6,49.6c-0.4,12.8-4.8,24.7-12.3,33.6
					C2403,1324.5,2393.6,1329.2,2383.7,1329.2L2383.7,1329.2z M2384.9,1236c-18.8,0-34.7,19.3-35.5,43.7
					c-0.4,12.1,2.9,23.5,9.2,32.3c6.3,8.6,14.9,13.5,24.1,13.9s18.1-4,25-12.1c7-8.3,11.1-19.5,11.5-31.5
					c0.9-24.8-14.1-45.4-33.4-46.1C2385.6,1236,2385.3,1236,2384.9,1236L2384.9,1236z"/>
				<path class="st2" d="M2471.6,1331.3c-0.4,0-0.7,0-1.1,0c-21.1-0.7-37.5-23-36.6-49.6c0.4-12.8,4.8-24.7,12.3-33.6
					c7.6-8.9,17.4-13.7,27.7-13.3c10.3,0.4,19.8,5.8,26.7,15.2c6.8,9.3,10.3,21.5,9.9,34.3l-1.7-0.1l1.7,0.1
					C2509.5,1310.6,2492.2,1331.4,2471.6,1331.3L2471.6,1331.3z M2472.8,1238.2c-8.9,0-17.4,4.3-24,12.2c-7,8.3-11.1,19.5-11.5,31.5
					c-0.9,24.8,14.1,45.4,33.4,46.1c0.3,0,0.6,0,1,0c18.8,0,34.7-19.3,35.5-43.7c0.4-12.1-2.9-23.5-9.2-32.3
					c-6.3-8.6-14.9-13.5-24.1-13.9C2473.4,1238.2,2473.1,1238.2,2472.8,1238.2L2472.8,1238.2z"/>
				
					<rect x="2420.7" y="1288.4" transform="matrix(0.9997 -2.582800e-02 2.582800e-02 0.9997 -32.5096 63.1404)" class="st2" width="14.7" height="3.3"/>
				
					<rect x="2505" y="1274.6" transform="matrix(0.6583 -0.7528 0.7528 0.6583 -101.0055 2329.9368)" class="st2" width="21.7" height="3.3"/>
			</g>
			<path class="st14" d="M2522.9,1185.1c-2.1,4.9-7.2,10.4-16,16.8c-67.5,49.3-106.5,31.8-106.5,31.8l21.9-16.7
				c-17.6,11.2-40.2,14.6-60.8,18.7c-1.4-17.5-1.3-24.2-1.3-24.2C2456.5,1153.2,2502.3,1158.7,2522.9,1185.1L2522.9,1185.1z"/>
			<path class="st12" d="M2582.8,1163.4c0,0,43.5-65.7-40.2-83.9c0,0,7.8-79-89.9-43.1c0,0-61.1-23.1-77.6,17.7
				c-1.9,4.8-2.8,10-2.9,15.2c-0.1,3.4-0.1,7.9,0,12.7c-5.7-7.2-15.4-14.9-31.1-16.3c0,0,17.8,7.5,20.7,25.2
				c-21.2-3.5-67-4.7-83.5,44.8c0,0,21.1-31.3,52.8-31.9c-11,7.2-22.4,19-31.8,38.3c-28,57.4,34,128.5,128.6,60.3
				c0,0-8.8,25.7-27.4,31.3c0,0,52.9,2.5,99.5-41.5c0,0-4.4,54.4,30.7,83.5c0,0,43,3.4,71.1-75.5
				C2629.9,1121.3,2582.8,1163.4,2582.8,1163.4L2582.8,1163.4z"/>
			<g>
				<path class="st13" d="M2519.9,1275.9c0,0,5.5-22.4,17.2-37.1c13.6-17.2,45.1-16.4,37.9,20c-7.1,36.3-49.8,41.4-49.8,41.4
					L2519.9,1275.9L2519.9,1275.9z"/>
				<path class="st16" d="M2529.7,1285.7c-0.1,0-0.3,0-0.4-0.1c-0.8-0.2-1.1-1.1-0.9-1.8c11.9-35.7,37.8-40,38.9-40.2
					c0.8-0.1,1.5,0.4,1.6,1.2c0.1,0.8-0.4,1.5-1.2,1.6c-0.2,0-25.3,4.3-36.6,38.3C2530.8,1285.3,2530.3,1285.7,2529.7,1285.7
					L2529.7,1285.7z"/>
				<path class="st16" d="M2544.6,1272.9c-0.6,0-1.1,0-1.7-0.1c-4.2-0.3-7.5-1.7-7.6-1.8c-0.7-0.3-1.1-1.2-0.7-1.9
					c0.3-0.7,1.1-1.1,1.9-0.8c0.1,0.1,11.7,4.9,17.7-2.5c6.1-7.6,2.6-16.4,2.5-16.8c-0.3-0.7,0.1-1.6,0.8-1.9
					c0.7-0.3,1.6,0.1,1.9,0.8c0.2,0.4,4.3,10.7-2.9,19.6C2553.6,1271.1,2549.6,1272.9,2544.6,1272.9L2544.6,1272.9z"/>
			</g>
		</g>
		<path class="st17" d="M2757.3,1843.6l-64.4,404.2l-106.1-35.4l-2.6-0.9c0,0-40.9,16.8-71.2,12.1c-2.4-0.4-4.7-1.1-6.8-2.1
			c-24.9-12.4-25.9-70.9-40.1-153.8c-15.4-90,40.2-620.2,40.2-620.2l75.2-6.7l151.8,83.3c5.2,7,9.3,14.7,12.2,22.8
			c2.8,8.2,4.4,16.7,4.7,25.5L2757.3,1843.6L2757.3,1843.6z"/>
		<path class="st17" d="M2386,1446.9c0,0-6,603.4-58.4,784.7c0,0-75.9,20.8-103.4-53.7l53-711L2386,1446.9L2386,1446.9z"/>
		<path class="st18" d="M2640.2,1844.2l-53.5,368.2l-2.6-0.9c0,0-40.9,16.8-71.2,12.1c-2.4-0.4-4.7-1.1-6.8-2.1
			c16.4-56.8,92.3-320.1,103.3-364.8c12.3-50.2,10.8-221.4,10.8-221.4L2640.2,1844.2L2640.2,1844.2z"/>
		<path class="st2" d="M2586.1,2194.4c-0.1,0-0.2,0-0.3,0c-1.1-0.2-1.8-1.2-1.7-2.3l54.5-348.4c-0.6-4.6-8.1-64.1-12.7-126
			c-6.3-86.6-3.9-136.4,7.2-148.2c25.7-27.2,43.4-37.9,44.2-38.3c0.9-0.6,2.2-0.2,2.7,0.7c0.6,0.9,0.2,2.2-0.7,2.7
			c-0.2,0.1-18.1,10.9-43.3,37.6c-7.1,7.5-13.9,38.8-6.1,145.2c4.7,64,12.6,125.5,12.7,126.1c0,0.2,0,0.4,0,0.6l-54.6,348.7
			C2587.9,2193.7,2587.1,2194.4,2586.1,2194.4L2586.1,2194.4z"/>
		<path class="st2" d="M2640.7,1845.7c-0.4,0-0.8-0.1-1.1-0.3c-0.9-0.6-1.2-1.8-0.6-2.7c0.3-0.4,7.2-11.2,18.5-22.9
			c10.6-10.8,27.1-24.3,45.9-27.2c6.1-0.9,9.8-1,10.7,1.6c1.2,3.4-3.8,6.7-25.7,19.1c-17.8,10.1-40,22.7-46.2,31.6
			C2641.9,1845.4,2641.3,1845.7,2640.7,1845.7L2640.7,1845.7z M2709.2,1796c-1,0-2.6,0.2-5.1,0.5c-20.6,3.2-38.7,19.9-49.9,32.8
			c9.6-6.6,21.7-13.5,32.3-19.5C2695.6,1804.6,2705.7,1798.9,2709.2,1796L2709.2,1796z"/>
		<path class="st2" d="M2640.7,1845.7c-0.8,0-1.5-0.4-1.8-1.2c-0.5-1,0-2.2,1-2.6c0.5-0.2,13.5-6.2,30.2-10.2
			c22.6-5.4,40.3-4.5,52.4,2.8c0.9,0.6,1.2,1.8,0.7,2.7c-0.6,0.9-1.8,1.2-2.7,0.7c-27-16.1-78.4,7.4-78.9,7.6
			C2641.2,1845.7,2641,1845.7,2640.7,1845.7L2640.7,1845.7z"/>
		<g>
			<g class="st19">
				<path class="st12" d="M2350.2,1526.6c0,0,23.2-30.2,31.1-29.8c8,0.3,64,21.5,64,21.5L2388,1461
					C2388,1461,2351.6,1498.8,2350.2,1526.6L2350.2,1526.6z"/>
			</g>
			<path class="st7" d="M2391,1400l9.1,47.4l46.9,70.2c0,0-49.8-36.2-69.3-36.2l-27.5,45.1l-29.4-69.8L2391,1400L2391,1400z"/>
			<g class="st19">
				<path class="st12" d="M2447,1517.7c0,0,43.1-21.5,53.1-16.9c9.9,4.6,25.6,36.7,25.6,36.7l-13.7-67.8
					C2512,1469.6,2462.2,1489.8,2447,1517.7L2447,1517.7z"/>
			</g>
			<path class="st7" d="M2445.4,1518.3l72.5-123.9l63.5,46.4l-57.2,99.8c0,0-11.7-58.4-25.4-53.6
				C2485.7,1491.4,2445.4,1518.3,2445.4,1518.3L2445.4,1518.3z"/>
		</g>
	</g>
	<g>
		<polygon class="st12" points="1543.2,2246.7 1100.6,2245.4 1126,1971.3 1544.6,2011.8 		"/>
		<g>
			<path class="st13" d="M1421.4,1416.5c-1.1,0.5-2.3,1-3.4,1.5c-82,35-154.3,3.5-154.3,3.5l14.1-119.3l0.7-5.8
				c66.5-23.3,114.4,24.5,114.4,24.5L1421.4,1416.5L1421.4,1416.5z"/>
			<path class="st14" d="M1426.3,1427.2c-1.1,0.5-7.2,0.9-8.3,1.4c-49.9-14.4-108.8-78.2-140.2-115.9l0.7-5.8
				c66.5-23.3,117.2,22.8,117.2,22.8L1426.3,1427.2z"/>
			<polygon class="st2" points="1201.4,1447.5 1180.8,2016.6 1493.7,2026.9 1525.9,1438.6 			"/>
			<g>
				<path class="st13" d="M1423.4,1164.8c0,0,35.1,232.3-78.6,192.8c-122.2-42.5-107.2-201.6-88.1-229.4
					C1275.8,1100.3,1359.1,1032.4,1423.4,1164.8z"/>
				<g>
					<path class="st15" d="M1391.6,1238.6c0,0,4.5-12.6,16.6-18s37.9,2.6,37.9,2.6L1391.6,1238.6L1391.6,1238.6z"/>
					<path class="st15" d="M1364.4,1243.6c0,0-11.4-40.3-73-2.6C1291.5,1241,1346,1238.8,1364.4,1243.6z"/>
					<path class="st15" d="M1302.1,1266.9c0,0,22.2-29,56.9-11.1L1302.1,1266.9z"/>
					
						<ellipse transform="matrix(0.9841 -0.1778 0.1778 0.9841 -203.8748 257.3883)" class="st15" cx="1334.4" cy="1266.4" rx="7.8" ry="8.9"/>
					
						<ellipse transform="matrix(0.9939 -0.1104 0.1104 0.9939 -129.6176 163.9875)" class="st15" cx="1415.7" cy="1252.2" rx="6.6" ry="9.5"/>
					<path class="st15" d="M1394.4,1248.8c0,0,14.7-10.3,23.4-10.9c8.7-0.6,18.4,5.7,18.4,5.7L1394.4,1248.8L1394.4,1248.8z"/>
					<path class="st15" d="M1380.9,1306.9c-0.7,0-1.3-0.4-1.5-1.1c-0.3-0.8,0.2-1.7,1-2c11.1-3.6,20.9-9,20.3-11
						c-1.4-4.3-15.4-25-20.8-32.6c-0.5-0.7-0.3-1.7,0.4-2.2c0.7-0.5,1.7-0.3,2.2,0.4c2,2.8,19.4,27.9,21.2,33.4
						c2,6.3-14.9,12.6-22.3,15C1381.2,1306.9,1381.1,1306.9,1380.9,1306.9L1380.9,1306.9z"/>
					<path class="st15" d="M1379.4,1327c-10.2,0-30.7-3-31.7-3.1c-0.9-0.1-1.5-0.9-1.3-1.8c0.1-0.9,0.9-1.5,1.8-1.3
						c7.9,1.2,29.5,3.9,34.8,2.9c5.2-1.1,18.7-9.7,23.5-13c0.7-0.5,1.7-0.3,2.2,0.4c0.5,0.7,0.3,1.7-0.4,2.2
						c-0.7,0.5-17.7,12.1-24.6,13.5C1382.6,1326.9,1381.2,1327,1379.4,1327L1379.4,1327z"/>
					<path class="st15" d="M1379.1,1338.9c-4.9,0-8.8-1.1-9.1-1.2c-0.8-0.2-1.3-1.1-1.1-2c0.2-0.8,1.1-1.3,2-1.1
						c0.1,0,12.9,3.7,20.8-2.9c0.7-0.6,1.7-0.5,2.2,0.2c0.6,0.7,0.5,1.7-0.2,2.2C1389.3,1337.9,1383.7,1338.9,1379.1,1338.9
						L1379.1,1338.9z"/>
				</g>
				<circle class="st14" cx="1315.1" cy="1298" r="21.6"/>
				<path class="st14" d="M1423.9,1169.1l-66.6-72.7l-72.5,66c0,0,15.6,51.3,57,47.1c0,0-7.6-8.5-12.4-18.9c0,0,32.9,15,41.8-6.7
					c0,0,20.4,17.9,50.2,14.8c0,0-26-10.8-31.2-18.9c0,0,16.7,9.7,35.6,12L1423.9,1169.1L1423.9,1169.1z"/>
				<path class="st15" d="M1443.7,1099.5c0,0,40.6,11.8,26.9-13.9c-13.7-25.7-39.9-14.4-39.9-14.4s-2-93.3-101.9-47.6
					c0,0-65.6-43-105.2,55.2c0,0-21.2-20.2,11.1-59.3c0,0-39.9,20.2-28.5,71c0,0-37.6,0.7-28.4,39.5c0,0,6.1-27.3,31.2-14.3
					c0,0-43.9,53.8,7.2,120.4c0,0,8.8,10.5,29.1,13.9c0,0,55.8-6.3,39.7-87.5c0,0,14.2,40.5,47.2,37.8c0,0-13.8-5.2-21.2-19.7
					c15.8,8.7,35.3,15,48.3,3.8c0,0,6.6-7.2-3.1-26.1c12.1,15.5,33.8,36.2,65.4,40.5c0,0-19.1-6.6-32.6-23.4
					c23.2,11.9,51.9,17.1,82.1-0.6c11.3-6.7,18.5-19,17.7-32.1C1487.6,1128.7,1478.1,1111.8,1443.7,1099.5L1443.7,1099.5z
					 M1343.8,1139.7c0.3,0.3,0.5,0.6,0.8,0.9c0,0,0,0-0.1,0.1v0C1344.3,1140.4,1344.1,1140.1,1343.8,1139.7L1343.8,1139.7z"/>
				<g>
					<path class="st13" d="M1276.1,1250.9c0,0-6-25.1-18.9-41.6c-15.1-19.3-50.3-18.6-42.6,22.1s55.4,46.6,55.4,46.6L1276.1,1250.9
						L1276.1,1250.9z"/>
					<path class="st16" d="M1265.1,1261.8c-0.7,0-1.3-0.4-1.5-1.1c-12.4-38.2-40.4-43-40.6-43c-0.9-0.1-1.5-0.9-1.3-1.8
						s0.9-1.5,1.8-1.3c1.2,0.2,30.2,5.2,43.2,45.2c0.3,0.8-0.2,1.7-1,2C1265.4,1261.8,1265.2,1261.8,1265.1,1261.8L1265.1,1261.8z"
						/>
					<path class="st16" d="M1248.6,1247.4c-5.6,0-10.1-2-13.2-5.9c-8-10-3.3-21.5-3.1-22c0.3-0.8,1.3-1.2,2.1-0.9
						c0.8,0.3,1.2,1.3,0.9,2.1c-0.2,0.4-4.1,10.2,2.7,18.7c6.7,8.4,19.7,3,19.8,2.9c0.8-0.3,1.8,0,2.1,0.8s0,1.8-0.8,2.1
						c-0.2,0.1-3.8,1.6-8.5,2C1249.8,1247.4,1249.2,1247.4,1248.6,1247.4L1248.6,1247.4z"/>
				</g>
			</g>
			<path class="st7" d="M1151.3,1447.9l-73.5,634.8c0,0,68.8,37.3,166.9,19.2l16.3-397.3C1261,1704.7,1262.1,1469.5,1151.3,1447.9
				L1151.3,1447.9z"/>
			<path class="st7" d="M1416.2,1810.3l65.3-393.9l136.5,72.3l-21.4,597.7c0,0-69.4,72.9-185.1,12.6L1416.2,1810.3L1416.2,1810.3z"
				/>
			<path class="st5" d="M1384.8,1439.2l-6.4,19.6l-9.1,27.8l-34.7,0l-6.3-35.1l-2.5-14.1c2.2-1.3,4.5-2.3,6.8-3.2
				c6.5-2.3,13.3-3.1,19.7-2.9C1369.8,1431.9,1384.8,1439.2,1384.8,1439.2L1384.8,1439.2z"/>
			<polygon class="st5" points="1396.7,1919.1 1346.5,2018.6 1293.6,1920 1330.9,1525.1 1334.6,1485.7 1369.3,1486.6 1369.3,1486.8 
							"/>
			<path class="st20" d="M1268,1376.8c0,0-18.7,51.9-18.7,59.5s37.3,369.9,37.3,369.9l-82.8-197.2l34.5-33.2l-48.5-10l-38.5-117.9
				L1268,1376.8L1268,1376.8z"/>
			<path class="st21" d="M1162.3,1568.1c0,0,6.6,110.7,31.6,126c25,15.3,67,10.6,67,10.6l-118.8,37.7
				C1142.1,1742.4,1093.6,1660.4,1162.3,1568.1L1162.3,1568.1z"/>
			<path class="st7" d="M1151.3,1447.9c0,0-87.5,39.1-103.9,59.5c-12.1,15.2-15.5,156.7-13,235.4c1,30.2,24.4,83.3,57.8,85.4
				c23.9,1.5,47.9,4.5,71.8,6.7c67,6.2,134.1,12.4,201.1,18.7c22.5,2.1,44.9,4.2,67.4,6.2l17.5-113.2l-297.6-31.5
				C1152.4,1715.2,1195,1527.3,1151.3,1447.9L1151.3,1447.9z"/>
			<path class="st21" d="M1552.4,1563.7c0,0-57.9,114.3-135.2,137.6c0,0,138.1,12.7,140.6,12.7S1555.8,1600.2,1552.4,1563.7z"/>
			<path class="st20" d="M1412,1382.4c0,0,14.6,47.2,15.1,54.8c0.5,7.6-11,373.1-11,373.1l69.9-202.2l-33.2-25.9l44.4-18.1
				l28.6-125.6L1412,1382.4L1412,1382.4z"/>
			<path class="st2" d="M1161.9,1618.1c-1,0-1.9-0.8-2-1.8c-0.1-0.5-5.2-54.4-21.9-73.2c-16.7-18.8-90.2-33.5-91-33.6
				c-1.1-0.2-1.8-1.3-1.6-2.3c0.2-1.1,1.2-1.8,2.3-1.6c3.1,0.6,75.6,15.1,93.2,34.9c7.4,8.3,13.5,23.6,18.2,45.4
				c3.4,16.1,4.7,30,4.7,30.1c0.1,1.1-0.7,2.1-1.8,2.2C1162,1618.1,1161.9,1618.1,1161.9,1618.1L1161.9,1618.1z"/>
			<path class="st21" d="M1438.4,1837l-259.9-22.4l89.5-75.1C1268,1739.6,1483.2,1659.4,1438.4,1837L1438.4,1837z"/>
			<path class="st22" d="M1384.8,1439.2l-6.4,19.6c-6.6-8.6-24.1-20.7-24.1-20.7c-4.4,0.4-17.6,8.1-26,13.3l-2.5-14.1
				c2.2-1.3,4.5-2.3,6.8-3.2l19.7-2.9C1369.8,1431.9,1384.8,1439.2,1384.8,1439.2L1384.8,1439.2z"/>
			<path class="st22" d="M1369.3,1486.6v0.2c-16.6,5.8-31,26-38.4,38.2l3.7-39.4L1369.3,1486.6L1369.3,1486.6z"/>
			<path class="st23" d="M1328.3,1451.5c0,0-51.2,55.9-50.5,100.6l-3.8-15.3l15.4-102.6l36.4,3.1L1328.3,1451.5z"/>
			<path class="st24" d="M1355,1431c0,0-63.3,15.9-81.1,105.8l-25.6-104.9l22-66.2l-3.6,36.7C1266.8,1402.4,1332.2,1435.1,1355,1431
				L1355,1431z"/>
			<path class="st23" d="M1378.4,1458.8c0,0,35.6,32.3,31,81.8c0,0,8.8-36.9,3.6-68.7l-31-23.3L1378.4,1458.8L1378.4,1458.8z"/>
			<path class="st24" d="M1353.8,1431.1c0,0,60.7,26.5,59.1,89c0,0,14.3-53.9,15.6-82.7l-5.9-21.6
				C1422.6,1415.9,1368.4,1433.8,1353.8,1431.1z"/>
			<g>
				<g>
					<path class="st13" d="M1148.2,1732.7c0,0-77.6-15.7-81.7-14.5c-4.1,1.3-51.8,42.8-51.8,42.8s1.4,23.2,2.5,26.1
						c1.1,2.9,15,4.8,15,4.8s-1.7,8.4,0.1,9.9c1.8,1.5,22.8,9,22.8,9l15.2,8.1c0,0,17.3,15.9,19.7,14s31-21.7,40.1-23.8
						c9.1-2.1,44-4.6,44-4.6S1175.5,1752.4,1148.2,1732.7L1148.2,1732.7z"/>
					<path class="st12" d="M1089.6,1834.6c-2,0-6.8-2.1-20.2-14.3l-14.9-8c-5.1-1.8-21.3-7.7-23.2-9.2c-1.9-1.6-1.4-6.7-0.9-9.8
						c-4.9-0.8-13.5-2.5-14.7-5.5c-1.1-3.1-2.4-24.1-2.6-26.5c0-0.4,0.2-0.9,0.5-1.2c8-7,48.2-41.8,52.4-43.1
						c4.3-1.3,69.4,11.8,82.4,14.4c0.2,0,0.4,0.1,0.6,0.2c11.5,8.3,19.7,23.6,23.8,44.2c3.1,15.5,2.7,28.7,2.7,28.9
						c0,0.7-0.6,1.3-1.3,1.4c-0.3,0-34.9,2.5-43.8,4.6c-8.6,2-36.7,21.3-39.6,23.5C1090.6,1834.3,1090.3,1834.6,1089.6,1834.6
						L1089.6,1834.6z M1016.1,1761.7c0.5,8.9,1.6,23.1,2.4,25c0.6,1.2,7.1,3,13.9,3.9c0.4,0.1,0.7,0.3,1,0.6s0.3,0.7,0.2,1.1
						c-0.8,3.8-0.9,7.9-0.3,8.6c1.1,0.9,12.3,5.2,22.4,8.8c0.1,0,0.1,0.1,0.2,0.1l15.2,8.1c0.1,0.1,0.2,0.1,0.3,0.2
						c7.1,6.5,15.9,13.5,18.1,13.8c3.1-2.3,31-21.7,40.4-23.9c8.2-1.9,36.4-4,42.9-4.5c0-8.1-1.2-51.8-25.1-69.2
						c-29.5-6-77.2-15.1-80.8-14.4C1063.9,1720.7,1034.3,1745.8,1016.1,1761.7L1016.1,1761.7z"/>
				</g>
				<path class="st12" d="M1032.1,1793.4C1032.1,1793.4,1032.1,1793.4,1032.1,1793.4c-0.8,0-1.4-0.7-1.4-1.4
					c0.2-4.1,0.9-17.7,3.8-20.3c2.8-2.5,27.3-17.2,30.1-18.9c0.7-0.4,1.5-0.2,1.9,0.5s0.2,1.5-0.5,1.9c-7.5,4.5-27.5,16.6-29.7,18.6
					c-1.4,1.3-2.6,10.6-2.9,18.4C1033.4,1792.8,1032.8,1793.4,1032.1,1793.4L1032.1,1793.4z"/>
				<path class="st12" d="M1055.1,1812.3c-0.1,0-0.1,0-0.2,0c-0.8-0.1-1.3-0.8-1.2-1.5c0.6-5.2,3-22.3,6.8-24.9
					c3.6-2.5,27.7-14.8,28.7-15.3c0.7-0.3,1.5-0.1,1.8,0.6c0.3,0.7,0.1,1.5-0.6,1.8c-0.2,0.1-25,12.7-28.4,15.1
					c-1.9,1.3-4.3,12.9-5.6,23C1056.3,1811.8,1055.7,1812.3,1055.1,1812.3L1055.1,1812.3z"/>
				<path class="st12" d="M1073.3,1822.5c-0.2,0-0.4,0-0.6-0.1c-0.7-0.3-1-1.1-0.7-1.8l6-13.4c2.5-5.5,7.3-10,13.2-12.3l17.9-7
					c0.7-0.3,1.5,0.1,1.8,0.8c0.3,0.7-0.1,1.5-0.8,1.8l-17.9,7c-5.2,2.1-9.5,6-11.7,10.9l-6,13.4
					C1074.4,1822.2,1073.9,1822.5,1073.3,1822.5L1073.3,1822.5z"/>
			</g>
			<path class="st7" d="M1525.1,1615.7l-23.3,68.6l-349.4,30.9l26.8,98l426.9-5.2l11.9-319.2l-22.5,19
				C1561.1,1536.8,1544.8,1575.2,1525.1,1615.7L1525.1,1615.7z"/>
			<path class="st2" d="M1179.3,1815.2c-0.9,0-1.7-0.6-1.9-1.5l-26.8-98c-0.3-1.1,0.3-2.2,1.4-2.4c1.1-0.3,2.2,0.3,2.4,1.4
				l26.4,96.5l261.9-2.9h0c1.1,0,2,0.9,2,2c0,1.1-0.9,2-2,2L1179.3,1815.2L1179.3,1815.2L1179.3,1815.2z"/>
			<path class="st2" d="M1501.8,1686.3c-0.8,0-1.5-0.4-1.8-1.1c-0.4-0.9-0.1-2,0.7-2.5c0.6-0.4,14.1-9.2,30.3-15
				c22.1-7.9,38.3-6.3,47.1,4.6c5,6.3,6.9,9.3,5.5,11.5c-1.4,2.4-4.7,1.7-11.9,0.2c-13.3-2.7-38-7.8-69.3,2.2
				C1502.2,1686.3,1502,1686.3,1501.8,1686.3L1501.8,1686.3z M1540,1676.3c13.9,0,25,2.3,32.6,3.8c2.8,0.6,5.7,1.2,7.2,1.3
				c-0.5-1-1.8-3-4.7-6.6c-12.8-16.1-42.1-4.8-59.1,3.9C1524.6,1677,1532.7,1676.3,1540,1676.3L1540,1676.3z"/>
			<path class="st2" d="M1560.9,1717.4c-0.5,0-1-0.2-1.4-0.6c-28.1-26.9-57.7-30.5-57.9-30.5c-1.1-0.1-1.9-1.1-1.8-2.2
				c0.1-1.1,1.1-1.9,2.2-1.8c1.3,0.1,31.2,3.7,60.3,31.6c0.8,0.8,0.8,2,0.1,2.8C1562,1717.2,1561.4,1717.4,1560.9,1717.4
				L1560.9,1717.4z"/>
			<path class="st2" d="M1513,1645.6c-0.3,0-0.5-0.1-0.8-0.2c-1-0.4-1.5-1.6-1-2.6l53.5-123.3c0.4-1,1.6-1.5,2.6-1s1.5,1.6,1,2.6
				l-53.5,123.3C1514.5,1645.1,1513.8,1645.6,1513,1645.6L1513,1645.6z"/>
			<path class="st2" d="M1467.9,1809.7c-1,0-1.8-0.7-2-1.7c-0.2-1.1,0.6-2.1,1.7-2.3l88-13.1c15.6-2.5,29.4-11.7,37.7-25.1
				l12.4-19.9c0.6-0.9,1.8-1.2,2.7-0.6c0.9,0.6,1.2,1.8,0.6,2.7l-12.4,19.9c-9,14.4-23.7,24.2-40.5,26.9l-88,13.1
				C1468.1,1809.7,1468,1809.7,1467.9,1809.7L1467.9,1809.7z"/>
		</g>
	</g>
	<g>
		<path class="st13" d="M2150.3,1545.6c-97.2,138.6-280.7,41.4-280.7,41.4l3.6-155.9l1.9-81.1l30.4-67.1l148.7-135l7.6-6.8
			L2150.3,1545.6L2150.3,1545.6z"/>
		<path class="st14" d="M2063.2,1149.7c-51.6,156.6-151.6,246.4-190,281.3l1.9-81.1l30.4-67.1l148.7-135L2063.2,1149.7
			L2063.2,1149.7z"/>
		<polygon class="st12" points="2191.4,2301.2 1594.6,2302.6 1737.1,2028.3 2191.4,2066.3 		"/>
		<path class="st14" d="M1994.2,1465.1c-4.9,0-9.9-0.3-15-0.8c-27.2-3-48.2-12.6-49.1-13l3.4-7.2c0.2,0.1,20.8,9.6,46.8,12.4
			c34.2,3.7,61.2-5.4,80.2-27l6,5.2C2048.8,1454.7,2024,1465.1,1994.2,1465.1L1994.2,1465.1z"/>
		<path class="st2" d="M1619.1,1760l17.2-17.2c0,0-22.1,77.7,6.9,98.6c0,0,25.2,35.1,67.1-31l-0.9,19.8l-58.7,89.7l-61.2-67.6
			L1619.1,1760L1619.1,1760z"/>
		<path class="st14" d="M1891.8,1513.4c0,0,35.5,51.1,122.1,34.9s101.1-36.7,101.1-36.7s-0.3,86.3-161.8,72.2
			C1953.1,1583.8,1882.2,1582,1891.8,1513.4L1891.8,1513.4z"/>
		<path class="st25" d="M2147.2,2064c0,0-2.3,2.1-6.8,5.4c-20.9,15.2-90,55-205.5,23.4c-3.3-0.9-6.7-1.9-10-2.9
			c-14.4-4.3-29.4-9.8-45.2-16.5l0.4-539.1c0,0,17.9,16.3,49.1,26.9c41.7,14.2,107.2,18.1,185.5-41.3
			C2114.7,1519.8,2177.5,1869.8,2147.2,2064L2147.2,2064z"/>
		<path class="st5" d="M2267.4,2128.4l33,168.1c0,0-58.1,25.7-171.6,2.9c0,0,40.7-824.5-40.7-909.4l224.3,71.7
			c0,0,15.1,26.7,20.9,41.9c5.8,15.1,16.3,395.3,16.3,395.3l-84.6,27.8l-34.9,11.4L2267.4,2128.4L2267.4,2128.4z"/>
		<path class="st2" d="M2088.6,1396.2c0,0,43,288.7,44.2,322.4c1.2,33.7,4.2,286.7,4.2,286.7l96.4-336.7
			C2233.3,1668.6,2287.4,1428.8,2088.6,1396.2L2088.6,1396.2z"/>
		<path class="st26" d="M1969.6,2063.6c-24.7-7.1-30.6-40.1-30.1-65.8c1.3-58.9,0.8-117.4,2.2-141.2c2.4-40-20.5-215.9-30.9-304.5
			c-31.2-10.6-30.7-18-30.7-18l-0.4,539.1c15.8,6.7,30.8,12.1,45.2,16.5v0c3.4,1,6.7,2,10,2.9c115.5,31.6,184.6-8.2,205.5-23.4
			C2098.7,2082.2,2019,2077.8,1969.6,2063.6L1969.6,2063.6z"/>
		<path class="st5" d="M1914.7,1924.4l-15.4,376.7c-168.3,19.2-304.1,1.2-304.1,1.2l121.8-408.1l-209.3,18.6l16.7-54.6l18.7-61.1
			l81.8-324.4c7.5-24.6,53.3-64.2,79-66c73.6-5.1,171.4-56.8,171.4-56.8L1914.7,1924.4L1914.7,1924.4z"/>
		<path class="st24" d="M1627.8,1738.1l-101.6,122l-1.8-1.8l18.7-61.1C1588.2,1765,1626.3,1739.1,1627.8,1738.1L1627.8,1738.1z"/>
		<path class="st24" d="M1717,1894.2l43.3-176.8c0,0,8.2,172-25,247.4c-33.1,75.4-84.5,156.1-84.5,156.1L1717,1894.2L1717,1894.2z"
			/>
		<path class="st24" d="M2267.4,2128.4c-14.8-22.1-39.3-61.7-65.4-117.2c-41.8-88.9,23.9-262,23.9-262c16.6,4.5,29.7,88,39,177.5
			l-34.9,11.4L2267.4,2128.4L2267.4,2128.4z"/>
		<polygon class="st24" points="1911.3,1848 1810.5,1482.8 1868.8,1450.3 1846.3,1437.5 1756.3,1473.7 1913.8,1954.3 		"/>
		<path class="st2" d="M1875.1,1350c0,0,50,281.4,39.5,574.4l-139.5-439.6l74.4-30.2l-37.2-25.6L1875.1,1350L1875.1,1350z"/>
		<path class="st12" d="M1695.5,1435.2l1.4-0.9c2.7-1.7,6.3-0.8,8,1.9l133.5,217.5c1.7,2.7,0.8,6.3-1.9,8l-1.4,0.9
			c-2.7,1.7-6.3,0.8-8-1.9l-133.5-217.5C1691.9,1440.5,1692.8,1436.9,1695.5,1435.2z"/>
		<g>
			<path class="st13" d="M1624.4,1753.2l54.5-82.2l59.6-149.1c0,0,66.8-40.1,72-39.1s6.2,20.1-3.1,26.7l-38,29.8l-16.4,37
				c0,0,74.5-79.7,80.2-84.3c5.7-4.6,17.5,3.6,5.7,27.8c-11.8,24.2-57.1,63.8-57.1,63.8s54-52.4,57.6-50.4
				c3.6,2.1,8.7,14.4-2.1,29.8c-10.8,15.4-64.8,76.1-64.8,76.1s47.3-53.5,54.5-51.4c7.2,2.1,8.2,13.9,0.5,22.6
				c-5.8,6.5-49,65.1-70.6,94.4c-7.8,10.6-19.7,17.4-32.8,18.7l0,0l-14.7,106.9C1709.4,1830.3,1562.1,1986.6,1624.4,1753.2
				L1624.4,1753.2z"/>
			<path class="st12" d="M1631.4,1883.5c-3.8,0-7.3-0.8-10.4-2.5c-19.2-10.7-18.7-52.7,1.4-128.3c0.1-0.2,0.1-0.4,0.3-0.6l54.4-82.1
				l59.6-148.9c0.2-0.4,0.4-0.7,0.8-1c0.2-0.1,16.9-10.2,34.1-19.9c35.3-20.2,37.9-19.7,39.3-19.4c2.4,0.5,4.1,2.9,5,6.7
				c1.4,6.6,0.1,18.2-7.3,23.6l-37.6,29.5l-11.5,25.8c19.5-20.8,67.7-72.1,72.3-75.9c2.8-2.3,6.6-2.2,9.6,0.1
				c4.8,3.8,7.1,13.7-0.9,30.1c-2.3,4.8-5.9,10.1-10.1,15.6c7.6-6.1,8.7-5.4,9.8-4.8c2.2,1.2,4,4.4,4.9,8.2c1,4.4,1.5,13.4-6.3,24.5
				c-3.6,5.2-12,15.3-21.5,26.5c7.2-5.7,9-5.2,10.1-4.9c3.3,0.9,5.7,3.4,6.7,7.1c1.7,5.8-0.4,13.2-5.3,18.8
				c-5.8,6.6-51.2,68.1-70.4,94.3c-7.8,10.6-19.6,17.6-32.6,19.3l-14.5,105.4c-0.1,0.4-0.2,0.8-0.5,1.1
				C1708.6,1834,1661.6,1883.5,1631.4,1883.5L1631.4,1883.5z M1626.2,1754c-13.3,49.8-24.6,111.6-3.3,123.5
				c10.3,5.8,28.2-0.7,51.7-18.6c16.4-12.5,30.3-26.8,32.9-29.5l14.6-106.3c0.1-0.9,0.9-1.6,1.8-1.7c12.5-1.2,23.9-7.8,31.4-17.9
				c23.9-32.6,65-88.1,70.7-94.6c4.9-5.5,5.4-11.5,4.4-15c-0.5-1.6-1.5-3.7-3.9-4.4c-4.6,0-28.8,24.2-50.4,48.4
				c-1.1,1.3-1.8,2.1-2.1,2.3l0,0l0,0c-0.7,0.8-2,0.9-2.8,0.2c-0.8-0.7-0.9-2-0.2-2.8l0,0l0,0l0,0c0-0.1,0.2-0.2,0.5-0.6
				c5.4-6.1,54.1-61,64.1-75.3c6.9-9.8,6.5-17.6,5.7-21.3c-0.6-2.8-1.7-4.5-2.5-5.3c-3.4,1.5-15.7,12.2-30.2,25.6
				c-12.9,13.1-24.6,23.4-25.5,24.2c-0.8,0.7-2,0.6-2.8-0.2s-0.7-2,0.1-2.8c0.1-0.1,11.8-11.5,24.5-23.3
				c12.6-12.7,26.4-28.2,32.1-39.9c9.2-18.8,2.7-24.6,2-25.2c-1.5-1.2-3.2-1.2-4.6-0.1c-4.4,3.6-54.2,56.6-80,84.1
				c-0.7,0.7-1.7,0.8-2.6,0.3c-0.8-0.5-1.1-1.6-0.7-2.5l16.4-37c0.1-0.3,0.3-0.6,0.6-0.8l38-29.8c5.9-4.3,6.9-14.2,5.8-19.5
				c-0.5-2.4-1.4-3.5-1.8-3.7c-4.6,0.4-39.3,20-70.1,38.5l-59.4,148.5c-0.1,0.1-0.1,0.2-0.2,0.4L1626.2,1754L1626.2,1754z"/>
		</g>
		<g>
			<path class="st5" d="M1508.2,1874.1l119.6-136c0,0-19.3,92.6,24.8,103.3c39.5,9.6,66.2-34.8,66.2-34.8s-35.7,183.1-99.7,194.4
				c-57,10.1-99.9,15.6-120.1-61.7C1494.1,1920.8,1494.9,1887.8,1508.2,1874.1L1508.2,1874.1z"/>
			<path class="st2" d="M1639.4,1996.7c-0.5,0-1.1-0.2-1.4-0.6c-0.8-0.8-0.7-2.1,0.1-2.8c47.6-44.5,71.2-148.1,77.2-178.5
				c-10.9,13.7-26.9,27.8-47.7,29.4c-14.7,1.2-24.6-4.4-25-4.6c0,0-0.1,0-0.1-0.1c-14-9-21-29-20.8-59.4c0.1-14.3,1.8-27.7,3-35.5
				l-102.9,114.7c-0.7,0.8-2,0.9-2.8,0.2c-0.8-0.7-0.9-2-0.2-2.8l107.6-119.9c0.6-0.7,1.6-0.8,2.4-0.4c0.8,0.4,1.2,1.3,1.1,2.2
				c-0.2,0.8-15.9,77.7,14.8,97.6c0.7,0.4,9.8,5.2,22.9,4.1c17.9-1.5,35.1-13.5,49.7-34.7c0.5-0.8,1.5-1.1,2.4-0.7
				c0.9,0.3,1.4,1.2,1.2,2.2c-0.1,0.3-5.8,34.3-18.4,74.4c-11.7,37.1-31.9,87.1-61.6,114.9
				C1640.3,1996.5,1639.8,1996.7,1639.4,1996.7L1639.4,1996.7z"/>
		</g>
		<g>
			<path class="st12" d="M1859.1,984.8c0,0-30.4-56.1-42.1-35.1c-11.7,21-2.3,132.1-39.7,191.1c-37.4,59-33.3,111.4-13.6,135.5
				c22.7,27.9,45.8,63.7,14.8,69.6c-28.7,5.4-80.3,47.8-69.8,75.9c1.5,4.1,5.4,6.8,9.7,7.5c28.3,4.5,150.1,20.2,188.7-35.5
				C1907,1393.9,1923.4,1025.7,1859.1,984.8L1859.1,984.8z"/>
			<path class="st13" d="M1837.1,1120.4c0,0,8.2,152.9,65.8,161.2c57.6,8.3,99.8-42.8,117-65.8c38.4-51.5,46.3-231.3-66.5-280.6
				C1840.7,885.9,1837.1,1120.4,1837.1,1120.4L1837.1,1120.4z"/>
			<path class="st12" d="M1866.1,1036.2c0,0,16.9-108.7,52-97.6c35.1,11.1,47.4,190.6,113.4,187.7c66-2.9,9.9,151.3-11.7,199.8
				c-21.6,48.5-5.3,112.8,76.5,113.4c0,0-47.9-20.4-40.9-87.1c7-66.6,61.4-123.9,46.8-195.8S1895.9,693.2,1866.1,1036.2
				L1866.1,1036.2z"/>
			<path class="st12" d="M1866.1,1036.2c0,0-27.5-60.2-3.5-112.2c24-52,42.1-68.7,49.7-68.7c9.6,0,32.4,21.7,39.2,27.4
				c16.2,13.6,31.6,25.9,53.5,26.7c51.9,2.1,115.7,40,132.9,91.1c7.6,22.6,11.6,46.2,15.7,69.6c3.2,18.6,3.8,38.8,14.7,54.8
				c13.3,19.6,35.7,29.7,48.5,49c13.6,20.5,18.7,44.9,14.6,69.2c-9.4,55.5-49.7,146.1-35.1,167.1c14.6,21,45.6,41.5,82.4,49.1
				c36.8,7.6,54.4,59.6,12.3,122.1s-95.8,39.7-63.7,96.4c0,0-26.9-7-8.2-78.3c18.7-71.3-156.6-35.7-139.1-338.4
				c0,0,3.5-187-58.4-232S1898.8,803.6,1866.1,1036.2L1866.1,1036.2z"/>
			<path class="st12" d="M2136.1,991.2c0,0,4.7,115.1,76,136.7c52.7,16,92.4,95.8,54.6,142.6c-24.5,30.4-74,88.1-68.4,150.8
				c0,0-18.9-16.4,25.5-116.3s27.5-128,5.3-149.6S2136.7,1137.3,2136.1,991.2L2136.1,991.2z"/>
			<path class="st12" d="M1809.7,1006.1c-6,32.3-40.2,50.1-60.6,76c-16.6,21.1-24,47.9-29,74.2c-3.2,16.7-5.6,34-2.8,50.8
				c4.7,29,24.1,41.5,47.3,55.7c-20.1-21.3-30.3-43.8-31.6-73c-1-23.3,1.7-50.6,15.3-69.6c13.6-19,31.7-34.3,50.8-47.7
				c3.8-2.7,7.8-5.4,10.5-9.2c2.4-3.4,3.7-7.4,4.7-11.4C1817.8,1036.7,1816.1,1020.3,1809.7,1006.1L1809.7,1006.1z"/>
			<path class="st15" d="M1915.2,1105.3c0,0,6.3-16.6,25.3-21.4c19-4.9,56.5,24.4,56.5,24.4L1915.2,1105.3L1915.2,1105.3z"/>
			<path class="st15" d="M1877.2,1108.2c0,0-6.3-16.6-25.3-21.4c-19-4.9-50.2,23.4-50.2,23.4L1877.2,1108.2L1877.2,1108.2z"/>
			<path class="st15" d="M1821.3,1134.5c0,0,16.9-18,30.9-15.1c14,2.9,26.8,12.6,26.8,12.6L1821.3,1134.5L1821.3,1134.5z"/>
			<path class="st15" d="M1924.8,1129.7c0,0,18.2-16.7,32-12.8c13.8,3.9,25.8,14.5,25.8,14.5L1924.8,1129.7L1924.8,1129.7z"/>
			<ellipse class="st15" cx="1849.5" cy="1139.8" rx="7.2" ry="12.7"/>
			<ellipse class="st15" cx="1946.1" cy="1137.6" rx="7.2" ry="12.7"/>
			<path class="st15" d="M1905.4,1202.9c-3.6,0-10.3-0.8-20-2.3c-3.1-0.5-5.7-2.3-7.3-5c-1.6-2.7-1.8-5.9-0.7-8.8l19.3-49.8
				c0.4-1,1.6-1.5,2.6-1.1c1,0.4,1.5,1.6,1.1,2.6l-19.3,49.8c-0.7,1.8-0.5,3.8,0.4,5.4c0.9,1.7,2.6,2.8,4.4,3.1
				c10,1.6,17.1,2.4,20,2.3c1.1-0.1,2,0.8,2.1,1.9c0.1,1.1-0.8,2-1.9,2.1C1905.9,1203,1905.7,1203,1905.4,1202.9L1905.4,1202.9z"/>
			<path class="st12" d="M1918.1,938.6c0,0,26.8,36.7,21.9,78.9s7.1,72.8,54.1,80.3C1994.1,1097.8,1979.4,937.6,1918.1,938.6
				L1918.1,938.6z"/>
			<path class="st12" d="M1866.1,1036.2c0,0-6.1-23.1-14.4-10.1c-8.6,13.4,9.7,55.2-39,61.4c0,0,27.1-61.1,31.9-87.4
				c1.1-6.1,8.3-9.2,13.1-5.3C1863.7,999.8,1868.9,1011,1866.1,1036.2L1866.1,1036.2z"/>
			<path class="st27" d="M1866.1,1036.2c0,0,24.2-60.3,49.1-46.5c0,0,11.1-33.3-12.8-33.3S1863.4,1007.1,1866.1,1036.2
				L1866.1,1036.2z"/>
			<path class="st12" d="M1866.1,1036.2c0,0,14-83.3,37.6-68.4c23.6,14.9-2.9,108,91.3,121.2c0,0-42.5-19-53.4-63.8
				c-10.9-44.8-10.9-121.8-60.3-82.7C1881.3,942.5,1851.5,965.6,1866.1,1036.2L1866.1,1036.2z"/>
			<path class="st12" d="M1925.2,1243.7c-15.6,7.5-37.4,5.2-46.3-10.3c-4-7-1.5-12.3,3.5-14.5c1-0.4,2-0.8,3.2-1
				c9.6-1.6,19.3-0.1,29-0.3c5.8-0.1,13.7-2.2,19.3,0.8c1.3,0.7,2.5,1.6,3.5,2.9C1943.7,1229.9,1932.3,1240.4,1925.2,1243.7
				L1925.2,1243.7z"/>
			<path class="st2" d="M1933.8,1218.5c-1,6-12.1,10.7-25.8,10.7s-24.2-4.5-25.7-10.2c1-0.4,2-0.8,3.2-1c9.6-1.6,19.3-0.1,29-0.3
				C1920.4,1217.6,1928.3,1215.6,1933.8,1218.5L1933.8,1218.5z"/>
			<circle class="st14" cx="1978.1" cy="1182.8" r="27.2"/>
			<path class="st2" d="M1850.7,1180c-22.5,0-40.8-26.9-40.8-59.9s18.3-59.9,40.8-59.9s40.8,26.9,40.8,59.9S1873.2,1180,1850.7,1180
				z M1850.7,1064.1c-20.4,0-36.9,25.1-36.9,56s16.6,56,36.9,56s36.9-25.1,36.9-56S1871.1,1064.1,1850.7,1064.1z"/>
			<path class="st2" d="M1949.3,1179c-22.8,0-41.4-26.9-41.4-59.9s18.6-59.9,41.4-59.9s41.4,26.9,41.4,59.9S1972.2,1179,1949.3,1179
				z M1949.3,1063.1c-20.7,0-37.5,25.1-37.5,56s16.8,56,37.5,56s37.5-25.1,37.5-56S1970,1063.1,1949.3,1063.1z"/>
			<path class="st2" d="M1910.1,1130.7c-10-3.1-20.8-1.1-20.8-1.1l-0.7-3.8c0.5-0.1,11.8-2.1,22.7,1.2L1910.1,1130.7L1910.1,1130.7z
				"/>
			
				<rect x="1988.5" y="1118" transform="matrix(0.9849 -0.1731 0.1731 0.9849 -163.4229 366.2808)" class="st2" width="58.9" height="3.9"/>
			<g>
				<path class="st13" d="M2021.6,1137.9c0,0,6.6-28,21-46.4c16.8-21.5,56-20.9,47.5,24.5c-8.5,45.3-61.6,52.1-61.6,52.1
					L2021.6,1137.9L2021.6,1137.9z"/>
				<path class="st16" d="M2033.9,1149.9c-0.2,0-0.4,0-0.6-0.1c-0.9-0.3-1.4-1.3-1.2-2.2c14.4-44.6,46.6-50.2,48-50.4
					c1-0.2,1.9,0.5,2,1.5s-0.5,1.9-1.5,2c-0.3,0.1-31.4,5.6-45.1,48C2035.3,1149.5,2034.6,1150,2033.9,1149.9L2033.9,1149.9z"/>
				<path class="st16" d="M2052.1,1133.9c-0.6,0-1.3,0-1.9-0.1c-5.2-0.4-9.3-2.1-9.5-2.2c-0.9-0.4-1.3-1.4-0.9-2.3
					c0.4-0.9,1.4-1.3,2.3-0.9l0,0c0.2,0.1,14.7,6,22-3.3c7.5-9.5,3.1-20.4,2.9-20.9c-0.4-0.9,0.1-1.9,1-2.3s1.9,0,2.3,0.9
					c0.2,0.5,5.4,13.3-3.4,24.5C2063.5,1131.6,2058.4,1133.9,2052.1,1133.9L2052.1,1133.9z"/>
			</g>
		</g>
		<g>
			<path class="st13" d="M2245.4,1804.6l-42.2-57.2c-10.4-14.1-17.7-30.3-21.3-47.4c-8-38.2-25-100.7-25.6-125.2
				c-0.6-30,10.9-4.1,10.9-4.1l37.4,92c0,0-41-130.8-30.2-145.2c10.8-14.4,48.6,103.1,48.6,103.1l-26.7-108.6
				c-0.3-1.2-4.6-23-4.6-24.2c0-5.2,3.6-20.3,7.4-19.9c14.3,1.2,46.2,115.3,46.2,115.3s-13.4-48.3,5.1-62.2c0,0,6.7,1,8.2,20.6
				c1.5,19.5,9.2,85.3,9.2,85.3l19.5,66.8l33.9,53.5C2321.5,1747,2340,1830.8,2245.4,1804.6L2245.4,1804.6z"/>
			<path class="st12" d="M2277.9,1811.7c-9.6,0-20.7-1.7-33.1-5.2c-0.4-0.1-0.8-0.4-1.1-0.7l-42.2-57.2
				c-10.7-14.5-17.9-30.7-21.6-48.2c-2.4-11.5-5.6-25.1-9-39.4c-8-33.8-16.2-68.8-16.6-86.2c-0.2-10.9,1-15.7,4.3-16.4
				c4.2-0.9,8.3,6.8,10.4,11.5l22.4,55.1c-2.5-9-5.3-19-7.9-29c-18-69.9-12.5-77.3-10.7-79.7c1.2-1.6,2.8-2.2,4.5-1.9
				c2.6,0.4,9.4,1.6,29.5,54.2c1.4,3.6,2.7,7.2,4.1,10.8l-16.4-66.9c0-0.1-4.7-22.9-4.7-24.7c0-4.3,2.6-17.2,6.5-20.8
				c1.2-1.1,2.3-1.2,3-1.2c2.8,0.2,10.2,0.9,30.1,59.5c3.4,9.9,6.6,19.8,9.3,28.6c-0.6-13.4,1.4-27.7,10.5-34.6
				c0.4-0.3,1-0.5,1.5-0.4c1.4,0.2,8.3,2.3,9.9,22.4c1.5,18.8,8.8,81.4,9.2,85.1l19.4,66.4l33.8,53.2c0.1,0.2,0.2,0.4,0.3,0.6
				c0.3,1.4,7.5,35.2-12,53.7C2303.4,1807.9,2292.2,1811.7,2277.9,1811.7L2277.9,1811.7z M2246.6,1802.9c29,7.9,49.9,6.1,62.1-5.4
				c16.9-16,11.6-46.2,10.9-49.7l-33.7-53.2c-0.1-0.2-0.2-0.3-0.2-0.5l-19.5-66.8c0-0.1-0.1-0.2-0.1-0.3c-0.1-0.7-7.7-66.1-9.3-85.4
				c-1.1-13.4-4.5-17.3-6-18.4c-15.8,13.9-3.6,58.8-3.5,59.3c0.3,1.1-0.3,2.2-1.4,2.4c-1.1,0.3-2.2-0.3-2.4-1.4
				c-0.1-0.3-8.1-28.8-17.7-57.1c-17.3-50.9-24.6-56.4-26.6-56.7c-2,1.2-5.3,12.3-5.3,17.9c0.1,1.5,4.1,22.2,4.5,23.7l26.7,108.7
				c0.3,1-0.4,2.1-1.4,2.4c-1,0.3-2.1-0.3-2.4-1.3c-0.1-0.2-8.3-25.8-18.1-51.2c-17.9-46.9-24.8-51.4-26.5-51.7
				c-0.1,0-0.3-0.1-0.6,0.4c-1.9,2.5-4.5,14.9,11.4,76.3c8.8,34.1,19,66.8,19.1,67.1c0.3,1-0.2,2.1-1.2,2.5c-1,0.4-2.1-0.1-2.5-1.1
				l-37.4-92c-1.9-4.2-4.5-8.3-5.8-9c-0.4,0.7-1.4,3.2-1.2,12.4c0.4,16.9,8.9,53.3,16.5,85.3c3.4,14.4,6.6,28,9,39.5
				c3.6,16.9,10.6,32.6,20.9,46.7L2246.6,1802.9L2246.6,1802.9z"/>
		</g>
		<g>
			<path class="st5" d="M2220.6,1783l-2.1,14.5c-4,26.8-5.1,53.9-3.5,80.9c1.9,30.5,4.4,56.1,12.2,84.3
				c5.5,19.7,12.7,36.2,27.4,47.2c45.9,34,77.2-10.1,93.7-34.9s12.9-68,12.9-68l-34.9-169C2326.4,1738,2317.1,1818.7,2220.6,1783
				L2220.6,1783z"/>
			<path class="st2" d="M2287.6,2024.3c-11.1,0-22.6-4.3-34.1-12.8c-16.3-12.1-23.2-30.3-28.2-48.2c-7.7-27.4-10.3-51.8-12.3-84.8
				c-1.6-27.2-0.5-54.6,3.5-81.3l2.1-14.5c0.1-0.6,0.4-1.1,1-1.4c0.5-0.3,1.1-0.4,1.7-0.2c31.8,11.8,57.2,12,75.6,0.7
				c23.7-14.6,27.4-43.8,27.4-44.1c0.1-1,0.9-1.7,1.9-1.8c0.9,0,1.8,0.6,2,1.6l34.9,169c0,0.1,0,0.2,0,0.2
				c0.1,1.8,3.5,44.2-13.2,69.3c-10,15-28.6,42.9-55,47.5C2292.6,2024,2290.1,2024.3,2287.6,2024.3L2287.6,2024.3z M2222.2,1785.7
				l-1.8,12.1c-3.9,26.5-5.1,53.6-3.4,80.5c2,32.7,4.6,56.9,12.2,83.9c4.8,17.2,11.4,34.8,26.7,46.1c13.1,9.7,26.1,13.6,38.5,11.4
				c24.7-4.3,42.7-31.3,52.4-45.8c15.6-23.3,12.7-64.2,12.5-66.6l-33-159.7c-3,10.5-10.4,27.3-27.2,37.7
				C2280,1796.9,2254.2,1797.1,2222.2,1785.7L2222.2,1785.7z"/>
		</g>
	</g>
</g>
<path class="st28" d="M662.1,2203.3h2468.2c41.9,0,75.9,34,75.9,75.9l0,0c0,41.9-34,75.9-75.9,75.9H662.1c-41.9,0-76-34-76-75.9l0,0
	C586.1,2237.3,620.1,2203.3,662.1,2203.3z"/>
<g>
	<path class="st5" d="M1341.4,1893.1v275c0,3.5-0.5,6.9-1.4,10.1c-4.4,15.5-18.7,26.9-35.6,26.9H862.7c-20.4,0-37-16.6-37-37v-275
		c0-2.8,0.3-5.5,0.9-8.1c3.5-15.8,17.2-27.8,33.8-28.8c0.7,0,1.5-0.1,2.2-0.1h441.7C1324.8,1856.1,1341.4,1872.7,1341.4,1893.1
		L1341.4,1893.1z"/>
	<g>
		<g class="st29">
			<polygon class="st2" points="1104.7,2205.1 1027.6,2205.1 825.7,2069.5 825.7,2017.7 			"/>
		</g>
		<g class="st29">
			<path class="st2" d="M1340,2178.2c-4.4,15.5-18.7,26.9-35.6,26.9h-1.1L826.7,1885c3.5-15.8,17.2-27.8,33.8-28.8L1340,2178.2
				L1340,2178.2z"/>
		</g>
		<g class="st29">
			<polygon class="st2" points="1341.4,1993.7 1341.4,2045.5 1059.4,1856.1 1136.5,1856.1 			"/>
		</g>
		<g>
			<circle class="st2" cx="1085.6" cy="2035.6" r="51.7"/>
			<path class="st2" d="M1085.6,2104.2c-37.8,0-68.6-30.8-68.6-68.6s30.8-68.6,68.6-68.6s68.6,30.8,68.6,68.6
				S1123.4,2104.2,1085.6,2104.2z M1085.6,1969.8c-36.2,0-65.8,29.5-65.8,65.8c0,36.3,29.5,65.7,65.8,65.7s65.8-29.5,65.8-65.8
				S1121.8,1969.8,1085.6,1969.8L1085.6,1969.8z"/>
		</g>
	</g>
</g>
<g>
	<defs>
		<rect id="SVGID_1_" x="2955.3" y="84.1" width="509.6" height="441.7"/>
	</defs>
	<clipPath id="SVGID_00000103969652761168819690000017836955122257573013_">
		<use xlink:href="#SVGID_1_"  style="overflow:visible;"/>
	</clipPath>
	<g style="clip-path:url(#SVGID_00000103969652761168819690000017836955122257573013_);">
		<g>
			<path class="st5" d="M3417.4,435h-418.9l104.7-138.7l75.8-100.5V0c10,4.3,19.7,8.8,29.3,13.5c2.8,1.3,5.5,2.7,8.2,4.1
				c0.1,0.1,0.3,0.1,0.4,0.2c0.4,0.2,0.8,0.4,1.2,0.6c3.8,1.9,7.5,3.8,11.2,5.8v161.9l83.2,110.2L3417.4,435L3417.4,435z"/>
			<path class="st2" d="M3077.4,371.6c21.9-29.7,42.3-60.6,64.2-90.3c2.8-3.8-3.5-7.4-6.3-3.7c-21.9,29.7-42.3,60.6-64.2,90.3
				C3068.4,371.7,3074.7,375.3,3077.4,371.6L3077.4,371.6z"/>
			<path class="st2" d="M3155.3,259.6c6.2-7.8,12.4-15.6,18.6-23.4c2.9-3.6-2.2-8.8-5.1-5.1c-6.2,7.8-12.4,15.6-18.6,23.4
				C3147.3,258,3152.4,263.2,3155.3,259.6L3155.3,259.6z"/>
			<path class="st31" d="M3417.4,435l-104.7-138.7l-83.2-110.2V24.2c-3.7-2-7.4-3.9-11.2-5.8c-0.4-0.2-0.8-0.4-1.2-0.6
				c-0.1-0.1-0.3-0.1-0.4-0.2c-2.7-1.4-5.5-2.7-8.2-4.1v178.2l72.4,101.5c11.6,16.2,11.7,38.1-0.2,54.1
				c-14.4,19.5-47.4,39.4-120,47.4c0,0,141.4-3.6,202.2,13.6l15.4,21.6L3417.4,435L3417.4,435z"/>
			<path class="st2" d="M3420,440.2c0,4-2.3,7.9-6.6,11.6c-1.8,1.6-4.1,3.1-6.6,4.6c-30,17.7-107.6,30.2-198.6,30.2
				c-85.7,0-159.5-11.2-192.9-27.2c-10.9-5.2-17.4-11-18.8-17c-0.2-0.7-0.2-1.5-0.2-2.2c0-18.6,49.8-34.6,121.7-42
				c27.4-2.8,57.9-4.4,90.2-4.4c28,0,54.7,1.2,79.2,3.4C3365.1,404,3420,420.7,3420,440.2L3420,440.2z"/>
			<path class="st23" d="M3420,440.2c0,4-2.3,7.9-6.6,11.6c-43.3-20.4-79.9-30.4-213.4-39.3c-93.9-6.3-162.3,12.7-203.5,30
				c-0.2-0.7-0.2-1.5-0.2-2.2c0-18.6,49.8-34.6,121.7-42c27.4-2.8,57.9-4.4,90.2-4.4c28,0,54.7,1.2,79.2,3.4
				C3365.1,404,3420.1,420.7,3420,440.2L3420,440.2z"/>
			<g>
				<path class="st32" d="M3287.3,397.1c-1.6,14.1-6.6,27.2-14.2,38.4c-3.2,4.7-6.9,9.1-10.9,13.1c-15.4,15-36.4,24.3-59.7,24.3
					c-43.5,0-79.4-32.6-84.6-74.8c21.2-2.2,44.4-3.6,68.7-4.2c7.1-0.2,14.2-0.2,21.5-0.2c2.9,0,5.7,0,8.5,0
					C3241.5,394,3265.3,395.2,3287.3,397.1L3287.3,397.1z"/>
				<path class="st33" d="M3262.2,448.6c-15.4,15-36.4,24.3-59.7,24.3c-43.5,0-79.4-32.6-84.6-74.8c21.2-2.2,44.4-3.6,68.7-4.2
					C3186.5,400.5,3185.5,477,3262.2,448.6L3262.2,448.6z"/>
				<path class="st2" d="M3130.9,404.4c1.8,14.2,4.6,29.7,18.2,37.4c4.1,2.3,7.7-4,3.7-6.3c-11.1-6.2-13.1-19.6-14.6-31.1
					C3137.6,399.8,3130.3,399.8,3130.9,404.4L3130.9,404.4L3130.9,404.4z"/>
				<path class="st2" d="M3168,454c3.7,5,9.2,8,15.4,7.6c4.6-0.2,4.7-7.5,0-7.3c-3.5,0.2-7-1.1-9.2-4c-1.2-1.6-3.1-2.4-5-1.3
					C3167.7,449.9,3166.8,452.4,3168,454L3168,454L3168,454z"/>
				<path class="st34" d="M3287.3,397.1c-1.6,14.1-6.6,27.2-14.2,38.4c-1-7-3.7-16.8-11-23.8c-8.9-8.5-32.7-15.7-45.5-18
					C3241.5,394,3265.3,395.2,3287.3,397.1L3287.3,397.1z"/>
			</g>
		</g>
	</g>
</g>
<g>
	<path class="st35" d="M2917,2237.9c0-9.2-70.7-32.3-151.6-32.3s-128.7,3.1-128.7,12.3s44.5,34.8,125.4,34.8
		S2917,2247.2,2917,2237.9z"/>
	<g>
		<path class="st36" d="M2716.5,1961.8l-4.2,36.9l7.7,0.9c0.8-6.6,1.4-13.2,2.2-19.8c0.4-3.4,0.4-7.2,0.9-10.5
			c0.8-5-0.3-8.3,4.8-9.6c12.3-3.2,24.1-6.4,36.8-7.9c13.8-0.8,27.7,1,40.9,5.3c2.9,1,10.5,1.9,10.8,5.7c0.3,3.3,0.6,7.1,0.7,10.4
			c0.2,4.3,0.5,8.6,0.7,12.8c0.3,5.3,0.6,10.7,0.9,16.1l7.8-0.4l-2.1-39.6c-0.3-5.1-3.4-9.6-8.1-11.6c-13.9-5.9-45-14.3-87.8-1.8
			C2722.1,1950.4,2717.2,1955.2,2716.5,1961.8L2716.5,1961.8z"/>
		
			<rect x="2711.3" y="2013.4" transform="matrix(0.8893 -0.4574 0.4574 0.8893 -627.6151 1466.8865)" class="st36" width="8.6" height="32.4"/>
		
			<rect x="2809.3" y="2020.6" transform="matrix(0.5045 -0.8634 0.8634 0.5045 -348.353 3442.8516)" class="st36" width="32.4" height="8.6"/>
		<path class="st7" d="M2690.6,1985.3l2.4-1.2c2.2-1.1,4.9-0.2,6,2l6.4,12.7c1.1,2.2,0.2,4.9-2,6l-2.4,1.2c-2.2,1.1-4.9,0.2-6-2
			l-6.4-12.7C2687.6,1989.1,2688.4,1986.4,2690.6,1985.3z"/>
		<path class="st7" d="M2847.1,1982.6l2.4,1.3c2.2,1.2,2.9,3.9,1.8,6l-6.8,12.5c-1.2,2.2-3.9,2.9-6,1.8l-2.4-1.3
			c-2.2-1.2-2.9-3.9-1.8-6l6.8-12.5C2842.2,1982.2,2844.9,1981.4,2847.1,1982.6z"/>
		<path class="st36" d="M2705.8,2196.2l-14.8,22.7c-1.9,3-0.7,7.2,2.6,8.3c0.8,0.3,1.6,0.4,2.5,0.2c4.5-0.8,25.3-21.6,25.3-21.6
			S2717.3,2195.4,2705.8,2196.2L2705.8,2196.2z"/>
		<path class="st37" d="M2718.9,2036.8c0,0,53.4-38.1,117.1-0.9c43.8,25.5,62.1,88.1,38.6,134.5c-24.5,48.5-107.4,71.5-153.2,35.5
			L2718.9,2036.8L2718.9,2036.8z"/>
		<circle class="st7" cx="2767.3" cy="2121.8" r="97.5"/>
		<path class="st38" d="M2855.3,2112.1c3.4,28.6-7.3,55.6-26.7,74c-13.2,12.6-30.5,21.2-50.1,23.5c-48.1,5.7-91.8-28.6-97.5-76.8
			c-3.7-31.4,9.6-60.9,32.6-79.2c12.3-9.8,27.4-16.4,44.2-18.4C2805.9,2029.5,2849.5,2063.9,2855.3,2112.1L2855.3,2112.1z"/>
		<path class="st20" d="M2747.2,2007.4l-70,33.6l-0.9-20.2c-0.2-5.1,2.6-9.9,7.1-12.2l32.5-16.3c5-2.5,10.9-1.8,15.2,1.7
			L2747.2,2007.4L2747.2,2007.4z"/>
		<path class="st20" d="M2862.1,2036.8l-69-35.5l15.5-12.9c3.9-3.3,9.4-3.9,14-1.7l32.7,16.1c5,2.5,8,7.6,7.8,13.2L2862.1,2036.8
			L2862.1,2036.8z"/>
		<path class="st36" d="M2821.7,2209.2c0,0,6.1-8.9,16-10.4l11.5,31.6c0.4,1.2-0.1,2.5-1.2,3.2c-2.5,1.4-6.8,3.4-8.4,1.8
			C2831.3,2226.5,2821.7,2209.2,2821.7,2209.2L2821.7,2209.2z"/>
		<g class="st39">
			<path class="st2" d="M2828.6,2186.1c-13.2,12.6-30.5,21.2-50.1,23.5c-48.1,5.7-91.8-28.6-97.5-76.8c-3.7-31.4,9.6-60.9,32.6-79.2
				C2738.3,2091,2790.7,2142.2,2828.6,2186.1L2828.6,2186.1z"/>
		</g>
		<g>
			
				<rect x="2767" y="2037.1" transform="matrix(6.470647e-02 -0.9979 0.9979 6.470647e-02 563.6339 4681.0459)" class="st7" width="24" height="5.4"/>
			
				<rect x="2806.7" y="2053.5" transform="matrix(0.6185 -0.7857 0.7857 0.6185 -540.4603 2999.1555)" class="st7" width="24" height="5.4"/>
			
				<rect x="2833.3" y="2089.2" transform="matrix(0.9751 -0.2219 0.2219 0.9751 -393.2371 683.485)" class="st7" width="24" height="5.4"/>
			
				<rect x="2845.6" y="2123.2" transform="matrix(0.3359 -0.9419 0.9419 0.3359 -119.7095 4100.623)" class="st7" width="5.4" height="24"/>
			
				<rect x="2725.7" y="2036.7" transform="matrix(0.8983 -0.4395 0.4395 0.8983 -622.7242 1407.4923)" class="st7" width="5.4" height="24"/>
			
				<rect x="2826.5" y="2168.8" transform="matrix(0.7315 -0.6819 0.6819 0.7315 -726.6486 2514.4109)" class="st7" width="5.3" height="22"/>
			
				<rect x="2784.9" y="2189.9" transform="matrix(0.993 -0.1182 0.1182 0.993 -240.7734 345.0279)" class="st7" width="5.4" height="24"/>
			
				<rect x="2723.4" y="2196.5" transform="matrix(0.3941 -0.9191 0.9191 0.3941 -363.8771 3846.52)" class="st7" width="24" height="5.4"/>
			
				<rect x="2687.9" y="2168.7" transform="matrix(0.7373 -0.6756 0.6756 0.7373 -757.6591 2394.4875)" class="st7" width="24" height="5.4"/>
			
				<rect x="2682.5" y="2111.5" transform="matrix(5.442741e-02 -0.9985 0.9985 5.442741e-02 418.6649 4689.0825)" class="st7" width="5.4" height="24"/>
			
				<rect x="2692.9" y="2068.5" transform="matrix(0.5105 -0.8599 0.8599 0.5105 -469.5398 3336.1277)" class="st7" width="5.4" height="24"/>
		</g>
		<g>
			<path class="st40" d="M2774.4,2115.5c-0.7,0-1.4-0.5-1.7-1.2c-0.3-0.9,0.2-1.9,1.1-2.2l48.7-16.5c0.9-0.3,1.9,0.2,2.2,1.1
				c0.3,0.9-0.2,1.9-1.1,2.2l-48.7,16.5C2774.8,2115.5,2774.6,2115.5,2774.4,2115.5L2774.4,2115.5z"/>
			<path class="st40" d="M2742.6,2161.9c-0.3,0-0.6-0.1-0.9-0.2c-0.8-0.5-1.1-1.6-0.6-2.4l21.8-36.2c0.5-0.8,1.6-1.1,2.4-0.6
				c0.8,0.5,1.1,1.6,0.6,2.4l-21.8,36.2C2743.8,2161.6,2743.2,2161.9,2742.6,2161.9L2742.6,2161.9z"/>
			<circle class="st36" cx="2769.5" cy="2118.5" r="7.5"/>
		</g>
		<g class="st39">
			<path class="st2" d="M2874.9,2134.7c-0.8,13.4-4.9,26.2-11.8,37.7c-1.9,3.2,3.1,6.2,5.1,3c7.4-12.4,11.7-26.2,12.6-40.7
				C2881,2131,2875.1,2131,2874.9,2134.7L2874.9,2134.7z"/>
		</g>
		<g class="st39">
			<path class="st2" d="M2871.9,2105c0.8,1.8,1,3.8,0.9,5.7c-0.1,3.8,5.8,3.8,5.9,0c0.1-3.1-0.6-5.9-1.8-8.7c-0.6-1.5-2.8-1.8-4-1.1
				C2871.5,2101.9,2871.3,2103.6,2871.9,2105L2871.9,2105z"/>
		</g>
		<g class="st39">
			<path class="st2" d="M2683.1,2015.7c-1.3,4.6-1.3,9.3,0.2,13.8c1.1,3.6,6.8,2.1,5.6-1.6c-1.1-3.6-1.2-7.1-0.2-10.7
				C2689.8,2013.7,2684.1,2012.1,2683.1,2015.7L2683.1,2015.7L2683.1,2015.7z"/>
		</g>
		<g class="st39">
			<path class="st2" d="M2810,2002.2c2.4-3.1,5.7-5.6,9.3-7c3.5-1.3,2-7-1.6-5.7c-5.2,2-9.5,5.2-12.8,9.7
				C2802.7,2002.2,2807.8,2005.2,2810,2002.2L2810,2002.2L2810,2002.2z"/>
		</g>
	</g>
</g>
</svg>
