<?xml version="1.0" encoding="UTF-8"?>
<svg id="_02" data-name="02" xmlns="http://www.w3.org/2000/svg" xmlns:xlink="http://www.w3.org/1999/xlink" viewBox="0 0 3434 2405.83">
  <defs>
    <style>
      .cls-1 {
        fill: #bec0bf;
      }

      .cls-1, .cls-2, .cls-3, .cls-4, .cls-5, .cls-6, .cls-7, .cls-8, .cls-9, .cls-10, .cls-11, .cls-12, .cls-13, .cls-14, .cls-15, .cls-16, .cls-17, .cls-18, .cls-19, .cls-20, .cls-21, .cls-22, .cls-23, .cls-24, .cls-25, .cls-26, .cls-27, .cls-28, .cls-29, .cls-30, .cls-31, .cls-32, .cls-33, .cls-34, .cls-35, .cls-36, .cls-37, .cls-38, .cls-39, .cls-40, .cls-41, .cls-42, .cls-43, .cls-44, .cls-45, .cls-46, .cls-47, .cls-48, .cls-49, .cls-50, .cls-51, .cls-52, .cls-53, .cls-54, .cls-55, .cls-56, .cls-57, .cls-58, .cls-59, .cls-60, .cls-61, .cls-62, .cls-63, .cls-64, .cls-65, .cls-66, .cls-67, .cls-68, .cls-69, .cls-70, .cls-71, .cls-72, .cls-73 {
        stroke-width: 0px;
      }

      .cls-2 {
        fill: #6b9693;
      }

      .cls-3 {
        fill: #912a33;
      }

      .cls-4 {
        fill: #501216;
      }

      .cls-5 {
        fill: #a3303a;
      }

      .cls-6 {
        fill: #437573;
      }

      .cls-7 {
        fill: #376f91;
      }

      .cls-8 {
        fill: #1f6267;
      }

      .cls-9 {
        fill: #c12a3f;
      }

      .cls-10 {
        fill: #29516b;
      }

      .cls-11 {
        fill: #f9b857;
      }

      .cls-12 {
        fill: #547774;
      }

      .cls-13 {
        fill: #fffffa;
      }

      .cls-74 {
        opacity: .5;
      }

      .cls-14 {
        fill: #467677;
      }

      .cls-15 {
        fill: #e5782c;
      }

      .cls-75 {
        opacity: .6;
      }

      .cls-16 {
        fill: #1d1e1c;
      }

      .cls-17 {
        fill: #f7d7ac;
      }

      .cls-18, .cls-76 {
        fill: #fddfba;
      }

      .cls-19 {
        fill: #d3f2f1;
      }

      .cls-20 {
        fill: #6b171e;
      }

      .cls-21 {
        fill: #60443d;
      }

      .cls-22 {
        fill: #b75b6a;
      }

      .cls-23 {
        fill: #88c3bf;
      }

      .cls-24 {
        fill: #3470a3;
      }

      .cls-25 {
        fill: #380807;
      }

      .cls-77 {
        opacity: .63;
      }

      .cls-26 {
        fill: #f29350;
      }

      .cls-27 {
        fill: #926c59;
      }

      .cls-78 {
        opacity: .35;
      }

      .cls-28 {
        fill: #1e4261;
      }

      .cls-29 {
        fill: #e95925;
      }

      .cls-30 {
        fill: #66171f;
      }

      .cls-31 {
        fill: #430a0c;
      }

      .cls-32 {
        fill: #f18a4e;
      }

      .cls-33 {
        fill: #fff;
      }

      .cls-79 {
        opacity: .3;
      }

      .cls-34 {
        fill: #6a1d21;
      }

      .cls-35 {
        fill: #8c4751;
      }

      .cls-36 {
        fill: #7d1c25;
      }

      .cls-37 {
        fill: #62161d;
      }

      .cls-38 {
        fill: #f2976c;
      }

      .cls-39 {
        fill: #66918e;
      }

      .cls-40 {
        fill: #7baeaa;
      }

      .cls-41 {
        fill: #009d84;
      }

      .cls-42 {
        fill: #acd1d6;
      }

      .cls-43 {
        fill: #a16849;
      }

      .cls-44 {
        fill: #b92c42;
      }

      .cls-80 {
        clip-path: url(#clippath);
      }

      .cls-45 {
        fill: #743a42;
      }

      .cls-81 {
        opacity: .53;
      }

      .cls-46 {
        fill: #fffced;
      }

      .cls-47 {
        fill: #90212d;
      }

      .cls-48 {
        fill: #715049;
      }

      .cls-49 {
        fill: #102b3a;
      }

      .cls-50 {
        fill: #ad4518;
      }

      .cls-51 {
        fill: #8e655c;
      }

      .cls-52 {
        fill: #577d7a;
      }

      .cls-53 {
        fill: #1d405e;
      }

      .cls-54 {
        fill: #f9f9f9;
      }

      .cls-55 {
        fill: #8b2230;
      }

      .cls-56 {
        fill: #3a779c;
      }

      .cls-57 {
        fill: #2f5c79;
      }

      .cls-58 {
        fill: #aa6538;
      }

      .cls-59 {
        fill: #c93949;
      }

      .cls-60 {
        fill: #b7a9a2;
      }

      .cls-61 {
        fill: #fccc7c;
      }

      .cls-62 {
        fill: #b14619;
      }

      .cls-63 {
        fill: #e74053;
      }

      .cls-64 {
        fill: #2c868e;
      }

      .cls-65 {
        fill: #330301;
      }

      .cls-66 {
        fill: #467476;
      }

      .cls-67 {
        fill: #1d1d1b;
      }

      .cls-68 {
        fill: #2a0200;
      }

      .cls-69 {
        fill: #00abbf;
      }

      .cls-70 {
        fill: #76a6a2;
      }

      .cls-71 {
        fill: #f5a988;
      }

      .cls-72 {
        fill: #170000;
      }

      .cls-73 {
        fill: #ee7875;
      }
    </style>
    <clipPath id="clippath">
      <path class="cls-18" d="m2357.54,1438.66c-459.24,37.2-1081.79,65.42-1835.85,34.21-37.6-2.36-95.16-9.38-161.25-32.25-81.14-28.07-177.57-61.44-230.36-155.95-54.83-98.18-28.85-202.02-23.04-225.26,24.08-96.24,84.91-152.45,132.45-196.38,87.95-81.27,183.79-117.94,248.22-135.33,0,0,178.54-77.3,66.13-263.12-36.1-59.68-51.74-122.86-34.88-182.86C555.33,152.34,857.84,24.71,1175.43,7.02c402.11-22.39,745.52,128.2,990.26,235.52,244.19,107.08,225.25,121.34,460.73,207.73,345.49,126.76,478.28,113.57,589.49,243.46,93.6,109.32,137.99,292.8,84.52,426.21-89.05,222.18-433.02,277.43-942.88,318.73Z"/>
    </clipPath>
  </defs>
  <g>
    <path class="cls-76" d="m2357.54,1438.66c-459.24,37.2-1081.79,65.42-1835.85,34.21-37.6-2.36-95.16-9.38-161.25-32.25-81.14-28.07-177.57-61.44-230.36-155.95-54.83-98.18-28.85-202.02-23.04-225.26,24.08-96.24,84.91-152.45,132.45-196.38,87.95-81.27,183.79-117.94,248.22-135.33,0,0,178.54-77.3,66.13-263.12-36.1-59.68-51.74-122.86-34.88-182.86C555.33,152.34,857.84,24.71,1175.43,7.02c402.11-22.39,745.52,128.2,990.26,235.52,244.19,107.08,225.25,121.34,460.73,207.73,345.49,126.76,478.28,113.57,589.49,243.46,93.6,109.32,137.99,292.8,84.52,426.21-89.05,222.18-433.02,277.43-942.88,318.73Z"/>
    <g class="cls-80">
      <g>
        <g>
          <path class="cls-19" d="m2614.45,126.97c29,2,57,13,86,13,201,2,409-7,594,90,18.81,9.67,36.16,21.09,52.7,33.76V72.07h-977.84c58.17,25.18,118.32,43.72,183.14,52.9,21,3,41,0,62,2Z"/>
          <path class="cls-19" d="m2010.26,1093.88h1336.89V263.72c-16.54-12.67-33.89-24.09-52.7-33.76-185-97-393-88-594-90-29,0-57-11-86-13-21-2-41,1-62-2-64.82-9.18-124.98-27.72-183.14-52.9h-359.05v1021.81Z"/>
        </g>
        <g class="cls-74">
          <path class="cls-54" d="m2614.45,126.97c16.99,1.17,33.63,5.43,50.33,8.76,3.02-4.39,6.04-8.77,9.06-13.16h-136.83c5.12.85,10.26,1.67,15.43,2.4,21,3,41,0,62,2Z"/>
          <path class="cls-54" d="m2069.59,716.56l-1.41,285.07c198.87-288.63,397.74-577.27,596.6-865.9-16.7-3.33-33.34-7.59-50.33-8.76-21-2-41,1-62-2-5.18-.73-10.31-1.55-15.43-2.4h-64.63l-402.8,593.99Z"/>
        </g>
        <g class="cls-74">
          <path class="cls-54" d="m3287.17,122.57h-375.77l-12.13,19.94c115.91,4.21,230.88,17.41,339.3,61.55l48.6-81.49Z"/>
          <path class="cls-54" d="m2735.24,1048.02l503.33-843.96c-108.41-44.14-223.39-57.34-339.3-61.55l-550.8,905.51h386.77Z"/>
        </g>
        <g>
          <path class="cls-14" d="m2698.8,122.57h-48.79v10.07c16.2,3.42,32.34,7.07,48.79,7.31v-17.38Z"/>
          <path class="cls-14" d="m2698.8,1044.3V139.95c-16.45-.23-32.59-3.88-48.79-7.31v911.66h48.79Z"/>
        </g>
        <rect class="cls-14" x="2059.08" y="561.37" width="1239.24" height="48.93"/>
        <path class="cls-9" d="m2135.61,65.08c-116.33-2.34-144.6,1.47-168.49,6.09,5.91,238.69,8.43,477.38,7.55,716.06-.43,118.11-1.7,236.21-3.8,354.31,39.49.5,69.28.78,84.73,1.26,2.08.06,8.24.27,10.03-3,3.4-6.23-12.92-17.91-9.92-23.87,2.95-5.87,20.24,2.59,32.72-5.35,8.61-5.48,11.49-16.59,12.55-25.44-1.48-9.1-3.11-22.54-3.02-38.89.11-19.82.17-29.73,4.87-36.07,12.19-16.44,36.84-5,53.67-20.75,6.7-6.28,13.35-17.98,12.27-41.85l-33.16-882.5Z"/>
        <path class="cls-47" d="m2102.83,1010.18c3.63-9.26,14.66-8.97,14.66-8.97l-10.82-288-3.84,296.97Z"/>
        <path class="cls-47" d="m2043.61,1123.68c3.63-9.26,14.66-8.97,14.66-8.97l-10.82-288-3.84,296.97Z"/>
      </g>
      <g class="cls-79">
        <path class="cls-33" d="m1685.91,386.57l-322.99,1099.7,839.45-43.26-346.28-1060.31s-124.44-70.12-170.18,3.87Z"/>
      </g>
      <g class="cls-79">
        <path class="cls-33" d="m2096.76,529.36l-322.99,956.92,839.45-37.65-346.28-922.64s-124.44-61.02-170.18,3.37Z"/>
      </g>
      <g>
        <ellipse class="cls-33" cx="1771.69" cy="390.18" rx="37.08" ry="36.9"/>
        <rect class="cls-57" x="1765.91" y="71.79" width="11.56" height="159.07" rx="3.03" ry="3.03"/>
        <path class="cls-7" d="m1820.33,264.35c-4.74-4.72-12.46-11.23-23.56-15.92h-53.56c-8.16,4.3-17.24,10.82-25.81,20.85-34.89,40.88-32.1,106-31.48,117.29,26.01,2.69,54.59,4.13,85.37,3.42,30.62-.71,59-3.44,84.8-7.3.25-7.46.23-18.75-1.39-32.21-1.82-15.12-7.08-58.98-34.38-86.14Z"/>
        <path class="cls-57" d="m1796.76,248.43h-53.56s84.65,36.09,69.24,139.36l43.65-5.09s7.14-108.82-59.32-134.27Z"/>
        <path class="cls-7" d="m1786.78,217.58c-6.46-6.67-13.5-7.03-15.82-7.11-3.8-.12-11.46.66-18.14,7.92-10.19,11.07-9.69,28.07-9.61,30.04,4.98,2.95,12.66,6.51,22.35,7.38,14.33,1.28,25.51-4.04,31.21-7.38.18-3.35.18-9.86-2.19-17.13-.83-2.54-2.89-8.66-7.79-13.72Z"/>
      </g>
      <g>
        <ellipse class="cls-33" cx="2183.69" cy="542.77" rx="37.08" ry="36.9"/>
        <path class="cls-57" d="m2180.94,224.38h5.5c1.67,0,3.03,1.36,3.03,3.03v153.01c0,1.67-1.36,3.03-3.03,3.03h-5.5c-1.67,0-3.03-1.36-3.03-3.03v-153.01c0-1.67,1.36-3.03,3.03-3.03Z"/>
        <path class="cls-7" d="m2232.33,416.94c-4.74-4.72-12.46-11.23-23.56-15.92h-53.56c-8.16,4.3-17.24,10.82-25.81,20.85-34.89,40.88-32.1,106-31.48,117.29,26.01,2.69,54.59,4.13,85.37,3.42,30.62-.71,59-3.44,84.8-7.3.25-7.47.23-18.75-1.39-32.21-1.82-15.12-7.08-58.98-34.38-86.14Z"/>
        <path class="cls-57" d="m2208.77,401.02h-53.56s84.65,36.09,69.24,139.36l43.65-5.09s7.14-108.82-59.32-134.27Z"/>
        <path class="cls-7" d="m2198.78,370.17c-6.46-6.67-13.5-7.03-15.82-7.11-3.8-.12-11.46.66-18.14,7.92-10.19,11.07-9.69,28.07-9.61,30.04,4.98,2.95,12.66,6.51,22.35,7.38,14.33,1.28,25.51-4.04,31.21-7.38.18-3.35.18-9.86-2.19-17.13-.83-2.54-2.89-8.66-7.79-13.72Z"/>
      </g>
      <g>
        <g>
          <path class="cls-13" d="m1469.92,140.74c-9.84-2.39-20.14-3.65-30.75-3.65-68.78,0-124.53,53.24-124.53,118.91s55.76,118.91,124.53,118.91,124.53-53.24,124.53-118.91c0-55.54-39.88-102.19-93.78-115.26Z"/>
          <path class="cls-16" d="m1470.03,140.26c-10.03-2.43-20.42-3.67-30.87-3.67-68.94,0-125.03,53.57-125.03,119.41s56.09,119.41,125.03,119.41,125.03-53.57,125.03-119.41c0-54.7-38.72-102.3-94.16-115.74Zm-30.87,234.16c-68.39,0-124.03-53.12-124.03-118.41s55.64-118.41,124.03-118.41c10.37,0,20.68,1.22,30.63,3.64,54.99,13.34,93.4,60.53,93.4,114.77,0,65.29-55.64,118.41-124.03,118.41Z"/>
        </g>
        <g>
          <polygon class="cls-29" points="1433.98 254.82 1441.95 255.42 1448.01 182.24 1440.05 181.64 1433.98 254.82"/>
          <polygon class="cls-29" points="1411.96 202.77 1417.32 208.42 1443.5 185.74 1464.18 211.66 1470.53 207.04 1444.57 174.51 1411.96 202.77"/>
        </g>
        <g>
          <polygon class="cls-29" points="1439.32 254.25 1528.9 293.72 1532.24 286.79 1442.67 247.32 1439.32 254.25"/>
          <polygon class="cls-29" points="1508.03 254.88 1526.69 288.22 1487.1 294.49 1488.4 302.01 1538.99 294 1515.07 251.29 1508.03 254.88"/>
        </g>
        <path class="cls-29" d="m1439.17,243.44c-7.27,0-13.16,5.62-13.16,12.56s5.89,12.56,13.16,12.56,13.16-5.62,13.16-12.56-5.89-12.56-13.16-12.56Z"/>
        <g class="cls-78">
          <path class="cls-11" d="m1485.78,144.41l-160,157.6s7.13,24.77,33.78,43.68l172.23-171.18s-22.99-23.84-46.01-30.1Z"/>
        </g>
        <g class="cls-78">
          <path class="cls-11" d="m1411.96,370.43s12.95,4.5,28.3,3.6l122.68-139.45s-.46-10.02-6.73-22.93l-144.24,158.78Z"/>
        </g>
        <path class="cls-11" d="m1439.16,122.57c-77.05,0-139.74,59.86-139.74,133.43s62.69,133.43,139.74,133.43,139.74-59.86,139.74-133.43-62.69-133.43-139.74-133.43Zm123.7,137.29c-.97,28.76-12.75,54.95-31.58,74.98l-12.41-11.92-5.66,5.38,12.55,12.05c-21.22,19.86-49.87,32.51-81.55,33.73l.16-15.87-7.99-.07-.16,16.01c-31.59-.71-60.29-12.78-81.79-32.08l14.34-13.77-5.66-5.38-14.32,13.74c-19.87-20.28-32.36-47.24-33.34-76.92l19.48.18.08-7.62-19.55-.18c1.02-30.07,13.86-57.34,34.22-77.7l13.43,12.89,5.66-5.38-13.39-12.86c21.41-18.83,49.77-30.57,80.95-31.24l-.19,19.25,7.99.07.19-19.24c31.18,1.23,59.42,13.51,80.52,32.86l-11.62,11.16,5.66,5.38,11.54-11.08c19.35,20.17,31.48,46.76,32.45,75.99l-17.3-.16-.08,7.62,17.38.16Z"/>
      </g>
      <g>
        <g>
          <path class="cls-4" d="m284.45,86.97c32-16,63-28,93-48,18.05-12.41,34.11-25.52,49.53-38.97h-230.49c-47.37,0-85.76,36.03-85.76,80.47v126.53c44.34-30.98,88.66-63.4,134.72-97.03,13-9,26-16,39-23Z"/>
          <path class="cls-4" d="m196.49,843.59h858.32c47.37,0,85.76-36.03,85.76-80.47V80.47c0-44.44-38.4-80.47-85.76-80.47H426.98c-15.42,13.45-31.48,26.56-49.53,38.97-30,20-61,32-93,48-13,7-26,14-39,23-46.06,33.63-90.38,66.05-134.72,97.03v556.12c0,44.44,38.4,80.47,85.76,80.47Z"/>
        </g>
        <g>
          <path class="cls-27" d="m284.45,86.97c28.69-14.34,56.57-25.49,83.65-42.05h-135.46c-43.68,0-79.09,32.67-79.09,72.97v58.8c30.2-21.63,60.65-43.9,91.9-66.71,13-9,26-16,39-23Z"/>
          <path class="cls-27" d="m232.64,809.88h791.56c43.68,0,79.09-32.67,79.09-72.97V117.88c0-40.3-35.41-72.97-79.09-72.97H368.1c-27.08,16.56-54.96,27.71-83.65,42.05-13,7-26,14-39,23-31.25,22.82-61.7,45.08-91.9,66.71v560.23c0,40.3,35.41,72.97,79.09,72.97Z"/>
        </g>
        <rect class="cls-4" x="153.55" y="395.25" width="949.74" height="51.06"/>
        <rect class="cls-38" x="824.82" y="506.58" width="93.71" height="299.59" rx="12.08" ry="12.08"/>
        <path class="cls-11" d="m1077.31,522.56l-61.97-19.36c-7.68-2.4-15.76,2.15-18.06,10.16l-74.06,257.99c-2.3,8.01,2.06,16.45,9.74,18.84l61.97,19.36c7.68,2.4,15.76-2.15,18.06-10.16l74.06-257.99c2.3-8.01-2.06-16.44-9.74-18.84Z"/>
        <rect class="cls-9" x="731.11" y="506.58" width="93.71" height="299.59" rx="12.08" ry="12.08"/>
        <rect class="cls-9" x="753.13" y="90.32" width="151.82" height="299.59" rx="12.08" ry="12.08"/>
        <rect class="cls-23" x="262.02" y="297.26" width="287.18" height="97.76" rx="12.08" ry="12.08"/>
        <rect class="cls-38" x="223.43" y="199.5" width="287.18" height="97.76" rx="12.08" ry="12.08"/>
        <rect class="cls-11" x="291.56" y="101.74" width="287.18" height="97.76" rx="12.08" ry="12.08"/>
        <rect class="cls-63" x="332.95" y="712.12" width="287.18" height="97.76" rx="12.08" ry="12.08"/>
        <rect class="cls-38" x="401.08" y="614.36" width="287.18" height="97.76" rx="12.08" ry="12.08"/>
        <path class="cls-38" d="m1002.96,96.91c-2.52-7.93-10.74-12.23-18.34-9.6l-61.4,21.25c-7.61,2.63-11.73,11.2-9.2,19.13l81.31,255.61c2.52,7.93,10.74,12.23,18.34,9.6l61.4-21.25c7.61-2.63,11.73-11.2,9.2-19.13l-81.31-255.61Z"/>
        <rect class="cls-7" x="686.75" y="90.32" width="66.38" height="299.59" rx="12.08" ry="12.08"/>
        <rect class="cls-17" x="593.04" y="90.32" width="93.71" height="299.59" rx="12.08" ry="12.08"/>
      </g>
    </g>
  </g>
  <g>
    <ellipse class="cls-38" cx="1758.16" cy="2123.24" rx="1675.84" ry="281.55"/>
    <rect class="cls-50" x="2803.12" y="1535.65" width="4" height="1030.44" transform="translate(-130.89 3909.53) rotate(-68.51)"/>
    <rect class="cls-50" x="2233.08" y="1715.86" width="4" height="794.5" transform="translate(-825.01 2424.02) rotate(-49.19)"/>
    <rect class="cls-50" x="1655.83" y="1805.55" width="4" height="647.2" transform="translate(-869.72 1184.08) rotate(-31.59)"/>
    <rect class="cls-50" x="1097.82" y="1861.54" width="4" height="532.39" transform="translate(-469.35 318.16) rotate(-13.6)"/>
    <rect class="cls-50" x="363.88" y="2113.89" width="404.58" height="4" transform="translate(-1621.79 2217.83) rotate(-77.69)"/>
  </g>
  <g>
    <g class="cls-81">
      <ellipse class="cls-50" cx="400.27" cy="2024.99" rx="161.3" ry="42.72"/>
    </g>
    <g>
      <path class="cls-41" d="m329.48,1806.21l17.67-.24s-32.82-194.76-159.47-386.38c0,0,152,305.94,141.81,386.62Z"/>
      <path class="cls-41" d="m295.97,1185.76c-29.64-114.42-64-217-99.15-307.26,70.1,193.32,135.01,436.47,160.3,721.92,6.4,72.2,9.78,141.62,10.82,207.87,6.06,1.57,12.12,3.13,18.18,4.7-.55-7.94-1.11-15.88-1.66-23.82-6.69-167.8-29.33-375-88.49-603.4Z"/>
      <path class="cls-41" d="m433.79,1807.25l20.43-4.04s-71.13-189.22,155.14-606.22c0,0-142.49,260.7-167.41,387.53-24.92,126.83-8.16,222.72-8.16,222.72Z"/>
      <path class="cls-41" d="m400.49,1801.59c5.27.46,10.55.92,15.82,1.37-.46-104.33,3.43-216.66,13.74-335.72,25.88-298.93,84.9-555.58,148.36-761.79,0,0-185.29,504.19-177.91,1096.14Z"/>
      <path class="cls-6" d="m363.18,1169.06c8.1-18.98,15.1-41.87,18.09-68.31,12.98-115.07-60.8-203.77-74.55-219.76-17.81-31.16-57.28-90.85-126.84-132.36-48.71-29.07-93.68-38.19-122.69-41.27,11.73,3.86,27.77,11.61,38.63,28.64,16.65,26.12,10.81,57.94,6.76,94.16-3.53,31.52-22.52,130.25,2.37,218.37,12.97,45.92,19.75,90.58,19.75,90.58l62.44,7.62-32.07,40.48s-.63,55.04,47.13,72.53c47.76,17.49,138.47,147.52,138.47,147.52,0,0,87.83-267.96,22.53-238.19Z"/>
      <path class="cls-42" d="m487.02,709.41c-.79,43.82,6.33,56.03,6.33,56.03l-39.5-40.03s-69.42,121.46-30.22,268.68c39.2,147.22,37.02,210.4,37.02,210.4,0,0,80.49-130.37,113.54-144.42,33.04-14.05,50.22-144.51,50.22-144.51l-50.88-26.74,52.44-13.14s5.57-52.41,47.77-124.23c42.2-71.82,55.92-305.67,55.92-305.67l-139.79,135.11s-102.05,84.69-102.85,128.51Z"/>
      <g>
        <path class="cls-66" d="m643.24,1127.45c-57.65,35.19-94.55,76.02-108.62,92.47-15.17,17.74-37.45,43.78-54.24,77.66-42.7,86.18-29.96,182.86-20.92,228.27,0,0,124.64-12.28,136.29-159.22l-36.38-45.66,49.67,10.92s5.3-20.34,22.42-44.07c17.12-23.73,37.48-88.83,40.62-141.19-2.32-12.37-3.14-23.78-2.82-33.86-8.31,4.32-17.01,9.18-26.02,14.68Z"/>
        <path class="cls-66" d="m686.91,1068.89c-9.41,2.95-16.89,19.48-17.66,43.89,19.04-9.89,35.98-16.88,49.51-21.82-2.29-3.29-18.61-26.21-31.85-22.07Z"/>
      </g>
      <path class="cls-42" d="m45.81,1274.51c-18.78-3.65-34.74-3.94-45.81-3.52,8.45.91,20.78,3.74,31.87,13.44,18.38,16.07,18.83,38.34,30.69,97.24,15.6,77.46,28.53,105.51,34.95,119.21,11.49,24.54,20.58,35.04,20.58,35.04l51.58-14.15-24.27,39.41c113.2,56,164.07,131.25,164.07,131.25-1.43-48.42-10.92-181.54-94.26-293.16-24.67-33.04-80.2-107.4-169.42-124.76Z"/>
      <path class="cls-41" d="m187.68,1419.6s72.31,145.55,113.84,262.34c5.35,6.62,7.97,10.49,7.97,10.49-.22-7.46-.63-16.93-1.48-28.02-24.52-69.84-62.72-157.65-120.33-244.81Z"/>
      <path class="cls-41" d="m458.69,1523.31c.16.81.32,1.62.48,2.44,0,0,5.13-.51,13.41-2.54,23.83-87.16,65.54-195.54,136.5-326.32-20.45,31.06-41.35,66.07-61.65,105.2-41.37,79.76-69.41,155.8-88.74,221.22Z"/>
      <path class="cls-11" d="m463.8,1788.85c-36.88.71-73.77,1.32-110.65,1.85-14.3.2-28.59.39-42.89.57-17.08.21-29.45,18.99-25.15,38.21,12.38,55.36,24.75,110.71,37.13,166.07.9,4.04,3.81,10.2,9.08,16.23,6.14,7.03,16.34,13.77,58.91,13.18,51.72-.72,61.94-11.02,66.2-16.44,5.11-6.51,7.96-12.88,8.71-17.85,8.33-55.34,16.66-110.69,24.98-166.03,2.84-18.89-9.82-36.1-26.32-35.79Z"/>
      <path class="cls-26" d="m281.66,1810.85c.28,4.78.98,10.37,2.48,16.46.63,2.56,1.34,4.93,2.08,7.11,30.2,5.43,67.56,9.18,110.23,6.87,35.67-1.94,67.11-7.68,93.34-14.42.56-2,1.08-4.55,1.26-7.53.35-5.94-.84-10.74-1.79-13.62-69.2,1.71-138.4,3.42-207.6,5.12Z"/>
      <path class="cls-29" d="m503.6,1786.22l-238.36,5.88c-6.69.17-12.04,6.66-11.9,14.43l.03,1.87c.14,7.77,5.73,14,12.41,13.83l238.36-5.88c6.69-.17,12.04-6.66,11.9-14.43l-.03-1.87c-.14-7.77-5.73-14-12.41-13.83Z"/>
      <path class="cls-26" d="m295.81,1877.25c8.81,39.43,17.62,78.87,26.43,118.3.81,3.22,2.4,8.07,5.73,12.76,5.28,7.44,12.19,10.63,18.47,12.71,22.14,7.34,48.75,5.01,54.04,4.51,31.19-2.95,47.87-4.82,58.23-20.13,3.71-5.49,5.51-11.07,6.43-14.74-19.09-.3-64.95-4.07-110.35-40.06-31.48-24.95-49.64-55.01-58.97-73.35Z"/>
      <path class="cls-41" d="m272.31,1097.39l69.88-162.31-.5-.29-70.53,158.73c-23.08-77.86-48.05-149.47-73.44-214.66,15.65,43.17,31.04,88.84,45.79,136.89l-147.65-56.39,148.74,59.92c21.07,68.96,40.81,142.84,58.09,221.39l-144.55-55.32-.07.23,145.35,58.43c10.59,48.42,20.25,98.58,28.71,150.48,5.95,8.14,9.43,13.14,9.43,13.14,0,0,.76-2.31,2.07-6.46-12.21-69.03-27.56-140.92-46.76-215.04-7.88-30.42-16.1-59.99-24.57-88.73Z"/>
      <path class="cls-41" d="m578.79,707.21s-45.13,122.82-89.96,318.39l-48.41-197.61,46.78,204.72c-9.66,42.53-19.28,88.4-28.4,137.13,2.62,24.8,2.22,36.4,2.22,36.4,0,0,.82-1.33,2.32-3.72,8.79-54.68,18.57-107.52,29.09-158.51l.84-.27-.42-1.73c13.66-66,28.56-128.85,44.2-188.39l126.66-134.65-124.77,127.48c12.89-48.67,26.27-95.12,39.85-139.25Z"/>
      <polygon class="cls-41" points="484.9 1466.1 488.33 1466.1 486.7 1290.43 484.9 1466.1"/>
      <polygon class="cls-41" points="558.32 1295.48 654.43 1235.86 556.76 1291.94 558.32 1295.48"/>
      <polygon class="cls-41" points="239.91 1523.8 241.67 1519.96 74.55 1434.33 239.91 1523.8"/>
      <polygon class="cls-41" points="273.33 1512.66 275.65 1609.12 280.65 1608.99 278.33 1512.53 273.33 1512.66"/>
    </g>
  </g>
  <g>
    <path class="cls-1" d="m1956.82,1367.92v26.99h322.67v-248.13h-57.9s-45.98,175.97-264.77,221.14Z"/>
    <path class="cls-67" d="m2220.14,1146.4c-.03.11-2.96,11.15-10.57,28.08-7.03,15.62-19.6,39.6-39.58,65.12-22.45,28.67-49.5,53.4-80.39,73.51-38.62,25.14-83.39,43.09-133.08,53.34l-1.2.25v29.72h325.67v-251.13h-60.56s-.29,1.12-.29,1.12Zm57.85,1.88v245.13h-319.67v-24.27c49.61-10.38,94.35-28.4,132.99-53.57,31.17-20.31,58.47-45.28,81.12-74.23,20.16-25.76,32.84-49.97,39.92-65.74,6.38-14.2,9.45-24.09,10.38-27.32h55.26Z"/>
  </g>
  <g>
    <g class="cls-81">
      <ellipse class="cls-50" cx="1611.49" cy="2001.44" rx="292.45" ry="120.89"/>
    </g>
    <g class="cls-81">
      <ellipse class="cls-50" cx="1996.28" cy="2100.36" rx="359.25" ry="111.38"/>
    </g>
    <ellipse class="cls-31" cx="1559.76" cy="1949.06" rx="154.54" ry="39.92"/>
    <path class="cls-30" d="m1491.73,1569.06l39.24,367.29c24.38,20.76,48.76-4.13,48.76-4.13l2.75-355.79c-39.2-151.17-90.75-7.36-90.75-7.36Z"/>
    <path class="cls-44" d="m1643.9,1270.38c-52.64-92.15-3.71-154.23-48.23-201.44-29.39-31.16-97.47-53.71-276.43,8.66-113.05,158.55-104.38,350.88-3.56,450.35,52.58,51.88,144.33,74.89,220.67,74.65,54.83-.18,99.14-13.08,127.71-23.94,5.52-2.65,11.04-5.29,16.56-7.94,11.53-2.76,47.3-12.89,71.87-46.84,26.48-36.58,22.75-77.06,21.71-86.73-8.2-76.26-82.22-82.62-130.3-166.78Z"/>
    <g>
      <path class="cls-73" d="m1752.37,1963.12c-11.9-14.98-25.71-65.21-25.71-65.21l28.48-302.44c-6.85-142.28-97.11-19.6-97.11-19.6,0,0,10.32,138.58,12.77,151.02,2.45,12.44,8.07,174.4,8.07,174.4l-12.38,80.27,10.53,2.73s.91-41.5,15.59-30.44c14.68,11.06,25.25,48.83,37.97,58.47,12.72,9.64,52.86,11.49,59.76,9.27,6.9-2.22,7.07-17.53,4.46-28.9-2.62-11.36-30.53-14.6-42.42-29.57Z"/>
      <path class="cls-2" d="m1759.85,1970.62c-43.51,12.19-80.84-70.38-80.84-70.38l-13.47,80.09,10.49,2.87s1.47-41.49,16.01-30.22c14.53,11.26,24.58,49.17,37.17,58.99,12.58,9.82,52.7,12.21,59.63,10.09,6.93-2.12,7.31-17.43,4.85-28.83-1.99-9.22-20.61-13.35-33.84-22.61Z"/>
      <path class="cls-71" d="m1746.08,2022.02c-14.04-12.98-35.34-60.5-35.34-60.5l-17.95-303.25c-28.46-139.56-98.96-4.48-98.96-4.48,0,0,31.31,135.37,35.63,147.29,4.32,11.91,34.55,171.11,34.55,171.11v81.22l10.82,1.08s-5.43-41.15,10.77-32.47c16.2,8.68,32.39,44.38,46.43,51.96,14.04,7.58,53.99,3.25,60.47,0,6.48-3.25,4.32-18.41,0-29.24-4.32-10.83-32.39-9.75-46.43-22.72Z"/>
      <path class="cls-40" d="m1755.39,2028.09c-40.88,19.28-91.38-55.91-91.38-55.91v81.22l10.82,1.08s-5.43-41.15,10.77-32.47c16.2,8.68,32.39,44.38,46.43,51.96,14.04,7.58,53.99,3.25,60.47,0,6.48-3.25,4.32-18.41,0-29.24-3.49-8.76-22.54-9.73-37.11-16.65Z"/>
      <path class="cls-56" d="m1588.45,1346.17s-160.07-139.54-226.9,22.85c0,0-52.07,158.05,168.03,192.71l51.65,101.08s120.63,10.11,176.93-27.44c0,0,18.87-155.51,10.23-206.99-8.64-51.48-179.95-82.21-179.95-82.21Z"/>
      <path class="cls-49" d="m1588.45,1518.48s-14.42,11.48-74,8.24c-59.58-3.23-152.9-157.71-152.9-157.71,0,0-30.84,41.09,16.18,113.62,47.01,72.53,151.85,79.09,151.85,79.09l51.65,101.08c24.48,7.22,73.52-.04,73.52-.04-136.68-41.92-66.3-144.28-66.3-144.28Z"/>
    </g>
    <path class="cls-49" d="m1674.84,1660.86l29.58-4.86s17.19-157.09-5.13-203.3c0,0,10.85,199-24.45,208.16Z"/>
    <g>
      <g class="cls-81">
        <ellipse class="cls-50" cx="2196.73" cy="1979.83" rx="184.17" ry="47.58"/>
      </g>
      <ellipse class="cls-31" cx="2226.35" cy="1961.51" rx="154.54" ry="39.92"/>
      <path class="cls-30" d="m2177.76,1546.57l20.39,406.57c26.63,18.86,46.79,0,46.79,0l30-388.55c-15.35-72.95-97.19-18.02-97.19-18.02Z"/>
      <path class="cls-44" d="m2274.95,977.86c-373.12-58.26-333.49,572.32-333.49,572.32l82.64,20.32c501.89,54.97,428.17-216.7,428.17-407.3s-177.32-185.33-177.32-185.33Z"/>
      <ellipse class="cls-28" cx="1996.28" cy="2131.14" rx="264.95" ry="59.2"/>
      <path class="cls-29" d="m2201.86,2006.48c-14.94-21.89-39.26-28.56-53.98-20.02-11.04,6.41-14.06,19.87-14.81,23.88-3.25,24.21-10.4,53.72-26.34,84.21-10.32,19.75-19.25,30.16-15.33,38.99,4.69,10.57,26.8,16.59,91.63,6.07,5.82-5.9,14.05-15.75,19.29-29.81,2.5-6.7,5.54-17.61,3.74-55.32-.57-12.07-1.72-28.48-4.21-48.01Z"/>
      <path class="cls-62" d="m1940.02,1956.19c-6.68,5.48-9.58,13.02-10.89,18.5-7.32,30.5-20.53,45.07-31.88,52.72-19.12,12.89-38.5,9.83-48.04,25.16-6.95,11.18-4.51,25.44-1.25,35.92,2.65,1.01,6.75,2.44,11.86,3.69,25.38,6.21,46.66.85,65.51-4.12,21.68-5.72,32.52-8.58,38.33-16.51,5.46-7.46,7.85-17.93,15.68-19.22,3.58-.59,4.64-.71,9.74,2.28,9.29,5.46,25.91-6.34,25.91-6.34-7.15-29.41-14.3-58.82-21.45-88.23-18.73-13.37-40.7-14.37-53.53-3.84Z"/>
      <path class="cls-51" d="m2127.32,1463.54l-35.92,124.18,35.92,418.76c18.09,17.33,74.54,0,74.54,0,0,0,32.19-145.61,18.59-294.57-4-43.81-11.16-79.16-16.38-101.56,13.49-29.44,28.89-49.55,40.84-62.72,14.55-16.04,26.16-23.96,43.22-45.46,12.69-15.99,21.5-30.35,26.99-40.07-10.84-8.93-38.7-29.39-79.62-33.13-58.48-5.34-99.67,27.48-108.18,34.58Z"/>
      <path class="cls-21" d="m2000.76,1411.58l-122.54,119.17s-36.7,61.1-6.37,145.4c30.33,84.3,56.16,305.53,56.16,305.53l74.9-7.67s-6.62-141.77-2.69-237.78c3.94-96.01-24.26-144.79-24.26-144.79l149.96-91.5c37.95-93.11-125.16-88.37-125.16-88.37Z"/>
      <path class="cls-71" d="m2128.97,926.2l-4.97,65.88c37.79,14.08,92.37-21.66,92.37-21.66-9.13-38.99,0-88.97,0-88.97-22.09-40.23-87.4,44.75-87.4,44.75Z"/>
      <path class="cls-59" d="m2203.67,872.88c-19.13-7.33-49.41,13.87-75.39,52.59-.78,11.56-1.56,23.12-2.34,34.68,11.45-2.38,43-10.56,67.12-39.39,12.06-14.42,18.17-29.12,21.38-39.31-3.6-4.79-7.37-7.27-10.76-8.57Z"/>
      <polygon class="cls-69" points="1399.7 1312.51 1139.23 1443.01 2970.19 1443.01 2759.45 1312.51 1399.7 1312.51"/>
      <path class="cls-71" d="m2177.27,698.22s-112.3,24.55-83.5,90.97c0,0-12.96,134.29,43.19,138.62,56.15,4.33,77.75-36.1,102.22-93.86,24.48-57.76-61.91-135.73-61.91-135.73Z"/>
      <path class="cls-59" d="m2092.74,809.4s16.44-56.4,50.33-49.09c2.15-5.46,6.49-9.2,11.09-9.39,6.82-.28,11.02,7.35,12.14,9.39,4.27,7.75,2.47,15.06,2.01,22.4-1,15.9,4.28,32.16,9.9,39.44,15.09,19.55,58.62,8.02,62.79,6.87v-122.13l-109.55,3.61s-56.93,64.72-38.7,98.9Z"/>
      <g>
        <path class="cls-4" d="m2094.56,858.83c.06.65.1,1.01.1,1.01,0,0-.03-.36-.1-1.01Z"/>
        <path class="cls-4" d="m2291.73,762.48c-5.76-20.22-14.4-46.21-28.79-64.26-14.4-18.05-97.9-67.15-117.34-7.94,0,0-16.2-7.94-1.08-41.51,0,0-38.87,25.99-22.68,56.32,0,0-32.39-9.75-49.67,19.49-17.28,29.24-20.45,50.98,0,79.06,18.19,24.97,21.81,49.97,22.38,55.2-.49-5.06-2.61-28.26-2.03-43.88.65-17.61,1.25-25.76,1.25-25.76,0,0,21.6-58,45.35-37.54,0,0,9.72-30.32,27.18-16.61,17.45,13.72,7.38,60.65,11.7,71.48,4.32,10.83,8.38,29.53,38.38,20.54,0,0-16.79-10.43-11.75-28.48,0,0,16.57,32,36.36,30.44l-26.78,56.01s23.53-3.26,65.28-30.77c41.75-27.52,17.28-67.23,17.28-67.23,0,0,20.16,7.22,30.95-4.33,0,0-30.23,0-35.99-20.22Z"/>
      </g>
      <path class="cls-71" d="m2239.05,829.02l-24.61,52.43c49.18-15.32,43.68-32.33,41.52-46.05-2.16-13.72-16.91-6.38-16.91-6.38Z"/>
      <path class="cls-22" d="m1956.82,1382.74v12.17c107.87-.19,215.74-.38,323.61-.58l69.67-54.51c2.82-7.52,0-10.65,0-10.65-131.1,17.86-262.19,35.72-393.29,53.58Z"/>
      <path class="cls-71" d="m2092.53,814.96s-9.79-19.48-20.83,0c-11.04,19.48,23.49,48.92,23.49,48.92-.93-7.7-1.67-15.92-2.14-24.61-.46-8.54-.61-16.66-.52-24.31Z"/>
      <path class="cls-11" d="m2385.32,1127.45c-2.98-15.92-3.43-26.66-9.31-56.18-2.29-11.51-3.64-16.38-3.64-16.38-46.43-85.56-117.7-78.35-117.7-78.35l-160.51,6.6s-60.15,15.5-92.16,50.09c-14.03,15.15-17.99,28.93-38.87,132.12-4.6,22.73-10.08,50.1-16.2,81.22-2.69,5.3-23,46.98-2.61,83.4,5.4,9.64,12.39,16.66,18.81,21.65,109.12,19.33,196.9,13.5,253.75,5.41,0,0,84.3-11.99,159.81-61.73,33.05-21.77,42.58-44.68,43.42-55.89.49-6.58-.67-10.3-11.03-40.5-21.74-63.34-22.21-63.21-23.76-71.48Z"/>
      <path class="cls-15" d="m2079.57,1198.75s-88.31,61.74,7.01,40.08c95.32-21.66,201.24-195.66,201.24-195.66-80.5,99.82-208.25,155.58-208.25,155.58Z"/>
      <path class="cls-33" d="m2017.86,1073.02l-3,.08c.01.4,1.24,40.58,12.71,71.31,11.34,30.36,21.83,91.26,21.93,91.87l2.96-.51c-.11-.61-10.65-61.79-22.08-92.42-11.29-30.25-12.51-69.95-12.52-70.34Z"/>
      <path class="cls-45" d="m1956.82,1382.74c107.56.71,215.11,1.43,322.67,2.14,22.29-17.56,44.59-35.12,66.88-52.68h-337.69c-17.29,16.85-34.58,33.69-51.87,50.54Z"/>
      <path class="cls-15" d="m2367.32,1223.83c-28.79-5.78-57.59,0-57.59,0,0,0,8.64-8.66,0-21.66-8.64-13-14.4-70.76-14.4-70.76-18.72,105.41-10.08,83.75-20.39,98.19-10.31,14.44-58.57,64.98-58.57,64.98l58.57-33.21s26.14-15.88,44.86-25.99c18.72-10.11,82.06,13,82.06,13,0,0-5.76-18.77-34.55-24.55Z"/>
      <path class="cls-24" d="m1963.65,2114.52s33.66,38.81,73.97,0l17.09-637.3h-132.61l41.56,637.3Z"/>
      <path class="cls-53" d="m1925.32,1526.72s63.32,57.87,128.12-2.3l1.27-47.2h-132.61l3.23,49.5Z"/>
      <rect class="cls-7" x="1139.23" y="1443.01" width="1830.95" height="53.5"/>
      <path class="cls-29" d="m2226.59,954.17c-9.7,6.69-43.37,28.12-83.94,19.85-10.48-2.13-19.35-5.83-26.54-9.74-4.84.98-13.23,3.36-21.61,9.74-5.73,4.35-9.52,9.1-11.88,12.62,11.48,7.1,42.07,23.89,84.15,22.4,46.24-1.64,77.62-24.35,87.9-32.5-4.32-18.79-28.07-22.37-28.07-22.37Z"/>
      <path class="cls-4" d="m2110.97,818.56c-3.18,0-5.76,5.6-5.76,12.51s2.58,12.51,5.76,12.51,5.76-5.6,5.76-12.51-2.58-12.51-5.76-12.51Z"/>
      <path class="cls-4" d="m2189.44,823.37c-3.58,0-6.48,5.6-6.48,12.51s2.9,12.51,6.48,12.51,6.48-5.6,6.48-12.51-2.9-12.51-6.48-12.51Z"/>
      <ellipse class="cls-63" cx="2198.15" cy="865.85" rx="19.24" ry="19.29"/>
      <path class="cls-63" d="m2101.3,839.1c-3.06,0-5.94.73-8.5,2.01.71,11.9,2.12,24.46,4.71,36.2,1.23.25,2.49.38,3.79.38,10.62,0,19.24-8.64,19.24-19.29s-8.61-19.29-19.24-19.29Z"/>
      <path class="cls-44" d="m2133.05,870.63c-6.24,9.05,7.68,8.25,7.68,8.25,0,0,5.28-23.26,0-35.3,0,0-1.44,18-7.68,27.05Z"/>
      <path class="cls-4" d="m2132.34,891.97l-.9,1.2.91-1.19-.91,1.19-.91,1.19c.47.35,8.01,5.91,21.29,5.91,6.76,0,15-1.44,24.56-5.73l-1.23-2.74c-26.61,11.96-42.64.29-42.8.17Z"/>
      <path class="cls-4" d="m2100.58,805.21l2.07,2.17c8.48-8.08,21.13-7.32,21.25-7.31l.21-2.99c-.56-.04-14.08-.89-23.53,8.13Z"/>
      <path class="cls-59" d="m2240.99,840.3l-12.44,23.58s34.48-12.91,12.44-23.58Z"/>
      <path class="cls-59" d="m2089.14,843.59l-2.17-23.1c-24,1.93,2.17,23.1,2.17,23.1Z"/>
      <path class="cls-48" d="m2150.76,1586.27c20.16,2.89,51.91,24.55,51.91,24.55l5.97-8.21c-14.1-18.31-78.04-19.23-57.88-16.34Z"/>
      <rect class="cls-35" x="1956.82" y="1146.78" width="322.67" height="248.13"/>
      <path class="cls-33" d="m2088.65,1196.91c-7.32,0-13.25,5.95-13.25,13.29s5.93,13.29,13.25,13.29,13.25-5.95,13.25-13.29-5.93-13.29-13.25-13.29Z"/>
      <path class="cls-22" d="m1956.82,1394.91h322.67v-248.13s-146.77,248.62-322.67,248.13Z"/>
    </g>
    <g>
      <path class="cls-71" d="m1885.97,1008.68c-1.05-1.21-2.2-2.42-3.48-3.59-9.55-8.78-21.07-11.43-28.67-12.29-10.24,2.69-16.43,7.13-20.16,10.59-6.52,6.06-8.57,12.03-17.28,16.37-2.88,1.43-8.27,4.11-11.28,1.93-4.77-3.47-.95-17.36-.72-18.77.72-4.33,3.24-11.91,2.52-14.44-.72-2.53-1.8-11.19-10.44,1.8-8.64,13-15.84,25.63-16.56,31.77-.72,6.14-5.75,41.73-5.75,41.73-3.59,11.76,48.22,25.78,49.3,25.42,1.08-.36,21.6-29.96,21.6-29.96,9.08-8.69,13.36-12.78,13.36-12.78,21.95-20.94,29.6-27.59,28.28-35.29-.21-1.21-.58-2.13-.73-2.47Z"/>
      <path class="cls-33" d="m1761.91,1055.61l-59.03,108.3s-72.71-109.02-92.76-124.9c-20.05-15.88-30.47-6.64-30.47-6.64-37.03,56.92,21.83,154.65,21.83,154.65,0,0,92.76,75.81,126.59,75.33,33.83-.48,103.66-183.63,103.66-183.63-33.83,6.5-69.83-23.1-69.83-23.1Z"/>
      <path class="cls-7" d="m1517.34,997.14l-92.28,24.1-62.14,27.56,11.38,315.82c21.13-14.96,72.78-46.82,139.83-41.87,17.88,1.32,33.67,5.02,47,9.46,3.84-6.38,8.21-15.13,11.31-26.06,4.54-15.97,4.47-29.87,3.68-38.99,0,0,14.76-5.41,10.44-35.74-4.32-30.32,22.68-34.66,24.84-66.06s-30.49-114.36-30.36-132.99l-63.69-35.22Z"/>
      <path class="cls-71" d="m1442.38,940.75s-28.88,39.77-10.89,83.09c18,43.32,79.9,49.1,79.9,49.1l5.04-83.58c-3.6-56.87-74.06-48.6-74.06-48.6Z"/>
      <path class="cls-59" d="m1472.83,942.09l-28.63-1.34c1.41,10.08,5.03,26.08,15.43,42.67,18.04,28.77,44.63,40.42,54.59,44.21.72-12.94,1.44-25.87,2.16-38.81.23-4.57.13-15.43-6.66-26.1-12.03-18.92-34.39-20.5-36.89-20.63Z"/>
      <path class="cls-71" d="m1503.17,769.44c-41.13-9.92-102.4,54.63-96.95,117.22,5.93,68.06,89.55,119.87,128.21,99.64,30.05-15.73,40.71-79.03,15.84-149.45-2.91-11.62-16.08-59.93-47.1-67.41Z"/>
      <path class="cls-23" d="m1453.45,1013.74c-41.39-18.77-27.86,25.21-27.86,25.21l51.26,71.1c23.04-29.32,34.55-37.11,34.55-37.11l13.68,15.88-5.76-26.71-65.87-48.37Z"/>
      <path class="cls-71" d="m1663.29,1287.85c-17.76-17.33-61.43-25.51-61.43-25.51l-51.83,13c-42.71,26.95-6.72,29.36,2.4,41.39s59.28-10.08,59.28-10.08h58.29s11.04-1.47-6.72-18.8Z"/>
      <g>
        <g>
          <path class="cls-59" d="m1567.82,952.1c-.37,1.67,8.23-20.17,2.96-42.08.86,15.54-.21,29.79-2.96,42.08Z"/>
          <path class="cls-59" d="m1510.13,777.36c-36.03-8.69-89.57,53.86-96.95,117.22-7.14,61.32,30.63,107.92,40.27,119.15,4.19-3.62,9.28-9.27,10.48-16.93,2.05-13.1-8.61-23.35-17.06-36.1-7.35-11.08-15.64-28.01-19.02-53.2,1.25.72,2.2.76,2.79.67,3.87-.52,6.08-7.53,7.89-13.29.57-1.81.96-3.32,1.2-4.34,1.26,1.87,5.8,8.13,14.04,10.01,0,0,4.45,1.02,8.68.17,9.36-1.88,17.3-13.24,20.08-28.26.53,1.32,2.9,6.75,8.88,9.39,4.61,2.03,8.78,1.27,10.32.96,10.36-2.06,15.06-12.69,15.6-13.96,8.08-12.87,10.68-23.85,11.46-31.83.96-9.83-.24-21.17,2.16-21.66.98-.2,2.17,1.51,3.06,3.07,9.56,11.55,14.14,22.01,16.56,29.42,3.96,12.16,2.37,16.94,7.2,31.59,4.76,14.45,8.22,15.59,11.71,25.97.51,1.53.95,3.07,1.32,4.61-1.11-20.06-5.44-42.28-13.56-65.26-2.91-11.62-16.08-59.93-47.1-67.41Z"/>
        </g>
        <g>
          <path class="cls-59" d="m1548.1,989.63c-.43.37-.85.74-1.29,1.08.44-.36.88-.72,1.29-1.08Z"/>
          <path class="cls-59" d="m1548.1,989.63c4.57-3.9,8.55-9.06,11.85-15.32-2.36,4.2-5.68,9.99-11.85,15.32Z"/>
        </g>
        <path class="cls-59" d="m1546.78,990.73s.01-.01.02-.02c0,0-.01.01-.02.02Z"/>
      </g>
      <path class="cls-4" d="m1588.13,907.38c-3.01-12.91-.79-18.88-4.03-48.87-1.13-10.5-2.41-19.06-3.3-24.66-4.3-20.55-11.26-36.29-16.85-46.82,0,0-17.15-32.29-37.43-40.67-1.8-.74-5.92-2.41-11.33-2-7.18.55-11.7,4.41-11.7,4.41,0,0-11.52-17.33-70.55-8.66-59.03,8.66-92.14,69.31-96.46,123.77-4.32,54.46,4.32,43.73-54.71,100.04-59.03,56.32-21.6,73.64-14.4,96.75,7.2,23.1-30.23,53.43-30.23,53.43-56.15,86.64,83.5,96.97,83.5,96.97,0,0,8.64-95.52,14.4-130.18,5.76-34.66,32.03-32.49,32.03-32.49,40.97,1.22,76.8-10.98,86.38-34.66,6.9-17.05-.77-37.69-13.79-72.73-6.58-17.71-13.58-31.81-18.77-41.42,10.39,5.9,13.48-27.6,13.48-27.6,0,0,2.88,25.51,21.12,20.83,18.24-4.68,26.88-41.52,26.88-41.52-2.88,24.07,12.48,20.7,12.48,20.7,28.31,3.85,31.67-67.39,31.67-67.39,6.12,5.33,14.4,13.92,20.66,26.46,4.32,8.65,6.08,16.33,9.43,31.33,2.31,10.34,4.65,20.75,5.91,35.11,1.11,12.65,2.34,27.97-1.65,46.7-2.43,11.43-5.49,17.95-7.88,22.2-2.91,5.19-6.28,11.31-13.14,16.4-8.77,6.51-18.28,7.71-23.49,7.9-.38,1.57-.72,3.83-.39,6.45,1.81,14.38,21.72,22.36,31.07,26.13,15.89,6.4,28.97,11.99,41.39,6.71,24.75-10.52,33.61-50.29,25.2-77.61-6.73-21.86-19.7-20.14-25.49-44.99Z"/>
      <path class="cls-4" d="m1315.7,876.5c6.72,18.99,5.1,39.29-4.22,52.97-6.6,9.69-16.25,15.02-27.89,15.43-19.77.68-45.49,19.93-56.17,42.02-6.96,14.41-6.6,28.03,1.02,38.34,6.04,8.17,13.48,14.83,20.05,20.71,10.03,8.97,18.7,16.72,19.21,26.65.39,7.51-3.97,16.17-13.32,26.48l2.22,2.02c10.06-11.08,14.54-20.18,14.09-28.65-.58-11.18-9.68-19.31-20.21-28.73-6.78-6.06-13.78-12.33-19.63-20.25-8.88-12.02-5.3-25.81-.73-35.26,10.25-21.21,34.78-39.68,53.57-40.33,12.46-.43,23.21-6.37,30.27-16.73,9.85-14.46,11.6-35.78,4.57-55.66-11.42-32.28,68.39-109.86,69.2-110.64l-2.08-2.16c-3.35,3.24-82,79.71-69.94,113.8Z"/>
      <polygon class="cls-58" points="1432.53 1342.45 1588.45 1346.17 1872.11 1315.06 1692.79 1300.73 1432.53 1342.45"/>
      <path class="cls-4" d="m1615.3,934.82c-7.49-7.02-15.24-14.28-18.96-26.92-3.46-11.79-1.52-19.05.93-28.25,1.62-6.08,3.46-12.98,4.16-22.47,1.46-19.81-38.75-75.76-40.46-78.13l-2.43,1.76c.41.57,41.29,57.42,39.91,76.15-.68,9.21-2.48,15.97-4.07,21.92-2.58,9.65-4.61,17.28-.91,29.87,3.94,13.43,12,20.97,19.78,28.26,8.6,8.05,16.72,15.66,19.05,30.75.73,4.72,2.94,19.09-5.89,28.38-4.82,5.07-11.26,6.86-15.82,7.46l.4,2.97c7.22-.96,13.3-3.86,17.59-8.37,9.85-10.36,7.47-25.82,6.68-30.91-2.48-16.11-11.37-24.43-19.96-32.48Z"/>
      <path class="cls-23" d="m1515.97,997.14l-.72,11.93,13.43,42.21-3.6,37.54s6.48-15.88,10.8-25.27c4.32-9.39,38.87,25.27,38.87,25.27l-14.99-29.26-43.79-62.41Z"/>
      <path class="cls-33" d="m1535.88,1063.55l-10.8,25.27-13.68-15.88-24.19,24.41,50.83,52.36c8.16-23.1,12.73-81.79,12.73-81.79-12.84-10.46-14.89-4.37-14.89-4.37Z"/>
      <path class="cls-33" d="m1550.77,1270.84s-137.99,7.98-148.07,5.03c.52.05,4.85.44,7.5-2.56,2.75-3.12,2.61-8.66-1.02-12.66-.24-2.65-.48-5.29-.72-7.94,2.4-9.43,5.64-23.09,8.75-39.71,7.29-39.01,16.07-71.25,6.27-107.26-10.7-39.31-16.69-65.92-61.93-56.95-2.39.5-5.92,1.49-9.71,3.6-20.35,11.33-22.58,40.75-28.32,91.29-1.89,16.63-4.92,42.28-9.23,74.37-.29,7.9-.91,18.24-2.28,30.32-.87,7.68-1.49,11.09-2.99,22.46-2.22,16.8-3.33,25.21-3.65,30.72,0,0-1.41,23.89,10.96,47.89,14.74,28.59,116.13,28.25,243.44-17.26,0,0-17.85-33.12-8.99-61.36Z"/>
      <path class="cls-23" d="m1761.91,1055.61l-13.12,24.07s45.61,40.1,73.64,22.46l9.31-23.42s-20.16,12.27-69.83-23.1Z"/>
      <polygon class="cls-11" points="1588.45 1346.17 1872.11 1315.06 1919.14 1100.8 1635.72 1116.24 1588.45 1346.17"/>
      <path class="cls-32" d="m1597.17,1344.67l274.94-29.62,47.04-214.25-59.3,3.23s-15.29,192.53-262.67,240.64Z"/>
      <g class="cls-77">
        <path class="cls-60" d="m1402.33,1276.89c.52.05,4.85.44,7.5-2.56,2.75-3.12,2.61-8.66-1.02-12.66-.24-2.65-.48-5.29-.72-7.94,2.4-9.43,5.64-23.09,8.75-39.71,6.99-37.44,15.35-68.64,7.35-102.92-.36-.02-.72-.04-1.08-.04,0,0-.08,1.71-.25,4.76-4.94,87.04-11.56,126.06-27.8,137.19-1.43.98-6.84,4.42-14.4,10.11-6.57,4.95-11.74,9.31-15.12,12.27,7.58,1.55,9.62,3.89,10.08,5.73,1.24,4.92-10.3,8.06-14.44,20.63l-5,15.16s28.07-30.32,43.19-30.32,78.76-6.5,78.76-6.5c0,0-.11-1.61-.36-4.5-35.01,1.57-70.52,2.74-75.45,1.3Z"/>
      </g>
      <polygon class="cls-52" points="1512.12 1055.61 1518.76 1059.56 1525.08 1088.82 1528.68 1051.28 1515.25 1009.07 1512.12 1055.61"/>
      <path class="cls-23" d="m1550.77,1270.84l-29.98,1.64s-18.79,36.97,8.35,69.97l30.63-10.25s-18.33-36.49-8.99-61.36Z"/>
      <path class="cls-71" d="m1415.58,902.91c-.71-.65-8.44-7.56-17.07-5.02-3.87,1.14-6.74,3.86-8.15,6.13-6.29,10.1,2.24,30.92,16.23,38.24,1.87.47,3.84.89,5.9,1.26,6.17,1.1,11.84,1.42,16.82,1.34-1.92-8.12-4.39-16.86-7.6-26.07-1.96-5.62-4.02-10.92-6.12-15.88Z"/>
      <ellipse class="cls-63" cx="1463.37" cy="933" rx="19.24" ry="19.29"/>
      <path class="cls-63" d="m1553.42,890.03c-10.62,0-19.24,8.64-19.24,19.29s8.61,19.29,19.24,19.29c2.92,0,5.67-.67,8.15-1.84.82-10.89.54-22.77-.93-35.33-2.23-.91-4.67-1.42-7.22-1.42Z"/>
      <path class="cls-44" d="m1527.74,960.27c1.18-1.41,4.35-5.75,5.32-15.4l-35.62,7.34c10.58,14.04,23.53,16.18,30.3,8.06Z"/>
      <path class="cls-4" d="m1469.5,897.16c-3.61.46-5.85,6.23-5,12.87.85,6.65,4.47,11.66,8.08,11.19,3.61-.46,5.85-6.23,5-12.87s-4.47-11.66-8.08-11.19Z"/>
      <path class="cls-4" d="m1538.9,878.67c-3.8.49-6.15,6.55-5.26,13.54.89,6.99,4.7,12.26,8.5,11.77,3.8-.49,6.15-6.55,5.26-13.54-.9-6.99-4.7-12.26-8.5-11.77Z"/>
      <path class="cls-44" d="m1524.42,931.94c5.28.52,6.64-4.85,6.64-4.85l-17.23-24.55s5.31,28.88,10.59,29.39Z"/>
      <path class="cls-67" d="m1537.1,1310.44c-4.49,0-8.14,4.43-8.14,9.87s3.65,9.87,8.14,9.87,8.14-4.43,8.14-9.87-3.65-9.87-8.14-9.87Zm0,16.74c-2.83,0-5.14-3.08-5.14-6.87s2.31-6.87,5.14-6.87,5.14,3.08,5.14,6.87-2.31,6.87-5.14,6.87Z"/>
      <path class="cls-33" d="m1790.27,1143.92c-7.32,0-13.25,5.95-13.25,13.29s5.93,13.29,13.25,13.29,13.25-5.95,13.25-13.29-5.93-13.29-13.25-13.29Z"/>
      <path class="cls-59" d="m1404,927.62c2.4,4.56,16.26,5.37,16.26,5.37l-9.13-23.68c-10.87-3.42-9.53,13.74-7.13,18.3Z"/>
      <path class="cls-33" d="m1535.69,1145.74l-23.91,41.93.19.62c.07.22,6.7,21.79,4.5,32.11l-.26,1.22c-2.3,10.78-5.44,25.54-4.3,35.85,1.11,10.08.03,16.39.01,16.45l2.95.53c.05-.27,1.18-6.76.01-17.31-1.09-9.83,2-24.32,4.25-34.9l.26-1.22c2.16-10.17-3.26-29.22-4.38-32.99l23.27-40.8-2.61-1.49Z"/>
      <circle class="cls-33" cx="1530.46" cy="1191.09" r="4.75"/>
      <circle class="cls-33" cx="1415.45" cy="945.57" r="9.57"/>
      <circle class="cls-33" cx="1535.21" cy="1230.93" r="4.75"/>
      <circle class="cls-33" cx="1535.21" cy="1262.34" r="4.75"/>
    </g>
    <path class="cls-4" d="m1524.94,862.07l.28,2.99c.15-.01,14.85-1.32,21.49,4.34l1.95-2.28c-7.59-6.47-23.06-5.11-23.71-5.04Z"/>
  </g>
  <g>
    <g class="cls-81">
      <ellipse class="cls-50" cx="2730.81" cy="2173.13" rx="467.09" ry="110.88"/>
    </g>
    <ellipse class="cls-65" cx="2993.95" cy="2172.41" rx="203.95" ry="53.79"/>
    <path class="cls-37" d="m2933.91,1807.33l36.74,367.57c26.8,20.79,54.46-4.1,54.46-4.1l9.87-356.04c-40.82-151.31-101.07-7.44-101.07-7.44Z"/>
    <path class="cls-55" d="m3132.5,1046.01c-297.2,278.23-366.05,716.33-366.05,716.33,519.98,228.12,585.51-266.8,581.19-497.56-4.32-230.76-215.13-218.77-215.13-218.77Z"/>
    <path class="cls-25" d="m2408.55,2091.63l-62.85,22.9s-41.26,14.87-50.51,14.16c-9.25-.71-18.5,12.04-17.07,32.57,1.42,20.53,83.95,15.58,83.95,15.58,0,0,27.04-12.04,43.4-9.21,16.36,2.83,21.34,9.73,21.34,9.73,0,0,22.06,1.94,25.61,0,3.56-1.94,22.77-72.75,22.77-72.75,0,0-44.34-38.01-66.64-12.99Z"/>
    <path class="cls-68" d="m2594.25,2029.48c-4.46,12.32-10.76,26.8-19.75,42.22-9.76,16.74-20.13,30.21-29.3,40.63-1.59,1.24-12.79,10.28-12.48,24.08.3,13.21,10.92,21.6,14.78,24.1,17.38,11.24,49.29.96,78.82-25.99.59-3.54,1.95-8.76,5.4-14.08,4.77-7.35,11.09-11.11,16.2-14.08,7.43-4.32,9.47-3.6,14.76-6.56,5.19-2.91,12.01-8.52,17.63-20.52-8.57-34.29-17.14-68.59-25.71-102.88,0,0-60.04,4.37-60.36,53.09Z"/>
    <path class="cls-10" d="m2365.63,1195.95s-4.79,10.44,0,24.52c4.79,14.08,55.55,180.8,55.55,180.8l281.83,28.21,115.54-92.86,6.48-11.78-222.44,27.22-236.95-156.12Z"/>
    <path class="cls-10" d="m2858.13,1505.68c-75.79,7.08-137.19,15.36-179.91,21.74-66.71,9.96-161.02,26.22-161.02,26.21,0,0-7.68,17.78-7.83,18.14-3.89,9.09,7.3,100.74,72.19,457.69,11.25-.23,24.11-1.2,38.17-3.52,17.15-2.83,32.08-7.01,44.45-11.31-2.32-49.83-4.85-99.65-7.6-149.45-3.54-64.03-7.45-128.05-11.72-192.05,0,0,315.41,43.71,349.1,5.78,33.69-37.93,129.67-192.87-135.82-173.25Z"/>
    <path class="cls-7" d="m2824.63,1567.2s-265.26,110.56-284.7,128.54c-19.44,17.98-135.55,395.62-135.55,395.62,0,0,45.23,25.98,71.7,13.99,0,0,129.56-227.78,159.7-325.69,0,0,363.49-32.32,430.72-129.26,67.23-96.94-134.95-175.78-241.87-83.21Z"/>
    <path class="cls-10" d="m2586.02,1728.74s44.82,46.28,36.09,88.49l13.66-37.57s-15.2-25.64-25.28-38.64c-10.08-13-24.48-12.28-24.48-12.28Z"/>
    <g>
      <path class="cls-71" d="m2553.97,1061.99s.43.72,2.16,3.23c-1.24-1.98-2.14-3.25-2.16-3.23Z"/>
      <path class="cls-71" d="m2578.06,1072.07s-13.52-22.99-14.11-24.76c-.71-2.13-2.56-6.28-5.27-6.47-2.38-.17-4.74,2.81-5.71,5.29-.93,2.38-.72,4.65,0,7.86.8,3.55,2.32,8.65,5.45,14.56-.95-1.36-1.7-2.45-2.31-3.33,3.36,5.34,9.29,15.89,7.83,20.4-.71,2.19-2.21,3.34-2.21,3.34-.27.21-1.36,1-3.91,1.31,0,0-3.14.37-6.23-.52-4.01-1.16-10.01-6.1-15.28-14.15l-22.34-28.3c-1.32-1.57-2.65-3.14-3.97-4.72-1.42-.39-2.84-.79-4.26-1.18-2.35.29-4.7.59-7.05.88-2.16,1.08-4.31,2.16-6.47,3.24,0,0-3.53,0-5.88,16.45-2.35,16.45,0,24.22,0,24.22l22.34,44.8,62.47,17.29c48.37,5.5,37.45-37.33,37.45-37.33l-30.56-38.91Z"/>
    </g>
    <path class="cls-33" d="m2550.54,1163.5s36.89,30.11,50.06,32.76,54.01-72.67,54.01-72.67l-44.79-40.96c-19.76,48.89-59.28,80.87-59.28,80.87Z"/>
    <path class="cls-3" d="m2921.71,1058.85s-44.46,38.49-80.03,83.33c-35.57,44.84-52.7,38.89-52.7,38.89,0,0-11.86,7.27-12.52,13.87-.66,6.61-17.78-6.61-17.78-6.61l-110.66-89.67s-64.55,103.94-89.58,98.13c14.05,6.23,28.58,13.07,43.47,20.61,19.78,10.01,38.22,20.23,55.33,30.39,18.66,11.73,45.66,28.31,78.97,47.35,40.45,23.12,45.29,24.19,50.13,24.65,49.84,4.7,123.83-85.22,123.83-85.22,0,0,84.97-155.91,11.53-175.73Z"/>
    <path class="cls-46" d="m2915.27,1036.36l-7.11,66.8c3.24,22.4,11.16,6.84,11.16,6.84l63.35-82.62-10.22-50.62-57.17,59.6Z"/>
    <path class="cls-71" d="m2946.67,967.05l16.56,99.63c42.71-.48,107.02-57.28,107.02-57.28l-23.52-81.34c-158.85-89.05-100.06,38.99-100.06,38.99Z"/>
    <path class="cls-59" d="m2946.67,967.05c1.73,10.39,3.45,20.79,5.18,31.18,16.15-4.7,42.52-14.84,67.4-37.61,12.29-11.25,21.17-22.79,27.48-32.56-80.5-39.78-100.06,38.99-100.06,38.99Z"/>
    <path class="cls-71" d="m2908.52,791.61s-10.08,17.33-12.24,39.71c-2.16,22.38-7.92,41.15-16.56,41.15l-21.6,7.94s1.44,12.27,15.12,15.16c0,0,.72,48.37,2.16,63.54,1.82,19.19,46.34,16.47,71.27,7.94,14.72-5.03,25.43-13.01,46.09-28.39,12.28-9.14,21.9-17.47,28.44-23.42,59.11-48.24,76.79-114.06,57.21-142.4-21.16-30.63-99.54-37.35-169.89,18.77Z"/>
    <path class="cls-59" d="m2962.43,735.29c-9,6.9-19.11,15.79-29.18,27.07-15.96,17.87-26.36,35.61-33.1,49.57,12.48,3.57,26.37,5.78,41.4,5.43,76.31-1.78,125.89-68.19,135.33-81.34-8.79,1.68-17.58,3.37-26.37,5.05l-88.09-5.78Z"/>
    <ellipse class="cls-63" cx="2945.41" cy="877.45" rx="24.99" ry="25.06"/>
    <path class="cls-10" d="m2836.55,1595.19s25.77,41.08,81.92,51.98c0,0,21.26,48.43,52.38,64.32l23.33-9.65-60.28-106.64h-97.36Z"/>
    <path class="cls-4" d="m3118.72,760.37l-16.56-39.71c-10.63-11.34-27-12.69-59.75-15.4-27.2-2.25-26.59,1.53-38.39-2.41-7.66-2.55-30.39-11.64-46.55-27.68-1.33-1.32-6-6.04-13.52-8.96-3.57-1.38-11.9-4.61-18.64-.43-3.49,2.16-5.05,5.38-5.53,6.41-4.94,10.53,4.13,22.62,4.57,23.19-7.51,1.41-15.03,2.82-22.54,4.23-3.6.73-8.6,1.63-14.63,2.31-11.45,1.3-16.1.64-19.94,4.29-3.46,3.28-3.99,7.89-4.26,10.17-1.48,12.76,9.44,22.44,10.98,23.76,0,0-18,3.61-28.07,18.05-10.08,14.44,20.16,23.83,20.16,23.83,5.59,24.53,45.08,3.61,47.4,2.36-2.23,1.22-37.32,20.88,7.31,25.07,46.07,4.33,97.9-36.1,97.9-36.1-6.45,16.45-9.35,33.65-10.05,50.29,0,0-24.75,57.67-50.18,64.22-25.44,6.55-58.07-.19-85.18,12.56l1.97,61.31s-.56,22.39,41.57,19.65c4.97-1,12.6-2.82,21.48-6.28,10.86-4.23,23.44-10.83,62.4-42.72,5.15-4.21,12.2-10.05,20.54-17.16,8.51,5.9,17.02,11.79,25.53,17.69,0-10.11,61.19-62.81,82.78-90.97,21.6-28.16,12.96-51.26,12.24-62.09-.72-10.83-23.04-19.49-23.04-19.49Z"/>
    <path class="cls-33" d="m2923.24,1086.9c-30.43,51.22-41.72,94.93-46.55,124.18-14.01,84.8,10.41,143.75-14.96,231.4-8.06,27.86-21.05,58.25-47.58,67.6-9.1,3.21-17.53,3.14-23.29,2.56,2.85,14.02,10.42,41.52,32.41,68.28,21.6,26.29,45.88,38.49,53.42,41.69,44.21,18.77,81.72-2.89,115.88,10.11,34.16,13,110.52,14.44,110.52,14.44,0,0,114.54-844.73-179.84-560.27Z"/>
    <path class="cls-4" d="m3112.96,687.64c-10.08,5.78-7.92,25.99,5.76,67.87,0,0-5.04-36.1,5.04-49.82,10.08-13.72-.72-23.83-10.8-18.05Z"/>
    <polygon class="cls-25" points="2914.78 1103.24 2908.16 1130.41 2938.57 1117.05 2983.96 1081.68 2993.95 1046.11 2972.44 1027.38 2914.78 1103.24"/>
    <path class="cls-63" d="m2915.27,1585.16c1.71,104.77,88.99,126.99,136.5,143.58,47.51,16.6,118.78-14.43,118.78-40.42s-26.49-121.29-26.49-121.29c0,0,20.01-13,13.53-32.84-6.48-19.84,34.55-235.74,34.55-332.91s-86.5-188.61-86.5-188.61c-250.63,54.28-192.09,467.72-190.38,572.49Z"/>
    <path class="cls-36" d="m3105.65,1012.67c-4.21-2.3-191.89,33.67-195.23,322.53l92.72-144.33-20.48-7.22,149.84-137.63s-22.65-31.04-26.85-33.34Z"/>
    <path class="cls-25" d="m2897,1151.88s-65.51,270.03-78.47,300.35c-12.96,30.32-32.39,88.11-58.31,81.96l-10.8,41.5h73.79s87.98-186.56,100.42-418.03c0,0,2.16-61.37-26.63-5.78Z"/>
    <polygon class="cls-70" points="2426.51 1396.31 2706.93 1419 2825.01 1324.85 2644.85 1315.13 2426.51 1396.31"/>
    <path class="cls-12" d="m2467.31,1388.73c47.52,4.32,95.04,8.64,142.56,12.96,47.76-24.48,95.52-48.96,143.28-73.44-34.8-1.92-69.6-3.84-104.4-5.76-60.48,22.08-120.96,44.16-181.44,66.24Z"/>
    <polygon class="cls-23" points="2365.63 1195.95 2426.51 1396.31 2644.85 1315.13 2583.09 1161.05 2365.63 1195.95"/>
    <g class="cls-75">
      <polygon class="cls-33" points="2401.11 1312.72 2413.09 1352.14 2480.97 1177.44 2453.28 1181.88 2401.11 1312.72"/>
    </g>
    <path class="cls-71" d="m2735.77,1394.25s-49.12-32.91-59.36-31.22c-10.24,1.69-33.29,7.81-33.29,7.81,0,0,6.76,15.7,21.31,9.92,14.54-5.77,25.02,7.07,25.02,7.07l-25.02,23.11h-46.27l-25.19-6.42s-1.16,24.79,12.98,32.94c14.13,8.15,73.03,13.01,73.03,13.01l63.29-6.51s29.83-38.16-6.49-49.72Z"/>
    <g class="cls-75">
      <polygon class="cls-33" points="2441.04 1390.9 2508 1366.01 2567.79 1163.5 2522.19 1170.82 2441.04 1390.9"/>
    </g>
    <g class="cls-75">
      <polygon class="cls-33" points="2550.54 1350.19 2606.02 1329.56 2621.66 1257.28 2594.25 1188.91 2550.54 1350.19"/>
    </g>
    <path class="cls-71" d="m3058.78,843.47c-17.42-9.44-36.34,1.59-37.59,2.34-19.02,26.59-23.31,52.57-12.91,63.51,2.11,2.22,5.88,4.93,12.92,5.92,1.93-.28,4.79-.76,8.19-1.58,9.29-2.26,25.91-6.3,36.77-20.25,2.52-3.24,7.26-9.48,8.4-18.89.96-7.92-1.09-14.31-2.42-17.6-1.97-3.5-6.04-9.48-13.37-13.45Z"/>
    <path class="cls-33" d="m3060.05,950.36c-15.12.96-100.18,59.62-101.39,62.7s-43.39,91.35-43.39,91.35c24.04-36.93,38.55-42.82,47.43-40.89,0,0,4.59,1,27.88,24.82.24-.25,25.68-28.29,38.15-39.71,15-13.73,40.12-29.87,83.71-37.22,0,0-37.28-62.01-52.39-61.06Z"/>
    <path class="cls-4" d="m2914.78,1103.24c-10.18.82-16.07,8.04-17.06,9.29-1.21,6.02-2.19,13.47-2.16,22.02.02,6.52.63,12.36,1.44,17.33,15.84-4.33,26.63,5.78,26.63,5.78l19.44-33.21-7.04-11.55c-.59-.77-8.52-10.68-21.26-9.65Z"/>
    <path class="cls-33" d="m2737.19,1380.03c4.32,24.55-17.28,77.98-17.28,77.98l46.68,8.74c81.24-28.8,31.06-86.71,31.06-86.71h-60.47Z"/>
    <path class="cls-9" d="m2910.42,1491.97s19.57,5.8,92.72-25.23c73.15-31.04,143.05-225.25,143.05-225.25l-238.04,229.69,2.26,20.79Z"/>
    <path class="cls-5" d="m3144.63,1084.01c-10.09-5.76-22.6-3.4-32.39,0-33.83,28.61-54.57,56.11-66.94,75.09-40.78,62.56-62.63,142.94-62.64,142.95l-30.68,14.34-2.43,21.37s-11.66,23.85-25.88,19.13c-14.22-4.71-121.69,17.09-144.73,16.14,0,0,9.75,90.02-23.92,103.01,0,0,225.37,2.17,247.02-25.99,69.14-89.92,126.58-151.5,142.02-201.44,14.7-47.58,34.76-145.11.57-164.61Z"/>
    <path class="cls-25" d="m2742.13,1435.84c-4.03,0-7.3,3.28-7.3,7.32s3.27,7.32,7.3,7.32,7.3-3.28,7.3-7.32-3.27-7.32-7.3-7.32Z"/>
    <path class="cls-44" d="m2945.41,915.24l-49.85,5.24c15.84,48.01,49.85-5.24,49.85-5.24Z"/>
    <ellipse class="cls-67" cx="2924.48" cy="847.72" rx="6.52" ry="10.94"/>
    <path class="cls-4" d="m2920.29,818.76l.4,2.97c.14-.02,13.86-1.71,23.75,6.87l1.97-2.27c-10.93-9.48-25.49-7.66-26.11-7.57Z"/>
    <path class="cls-59" d="m3040.9,858.66l-16.2,35.47s44.99-14.26,16.2-35.47Z"/>
    <path class="cls-9" d="m3134.01,1529.35c3.73,8.66-47.02,36.82-47.02,36.82,0,0,32.43,2.23,45.5,0,13.07-2.23,32.45,77.91,32.45,77.91,0,0,.09-.62.25-1.79-7.85-35.95-19.63-78.35-19.63-78.35,0,0,20.01-13,13.53-32.84-3.7-11.33,8.1-86.63,18.9-167.24,0,0,0,0,0,0,0,0-47.72,156.82-43.99,165.49Z"/>
    <path class="cls-20" d="m3023.64,1292.08c-11.21.11-20.47,2.13-26.94,4.02-4.68,1.98-9.36,3.97-14.03,5.95l-30.68,14.34s7.41,33.39-32.66,39.88c0,0,47.99,3.56,63.35,34.63l15.35,31.07c-2.49-12.81-5.45-23.4-7.94-31.28-8.77-27.76-16.03-35.68-19.77-39.24-4.6-4.37-9.15-7.16-12.37-8.86.98-2.98,2.53-6.9,5.05-11.17,0,0,3.71-6.3,9.11-11.67,9.06-9.02,34.02-19.7,70.68-18.35,18.98.7,28.95,4.18,29.27,2.89.49-1.96-21.99-12.46-48.4-12.2Z"/>
    <g>
      <path class="cls-20" d="m2804.74,1264.79s-3.25-2.04-8.02-6.12c2.39,2.58,5.05,4.68,8.02,6.12Z"/>
      <path class="cls-20" d="m2758.68,1188.33c4.14,36.66,25.97,60.02,38.03,70.33-17.58-18.95-20.25-63.73-20.25-63.73l-17.78-6.61Z"/>
    </g>
    <path class="cls-44" d="m2873.24,895.57l12.24-26.21-27.36,11.04c1.88,13.67,15.12,15.16,15.12,15.16Z"/>
    <path class="cls-33" d="m2601.46,1721.54l-1.63,2.52c.24.16,24.52,16.29,34.49,55.97l2.91-.73c-10.26-40.82-34.73-57.09-35.77-57.76Z"/>
    <path class="cls-33" d="m2634.32,1738.31c4.51,17.63,8.67,37.31,7.84,39.73.06-.16.36-.54.89-.59l.29,2.99c.54-.05,1.02-.34,1.34-.8,2.1-3-3.77-27.65-7.46-42.07l-2.91.74Z"/>
    <g>
      <rect class="cls-33" x="2527.22" y="1943.64" width="12.02" height="3" transform="translate(-314 3392.24) rotate(-64.46)"/>
      <rect class="cls-33" x="2558.16" y="1878.5" width="12.02" height="3" transform="translate(-232.57 3392.5) rotate(-64.65)"/>
      <rect class="cls-33" x="2537.56" y="1921.93" width="12.03" height="3" transform="translate(-286.39 3393.35) rotate(-64.54)"/>
      <rect class="cls-33" x="2547.87" y="1900.23" width="12.02" height="3" transform="translate(-259.19 3393.55) rotate(-64.61)"/>
      <rect class="cls-33" x="2588.93" y="1813.23" width="12.03" height="3" transform="translate(-151.4 3390.98) rotate(-64.82)"/>
      <rect class="cls-33" x="2568.44" y="1856.76" width="12.02" height="3" transform="translate(-205.15 3392.78) rotate(-64.72)"/>
      <rect class="cls-33" x="2599.16" y="1791.43" width="12.04" height="3" transform="translate(-125.09 3388.92) rotate(-64.85)"/>
      <rect class="cls-33" x="2578.69" y="1835" width="12.03" height="3" transform="translate(-178.13 3392.19) rotate(-64.78)"/>
      <path class="cls-33" d="m2465.92,2079.57l2.67,1.37c1.72-3.36,3.54-6.95,5.46-10.75l-2.68-1.35c-1.92,3.8-3.74,7.38-5.45,10.73Z"/>
      <path class="cls-33" d="m2454.64,2100.83l2.61,1.47c1.61-2.85,3.55-6.43,5.78-10.65l-2.65-1.4c-2.21,4.19-4.14,7.75-5.74,10.58Z"/>
      <path class="cls-33" d="m2476.77,2058.08l2.69,1.34c1.73-3.47,3.51-7.07,5.35-10.79l-2.69-1.33c-1.84,3.71-3.62,7.31-5.35,10.78Z"/>
      <path class="cls-33" d="m2518.9,1971.6l2.71,1.3c1.72-3.59,3.46-7.21,5.2-10.84l-2.71-1.3c-1.74,3.63-3.47,7.25-5.2,10.84Z"/>
      <path class="cls-33" d="m2508.47,1993.26l2.7,1.3c1.73-3.57,3.47-7.19,5.22-10.83l-2.7-1.3c-1.75,3.64-3.5,7.26-5.22,10.83Z"/>
      <path class="cls-33" d="m2497.99,2014.91l2.7,1.31c1.73-3.55,3.48-7.16,5.25-10.82l-2.7-1.31c-1.77,3.66-3.52,7.27-5.25,10.82Z"/>
      <path class="cls-33" d="m2487.43,2036.52l2.69,1.32c1.73-3.52,3.49-7.13,5.29-10.81l-2.7-1.32c-1.8,3.68-3.56,7.28-5.29,10.8Z"/>
      <rect class="cls-33" x="2609.37" y="1769.6" width="12.07" height="3" transform="translate(-97.58 3388.78) rotate(-64.91)"/>
      <path class="cls-33" d="m2861.81,1658.02l2.99-.22c-.28-3.75-.5-7.77-.67-11.94l-3,.12c.17,4.21.39,8.26.67,12.04Z"/>
      <path class="cls-33" d="m2807.65,1710.73l.99,2.83c3.92-1.38,7.7-2.73,11.34-4.05l-1.02-2.82c-3.63,1.32-7.4,2.67-11.31,4.04Z"/>
      <path class="cls-33" d="m2624.75,1749.73l-.99-.03-2.03,4.36,2.72,1.27,1.2-2.57c2.38.07,4.85.1,7.33.08l-.02-3c-2.79.02-5.56-.01-8.2-.11Z"/>
      <path class="cls-33" d="m2830.22,1702.53l1.05,2.81c4.02-1.5,7.78-2.94,11.25-4.28l-1.08-2.8c-3.47,1.34-7.22,2.77-11.23,4.27Z"/>
      <path class="cls-33" d="m2862.99,1670.05c.56,4.49,1.24,8.52,2,11.98l2.93-.65c-.75-3.37-1.4-7.31-1.96-11.7l-2.98.37Z"/>
      <path class="cls-33" d="m2852.63,1693.87l1.11,2.79c4.98-1.99,8.82-3.57,11.17-4.55l-1.15-2.77c-2.34.97-6.17,2.55-11.14,4.53Z"/>
      <path class="cls-33" d="m2784.92,1718.45l.93,2.85c3.89-1.27,7.7-2.55,11.42-3.81l-.96-2.84c-3.71,1.26-7.51,2.53-11.39,3.8Z"/>
      <path class="cls-33" d="m2863.84,1633.89c-.02-2.03-.03-3.87-.03-5.46,0-3.99.06-6.47.06-6.5l-3-.07s-.06,2.54-.06,6.57c0,1.6,0,3.45.03,5.49l3-.04Z"/>
      <path class="cls-33" d="m2762.02,1725.65l.87,2.87c3.77-1.13,7.64-2.33,11.5-3.54l-.9-2.86c-3.85,1.21-7.71,2.4-11.47,3.53Z"/>
      <path class="cls-33" d="m2668.66,1747.07l.4,2.97c3.87-.52,7.88-1.13,11.92-1.8l-.49-2.96c-4.02.67-8,1.27-11.84,1.79Z"/>
      <path class="cls-33" d="m2644.87,1749.43l.18,2.99c3.87-.23,7.92-.55,12.04-.97l-.3-2.98c-4.08.41-8.08.73-11.91.96Z"/>
      <path class="cls-33" d="m2692.28,1743.17l.56,2.95c3.84-.74,7.81-1.54,11.81-2.4l-.63-2.93c-3.98.85-7.93,1.66-11.74,2.39Z"/>
      <path class="cls-33" d="m2715.72,1738.15l.69,2.92c3.82-.9,7.76-1.86,11.71-2.87l-.74-2.91c-3.93,1-7.85,1.96-11.65,2.85Z"/>
      <path class="cls-33" d="m2738.96,1732.26l.79,2.9c3.79-1.03,7.69-2.11,11.6-3.23l-.83-2.88c-3.89,1.12-7.78,2.2-11.55,3.22Z"/>
    </g>
    <polygon class="cls-10" points="2365.63 1195.95 2370.16 1210.87 2587.49 1172.02 2583.09 1161.05 2365.63 1195.95"/>
    <path class="cls-33" d="m2489.19,1179.93c-2.14,0-3.87,1.73-3.87,3.87s1.73,3.87,3.87,3.87,3.87-1.73,3.87-3.87-1.73-3.87-3.87-3.87Z"/>
  </g>
  <g>
    <g class="cls-81">
      <ellipse class="cls-50" cx="1105.25" cy="2211.73" rx="386.48" ry="110.15"/>
    </g>
    <ellipse class="cls-65" cx="963.77" cy="2189.89" rx="203.95" ry="58.13"/>
    <path class="cls-37" d="m903.73,1795.37l36.74,397.21c26.8,22.47,54.46-4.43,54.46-4.43l9.87-384.74c-40.82-163.51-101.07-8.04-101.07-8.04Z"/>
    <path class="cls-55" d="m828.77,1124.3s-150.25,14.07-170.4,188.2c-20.16,174.13,60.99,665.57,527.2,419.85,0,0-192.15-612.29-356.8-608.06Z"/>
    <path class="cls-8" d="m1352.71,2122.78c-11.35-7.65-24.55-22.22-31.88-52.72-1.31-5.48-4.22-13.02-10.89-18.5-12.83-10.53-34.79-9.53-53.53,3.84-7.15,29.41-14.3,58.82-21.45,88.23,0,0,16.62,11.8,25.91,6.34,5.1-2.99,6.16-2.87,9.74-2.28,7.83,1.29,10.22,11.77,15.68,19.22,5.81,7.93,16.65,10.79,38.33,16.51,18.84,4.97,40.12,10.33,65.51,4.12,5.11-1.25,9.2-2.68,11.86-3.69,3.26-10.48,5.7-24.74-1.25-35.92-9.53-15.33-28.91-12.27-48.04-25.16Z"/>
    <path class="cls-64" d="m1421.6,2180.45c-11.35-7.65-24.55-22.22-31.88-52.72-1.31-5.48-4.22-13.02-10.89-18.5-12.83-10.53-34.79-9.53-53.53,3.84-7.15,29.41-14.3,58.82-21.45,88.23,0,0,16.62,11.8,25.91,6.34,5.1-2.99,6.16-2.87,9.74-2.28,7.83,1.29,10.22,11.77,15.68,19.22,5.81,7.93,16.65,10.79,38.33,16.51,18.84,4.97,40.12,10.33,65.51,4.12,5.11-1.25,9.2-2.68,11.86-3.69,3.26-10.48,5.7-24.74-1.25-35.92-9.53-15.33-28.91-12.27-48.04-25.16Z"/>
    <path class="cls-34" d="m1424.3,1556.79c-7.21-6.06-15.68-9.67-47.59-16.72-69.04-15.26-128.77-20.34-174.21-21.66-8.19-2.54-75.18-22.06-135.33,20.22-46.3,32.54-70.9,89.27-64.24,147.29l300.92-47.65c-64.29,89.53-63.84,414.42-63.84,414.42,10.08,33.21,73.43,25.51,73.43,25.51l67.67-229.11c18.8-41.2,106.6-239.01,43.19-292.29Z"/>
    <path class="cls-71" d="m860.4,977.63c2,2.7,4.1,5.44,6.31,8.22,2.71,3.41,5.41,6.65,8.07,9.72-5.79,31.41-11.57,62.83-17.36,94.24l96.88,13.45,9.28-41.83s5.85-26.95,20.16-44.87c-21.41-2.52-43.92-7.41-66.7-14.85-20.38-6.66-39.41-14.83-56.64-24.07Z"/>
    <path class="cls-59" d="m960.05,1077.33l9.2-34.18,10.35-20.82-104.82-26.76s33.83,69.55,85.27,81.77Z"/>
    <path class="cls-63" d="m1223.82,1542.96s-500.34-120.25-307.58,134.81c0,0,159.64,54.35,354.01,60.13,0,0,32.69,343.67,35.06,395.65,0,0,40.53,18.05,93.8,0,0,0,43.91-394.61,35.27-455.78-8.64-61.17-210.55-134.81-210.55-134.81Z"/>
    <path class="cls-59" d="m916.24,1677.77l66.02,18.84c-31.87-16.41-13.49-38.67,22.13-58.11,35.62-19.44,191.63-101.6,191.63-101.6l-13.03-2.58c-135.69-18.86-266.75,143.45-266.75,143.45Z"/>
    <path class="cls-23" d="m1146.43,1499.64c-21.69-10.86-34.12-25.04-37.43-28.88-17.93-20.77-24.01-51.11-24.48-53.43-9.04-44.59-20.47-88.67-30.44-133.07-4.62-20.59-5.81-24.74-6.48-27-4.48-15.17-15.19-46.6-39.62-81.14-13.07-18.48-24.33-33.93-45.29-47.37-6.87-4.41-14.41-8.3-22.76-11.57-49.28-19.27-96.81.47-111.17,7.11,0,0-63.86,93.99-42.27,199.28,21.6,105.3,59.03,282.3,59.03,282.3,7.26,13.36,19.27,31.59,38.49,48.83,11.4,10.23,22.63,17.67,32.22,23.05,47.86-30.69,100.57-61.61,158.21-91.49,31.42-16.29,62.17-31.17,92.07-44.76,30.85-12.41,36.68-19.19,35.99-23.1-1.29-7.34-25.24-3.34-56.07-18.77Z"/>
    <path class="cls-25" d="m1031.18,807.25c-5.56-3.65-11.15-5.32-22.32-8.66-18.46-5.53-34.41-7.13-45.35-7.57-45.07-21.61-97.5-16.84-134.61,12.63-37.02,29.4-56.84,81.84-43.45,121.45,5.52,16.31,17.67,36.62,34.23,49.89,15.34,12.3,58.32,45.48,58.32,45.48l4.24-30.38,17.71-31.09c66.1,15.78,101.51-75.51,101.51-75.51,9.44,23.29,29.22,23.5,29.22,23.5,15.3-8.19,21.51-18.98,23.76-23.6,13.22-27.09-1.9-62.13-23.25-76.13Z"/>
    <path class="cls-72" d="m870.95,966.58s-40.77,17.33-87.84-50.07c0,0,4.87,33.87,43.92,64.3,39.06,30.43,50.96,39.64,50.96,39.64l2.91-20.8s17.8-32.91-9.94-33.07Z"/>
    <path class="cls-71" d="m1031.63,956.23c-8.8-18.03,2.91-46.69-3.91-49.59-1.04-.44-2.86-.44-6.45-1.92-2.38-.99-4.21-2.08-5.4-2.86-2.27-1.55-5.22-3.9-8.04-7.33-3.41-4.13-5.32-8.2-6.39-11.05-2.91,9.62-10.87,31.24-31.59,50.09-22.01,20.03-45.88,25.53-55.71,27.24-9.28-15.51-20.79-23.86-29.11-21.44-3.96,1.15-6.18,4.47-8.05,7.35-12.45,19.12-3.87,51.95,9.55,56.9,2.01.74,4.72,1.07,8.91,3.3,5.74,3.05,9.15,6.95,10.95,8.98,5.87,6.65,14.62,16.24,25.44,28.4,10.58,4.72,21.17,9.43,31.75,14.15,7,1.88,17.2,4.04,29.68,4.62,15.51.72,23.27,1.08,29.75-3.37,11.3-7.76,13.2-24.62,14.88-39.47.86-7.63,1.58-22.24,1.58-22.24,22.6-5.4,14.53-24.39,14.53-24.39-13.73-4.9-19.61-11.72-22.37-17.37Z"/>
    <path class="cls-59" d="m999.95,881.05s-30.35,78.21-87.29,77.32h0c41.71,20,89.67-57.17,89.67-57.17,2.52,7.58,26.11,11.23,26.11,11.23l.99-8.03c-.09.05-.17.1-.25.14,0,0-19.78-.21-29.22-23.5Z"/>
    <path class="cls-43" d="m1282.62,1432.1l139.71,5.48,107.25-75.55v-11.35c-45.34,4.03-90.68,8.06-136.01,12.1-36.98,23.11-73.96,46.21-110.95,69.32Z"/>
    <path class="cls-61" d="m1420.27,1419.85l-137.65,12.25s-8.27-1.42,8.94,12.66l130.78-7.18c35.75-25.18,71.5-50.36,107.25-75.55l37.85-192.07-110.73,64.69-36.42,185.18Z"/>
    <path class="cls-71" d="m1395.28,1393.36c-13.64-13.13-50.6-28.75-50.6-28.75l-75.03,12.24c-100.85,30.29,2,55.24,2,55.24l140.76-15.49s-3.49-10.11-17.13-23.24Z"/>
    <path class="cls-23" d="m1283.2,1364.62s-51.12,7.11-89.98,10.84c-77.87,7.46-117.28,10.79-140.37-8.66-1.72-1.45.16-.02-32.39-48.73-23.6-35.33-29.5-43.42-38.87-60.65-14.01-25.75-10.75-25.89-20.52-41.15-12.33-19.28-26.76-42.51-53.36-53.51-32.61-13.49-64.91-1.13-75.22,3.33-9.85,21.98-26.12,66.63-20.44,123.21,3.2,31.92,12.39,57.59,20.52,75.33,0,0,178.53,133.57,229.49,142.66,50.96,9.08,190.98-46.63,190.98-46.63,0,0,7.13,5.78,15.76,5.78s22.74-21.66,22.74-21.66c-26.21-24.55-8.35-80.15-8.35-80.15Z"/>
    <ellipse class="cls-63" cx="979.6" cy="964.99" rx="24.86" ry="24.93"/>
    <path class="cls-25" d="m995.36,931.14c-3.61.46-6,4.96-5.35,10.04s4.1,8.83,7.71,8.36c3.61-.46,6-4.96,5.35-10.04-.65-5.08-4.1-8.83-7.71-8.36Z"/>
    <path class="cls-39" d="m1250.01,1406.5s-59.75,79.67-144.69,90.01c-15.77-1.29-32.21-3.58-49.18-7.15-115.04-24.24-194.79-95.09-239.66-144.62,20.09,31.35,64.89,91.34,144.72,130.68,40.54,19.98,78.26,28.79,106.68,32.85,14.25-.77,29.34-2.26,45.12-4.73,57.35-8.97,104.68-27.84,140.6-46.51,0,0-10.32-27.25-3.6-50.54Z"/>
    <path class="cls-44" d="m1031.63,956.23l7.84,41.76s21.52-4.6,14.53-24.39c0,0-11.48-3.41-22.37-17.37Z"/>
    <path class="cls-44" d="m1031.63,1013.74l-47.89-7.1s32.87,45,47.89,7.1Z"/>
    <path class="cls-59" d="m898,985.88v-29.65c-30.23,3.14,0,29.65,0,29.65Z"/>
    <path class="cls-39" d="m985.68,1223.78c-24.42-34.55-41.96-59.37-74.16-68.4-32.94-9.23-63.62,3-79.03,10.69,9.61-4.63,30.53-12.98,55.79-8.6,10.71,1.85,26.06,6.67,47.94,25.12,29.26,24.68,41.69,49.69,69.01,99.54,9.95,18.15,26.25,47.59,47.62,84.66,3.15,2.06,7.65,4.79,13.32,7.51,6.63,3.18,9.94,4.78,10.77,3.97,2.79-2.72-17.37-27.36-25.02-37.13-38.95-49.69-30.31-66.53-66.24-117.36Z"/>
    <path class="cls-64" d="m828.77,1064.93c-20.18,30.5,0,59.38,0,59.38,90.42-8.91,179.22,51.82,179.22,51.82l-12.92-29.96c-25.03-81.78-166.3-81.24-166.3-81.24Z"/>
    <path class="cls-33" d="m992,1372.78l.6,2.94c49.36-10.03,68.03-2.4,68.21-2.32l.59-1.38-.6,1.38.6-1.38.6-1.38c-.77-.34-19.5-8.13-70,2.13Z"/>
    <path class="cls-33" d="m1027.22,1383.73c-32.19,7.13-53.8,16.36-64.24,27.45l2.18,2.06c23.98-25.48,106.67-33.83,107.5-33.91l-.29-2.99c-.21.02-21.32,2.11-45.16,7.39Z"/>
    <path class="cls-33" d="m1252.16,1378.1c-.11.4-10.39,40.52-.58,82.89l2.92-.68c-9.64-41.62.46-81.06.56-81.45l-2.9-.76Z"/>
    <polygon class="cls-33" points="1031.28 1639.96 1333.38 1713.12 1331.92 2102.09 1334.92 2102.1 1336.39 1710.76 1031.98 1637.04 1031.28 1639.96"/>
    <g>
      <path class="cls-59" d="m1270.25,1737.89l7.31,77.64c1.75-50.31,53.51-95.79,69.44-108.63-29.84,21.2-91.19,30.46-93.38,30.37l16.63.62Z"/>
      <path class="cls-59" d="m1347,1706.9c1.64-1.17,3.19-2.36,4.63-3.6,0,0-1.72,1.26-4.63,3.6Z"/>
    </g>
    <path class="cls-39" d="m933.12,1597.46c-8.31-2.1-31-9.2-44.21,1.72-.65.53-8.03,6.77-6.55,12.32,1.64,6.13,13.14,7.9,18.36,8.64,42.38,6.05,89.64-11.88,89.64-11.88,46.82-17.76,83.37-36.2,111.24-50.76,27.65-14.45,50.29-26.91,65.88-35.64-21.33,8.16-39.66,15.11-54,20.52-152.09,57.41-164.82,59.01-180.36,55.08Z"/>
  </g>
</svg>