<?xml version="1.0" encoding="UTF-8"?>
<svg id="_06" data-name="06" xmlns="http://www.w3.org/2000/svg" xmlns:xlink="http://www.w3.org/1999/xlink" viewBox="0 0 3637.14 2401.76">
  <defs>
    <style>
      .cls-1 {
        opacity: .68;
      }

      .cls-2 {
        fill: #f9b757;
      }

      .cls-2, .cls-3, .cls-4, .cls-5, .cls-6, .cls-7, .cls-8, .cls-9, .cls-10, .cls-11, .cls-12, .cls-13, .cls-14, .cls-15, .cls-16, .cls-17, .cls-18, .cls-19, .cls-20, .cls-21, .cls-22, .cls-23, .cls-24, .cls-25, .cls-26, .cls-27, .cls-28, .cls-29, .cls-30, .cls-31, .cls-32, .cls-33, .cls-34, .cls-35, .cls-36, .cls-37, .cls-38, .cls-39, .cls-40, .cls-41, .cls-42, .cls-43, .cls-44, .cls-45, .cls-46, .cls-47, .cls-48, .cls-49, .cls-50, .cls-51, .cls-52, .cls-53, .cls-54, .cls-55, .cls-56 {
        stroke-width: 0px;
      }

      .cls-3 {
        fill: #a5515a;
      }

      .cls-4 {
        fill: #501216;
      }

      .cls-5 {
        fill: #2e5153;
      }

      .cls-6 {
        fill: #b6a8a1;
      }

      .cls-7, .cls-57 {
        fill: #fddeb8;
      }

      .cls-8 {
        fill: #1d1e1c;
      }

      .cls-9 {
        fill: #2f0401;
      }

      .cls-58 {
        clip-path: url(#clippath-2);
      }

      .cls-10 {
        fill: #936b58;
      }

      .cls-11 {
        fill: #8a2230;
      }

      .cls-12 {
        fill: #c02b3f;
      }

      .cls-13 {
        fill: #fffdfb;
      }

      .cls-14 {
        fill: #264b61;
      }

      .cls-15 {
        fill: #447775;
      }

      .cls-16 {
        fill: #bf2d40;
      }

      .cls-59 {
        opacity: .63;
      }

      .cls-17 {
        fill: #310502;
      }

      .cls-18 {
        fill: #fffefe;
      }

      .cls-19 {
        fill: none;
      }

      .cls-20 {
        fill: #e85926;
      }

      .cls-21 {
        fill: #294f67;
      }

      .cls-22 {
        fill: #fffefc;
      }

      .cls-23 {
        fill: #1a3334;
      }

      .cls-24 {
        fill: #397090;
      }

      .cls-25 {
        fill: #c83949;
      }

      .cls-26 {
        fill: #350f10;
      }

      .cls-27 {
        fill: #1b394b;
      }

      .cls-28 {
        fill: #fff;
      }

      .cls-29 {
        fill: #ad4618;
      }

      .cls-30 {
        fill: #2d2f30;
      }

      .cls-31 {
        fill: #abd0d6;
      }

      .cls-32 {
        fill: #8b4852;
      }

      .cls-33 {
        fill: #735344;
      }

      .cls-60 {
        clip-path: url(#clippath);
      }

      .cls-61 {
        opacity: .49;
      }

      .cls-34 {
        fill: #b92d43;
      }

      .cls-62 {
        opacity: .53;
      }

      .cls-35 {
        fill: #e5782b;
      }

      .cls-36 {
        fill: #b75b6b;
      }

      .cls-37 {
        fill: #019b82;
      }

      .cls-38 {
        fill: #e64054;
      }

      .cls-39 {
        fill: #7d1b25;
      }

      .cls-40 {
        fill: #9ff7f0;
      }

      .cls-41 {
        fill: #906e59;
      }

      .cls-42 {
        fill: #204155;
      }

      .cls-43 {
        fill: #aacfd5;
      }

      .cls-44, .cls-63 {
        fill: #f9ebdc;
      }

      .cls-45 {
        fill: #ee8a6c;
      }

      .cls-46 {
        fill: #f2966c;
      }

      .cls-47 {
        fill: #3a7190;
      }

      .cls-48 {
        fill: #6e363a;
      }

      .cls-49 {
        fill: #09212e;
      }

      .cls-50 {
        fill: #bf4e22;
      }

      .cls-51 {
        fill: #1d1d1b;
      }

      .cls-52 {
        fill: #86c1bd;
      }

      .cls-53 {
        fill: #892230;
      }

      .cls-54 {
        fill: #f4a887;
      }

      .cls-55 {
        fill: #e57448;
      }

      .cls-56 {
        fill: #9e8465;
      }
    </style>
    <clipPath id="clippath">
      <path class="cls-7" d="m1013.32,490.26c82.93-.83,213.72-7.69,369.49-41.69C1946.18,325.59,2072.53,14.28,2449.54,2.13c270.26-8.71,550.43,140.14,714.55,371.93,269.03,379.96,133.88,852.41,107.39,937.96-131.48,424.67-470.46,634.54-657.53,746.47-836.6,500.55-2211.25,471.04-2532.29-220.76C-98.48,1449.58,21.72,785.37,419.47,549.43c225.39-133.7,473.49-90.48,593.85-59.17Z"/>
    </clipPath>
    <clipPath id="clippath-2">
      <polygon class="cls-19" points="1440.53 395.86 1602.59 1270.73 2233.81 1185.43 2052.23 339 1440.53 395.86"/>
    </clipPath>
  </defs>
  <g>
    <g>
      <g>
        <g>
          <path class="cls-57" d="m1013.32,490.26c82.93-.83,213.72-7.69,369.49-41.69C1946.18,325.59,2072.53,14.28,2449.54,2.13c270.26-8.71,550.43,140.14,714.55,371.93,269.03,379.96,133.88,852.41,107.39,937.96-131.48,424.67-470.46,634.54-657.53,746.47-836.6,500.55-2211.25,471.04-2532.29-220.76C-98.48,1449.58,21.72,785.37,419.47,549.43c225.39-133.7,473.49-90.48,593.85-59.17Z"/>
          <g class="cls-60">
            <path class="cls-28" d="m2217.25,49.6v1046.61h783.56V202.12c-59.19-49.66-144.9-108.55-258.09-150.34C2690.39,32.47,2599.82-.04,2476.63,0c-113.78.04-204.15,27.82-259.38,49.6Z"/>
            <polygon class="cls-44" points="3000.81 202.12 2217.25 954.46 2217.25 1096.21 2470.74 1096.21 3000.81 551.98 3000.81 202.12"/>
            <path class="cls-44" d="m2599.1,11.96l-380.42,359.81v271.88L2797.31,74.11s-127.59-53.53-198.21-62.15Z"/>
            <path class="cls-28" d="m3084.07,65.16v1046.61h553.07V217.69c-41.78-49.66-102.28-108.55-182.18-150.34-36.93-19.32-100.86-51.82-187.82-51.78-80.31.04-144.1,27.82-183.08,49.6Z"/>
            <path class="cls-63" d="m3395.31,39.75l-311.24,209.64v284.66l426.16-433.28s-82.99-50.37-114.92-61.02Z"/>
            <polygon class="cls-44" points="3637.14 343.37 3084.07 934.26 3084.07 1111.77 3637.14 500.11 3637.14 343.37"/>
          </g>
        </g>
        <g>
          <path class="cls-46" d="m84.92,1839.31c321.05,691.8,1695.7,721.31,2532.29,220.76,110.83-66.31,274.99-167.01,417.72-326.39H45.16c11.05,36.95,24.3,72.31,39.77,105.63Z"/>
          <rect class="cls-29" x="185.1" y="1887.23" width="612.29" height="4" transform="translate(-890.67 510.53) rotate(-30.49)"/>
          <rect class="cls-29" x="429.54" y="1990.12" width="771.53" height="4" transform="translate(-1124.57 1059.3) rotate(-42.06)"/>
          <rect class="cls-29" x="888.12" y="2059.52" width="776.26" height="4" transform="translate(-1148.21 2035.86) rotate(-57.63)"/>
          <rect class="cls-29" x="1461.54" y="2047.71" width="634.27" height="4" transform="translate(-412.37 3651.04) rotate(-85.21)"/>
          <rect class="cls-29" x="2202.08" y="1723.2" width="4" height="508.73" transform="translate(-470.99 707.63) rotate(-16.5)"/>
          <rect class="cls-29" x="2525.71" y="1710.93" width="4" height="372.09" transform="translate(-600.88 1450.07) rotate(-28.76)"/>
        </g>
      </g>
      <g>
        <g class="cls-62">
          <ellipse class="cls-29" cx="731.57" cy="1855.44" rx="204.17" ry="51.03"/>
        </g>
        <g>
          <path class="cls-37" d="m762.07,1675.37s35.76-71.67,77.58-89.39c41.82-17.72,84.38-101.24,68.36-136.49-16.02-35.25,46.21-78.59,97.64-77.14,51.43,1.44,145.11-22.9,129.98-64.37-15.13-41.46-51.8-92.77-27.9-113.41,23.9-20.63,45.13-82.26,1.9-80.04-43.23,2.21-198.43,49.82-206.39,107.71-7.97,57.9-89.25,122.49-105.2,117.03-15.94-5.46-98.24,45.22-90.06,117.6,8.19,72.38,4.59,87.31-7.65,106.65-12.24,19.34-11.03,132.3,61.73,111.85Z"/>
          <path class="cls-28" d="m749.77,1677.72l-3.04.07c-.74-61.71,14.06-125.15,43.98-188.57,23.91-50.69,57.48-101.47,99.78-150.93,71.99-84.19,145.34-136.09,146.07-136.61l1.71,2.54c-.73.51-73.81,52.23-145.54,136.14-66.12,77.35-144.6,198.66-142.95,337.35Z"/>
        </g>
        <g>
          <path class="cls-52" d="m500.61,1057.93s62.64-10.61,58.98,72.3c0,0-3.66,21.95,10.14,37.71,13.8,15.76,151.39,10.95,80.8,136.08,0,0-32.24,12.75-13.28,59.04,18.96,46.3,103.68,49.33,68.33,152.57,0,0-20.48,21.6-12.07,52.25,8.41,30.66,41.35,56.68,28.23,82.83-13.12,26.15,21.02,106.35,21.02,106.35l-22.19,9.85s-73.32-159.77-116.01-183.79c-30.47-17.15-66.72-24.98-85.69-52.76-10.59-15.51-11.59-33.78-13.01-44.87-6.13-47.76,13.85-61.92,1.27-85.84-11.79-22.41-31.9-14.84-45.7-42.42-11.16-22.31-7.06-45.37-6.05-50.47,3.36-16.84,8.78-16.24,12.95-31.8,8.21-30.67-5.93-58.76-20.73-88.15-7-13.9-7.11-11-10.57-19.36-4.89-11.82-21.45-51.86,2.28-81.6,19.52-24.46,54.72-27.46,61.3-27.92Z"/>
          <path class="cls-28" d="m724.48,1747.63l2.22-1.53c-.52-.75-51.99-75.66-56.96-127.07-2.45-25.32-7.11-59.75-21.56-101.58-16.35-47.35-42.35-94.97-77.28-141.51-40.72-54.27-57.76-113.54-64.88-153.71-7.72-43.56-5.77-74.67-5.75-74.97l-2.7-.19c-.02.31-1.99,31.68,5.77,75.54,7.17,40.48,24.33,100.22,65.39,154.95,76.23,101.6,92.58,182.55,98.3,241.72,5.04,52.12,56.91,127.6,57.43,128.35Z"/>
        </g>
        <g>
          <path class="cls-15" d="m748.76,756.81s-79.24,8.05-47.8,107.13c0,0,11.58,25.33.01,48.99-11.56,23.66-179.57,63.73-53.43,191.56,0,0,43.15,4.67,35.29,67-7.86,62.33-109.35,94.24-32.96,207.34,0,0,31.81,19.3,31.62,59.19-.19,39.89-31.56,82.35-7.17,109.61,24.39,27.26,9.2,135.66,9.2,135.66l30.05,4.52s36.67-217.72,80.47-261.01c31.28-30.91,72.58-52.46,86.48-92.39,7.76-22.29,3.01-44.73,1.12-58.62-8.14-59.82-36.93-70.29-29.49-103.42,6.97-31.05,33.76-28.59,41.47-66.55,6.24-30.71-6.23-57.24-9.12-63.06-9.55-19.25-15.91-16.72-26.03-34.15-19.92-34.36-11.96-73.05-3.63-113.55,3.94-19.15,5.02-15.68,6.48-26.95,2.07-15.93,9.06-69.88-29.33-97.95-31.57-23.08-75.14-14.97-83.25-13.33Z"/>
          <path class="cls-28" d="m700,1678.43l-3.19-1.11c.38-1.08,38.25-108.85,27.52-172.71-5.28-31.45-10.85-74.65-7.01-130.07,4.36-62.74,20.3-129,47.39-196.95,31.59-79.23,32.89-156.61,28.42-207.57-4.85-55.26-17.34-92.25-17.46-92.61l3.2-1.13c.13.37,12.73,37.66,17.62,93.31,4.52,51.35,3.21,129.34-28.64,209.24-59.13,148.32-52.54,251.7-40.19,325.19,10.87,64.73-27.28,173.33-27.67,174.42Z"/>
        </g>
        <path class="cls-47" d="m582.98,1668.85h306.96c9.18,56.75-10.64,113.24-52.6,147.27-43.81,35.53-94.33,32.45-106.64,31.35-11.96.5-61.22,1.17-102.36-35.44-61.05-54.33-46.15-139.06-45.36-143.18Z"/>
        <path class="cls-21" d="m889.94,1668.85h-21.03c-8.73,2.66-18.27,5.8-28.69,9.48,0,0,2.27,157.57-159.89,162.63,23.51,7.14,43.35,6.8,50.37,6.51,12.31,1.1,62.84,4.18,106.64-31.35,41.96-34.03,61.78-90.52,52.6-147.27Z"/>
        <rect class="cls-43" x="573.61" y="1656.46" width="325.7" height="21.87" rx="10.8" ry="10.8"/>
      </g>
    </g>
    <g>
      <path class="cls-54" d="m468.37,978.65l-27.11,85.79-75.66-36.09,5.21-76.77s46.85-66.38,97.56,27.07Z"/>
      <path class="cls-25" d="m374.17,947.48s57.89,69.8,81.1,72.61l13.1-41.45s-39.51-88.12-94.2-31.16Z"/>
      <path class="cls-54" d="m508.63,805.26s59.09,113.73,30.26,163.31c0,0-47.56,34.99-129.7-13.12-25.19.31-45.85-10.02-51.88-26.25-.53-1.42-6.15-17.22,2.28-27.17,4.44-5.24,12.46-8.49,19.34-8.17,2.82.13,7.12.94,7.15.76.03-.16-2.82-.76-2.82-.76l-6.49-88.61s71.34-66.34,131.86,0Z"/>
      <path class="cls-25" d="m511.69,811.44s-17.35,4.82-21.44,0c-3.33,5.03-8.95,11.89-17.77,17.14-23.42,13.93-49.04,4.41-53.08,2.83,5.73,31.58.28,56.46-13.87,63.46-5.01,2.47-12.48,2.07-19.46-.24-45.7-15.1,13.15-144.14,13.15-144.14l92.47,18.59,20,42.37Z"/>
      <path class="cls-34" d="m530.45,856.22s23.58,17.14,29.35,22.09-12.41,19.59-18.09,15.55l-11.25-37.65Z"/>
      <path class="cls-4" d="m411,805.26s6.49,73.27,0,77.64c-6.49,4.37-17.77,12.48-24.92,11.72s-37.05-3.34-28.76,34.58c0,0,6.85,26.61,51.88,26.25-17.82.23-49.03-2.09-81.42-20.05-15.69-8.69-40.4-22.39-55.12-52.49-13.26-27.11-11.32-53.01-9.73-64.52,1.77-4.23,4.97-9.62,9.73-15.28,6.49-7.72,16.21-15.6,29.18-16.24,0,0-1.08-31.91,2.16-37.38,3.24-5.47,18.89-30.62,33.22-30.62s75.94-4.37,88.91-5.47c12.97-1.09,55.12-20.78,63.77,0,0,0,3.24,9.84,0,14.22,0,0,57.52-6.56,55.78,25.15-1.74,31.71-15.79,51.4-62.27,44.84,0,0,3.24,13.12-7.57,16.4-10.81,3.28-34.59,4.37-64.85-8.75Z"/>
      <path class="cls-23" d="m209.75,1788.11c4.46,18.94,8.45,38.94,11.74,59.94,11.51,73.5,11.47,140.16,6.58,196.56,17.8,17.91,37.55,36.35,59.41,54.85,38.32,32.45,75.73,58.83,110.1,80.25,9.76-118.68,19.51-237.35,29.27-356.03,0,0-125.08-249-217.1-35.57Z"/>
      <path class="cls-5" d="m548.03,1769.94c27.6,174.09,55.19,348.18,82.79,522.27-25.81-8.75-53.07-19.12-81.4-31.44-46.41-20.19-87.44-42.05-123.05-63.53-27.94-107.68-55.89-215.37-83.83-323.05,0,0-47.49-21.58-71.32-73.51-23.83-51.92,34.83-256.25,276.81-30.75Z"/>
      <path class="cls-38" d="m326.33,1050.95s-85.03,138.77-98,243.99c-12.97,105.22-28.1,489.56-28.1,489.56,0,0,229.51,93.54,347.8-8.45v-63.11s-2.39-325.89,0-378.38c2.39-52.49-51.65-204.87-51.65-204.87,0,0-121.78-141.44-170.05-78.74Z"/>
      <path class="cls-4" d="m301.72,782.28s-10.7-39.35-23.67-39.35-43.23,12.01-29.18,19.68,34.37-6.59,52.85,19.68Z"/>
      <g>
        <path class="cls-30" d="m345.06,985.7s84.31,13.12,143.75,100.61l7.57,43.38s-124.66-86.03-170.05-78.74c0,0-10.09-45.2,18.73-65.25Z"/>
        <path class="cls-8" d="m498.48,1132.96l-2.94-2.03c-1.24-.86-124.69-85.61-168.96-78.49l-1.39.22-.31-1.38c-.1-.46-9.97-46.42,19.34-66.81l.49-.34.59.09c.21.03,21.64,3.48,50.02,17.64,26.17,13.05,63.85,38.15,94.74,83.61l.18.27,8.24,47.22Zm-166.19-83.95c20.03,0,52.54,12.5,96.83,37.27,30.02,16.78,56.56,34.36,65.19,40.18l-6.9-39.57c-30.46-44.71-67.54-69.42-93.3-82.29-25.39-12.68-45.07-16.66-48.67-17.31-24.34,17.47-19.22,54.45-17.89,61.99,1.5-.17,3.08-.26,4.75-.26Z"/>
      </g>
      <path class="cls-12" d="m345.25,1274.62s138.16,218.77,201.75,218.77v-64.09s-170.22-183.9-201.75-154.68Z"/>
      <path class="cls-54" d="m799.91,1285l104.99-21.63,62.92-56.64c-17.12-6.63-30.71-7.2-39.99-6.48-14.14,1.1-21.54,5.45-39.99,6.99-11.89.99-21.71.25-28.1-.51-8.49,2.67-16.98,5.35-25.46,8.02,4.64-6.39,9.28-12.79,13.93-19.18,1.62-2.35,3.89-6.3,5.05-11.66,1.64-7.55.19-13.78-.72-16.77-24.39,24.96-48.78,49.91-73.16,74.87,0,0-17.51,32.28,20.55,43Z"/>
      <path class="cls-38" d="m427.81,1103.25c46.78,83.72,82.78,133.84,107.53,164.52,7.7,9.54,53.82,66.18,53.82,66.19l199.68-116.65c.42,8.47,2.18,23.74,10.14,40.28,7.38,15.32,16.84,25,22.7,30.15-26.05,35.26-70.03,86.8-135.86,131-50.31,33.78-75.47,50.67-105.3,49.44-19.66-.81-50.68-8.2-213.6-171.69-9.08-9.11-16.56-16.7-21.66-21.87-34.96-79.9-19.52-154.65,16-175.63,23.26-13.73,52.27-2.71,66.56,4.26Z"/>
      <path class="cls-12" d="m534.93,1605.9s-73.5,167.78-287.51,163.72c-12.35-5.13-19.66-14.25-18.37-21.56.97-5.52,6.67-9.04,9.73-10.94,8.93-5.53,18.04-5.6,22.7-5.47,8.6.25,14.95,2.6,16.21,3.05,21.05,7.5,69.9.46,77.1-.73,36.03-5.96,112.62-44.5,180.14-128.08Z"/>
      <ellipse class="cls-4" cx="496.38" cy="853.03" rx="6.97" ry="13.84" transform="translate(-225.94 180.5) rotate(-16.85)"/>
      <path class="cls-25" d="m384.33,910.14l14.89,27.7c-3.67-.18-11.02-1.09-17.77-6.32-2.81-2.18-10.7-8.29-8.91-14.3,1.16-3.9,6.05-6.54,11.8-7.09Z"/>
      <path class="cls-4" d="m526.84,927.15c-6.95,0-17.21-1.5-31.03-7.24l1.15-2.77c26.98,11.2,39.73,5.55,39.86,5.5l1.29,2.71c-.28.14-3.94,1.8-11.26,1.8Z"/>
      <path class="cls-4" d="m467.42,839.65l-2.85-.94c6.44-19.54,19.75-22.74,20.31-22.87l.66,2.93-.33-1.46.33,1.46c-.5.12-12.25,3.05-18.12,20.88Z"/>
      <ellipse class="cls-38" cx="477.3" cy="883.44" rx="26.39" ry="26.7"/>
      <path class="cls-12" d="m589.16,1333.95s-20.72,42.26-22.88,78.25c0,0-9.11-29.46,7.33-97.34l15.55,19.1Z"/>
      <polygon class="cls-12" points="427.81 1103.25 524.48 1217.11 538.95 1271.47 427.81 1103.25"/>
      <rect class="cls-28" x="534.53" y="1804.44" width="3" height="472.68" transform="translate(-376.99 138.55) rotate(-10.92)"/>
    </g>
  </g>
  <g class="cls-62">
    <ellipse class="cls-29" cx="1784.18" cy="1992.15" rx="744.73" ry="238.59"/>
  </g>
  <g class="cls-62">
    <ellipse class="cls-29" cx="2456.3" cy="2049.64" rx="352.83" ry="135.19"/>
  </g>
  <g>
    <path class="cls-54" d="m1271.33,1983.68c21.41,22.96,41.1,39.64,56,51.1,19.27,14.82,28.9,22.23,39.17,26.07,15.43,5.77,27.07,4.46,32.16,14.76,5.76,11.66,8.65,33.54-20.18,37.91-28.82,4.37-80.7,0-80.7,0,0,0-66.29-68.53-64.85-45.2,1.44,23.33,7.21,47.15,7.21,47.15h-20.18l-17.29-124.78s9.05-96.02,68.65-7Z"/>
    <path class="cls-54" d="m1124.62,1779.03c-5.68,31.04-7.38,56.96-7.73,75.9-.46,24.48-.68,36.73,2.31,47.38,4.5,16.01,12.42,24.74,7.2,34.98-5.91,11.59-21.66,26.85-42.16,5.89-20.5-20.96-47.62-65.92-47.62-65.92,0,0,15.57-94.59-2.2-79.65-17.77,14.94-33.37,33.71-33.37,33.71l-11.91-16.48,89.36-87.76s81.96-49.27,46.1,51.95Z"/>
    <path class="cls-54" d="m1267.49,482.58l3.65,63.83s-44.98,22.43-85.72-12.29l6.46-97.79s66.56-15.38,75.62,46.26Z"/>
    <path class="cls-25" d="m1191.87,436.33s31.46,56.71,77.41,71.82l-1.8-25.56s-1.62-71.71-75.62-46.26Z"/>
    <path class="cls-54" d="m1305,314.21s57.65,142.9,0,164.77c-57.65,21.87-119.61-42.29-119.61-42.29,0,0-26.9,12.64-42.27-14.58-15.37-27.22,11.05-34.99,20.18-27.7,9.13,7.29,16.33-212.89,141.71-80.2Z"/>
    <g>
      <path class="cls-25" d="m1328.89,438.51c.39-1.27.76-2.56,1.08-3.89-.35,1.39-.71,2.68-1.08,3.89Z"/>
      <path class="cls-25" d="m1164,394c2.72.36,34.98,4.16,54.17-19.27,8.13-9.93,10.64-20.75,11.53-26.98,5.04,13.12,0,21.14,0,21.14,0,0,35.31-16.77,38.91-18.96,3.6-2.19,0-23.33,0-23.33,5.04,2.19,5.76,20.41,5.76,20.41,10.81,0,32.42-20.41,32.43-20.41l2.03-1.67c-.62-2.91-1.73-6.69-3.83-10.73-13.39-25.71-52.91-34.58-77.78-28.96-36.37,8.23-65.85,52.98-63.22,108.75Z"/>
      <polygon class="cls-25" points="1269.29 467.57 1269.29 467.57 1269.29 467.57 1269.29 467.57"/>
    </g>
    <path class="cls-4" d="m1305,314.21s-21.62,20.41-32.43,20.41c0,0-.72-18.23-5.76-20.41,0,0,3.6,21.14,0,23.33-3.6,2.19-38.91,18.96-38.91,18.96,0,0,5.04-8.02,0-21.14,0,0-5.04,21.14-11.53,26.98-6.49,5.83-53.08,32.08-53.08,32.08,0,0-19.29-8.77-24.54,9.23-5.25,17.99,23.09,46.18,46.63,33.06l19.53,16.83s26.47,49.51-8.42,75.76c0,0-15.43,10.45-31.29,4.13,0,0,10.57-5.35,11.05-10.69,0,0-32.19,24.3-79.26,9.23,0,0,15.85-2.43,18.73-10.69-7.29,2.28-18.36,4.78-31.89,4.19-17.69-.76-31.21-6.44-38.78-10.32,26.76-30.91,37.28-58.98,41.96-78.81,13.32-56.46-11.24-86.1,10.81-143.99,13.24-34.76,30.73-45.88,37.46-49.57,18.88-10.36,38.2-9.08,47.93-7.66,0,0,20.73-17.92,50.18-16.18,28.22,1.66,46.87,19.39,57.9,30.4,26.37,26.31,35.22,57.35,40.54,77.5,10.8,40.93,24.47,103.03,32.96,184.96-4.35,4.62-11.9,11.51-23.06,16.77-12.01,5.66-22.85,6.9-29.32,7.15,2.93-5.46,4.82-8.97,4.82-8.97,0,0-6.48,3.14-16.57,8.02-2.93.6-6.75,1.06-11.17.73-8.69-.65-15.19-3.99-18.73-6.2l-3.29-46.7s34.48,6.91,51.84-13.16c1.77-2.05,5.67-7.21,8.89-19.94,5.61-22.23,2.49-41.67-1.38-59.93-4.23-19.91-10.9-45.7-21.83-75.35Z"/>
    <path class="cls-42" d="m1306.66,971.82s58.15,471.7,47.34,502.32c-10.81,30.62-149.06,236.22-149.06,236.22l-84.4,120.29c-4.2-10.64-9.04-21.75-14.64-33.21-12.44-25.42-26.04-47.19-39.16-65.46,26.93-42.1,54.09-86.73,81.12-133.9,28.79-50.26,55.04-99.23,78.98-146.54l-80.4-475.66s46.19-220.18,160.22-4.06Z"/>
    <path class="cls-24" d="m1088.83,929.53s-59.09,64.16-82.14,139.98c-23.06,75.82,113.85,469.51,113.85,469.51-3.25,12.47-7.72,32.28-10.09,56.87-6.67,69.34,10.16,106.48,51.88,263.92,14.57,54.98,33.73,130.52,33.92,131.23,0,0,66.88,2.92,89.98-14.58,0,0-77.42-367.45-67.51-460.77,9.91-93.32-15.27-421.47-15.27-421.47l47.03-50.96s13.38-56.87,7.29-137.79c-6.08-80.93-168.93,24.06-168.93,24.06Z"/>
    <path class="cls-41" d="m1928.43,1114.47l-11.08,666.26,54.65-7.97c6.91-224.43,13.81-448.86,20.72-673.29-21.43,5-42.86,10-64.29,15Z"/>
    <g class="cls-59">
      <polygon class="cls-56" points="1440.53 395.86 1422.12 1224.07 2029.89 1130.75 2052.23 339 1440.53 395.86"/>
    </g>
    <path class="cls-2" d="m1179.73,511.34s-70.72,13.02-100.99,55.22c-30.26,42.19-31.7,215.71,11.53,272.57,0,0-10.71,52.49-33.46,58.32-22.75,5.83,32.02,32.08,32.02,32.08,0,0,66.73,1.46,83.09,14.58,16.35,13.12,79.76,30.62,79.76,30.62,0,0,210.41,13.12,204.64-49.58,0,0,0-71.45-11.53-87.49-11.53-16.04-40.35-8.75-96.56-10.21l-25.94-1.46,30.26-59.78s12.97-23.33,12.25-46.66c22.34,22.74,44.68,45.48,67.01,68.22,1.17-52.52,2.33-105.04,3.5-157.56-4.3-3.84-11.05-9.84-19.35-17.1-69.46-60.72-103.4-105.68-136.54-101.78-59.45,7-99.7,0-99.7,0Z"/>
    <path class="cls-4" d="m1917.35,1780.73c-5.99-6.29-11.98-12.57-17.97-18.86,3.64-214.74,7.27-429.48,10.91-644.22l18.14-3.18-11.08,666.26Z"/>
    <path class="cls-20" d="m1188.75,483.52s29.1,30.08,79.88,19.15c0,0,10.43-3.6,11.15,2.39.72,5.99-4.68,24.58-1.8,33.7,2.88,9.11,6.12,6.24-1.8,14.78-7.93,8.55-50.44,30.42-98-13.69,0,0-11.34-7.3-3.51-16.05s6.03-32.8,6.03-32.8c0,0-.12-14.04,8.05-7.48Z"/>
    <path class="cls-35" d="m1241.59,971.82c-73.5-23.33-151.32-132.69-151.32-132.69,0,0-10.71,52.49-33.46,58.32-22.75,5.83,32.02,32.08,32.02,32.08,0,0,66.73,1.46,83.09,14.58,12.28,9.86,51.1,22.18,69.67,27.7Z"/>
    <path class="cls-35" d="m1120.53,553.54s43.49,21.67,113.98,231.64c0,0,37.36,39.21,87.78,40.83l5.58-11.03s-79.8-14.49-86.29-37.09c-6.48-22.6-44.67-151.24-121.05-224.35Z"/>
    <g class="cls-58">
      <rect class="cls-28" x="1440.53" y="339" width="553.6" height="931.74"/>
      <rect class="cls-28" x="1994.13" y="339" width="59.92" height="931.74"/>
      <rect class="cls-18" x="2054.05" y="339" width="59.92" height="931.74"/>
      <rect class="cls-22" x="2113.97" y="339" width="59.92" height="931.74"/>
      <rect class="cls-13" x="2173.89" y="339" width="59.92" height="931.74"/>
    </g>
    <path class="cls-35" d="m1234.51,785.18s-86.96,2.19-99.93,30.62c0,0,71.45-23.32,118.25-15.31l-18.32-15.31Z"/>
    <path class="cls-35" d="m1440.47,872.67s3.24,62.33-36.75,65.62l36.75-65.62Z"/>
    <path class="cls-54" d="m1489.56,852.98s33.77-27.7,42.42-26.97c8.65.73,45.4,3.65,54.76,3.65s0,14.58-5.04,14.58-28.1-2.19-30.26,2.19c-2.16,4.37-4.32,10.21-4.32,10.21,0,0,20.9,10.21,40.35,9.48s35.31-8.02,38.19-6.56c2.88,1.46,5.04,6.56,5.04,10.21s-2.16,8.75-4.32,13.85c-2.16,5.1-11.53,13.12-15.13,15.31-3.6,2.19-43.95,16.77-43.95,16.77l-82.87-10.21s-54.53-50.81,5.14-52.5Z"/>
    <path class="cls-20" d="m1456.32,925.16s27.38,3.65,32.43-3.65c5.04-7.29,0-82.38,0-82.38,0,0-4.27-11.1-23.06-4.37-6.09,2.29-12.18,4.57-18.28,6.86,2.24,11.28,4.23,23.45,5.76,36.45,1.99,16.9,2.91,32.68,3.14,47.09Z"/>
    <path class="cls-35" d="m1335.62,574.12s24.86,68.9,29.18,145.45l26.03,28.34s-7.57-83.11-55.22-173.79Z"/>
    <path class="cls-28" d="m1218.01,564.25c-.07-.54-1.76-13.25,0-25.23.95-6.47,3.32-10.17,5.41-13.43,1.84-2.88,3.3-5.16,3.36-8.73.13-7.89-1.65-13.51-1.67-13.57l2.85-.92c.08.25,1.95,6.12,1.81,14.54-.07,4.42-1.9,7.28-3.83,10.3-1.92,3.01-4.11,6.42-4.97,12.25-1.7,11.55-.02,24.26,0,24.39l-2.97.4Z"/>
    <path class="cls-28" d="m1190.31,549.71l-2.52-1.63c.21-.33,5.3-8.19,8.09-12.07,2.17-3.02,2.19-13.26.04-24.89-2.06-11.18,6.23-17.92,6.59-18.21l1.87,2.35-.93-1.17.94,1.17c-.3.24-7.24,5.94-5.51,15.32,1.87,10.16,2.71,22.64-.56,27.19-2.75,3.82-7.95,11.87-8,11.95Z"/>
    <path class="cls-28" d="m1254.83,564.51c-.04-.12-3.86-12.02-5.54-18.06-1.19-4.28,1.23-10.98,3.57-17.45,1.34-3.69,2.6-7.18,3.11-9.96,1.26-6.79-6.11-12.84-6.18-12.9l1.88-2.34c.36.29,8.83,7.22,7.25,15.78-.56,3.02-1.86,6.62-3.24,10.43-2.08,5.75-4.44,12.27-3.5,15.63,1.66,5.99,5.47,17.83,5.51,17.95l-2.86.92Z"/>
    <path class="cls-9" d="m1204.91,453.52l-19.53-16.83c-6.58,3.67-13.53,4.11-20.02,2.45h0s9.44,96.92-64.89,92.07l3.85,2.8c43.05,10.5,71.93-11.3,71.93-11.3-.48,5.35-11.05,10.69-11.05,10.69,15.85,6.32,31.29-4.13,31.29-4.13,34.89-26.25,8.42-75.76,8.42-75.76Z"/>
    <path class="cls-9" d="m1328.15,449.49c-3.21,12.73-7.11,17.89-8.89,19.94-17.36,20.07-51.84,13.16-51.84,13.16l3.29,46.7c3.54,2.2,10.05,5.55,18.73,6.2,4.42.33,8.24-.12,11.17-.73,10.09-4.88,16.57-8.02,16.57-8.02,0,0-1.88,3.51-4.82,8.97,35.53-49.72,15.78-86.21,15.78-86.21Z"/>
    <path class="cls-28" d="m1225.39,1991.09c-30.11-107.22-67.66-259.59-75.49-376.55-4.41-65.88,2.51-90.91,3.66-94.54l-114.98-465.34,2.13.23c41.85,4.46,74.62-2.95,97.38-22.01,27.99-23.44,30.64-56.78,30.66-57.11l2.99.21c-.02.35-2.73,34.89-31.69,59.17-23.02,19.3-55.83,27.02-97.54,22.94l114.17,462.05-.15.43c-.08.23-8.33,24.54-3.6,94.36,7.91,116.64,45.34,268.5,75.34,375.35l-2.89.81Z"/>
    <path class="cls-4" d="m1366.51,2060.86c-1.27-.48-2.54-1.01-3.81-1.6h0c-44.62,19.36-154.48-28.59-154.48-28.59l11.75,84.81h20.18s-5.76-23.82-7.21-47.15c-1.44-23.33,64.85,45.2,64.85,45.2,0,0,51.88,4.37,80.7,0,28.82-4.37,25.94-26.25,20.18-37.91-5.09-10.3-16.74-8.99-32.16-14.76Z"/>
    <path class="cls-4" d="m1119.2,1902.31c-.37-1.32-.69-2.67-.97-4.06h0c-41.78-25.03-68.34-143.05-68.34-143.05l-60.73,59.64,11.91,16.48s15.6-18.76,33.37-33.71c17.77-14.94,2.2,79.65,2.2,79.65,0,0,27.12,44.96,47.62,65.92,20.5,20.96,36.25,5.7,42.16-5.89,5.22-10.24-2.7-18.98-7.2-34.98Z"/>
    <polygon class="cls-41" points="1621.93 1270.73 1756.52 1991.23 1812.88 1973.55 1674.75 1263.6 1621.93 1270.73"/>
    <path class="cls-41" d="m2163.82,1192.5c48.17,220.98,96.35,441.96,144.52,662.94,15.48-4.49,30.95-8.97,46.43-13.46l-138.14-656.08-52.81,6.6Z"/>
    <path class="cls-41" d="m1439.77,1217.11l-54.47,664.07,55.05-4.31c21.52-223.48,43.03-446.96,64.55-670.44-21.71,3.56-43.42,7.12-65.12,10.68Z"/>
    <g>
      <path class="cls-28" d="m1957.13,494.39l30.46-111.76,1.49.47c14.68,4.66,27.87,12.33,39.2,22.78,6.57,6.06,12.43,13.01,17.41,20.66l.77,1.18-89.33,66.67Zm32.53-107.95l-27.34,100.33,80.09-59.77c-4.68-6.98-10.11-13.34-16.16-18.92-10.62-9.8-22.93-17.07-36.59-21.64Z"/>
      <path class="cls-53" d="m1946.74,510.01l28.9-106.05c-53.03-17.12-109.38,12.08-127.87,67.49-19.17,57.43,9.6,121.25,64.26,142.55,54.66,21.3,114.51-7.99,133.68-65.42,11.79-35.32,5.44-73.06-13.91-101.84l-85.06,63.27Z"/>
      <path class="cls-16" d="m1946.74,510.01c5.26,37.04,10.53,74.09,15.79,111.13,6.92-1.2,48.17-9.1,72.74-49.97,4.28-7.13,21.52-37.64,14.85-77.99-3.63-21.97-12.86-37.88-18.67-46.4-28.24,21.07-56.48,42.15-84.72,63.22Z"/>
      <path class="cls-45" d="m1946.74,510.01l-104.9-.89c0-10.71,1.39-37.34,18.4-63.29,3.55-5.42,24.89-36.88,65.65-44.9,21.97-4.32,40.22,0,49.76,3.03l-28.9,106.05Z"/>
    </g>
    <g>
      <rect class="cls-4" x="1763.27" y="949.27" width="3" height="208.12" transform="translate(-165.48 347.6) rotate(-10.75)"/>
      <rect class="cls-4" x="1855.08" y="936.46" width="3" height="208.12" transform="translate(-161.48 364.49) rotate(-10.75)"/>
      <rect class="cls-4" x="1941.23" y="921.11" width="3" height="208.12" transform="translate(-157.1 380.29) rotate(-10.75)"/>
      <rect class="cls-4" x="2031.52" y="910.41" width="3" height="208.12" transform="translate(-153.52 396.94) rotate(-10.75)"/>
      <g class="cls-62">
        <path class="cls-40" d="m1699.64,1167.73c-4.76-23.18-9.53-46.36-14.29-69.54,0-.01-3.51-17.05-3.51-17.05-7.97-20-5.94-28.86-2.29-33.2,1.63-1.94,3.02-2.31,9.73-7.66,6.86-5.47,11.07-9.6,13.08-11.44,21.32-19.46,45.03-20.92,45.03-20.92,4.8-.23,18.15-.7,31.24,6.56,2.45,1.36,4.26,2.64,12.98,10.36,23.51,20.81,26.84,26.09,36.26,29.51,10.4,3.77,19.96,2.26,23.32,1.74,26.25-4.06,29.81-29.11,66.29-54.59,13.13-9.17,22.14-15.46,35.96-18.92,42.54-10.63,66.57,20.78,94.2,13.07,16.69-4.65,36.15-24.17,48.17-89.52,13.65,65.49,27.29,130.98,40.94,196.47-145.7,21.7-291.41,43.41-437.11,65.11Z"/>
      </g>
      <g class="cls-62">
        <path class="cls-55" d="m2114.53,995.97c-35.9,12.22-58.38,26.15-72.52,37-7.46,5.72-26.24,19.36-54.33,28.4-3.22,1.03-6.65,1.82-10.66,2.4-35.4,5.11-48.15-18.63-75.74-13.1-36.62,7.35-38.92,54.18-70.39,58.77-23.24,3.39-27.61-18.91-61.96-21.86-37.4-3.2-76.78,18.95-78.06,37.42-.09,1.25.06,1.69,2.6,13.5,2.72,12.62,4.85,22.79,6.19,29.23,145.7-21.7,291.41-43.41,437.11-65.11-7.41-35.55-14.81-71.09-22.22-106.64Z"/>
      </g>
      <polygon class="cls-4" points="1698.46 1169.42 1655.87 962.27 1658.81 961.67 1700.82 1166.04 2134.96 1101.37 2093.13 900.61 2096.07 900 2138.55 1103.87 2136.97 1104.1 1698.46 1169.42"/>
    </g>
    <g>
      <polygon class="cls-4" points="1736.78 1214.17 1698.79 1219.74 1698.04 1214.49 1736.03 1208.92 1736.78 1214.17"/>
      <polygon class="cls-4" points="1815.64 1202.61 1777.65 1208.18 1776.9 1202.93 1814.89 1197.36 1815.64 1202.61"/>
      <polygon class="cls-4" points="1894.49 1191.05 1856.5 1196.62 1855.76 1191.37 1893.75 1185.8 1894.49 1191.05"/>
      <polygon class="cls-4" points="1977.53 1178.88 1939.54 1184.45 1938.79 1179.2 1976.78 1173.64 1977.53 1178.88"/>
      <polygon class="cls-4" points="2056.39 1167.33 2018.4 1172.89 2017.65 1167.65 2055.64 1162.08 2056.39 1167.33"/>
      <polygon class="cls-4" points="2137.72 1155.41 2099.73 1160.97 2098.98 1155.73 2136.97 1150.16 2137.72 1155.41"/>
    </g>
    <ellipse class="cls-20" cx="1524.5" cy="454.56" rx="19.04" ry="19.26"/>
    <ellipse class="cls-20" cx="1535.05" cy="516.59" rx="19.04" ry="19.26"/>
    <ellipse class="cls-20" cx="1549.79" cy="578.62" rx="19.04" ry="19.26"/>
    <path class="cls-4" d="m1564.28,451.19c1.52,4.89,3.03,9.78,4.55,14.67,83.07-9.48,166.14-18.96,249.21-28.43-.88-4.29-1.77-8.58-2.65-12.87-83.7,8.88-167.41,17.76-251.11,26.63Z"/>
    <path class="cls-4" d="m1576.23,502.1c1.52,4.89,3.03,9.78,4.55,14.67,42.82-5.79,85.63-11.59,128.45-17.38-.65-4.03-1.3-8.07-1.94-12.1-43.69,4.94-87.37,9.87-131.06,14.81Z"/>
    <path class="cls-4" d="m1586.66,554.67c1.52,4.89,3.03,9.78,4.55,14.67,68.66-8.59,137.32-17.17,205.98-25.76-1.44-4.37-2.88-8.75-4.32-13.12-68.73,8.07-137.47,16.14-206.2,24.22Z"/>
    <g>
      <path class="cls-31" d="m1640.83,656.43c49.35-6.04,98.69-12.07,148.04-18.11-1.42,23.08-.49,55.65,10.63,92.18,4.86,15.96,10.79,29.84,16.75,41.56-77.1,10.94-154.2,21.87-231.3,32.81-5.73-11.47-11.37-24.86-16.03-40.1-11.83-38.66-12.48-73.21-10.67-97.61,27.52-3.65,55.03-7.35,82.59-10.72Z"/>
      <rect class="cls-8" x="1591.16" y="686.35" width="154.83" height="3" transform="translate(-73.83 217.41) rotate(-7.29)"/>
      <rect class="cls-8" x="1597.83" y="713.06" width="111.85" height="3" transform="translate(-76.67 213.43) rotate(-7.22)"/>
      <rect class="cls-8" x="1608.32" y="742.77" width="176.62" height="3" transform="translate(-82.98 229.04) rotate(-7.54)"/>
    </g>
    <g>
      <path class="cls-45" d="m1838.19,686.99c49.35-6.04,98.69-12.07,148.04-18.11-1.42,23.08-.49,55.65,10.63,92.18,4.86,15.96,10.79,29.84,16.75,41.56-77.1,10.94-154.2,21.87-231.3,32.81-5.73-11.47-11.37-24.86-16.03-40.1-11.83-38.66-12.48-73.21-10.67-97.61,27.52-3.65,55.03-7.35,82.59-10.72Z"/>
      <rect class="cls-28" x="1788.52" y="716.91" width="154.83" height="3" transform="translate(-76.11 242.71) rotate(-7.29)"/>
      <rect class="cls-28" x="1795.19" y="743.62" width="111.85" height="3" transform="translate(-78.95 238.47) rotate(-7.22)"/>
      <rect class="cls-28" x="1805.68" y="773.33" width="176.62" height="3" transform="translate(-85.29 255.2) rotate(-7.54)"/>
    </g>
    <polygon class="cls-4" points="2308.34 1855.44 2283.53 1854.4 2141.45 1197.91 2163.82 1192.5 2308.34 1855.44"/>
    <polygon class="cls-4" points="1756.52 1991.23 1737.18 1979.38 1602.59 1270.73 1621.93 1270.73 1756.52 1991.23"/>
    <path class="cls-4" d="m1385.29,1881.18c-5.57-6.67-11.14-13.34-16.71-20.02,17.62-214.03,35.25-428.06,52.87-642.09l18.31-1.96-54.47,664.07Z"/>
    <path class="cls-54" d="m1586.66,382.28s16.44-27.68,22.42-27.68h20.05l13.61-5.83h26.86l17.27,29.07-8.27,46.71s-5.5,1.42-10.02,0c0,0-12.16,4.87-14.82.63,0,0-5.37,4.6-15.27,1.73,0,0-4.14,5.12-10.45.94,0,0-12.88-45.09-20.61-47.51l-20.76,1.93Z"/>
    <path class="cls-34" d="m1281.15,388.62s12.86,16.83,19.85,19.71c6.99,2.87-4.18,12.32-4.18,12.32-2.72-2.7-5.99-6.53-8.89-11.61-4.57-8.01-6.16-15.56-6.78-20.41Z"/>
    <path class="cls-34" d="m1311.46,435.77c-14.41,2.92-28.82,5.83-43.23,8.75,7.21,10.32,19.89,14.1,29.78,9.72,10.98-4.86,13.28-17.47,13.45-18.47Z"/>
    <path class="cls-25" d="m1161.83,407.82l15.13,21.67s-41.07-9.28-15.13-21.67Z"/>
    <path class="cls-4" d="m1206.38,389.02l-2.89-.8c5.14-18.53,22.73-20.3,22.91-20.31l.27,2.99c-.64.06-15.71,1.64-20.29,18.13Z"/>
    <path class="cls-4" d="m1279.15,346.03l-1.87-2.35c14.96-11.92,30.2-2.86,30.36-2.77l-1.56,2.56c-.55-.33-13.64-8.03-26.93,2.55Z"/>
    <path class="cls-9" d="m1220.06,288.74s22.66,44.26-2.34,74.44l-15.72,10.35s26.67-35.59,18.07-84.79Z"/>
    <path class="cls-9" d="m1262.9,289.79s12.53,47.54,3.38,49.65c-2.57,1.31-5.14,2.63-7.71,3.94,2.07-3.89,4.11-8.64,5.59-14.22,4.49-16.97,1.14-31.71-1.26-39.37Z"/>
    <path class="cls-9" d="m1298.49,271.59s17.34,27.5,6.51,42.62l-1.47,2.38s25.71-.79-5.03-45Z"/>
    <path class="cls-9" d="m1163.29,394.4s-3.57-47.3,1.81-77.81c0,0-11.92,64.47-7.59,77.85l5.64,1.59.14-1.63Z"/>
    <ellipse class="cls-38" cx="1210.67" cy="424.03" rx="21.62" ry="21.88"/>
    <path class="cls-38" d="m1321.99,406.37c1.27,0,2.46-.15,2.46-.15,1.38-.26,2.45-.76,3.11-1.13-.51-5.31-1.26-10.98-2.34-16.95-1.7-9.37-3.91-17.83-6.27-25.28-10.5,1.5-18.58,10.6-18.58,21.64,0,12.08,9.68,21.88,21.62,21.88Z"/>
    <ellipse class="cls-51" cx="1300.52" cy="369.41" rx="6.89" ry="15.28" transform="translate(-51.35 353.08) rotate(-15.16)"/>
    <ellipse class="cls-51" cx="1228.28" cy="401" rx="6.89" ry="15.28" transform="translate(-62.13 335.28) rotate(-15.16)"/>
  </g>
  <g>
    <path class="cls-4" d="m2535.66,2078.14c-9.59,12.21-23.36,27.25-42.46,42.12-21.34,16.61-42.23,27.46-58.37,34.46,0,0-18.07,40.2,50.41,44.03,19.57-2.27,32.8-7.94,41.27-12.68,19.99-11.21,21.7-21.96,38.78-24.76,11.17-1.83,19.16,1.34,31.61-2.91,1.63-.56,8.38-2.96,15.61-5.62,3.83-1.41,6.97-2.58,9.06-3.37,2.81-23.76,5.62-47.51,8.43-71.27,0,0-73.51-44.03-94.35,0Z"/>
    <path class="cls-4" d="m2393.74,1980.38c-14.06,3.88-24.98,15.34-28.73,29.74-15.75,13.92-34.68,28.84-57.05,43.39-15.94,10.37-31.31,19.05-45.63,26.32-.9,4.73-1.51,12.5,2.26,20.26,6.73,13.86,24.63,22.04,44.75,19.89,17.81-2.27,29.85-7.94,37.55-12.68,18.19-11.21,19.75-21.96,35.29-24.76,10.16-1.83,17.43,1.34,28.76-2.91,1.49-.56,7.62-2.96,14.21-5.62,3.48-1.41,6.35-2.58,8.25-3.37,2.56-23.75,5.11-47.51,7.67-71.27-10.33-16.2-29.89-23.82-47.34-19Z"/>
    <path class="cls-27" d="m2362.24,1146.19l-7.52,460.84c.59,136.37,1.17,272.74,1.76,409.11,5.4,3.84,14.72,9.34,27.65,11.89,27.37,5.39,49.43-6.68,54.39-9.55,11.61-61.87,22.16-126.29,31.28-193.14,12.21-89.46,20.78-175.36,26.48-257.23l82.1-415.71s-124.71-292.92-216.14-6.22Z"/>
    <path class="cls-24" d="m2445.42,1066.15c-8.17,7.28-20.36,23.17-17.64,58.88l30.02,111.12,25.12,21.61,40.51,343.76,26.29,467.95s66.86,15.32,94.35,0c0,0,48.62-344.17,14.27-468.81,15.93-158.33,31.87-316.66,47.8-474.98-115.76-74.38-221.69-94.31-260.72-59.52Z"/>
    <g class="cls-61">
      <path class="cls-49" d="m2400.01,1122.05s-62.62-23.69-2.42,45.2l29.79-5.83s89.64,26.82,108.56,18.29c0,0,23.57,184.55,147.97,166.73l6.53-64.85-123.68-126.03-166.75-33.51Z"/>
    </g>
    <path class="cls-28" d="m2423.53,514.77l-58.87,640.57c40.35-13.26,58.87-12.02,58.87-12.02,12.06,6.17,31.45,14.23,56.5,17.12,25.56,2.94,46.56-.72,59.73-4.1,21.38,3.42,49.03,5.81,81.06,3.45,32.65-2.41,60.14-9.04,81.06-15.72-7.21-52.36-14.41-104.72-21.62-157.08l44.52-459.1c-151.47-90.48-301.26-13.12-301.26-13.12Z"/>
    <path class="cls-54" d="m2519.04,412.16l1.19,50.81s-20.18,60.97,36.75,54.28,68.45-75.84,68.45-75.84c.72-22.31,32.91-81.57,32.91-81.57-62.21-75.63-139.3,52.32-139.3,52.32Z"/>
    <path class="cls-25" d="m2609.58,335.93c-17.42,1.26-32.27,13.71-61.21,39.27-12.24,10.81-21.9,20.5-28.62,27.55.64,12.56,1.28,25.12,1.92,37.67,22.92-5.47,55.83-16.45,89.98-39.93,19.71-13.54,35.08-27.98,46.69-40.66,0,0-6.24-26.98-48.76-23.91Z"/>
    <path class="cls-54" d="m2667.22,298.65s92.95-235.71-158.52-78.07c0,0-59.09,194.81,20.9,192.58,79.98-2.23,119.61-52.05,119.61-52.05,3.77-.26,36.8-3.03,48.28-27.51,1.67-3.57,7.37-15.72,1.71-25.53-5.16-8.94-18.08-13.05-31.97-9.42Z"/>
    <path class="cls-25" d="m2620.14,161.84c-7.21,0-81.66,4.44-81.66,4.44l-18.73,9.44-16.15,63.5s2.7,13.33,50.25-6c0,0-3.36,51.06,95.11,20.32,0,0-13.45,41.64,18.25,45.11,31.7,3.47,17.86-103.6,17.86-103.6,0,0-57.73-33.21-64.94-33.21Z"/>
    <g class="cls-59">
      <path class="cls-6" d="m2519.75,511.68c-4-10.04-8.01-20.08-12.01-30.11-4.87,18.63-9.75,37.25-14.62,55.88h12.52s59.14,3.38,70.37,22.27c11.23,18.89,13.03,34.45,13.03,34.45l34.12-36.81,32.54-75.79-105.98,36.6-29.97-6.49Z"/>
    </g>
    <g>
      <path class="cls-4" d="m2566.21,213.37c.29-.32.57-.64.85-.97-.3.31-.58.64-.85.97Z"/>
      <path class="cls-4" d="m2737.12,187.12c0-37.18-14.41-54.28-40.35-57.25-25.94-2.97-55.48-11.15-102.1-29.74s-36.25,14.13-36.25,14.13c-5.1-4.23-16.09-12.13-31.71-14.13-7.65-.98-32.21-4.13-42.66,12.75-7.61,12.29-5.11,30.95,6.63,45.25-1.78-.59-7.14-2.11-12.64.44-6.83,3.17-11.08,11.32-10.42,20.38,2.09,23.98,18.07,44.31,40.18,51.19,20.84,6.48,43.6-.09,58.4-16.76.27-.33.55-.66.85-.97-.28.33-.57.65-.85.97-6.8,8.33-3.47,22.08-3.47,22.08,10.77,40,97.28,4.46,97.28,4.46-5.76,40.9,7.21,58.74,7.21,58.74,35.31-8.18,34.42,20.08,34.42,20.08,0,0,26.1-10.41,54.21-64.26,28.1-53.85-18.74-67.34-18.74-67.34Z"/>
    </g>
    <path class="cls-17" d="m2514.38,519.36v68.77c.81,6.1,5.31,10.93,10.97,11.91,5.03.87,10.18-1.43,13.17-5.89.76-23.75,1.53-47.5,2.29-71.26-2.98-1.72-8.45-4.32-15.68-4.69-4.4-.23-8.09.44-10.75,1.15Z"/>
    <path class="cls-4" d="m2540.81,522.9s-15.32,42.37-17.24,52.17c-1.92,9.8,14.95,19.09,14.95,19.09l37.49-67.37c-19.19-11.24-35.2-3.89-35.2-3.89Z"/>
    <path class="cls-4" d="m2510.99,597.07l-70.02,428.65,32.79,39.33,45.4-31.23,25.57-428.79s-26.16-17.67-33.73-7.96Z"/>
    <path class="cls-3" d="m2761.62,548.85c-14.42-10.95-54.88-36.08-110.25-67.29-35.55,86.85-70.54,199.85-85.14,334.67-5.33,49.19-7.31,95.47-7.09,138.23,0,0-10.81,200.76,0,281.06,10.81,80.3,170.77,122.69,181.58,69.15,10.81-53.54-29.54-393.99-29.54-393.99,39.56-232.1,56.2-315.1,61.47-326.68.63-1.39,3.92-7.94,2.64-15.79-1.57-9.63-9.17-15.95-13.67-19.37Z"/>
    <path class="cls-48" d="m2561.3,941.07l-3.39,35.84c54.46,23.43,61.76,24.39,61.76,24.39,21.25,2.78,52.25-6.94,95.25-61.45l-2.97-25.99-150.64,27.22Z"/>
    <path class="cls-39" d="m2655.69,481.56s-77.61,187.68-85.14,334.67l100.02-190.42-12.23-41.64,56.58-66.01s-36.16-21.73-59.22-36.6Z"/>
    <path class="cls-3" d="m2480.59,489.74c-30.41,9.68-68.62,34.12-88.76,47.7-19.89,135.29-39.79,270.58-59.68,405.87l-19.82,304.11c6.84,60.97,76.75,7.44,76.75,7.44,0,0,10.09-49.07,14.19-231.66,4.1-182.58,94.5-502.66,94.5-502.66,1.08-2.51,9.74-23.2,1.99-30.55-4.65-4.41-13.2-2.15-19.16-.25Z"/>
    <path class="cls-39" d="m2437.02,509.52c2.87,20.37,5.73,40.73,8.6,61.1l-32.35,27.91c4.86,74.21,9.71,148.41,14.57,222.62,15.76-72.92,31.81-145.76,48.13-218.53,8.7-38.79,17.48-77.57,26.35-116.34-8.78.97-19.58,2.94-31.5,6.96-14.11,4.75-25.43,10.89-33.79,16.28Z"/>
    <g class="cls-1">
      <path class="cls-48" d="m2655.45,664.78c-5.73,12.91-10.43,34.25-29.95,51.91-12.19,11.02-22.09,13.58-43.07,33.38-9.67,9.13,148.27-7.65,148.27-7.65l38.91-174.19c-72.24,30.44-101.25,67.47-114.16,96.56Z"/>
    </g>
    <path class="cls-3" d="m2645.14,724.52l-29.25,68.1s-10.24-2.14-23.4,0c-13.16,2.14-19.44-18.82-19.44-18.82l-111.07-23.63-78.6,84.73s181,170.71,258.83,144.25c0,0,41.44-15.28,72.39-73.52,30.94-58.23,84.08-116.34,60.69-337.42,0,0-115.52,57.81-130.15,156.3Z"/>
    <path class="cls-3" d="m2587.54,735.87c-73.93,23.79-147.85,47.58-221.78,71.36-4.98,3-9.95,5.99-14.92,8.99,13.66-92.93,27.33-185.86,40.99-278.79-20.95,36.33-183.05,321.28-113.9,385.79,40.1,37.41,150.93-6,182.74-18.18,67.7-25.91,133.98-85.83,133.98-85.83,0,0-13.3-63.25-7.12-83.34Z"/>
    <path class="cls-48" d="m2338.64,806.12c-11.77,7.45-25.46,7.33-38.91,23.42-9.62,11.51-13.42,24.49-15.13,33.46,5.76-10.25,20.22-32.57,47.74-46.01,12.71-6.21,24.54-8.72,33.42-9.76,7.71-83.3,15.43-166.59,23.14-249.89-4.2,14.73-10.74,39.77-15.71,71.43-14.92,94.82-1.32,156.31-34.55,177.35Z"/>
    <path class="cls-48" d="m2669.38,813.19l-32.97-29.1-38.36,10.14-5.86,2.82,2.48,22.17c-50.94,47.67-129.58,84.09-129.58,84.09l10.5,7.83s102.28-68.21,128.94-85.31c26.66-17.1,18.73-13.38,54.76,3.78,36.03,17.16,47.71-6.86,47.71-6.86-7.9,6.51-37.62-9.56-37.62-9.56Z"/>
    <path class="cls-54" d="m2360.61,686.67s-47.84-8.23-60.8-11.31c-12.96-3.09-5.82,17.49,5.06,20.57,10.88,3.09,19.9,6.09,22.37,14.87s-15.31,30.73-22.37,26.96c-7.06-3.77-56.9-26.96-56.9-26.96l-19.43-27.22s-8.46,12.34,0,31.89c8.46,19.54,22.42,45.26,22.42,45.26l12.96,15.43,101.1,6.5s40.77,12.48,34.12-36.09l-38.54-59.89Z"/>
    <path class="cls-48" d="m2416.3,791.39c30.82-.23,93.65-31.01,93.65-31.01l-47.97-10.21-45.68,41.22Z"/>
    <path class="cls-54" d="m2658.33,719.53c-13.21,1.52-70.79,24.38-70.79,24.38-45.09,45.87,7.62,53.76,7.62,53.76,19.16,18.82,47.57,0,47.57,0,0,0,28.81,24.44,41.78,31.16,12.97,6.72,21.62-6.72,30.4-12.6,8.78-5.88,0-42.36,0-42.36,0,0-43.37-55.86-56.58-54.34Z"/>
    <path class="cls-39" d="m2342.97,787.91c7.6,6.44,15.2,12.89,22.8,19.33,17.04-6.29,31.16-10.53,41-13.27,17.6-4.89,26.28-6.28,36.71-13.51,10.1-7.01,16.38-15.73,20.1-21.99l-54.31-33.02c-33.87,7.44-66.29,62.46-66.29,62.46Z"/>
    <path class="cls-39" d="m2587.54,735.87c1.86-6.71-84.57,27.21-84.57,27.21,0,0,8.48,98.56,35.95,99.31l55.74-43.17s-8.98-76.64-7.12-83.34Z"/>
    <g class="cls-59">
      <path class="cls-6" d="m2413.27,1050.12s20.39,84.76,135.55,70.27c0,0,10.68-5.58-4.1-26.77-14.77-21.19-52.5,45.73-131.46-43.5Z"/>
    </g>
    <path class="cls-28" d="m2519.77,443.6c-3.82,1.26-9.15,3.47-14.68,7.48-7.05,5.11-14.76,13.39-24.5,38.66-4.79,12.44-10.36,29.75-14.05,51.3,41.07-40.52,78.18-17.85,78.18-17.85-4.11-14.71-8.6-29.79-13.5-45.21-3.74-11.77-7.57-23.24-11.45-34.39Z"/>
    <path class="cls-28" d="m2626.55,433.63c-61.81,39.31-81.82,89.57-81.82,89.57,53.32-7.93,49.94,50.07,49.94,50.07,31.68-25.78,61.03-91.7,61.03-91.7,0,0,2.4,5.95-5.76-21.81-8.17-27.76-23.38-26.12-23.38-26.12Z"/>
    <path class="cls-39" d="m2514.37,563.29c-3.34,13.08-6.69,26.17-10.03,39.25,5.94,2.51,14.76,5.38,25.7,5.98,7.14.39,13.35-.28,18.24-1.2,1.1-12.22,2.2-24.43,3.3-36.65-13.54-19.15-37.21-7.39-37.21-7.39Z"/>
    <path class="cls-28" d="m2375.26,784.09c-3.91,0-7.07,3.27-7.07,7.3s3.17,7.3,7.07,7.3,7.08-3.27,7.08-7.3-3.17-7.3-7.08-7.3Z"/>
    <path class="cls-25" d="m2671.55,314.51l-13.21,26.27s23.3-1.98,26.18-13.14-5.76-14.62-12.97-13.14Z"/>
    <path class="cls-4" d="m2519.86,267.39c-4.41-.86-9.31,5.71-10.95,14.68s.61,16.93,5.03,17.78c4.41.86,9.31-5.71,10.95-14.68s-.61-16.93-5.03-17.78Z"/>
    <path class="cls-4" d="m2587.86,288.17c-4.41-.86-9.31,5.71-10.95,14.68-1.64,8.96.61,16.93,5.03,17.78,4.41.86,9.31-5.71,10.95-14.68,1.64-8.96-.61-16.93-5.03-17.78Z"/>
    <path class="cls-34" d="m2510.62,331.86c.96,5.45,16.33,5.95,21.62,0s8.17-33.13,8.17-33.13c0,0-30.74,27.68-29.78,33.13Z"/>
    <path class="cls-34" d="m2571.66,352.68h-54.91c15.26,61.47,54.91,0,54.91,0Z"/>
    <path class="cls-4" d="m2611.17,275.56c-7.85-4.26-14.71-5.82-15-5.89l-.65,2.93c.27.06,26.69,6.2,33.53,26.61l2.84-.95c-3.07-9.15-10.23-17-20.72-22.69Z"/>
    <path class="cls-4" d="m2510.26,254.81l.67,2.92c11.29-2.6,29.07,0,29.25.02l.44-2.97c-.75-.11-18.51-2.71-30.36.02Z"/>
    <ellipse class="cls-38" cx="2606.58" cy="340.78" rx="27.82" ry="28.71"/>
    <path class="cls-38" d="m2495.89,281.4c-3.15,17.2-5.78,36.19-6.53,54.28,12.91-2.49,22.69-14.17,22.69-28.22,0-11.56-6.62-21.51-16.16-26.07Z"/>
    <path class="cls-39" d="m2613.25,1128.56c-1.14,7.7-2.29,15.4-3.43,23.1,4.53,11.33,11.06,24.48,20.56,37.94,23.63,33.47,53.06,50.99,70.71,59.53l5.76-23.62c-13.28-6.82-30.3-17.38-47.46-33.54-24.2-22.81-38.29-47.01-46.15-63.41Z"/>
    <path class="cls-39" d="m2327.83,1188.64v19.04c6.68-5.47,15.71-14.28,23.33-27.29,4.33-7.4,7.18-14.42,9.1-20.33-.24-4.71-.48-9.42-.72-14.13-6.12,21.56-31.71,42.72-31.71,42.72Z"/>
    <path class="cls-48" d="m2331.75,949.53c7.04,6.96,78.03-11.53,78.03-11.53l1.94-15.63c-18.81,6.19-78.78,15.63-78.78,15.63l-1.19,11.53Z"/>
    <g>
      <rect class="cls-28" x="2627.05" y="1566.01" width="12" height="3" transform="translate(803.03 4025.37) rotate(-84.1)"/>
      <rect class="cls-28" x="2629.52" y="1542.14" width="12" height="3" transform="translate(828.99 4006.41) rotate(-84.1)"/>
      <rect class="cls-28" x="2617.33" y="1996.52" width="12.03" height="3" transform="translate(375.46 4410.69) rotate(-84.32)"/>
      <rect class="cls-28" x="2614.94" y="2020.46" width="12.03" height="3" transform="translate(351.99 4432.25) rotate(-84.38)"/>
      <rect class="cls-28" x="2612.57" y="2044.41" width="12.04" height="3" transform="translate(326.01 4451.5) rotate(-84.38)"/>
      <path class="cls-28" d="m2615.34,2068.73l1.12-1.01,1.49.13c0-.1.14-1.42.37-3.8l-2.99-.29q-.44,4.48,0,4.97Z"/>
      <polygon class="cls-28" points="2631.55 1597.13 2631.52 1596.94 2632.69 1585.57 2629.71 1585.26 2628.5 1597.02 2628.59 1597.59 2631.55 1597.13"/>
      <rect class="cls-28" x="2631.98" y="1518.27" width="12" height="3" transform="translate(854.95 3987.44) rotate(-84.1)"/>
      <path class="cls-28" d="m2643.45,1692.64c-.37-4.03-.76-8.03-1.17-11.97l-2.98.3c.4,3.93.79,7.92,1.16,11.94l2.99-.28Z"/>
      <path class="cls-28" d="m2641.51,1704.87c.34,4.06.65,8.09.93,11.96l2.99-.21c-.28-3.88-.59-7.92-.93-11.99l-2.99.25Z"/>
      <rect class="cls-28" x="2636.92" y="1470.52" width="12" height="3" transform="translate(906.87 3949.52) rotate(-84.1)"/>
      <path class="cls-28" d="m2646.84,1740.65c-.17-3.89-.38-7.94-.62-12.02l-2.99.18c.24,4.07.45,8.1.62,11.98l3-.13Z"/>
      <path class="cls-28" d="m2641.01,1668.7c-.45-4.08-.9-8.07-1.36-11.95l-2.98.35c.46,3.87.91,7.86,1.36,11.93l2.98-.33Z"/>
      <path class="cls-28" d="m2630.39,1609.49c.5,3.38,1.07,7.38,1.7,11.89l2.97-.41c-.63-4.52-1.2-8.53-1.7-11.91l-2.97.44Z"/>
      <path class="cls-28" d="m2638.2,1644.81c-.52-4.17-1.04-8.16-1.53-11.93l-2.97.39c.5,3.76,1.01,7.74,1.53,11.91l2.98-.37Z"/>
      <rect class="cls-28" x="2634.45" y="1494.39" width="12" height="3" transform="translate(880.91 3968.48) rotate(-84.1)"/>
      <rect class="cls-28" x="2641.85" y="1422.77" width="12" height="3" transform="translate(958.79 3911.59) rotate(-84.1)"/>
      <path class="cls-28" d="m2643.77,1788.62l2.99.2c.25-3.77.42-7.82.53-12.05l-3-.08c-.11,4.19-.29,8.2-.53,11.93Z"/>
      <rect class="cls-28" x="2639.38" y="1446.65" width="12" height="3" transform="translate(932.83 3930.55) rotate(-84.1)"/>
      <path class="cls-28" d="m2644.26,1752.76c.1,4.13.16,8.16.17,11.98h3c-.01-3.85-.07-7.9-.18-12.06l-3,.08Z"/>
      <rect class="cls-28" x="2644.32" y="1398.9" width="12" height="3" transform="translate(984.75 3892.62) rotate(-84.1)"/>
      <rect class="cls-28" x="2646.78" y="1375.03" width="12" height="3" transform="translate(1010.71 3873.66) rotate(-84.1)"/>
      <rect class="cls-28" x="2651.72" y="1327.28" width="12" height="3" transform="translate(1062.62 3835.73) rotate(-84.1)"/>
      <rect class="cls-28" x="2649.25" y="1351.15" width="12" height="3" transform="translate(1036.66 3854.7) rotate(-84.1)"/>
      <rect class="cls-28" x="2627.04" y="1900.81" width="12.02" height="3" transform="translate(470.01 4325.73) rotate(-84.1)"/>
      <path class="cls-28" d="m2641.25,1812.45l2.98.35c.51-4.36.99-8.36,1.43-11.95l-2.98-.37c-.44,3.59-.92,7.6-1.43,11.96Z"/>
      <rect class="cls-28" x="2619.72" y="1972.58" width="12.02" height="3" transform="translate(399.08 4389.35) rotate(-84.26)"/>
      <rect class="cls-28" x="2622.14" y="1948.66" width="12.02" height="3" transform="translate(423.5 4368.79) rotate(-84.23)"/>
      <rect class="cls-28" x="2624.57" y="1924.73" width="12.04" height="3" transform="translate(447.14 4347.57) rotate(-84.17)"/>
      <rect class="cls-28" x="2629.53" y="1876.89" width="12.02" height="3" transform="translate(492.89 4303.98) rotate(-84.02)"/>
      <path class="cls-28" d="m2638.54,1836.37l2.98.33c.46-4.15.9-8.15,1.33-11.95l-2.98-.34c-.43,3.81-.88,7.81-1.33,11.96Z"/>
      <path class="cls-28" d="m2635.95,1860.29l2.98.32c.44-4.08.87-8.07,1.29-11.96l-2.98-.32c-.42,3.89-.85,7.88-1.29,11.96Z"/>
    </g>
    <path class="cls-27" d="m2527.71,1578.41c18.44,96.94,96.73,49.13,96.73,49.13-57.06,7.29-96.73-49.13-96.73-49.13Z"/>
    <path class="cls-49" d="m2359.57,1547.95c18.44,96.94,96.73,49.13,96.73,49.13-57.06,7.29-96.73-49.13-96.73-49.13Z"/>
  </g>
  <g>
    <ellipse class="cls-46" cx="2959.93" cy="2135.45" rx="439.53" ry="143.3"/>
    <path class="cls-11" d="m3125.73,1346.49s-102.68,323.48-337.22,398.07c-234.54,74.59-206.48,383.1-206.48,383.1,583.63,137.04,955.5,72.92,890.65-360.75-64.85-433.67-346.95-420.42-346.95-420.42Z"/>
    <path class="cls-34" d="m3414.32,1561.92c-20.8-42.82-42.22-86.89-83.4-122.18-9.91-8.49-51.68-42.79-51.68-42.8,0,0,80.71,165.83,57.26,327.93-5.22,36.06-17.99,116.77-81.2,182.77-67.3,70.27-154.11,84.6-197.66,91.72-91.41,14.94-105.12-17.36-233.46-5.83-134,12.03-198.57,54.38-216.17,86.03-2.42,4.35-25.97,48.1-25.97,48.1,0,0,271,65.62,410.76,63.25,89.44-1.52,342.53,5.62,442.69-152.4,66.93-105.6,41.78-246.08,27.38-326.5-12.88-71.92-36.38-125.05-48.54-150.08Z"/>
    <path class="cls-35" d="m2281.84,2226.34l-73.03,30.13c-21.24,5.24-42.48,10.49-63.72,15.73-1.73,1.92-10.7,12.25-9.78,27.52.78,12.87,8.24,23.63,17.29,29.16,5.04,3.08,11.65,5.19,36.17,2.64,11.75-1.22,28.05-3.57,47.42-8.47,4.26-1.59,10.82-3.4,18.87-5.29,10.09-2.37,21.51-4.19,26.78-2,10.55,4.37,49.46-36.86,49.46-36.86,0,0-20.01-64.72-49.46-52.57Z"/>
    <path class="cls-50" d="m2416.56,2261.75s-34.81,28.2-40.58,30.17c-5.76,1.97-69.17,20.93-69.17,20.93,0,0-24.5,46.66,24.5,51.03,49,4.37,83.59-27.7,114.57-27.7,30.98,0,39.63-3.51,39.63-3.51l5.65-70.92s-70.04-51.1-74.6,0Z"/>
    <path class="cls-33" d="m2940.9,1779.72c-34.59-31.16-306.27,23.73-306.27,23.73l-134.7,26.91-92,429.95s74.72,14.14,92-3.84c0,0,89.34-230.87,97.98-315.44l382.62-15.27s-5.04-114.88-39.63-146.04Z"/>
    <path class="cls-10" d="m3003.59,1830.36h-215.09l-147.46,22.38-357.21,356.59c-15.04,69.99,60.05,82.6,60.05,82.6l47.97-28.93c255.1-162.4,368.91-304.46,368.91-304.46,0,0,36.03,5.83,196.82,45.2s170.71-78.96,170.71-78.96c-9.33-54.9-124.69-94.41-124.69-94.41Z"/>
    <path class="cls-35" d="m2918.21,1830.36s37.83,0,53.48,22.46c15.65,22.46,165.93,87.49,174.58,69.99,8.65-17.5,21.83-106.01,21.83-106.01-79.77-90.7-249.89,13.57-249.89,13.57Z"/>
    <path class="cls-2" d="m3289.66,1640.66c1.44-20.41-25.94-48.12-25.94-80.2s-15.85-109.36-30.26-137.06c-14.41-27.7-107.72-76.92-107.72-76.92l-120.32-13.52s-103.41,20.45-145.21,79.14c-41.79,58.69-122.5,314.59-122.5,314.59,0,0,128.26,88.95,276.7,104.98,148.44,16.04,263.73-61.24,275.31-84.57,11.58-23.33,0-62.7,0-62.7,0,0-1.5-23.33-.06-43.74Z"/>
    <path class="cls-54" d="m3017.28,1265.92l-13.69,77.28,12.25,22.6c44.67,24.06,92.95-48.12,92.95-48.12v-73.63c-40.35-56.87-91.51,21.87-91.51,21.87Z"/>
    <path class="cls-25" d="m3081.43,1224.98c-22.55-4.85-49.25,10.96-62.53,40.39-3.58,20.43-7.17,40.87-10.75,61.3,18.36-6.3,48.58-19.69,75.42-48.36,11.13-11.89,19.27-23.83,25.22-34.27-4.12-5.6-13.22-16.03-27.37-19.07Z"/>
    <path class="cls-54" d="m3152.17,1193.16c-7.55-.96-13.11,2.54-14.55,3.51,4.56-12.64,9.13-25.27,13.69-37.91l-99.44-80.93s-74.22,31.35-69.9,59.05c0,0-34.59,126.86,23.06,143.62,0,0,47.56,10.94,103.76-36.45,23,5.85,44.29.46,53.32-13.45,5.14-7.92,9.32-23.26,2.17-31.53-4.12-4.76-10.76-5.74-12.11-5.92Z"/>
    <path class="cls-25" d="m3073.97,1077.83l-77.3,6.32-17.03,62.43s43.9-38.13,58.31-31.81c0,0-8.85,52.01,57.3,39.37,0,0,4.19,63.19,42.38,42.53,38.19-20.66-63.65-118.84-63.65-118.84Z"/>
    <path class="cls-26" d="m3192.38,1073.45c-17.46-20.94-40.41-48.45-74.38-50.72-19.53-1.3-37.09,6.11-48.12,10.77-11.91,5.03-21.35,10.99-28.25,16.03,14.99-38.29,60.41-34.44,60.41-34.44,0,0-11.89-8.75-39.99,0-18.07,5.63-22.88,24.06-24.01,36.51l-25.08.31s-83.59,25.92-30.98,84.97c0,0,18.73-31.74,59.45-43.94,0,0,10.81,76.96,57.28,55.89,0,0,11.89,60.95,38.91,47.83,0,0,13.67-8.53,23.59-.26,9.92,8.27,10.71,32.85-11.12,44.8,0,0-13.19,9.4-41.29,2.84v7.55c10.71.31,53.6.3,86.47-31.61,6.82-6.62,24.9-24.17,29.54-52.49,3.49-21.27-2.29-38.5-5.76-48.85-7.28-21.7-18.62-35.56-26.66-45.2Z"/>
    <path class="cls-24" d="m3030.28,1370.72c-11.98-10.4-22.9,0-22.9,0l.78,48.8c2.88,6.32,28.34,4.86,28.34,4.86l27.12-38.64c2.14-33.29-33.33-15.02-33.33-15.02Z"/>
    <path class="cls-24" d="m2980.54,1546.58c-12.25,50.27-62.33,132.36-62.33,132.36,13.12,15.32,26.25,30.64,39.37,45.96,29.64-23.6,44.63-47.66,52.5-63.46,4.94-9.92,16.49-35.51,22.7-135.6,1.91-30.85,2.54-56.27,2.77-73.27-10.65-1.78-21.3-3.56-31.95-5.35,0,0-10.81,49.09-23.06,99.36Z"/>
    <g>
      <path class="cls-35" d="m3127.89,1675.66c-10.45,13.12-170.31,32.08-170.31,32.08v17.17s94.29-8.42,117.89-12.79c23.6-4.37,75.84-27.7,75.84-27.7-5.76-8.75,1.44-26.25,1.44-26.25l-8.65-100.61c-8.12-94.45,38.38-128.8,44.1-132.65-88.6,56.94-49.89,237.67-60.31,250.76Z"/>
      <path class="cls-35" d="m3188.2,1424.89c.19-.12.38-.25.58-.37,0,0-.2.12-.58.37Z"/>
    </g>
    <g>
      <path class="cls-35" d="m3151.31,1684.4l-42.51,17.4c106.86-27.63,145.59-6.66,155.2.71l-20.46-18.11c-50.76-24.9-92.23,0-92.23,0Z"/>
      <path class="cls-35" d="m3264,1702.52l2.6,2.3s-.78-.91-2.6-2.3Z"/>
    </g>
    <path class="cls-35" d="m2891.19,1428.32c-28.1,37-19.46,146.39-19.46,146.39,0,0,32.42,17.83,19.46-24.84-12.97-42.67,0-121.55,0-121.55Z"/>
    <path class="cls-32" d="m2569.09,1520.37c18.45,95.04,36.9,190.08,55.34,285.12,122.78,7.76,245.57,15.51,368.35,23.27-21.62-92.96-43.23-185.92-64.85-278.88-119.61-9.84-239.23-19.67-358.84-29.51Z"/>
    <path class="cls-36" d="m2801.11,1748.56c-81.33,57.83-176.83,48.26-176.68,56.93.13,7.76,75.91,16.52,368.35,23.27-21.62-92.96-43.23-185.92-64.85-278.88-4.85,24.24-28.52,128.79-126.82,198.69Z"/>
    <ellipse class="cls-28" cx="2752.82" cy="1596.98" rx="10.79" ry="10.92"/>
    <path class="cls-35" d="m3117.08,1297.07s-64.85,34.11-78.9,59.26l-10.81,19.68-4.32,6.56s23.06-12.03,33.15-5.47,18.73,34.99,18.73,34.99l50.8-65.62s8.65-36.5-8.65-49.42Z"/>
    <path class="cls-35" d="m3006.48,1303.11c-10.81-2.92-17.29,18.96-17.29,18.96l-8.65,14.72v67.67s21.67-49.96,49.75-33.73c0,0-13-64.69-23.81-67.61Z"/>
    <path class="cls-14" d="m3003.59,1409.31v37.91c5.52,6.8,31.95,5.35,31.95,5.35l12.48-36.94c-21.62-21.87-44.43-6.32-44.43-6.32Z"/>
    <path class="cls-25" d="m3138.34,1206.87l-17.29,21.14c3.37.57,8.57.95,14.41-.73,10.66-3.07,20.63-12.21,19.04-16.76-.45-1.29-2.54-4.2-16.16-3.66Z"/>
    <g>
      <path class="cls-51" d="m2999.06,1159.32c-3.16-.74-6.79,3.37-8.11,9.17-1.32,5.8.16,11.1,3.32,11.84,3.16.74,6.79-3.37,8.11-9.17,1.32-5.8-.16-11.1-3.32-11.84Z"/>
      <path class="cls-51" d="m2999.4,1157.85c-1.35-.31-2.79-.03-4.15.82-2.63,1.64-4.78,5.18-5.76,9.48-1.53,6.71.42,12.69,4.44,13.63.36.08.72.12,1.08.12,1.02,0,2.06-.32,3.07-.95,2.63-1.64,4.78-5.18,5.76-9.47,1.53-6.71-.42-12.69-4.44-13.63Zm1.51,12.97c-.78,3.42-2.52,6.41-4.42,7.6-.68.43-1.32.58-1.88.45-2.01-.47-3.41-4.71-2.19-10.04.78-3.42,2.52-6.41,4.42-7.6.53-.33,1.02-.49,1.48-.49.14,0,.27.02.41.05,2.01.47,3.41,4.71,2.19,10.04Z"/>
    </g>
    <g>
      <path class="cls-51" d="m3063.94,1179.9c-3.77-.88-7.93,3.27-9.3,9.28-1.37,6,.58,11.58,4.34,12.46,3.77.88,7.93-3.27,9.3-9.28,1.37-6-.58-11.58-4.34-12.46Z"/>
      <path class="cls-51" d="m3064.28,1178.43c-1.68-.39-3.46-.05-5.14,1-2.79,1.74-5.02,5.26-5.96,9.4-1.58,6.91.82,13.17,5.46,14.26.45.1.91.16,1.37.16,1.26,0,2.54-.39,3.77-1.16,2.79-1.74,5.02-5.26,5.96-9.4,1.58-6.91-.82-13.17-5.46-14.26Zm2.54,13.59c-.76,3.33-2.53,6.22-4.63,7.53-.69.43-1.74.89-2.87.62-2.91-.68-4.38-5.56-3.22-10.67.76-3.33,2.53-6.22,4.63-7.53.55-.34,1.33-.7,2.19-.7.22,0,.45.02.68.08,2.91.68,4.38,5.56,3.22,10.67Z"/>
    </g>
    <path class="cls-51" d="m3003.57,1200.16c-8.82,1.28-1.75,12.46,0,13.92,1.75,1.46,19.48-26.25,19.48-26.25,0,0-10.66,11.05-19.48,12.33Z"/>
    <g>
      <path class="cls-51" d="m2996.8,1232.79c.65,1.7,7.2,18.15,18.24,18.84,4.4.28,8.4-2.02,15.69-6.2,5.43-3.12,9.61-6.32,12.49-8.75-10.29-1.03-20.75-1.97-31.37-2.79-5.05-.39-10.07-.76-15.05-1.09Z"/>
      <path class="cls-51" d="m3011.97,1232.39c-5.01-.39-10.08-.76-15.06-1.09l-2.34-.16.84,2.19c1.22,3.18,7.91,19.07,19.55,19.8.28.02.55.03.83.03,4.51,0,8.6-2.35,15.7-6.43,4.48-2.57,8.75-5.57,12.71-8.9l2.71-2.29-3.53-.35c-10.4-1.04-20.96-1.98-31.41-2.8Zm18.02,11.74c-7.03,4.03-10.89,6.26-14.85,6.01-8.17-.51-13.83-10.9-16-15.68,4.18.29,8.41.6,12.6.93,9.2.72,18.5,1.53,27.7,2.43-3,2.32-6.17,4.43-9.44,6.32Z"/>
    </g>
    <g>
      <path class="cls-51" d="m2992.79,1148.3h18.35c-12.87-3.89-18.35,0-18.35,0Z"/>
      <path class="cls-51" d="m2991.92,1147.08l1.72,2.46c.05-.03,5.22-3.38,17.07.2l.87-2.87c-13.42-4.05-19.41.04-19.66.21Z"/>
    </g>
    <g>
      <path class="cls-51" d="m3061.46,1161.43l17.31,11.67c-7.21-10.21-17.31-11.67-17.31-11.67Z"/>
      <path class="cls-51" d="m3061.67,1159.94l-.43,2.97c.09.01,9.59,1.53,16.3,11.05l2.45-1.73c-7.49-10.61-17.88-12.22-18.32-12.28Z"/>
    </g>
  </g>
</svg>